<svg width="109" height="190" viewBox="0 0 109 190" fill="none" xmlns="http://www.w3.org/2000/svg">
<g clip-path="url(#clip0_7_7514)">
<path d="M79.2107 5.66085C79.2107 4.42494 79.7016 3.23965 80.5756 2.36573C81.4495 1.49181 82.6348 1.00085 83.8707 1.00085C84.4826 1.00085 85.0886 1.12139 85.654 1.35558C86.2193 1.58976 86.7331 1.93301 87.1658 2.36573C87.5985 2.79845 87.9418 3.31217 88.1759 3.87755C88.4101 4.44293 88.5307 5.04889 88.5307 5.66085C88.5307 6.27281 88.4101 6.87878 88.1759 7.44415C87.9418 8.00953 87.5985 8.52325 87.1658 8.95597C86.7331 9.38869 86.2193 9.73195 85.654 9.96613C85.0886 10.2003 84.4826 10.3209 83.8707 10.3209C83.2587 10.3209 82.6527 10.2003 82.0874 9.96613C81.522 9.73195 81.0083 9.38869 80.5756 8.95597C80.1428 8.52325 79.7996 8.00953 79.5654 7.44415C79.3312 6.87878 79.2107 6.27281 79.2107 5.66085Z" stroke="#171717" stroke-width="0.5"/>
<path d="M99.8202 5.75111C99.8202 4.56029 100.293 3.41824 101.135 2.5762C101.977 1.73416 103.119 1.26111 104.31 1.26111C105.501 1.26111 106.643 1.73416 107.485 2.5762C108.327 3.41824 108.8 4.56029 108.8 5.75111C108.8 6.34075 108.684 6.92461 108.458 7.46936C108.233 8.01411 107.902 8.50908 107.485 8.92602C107.068 9.34295 106.573 9.67369 106.028 9.89933C105.484 10.125 104.9 10.2411 104.31 10.2411C103.721 10.2411 103.137 10.125 102.592 9.89933C102.047 9.67369 101.552 9.34295 101.135 8.92602C100.718 8.50908 100.388 8.01411 100.162 7.46936C99.9363 6.92461 99.8202 6.34075 99.8202 5.75111Z" stroke="#E0AC00" stroke-width="0.5"/>
<path d="M79.1399 25.3911C79.1399 24.1525 79.6319 22.9647 80.5077 22.0889C81.3835 21.2131 82.5713 20.7211 83.8099 20.7211C85.0485 20.7211 86.2363 21.2131 87.1121 22.0889C87.9879 22.9647 88.4799 24.1525 88.4799 25.3911C88.4799 26.0043 88.3591 26.6116 88.1244 27.1782C87.8897 27.7448 87.5457 28.2596 87.1121 28.6933C86.6784 29.1269 86.1636 29.4709 85.597 29.7056C85.0304 29.9403 84.4232 30.0611 83.8099 30.0611C83.1966 30.0611 82.5893 29.9403 82.0228 29.7056C81.4562 29.4709 80.9414 29.1269 80.5077 28.6933C80.0741 28.2596 79.7301 27.7448 79.4954 27.1782C79.2607 26.6116 79.1399 26.0043 79.1399 25.3911Z" stroke="#171717" stroke-width="0.5"/>
<path d="M99.8008 25.3907C99.8008 24.7958 99.9179 24.2068 100.146 23.6572C100.373 23.1076 100.707 22.6082 101.128 22.1875C101.548 21.7669 102.048 21.4332 102.597 21.2055C103.147 20.9779 103.736 20.8607 104.331 20.8607C104.926 20.8607 105.515 20.9779 106.064 21.2055C106.614 21.4332 107.113 21.7669 107.534 22.1875C107.955 22.6082 108.288 23.1076 108.516 23.6572C108.744 24.2068 108.861 24.7958 108.861 25.3907C108.861 26.5921 108.383 27.7444 107.534 28.5939C106.684 29.4434 105.532 29.9207 104.331 29.9207C103.129 29.9207 101.977 29.4434 101.128 28.5939C100.278 27.7444 99.8008 26.5921 99.8008 25.3907Z" stroke="#E0AC00" stroke-width="0.5"/>
<path d="M99.6804 45.261C99.6804 44.025 100.171 42.8398 101.045 41.9658C101.919 41.0919 103.104 40.601 104.34 40.601C105.576 40.601 106.762 41.0919 107.636 41.9658C108.509 42.8398 109 44.025 109 45.261C109 46.4969 108.509 47.6822 107.636 48.5561C106.762 49.43 105.576 49.921 104.34 49.921C103.104 49.921 101.919 49.43 101.045 48.5561C100.171 47.6822 99.6804 46.4969 99.6804 45.261Z" stroke="#171717" stroke-width="0.5"/>
<path d="M79.2307 45.2607C79.2307 44.0168 79.7249 42.8239 80.6044 41.9444C81.484 41.0648 82.6769 40.5707 83.9207 40.5707C85.1646 40.5707 86.3575 41.0648 87.2371 41.9444C88.1166 42.8239 88.6107 44.0168 88.6107 45.2607C88.6107 46.5045 88.1166 47.6975 87.2371 48.577C86.3575 49.4566 85.1646 49.9507 83.9207 49.9507C82.6769 49.9507 81.484 49.4566 80.6044 48.577C79.7249 47.6975 79.2307 46.5045 79.2307 45.2607Z" stroke="#171717" stroke-width="0.5"/>
<path d="M79.2107 5.66085C79.2107 6.27281 79.3312 6.87878 79.5654 7.44415C79.7996 8.00953 80.1428 8.52325 80.5756 8.95597C81.0083 9.38869 81.522 9.73195 82.0874 9.96613C82.6527 10.2003 83.2587 10.3209 83.8707 10.3209C84.4826 10.3209 85.0886 10.2003 85.654 9.96613C86.2193 9.73195 86.7331 9.38869 87.1658 8.95597C87.5985 8.52325 87.9418 8.00953 88.1759 7.44415C88.4101 6.87878 88.5307 6.27281 88.5307 5.66085C88.5307 5.04889 88.4101 4.44293 88.1759 3.87755C87.9418 3.31217 87.5985 2.79845 87.1658 2.36573C86.7331 1.93301 86.2193 1.58976 85.654 1.35558C85.0886 1.12139 84.4826 1.00085 83.8707 1.00085C82.6348 1.00085 81.4495 1.49181 80.5756 2.36573C79.7016 3.23965 79.2107 4.42494 79.2107 5.66085Z" fill="#171717"/>
<path d="M99.8202 5.75111C99.8202 6.34075 99.9363 6.92461 100.162 7.46936C100.388 8.01411 100.718 8.50908 101.135 8.92602C101.552 9.34295 102.047 9.67369 102.592 9.89933C103.137 10.125 103.721 10.2411 104.31 10.2411C104.9 10.2411 105.484 10.125 106.028 9.89933C106.573 9.67369 107.068 9.34295 107.485 8.92602C107.902 8.50908 108.233 8.01411 108.458 7.46936C108.684 6.92461 108.8 6.34075 108.8 5.75111C108.8 4.56029 108.327 3.41824 107.485 2.5762C106.643 1.73416 105.501 1.26111 104.31 1.26111C103.119 1.26111 101.977 1.73416 101.135 2.5762C100.293 3.41824 99.8202 4.56029 99.8202 5.75111Z" fill="#E0AC00"/>
<path d="M58 25.41C58 25.9891 58.1141 26.5626 58.3357 27.0976C58.5573 27.6327 58.8822 28.1188 59.2917 28.5283C59.7012 28.9378 60.1873 29.2627 60.7224 29.4843C61.2574 29.7059 61.8309 29.82 62.41 29.82C63.5796 29.82 64.7013 29.3554 65.5284 28.5283C66.3554 27.7013 66.82 26.5796 66.82 25.41C66.82 24.2404 66.3554 23.1187 65.5284 22.2917C64.7013 21.4646 63.5796 21 62.41 21C61.8309 21 61.2574 21.1141 60.7224 21.3357C60.1873 21.5573 59.7012 21.8822 59.2917 22.2917C58.8822 22.7012 58.5573 23.1873 58.3357 23.7224C58.1141 24.2574 58 24.8309 58 25.41Z" fill="#E0AC00"/>
<path d="M40 37.63C40 38.5927 40.3824 39.516 41.0632 40.1968C41.744 40.8776 42.6673 41.26 43.63 41.26C44.1067 41.26 44.5787 41.1661 45.0191 40.9837C45.4596 40.8013 45.8597 40.5339 46.1968 40.1968C46.5339 39.8597 46.8013 39.4596 46.9837 39.0191C47.1661 38.5787 47.26 38.1067 47.26 37.63C47.26 37.1533 47.1661 36.6813 46.9837 36.2409C46.8013 35.8004 46.5339 35.4003 46.1968 35.0632C45.8597 34.7261 45.4596 34.4587 45.0191 34.2763C44.5787 34.0939 44.1067 34 43.63 34C42.6673 34 41.744 34.3824 41.0632 35.0632C40.3824 35.744 40 36.6673 40 37.63Z" fill="#E0AC00"/>
<path d="M79.1399 25.3911C79.1399 26.0043 79.2607 26.6116 79.4954 27.1782C79.7301 27.7448 80.0741 28.2596 80.5077 28.6933C80.9414 29.1269 81.4562 29.4709 82.0228 29.7056C82.5893 29.9403 83.1966 30.0611 83.8099 30.0611C84.4232 30.0611 85.0304 29.9403 85.597 29.7056C86.1636 29.4709 86.6784 29.1269 87.1121 28.6933C87.5457 28.2596 87.8897 27.7448 88.1244 27.1782C88.3591 26.6116 88.4799 26.0043 88.4799 25.3911C88.4799 24.1525 87.9879 22.9647 87.1121 22.0889C86.2363 21.2131 85.0485 20.7211 83.8099 20.7211C82.5713 20.7211 81.3835 21.2131 80.5077 22.0889C79.6319 22.9647 79.1399 24.1525 79.1399 25.3911Z" fill="#171717"/>
<path d="M58 45.9753C58 47.1873 58.4815 48.3497 59.3385 49.2068C60.1956 50.0638 61.358 50.5453 62.57 50.5453C63.782 50.5453 64.9444 50.0638 65.8015 49.2068C66.6585 48.3497 67.14 47.1873 67.14 45.9753C67.14 44.7632 66.6585 43.6008 65.8015 42.7438C64.9444 41.8868 63.782 41.4053 62.57 41.4053C61.358 41.4053 60.1956 41.8868 59.3385 42.7438C58.4815 43.6008 58 44.7632 58 45.9753Z" fill="#171717"/>
<path d="M99.8008 25.3907C99.8008 26.5921 100.278 27.7444 101.128 28.5939C101.977 29.4434 103.129 29.9207 104.331 29.9207C105.532 29.9207 106.684 29.4434 107.534 28.5939C108.383 27.7444 108.861 26.5921 108.861 25.3907C108.861 24.7958 108.744 24.2068 108.516 23.6572C108.288 23.1076 107.955 22.6082 107.534 22.1875C107.113 21.7669 106.614 21.4332 106.064 21.2055C105.515 20.9779 104.926 20.8607 104.331 20.8607C103.736 20.8607 103.147 20.9779 102.597 21.2055C102.048 21.4332 101.548 21.7669 101.128 22.1875C100.707 22.6082 100.373 23.1076 100.146 23.6572C99.9179 24.2068 99.8008 24.7958 99.8008 25.3907Z" fill="#E0AC00"/>
<path d="M99.6804 45.261C99.6804 46.4969 100.171 47.6822 101.045 48.5561C101.919 49.43 103.104 49.921 104.34 49.921C105.576 49.921 106.762 49.43 107.636 48.5561C108.509 47.6822 109 46.4969 109 45.261C109 44.025 108.509 42.8398 107.636 41.9658C106.762 41.0919 105.576 40.601 104.34 40.601C103.104 40.601 101.919 41.0919 101.045 41.9658C100.171 42.8398 99.6804 44.025 99.6804 45.261Z" fill="#171717"/>
<path d="M79.2307 45.2607C79.2307 46.5045 79.7249 47.6975 80.6044 48.577C81.484 49.4566 82.6769 49.9507 83.9207 49.9507C85.1646 49.9507 86.3575 49.4566 87.2371 48.577C88.1166 47.6975 88.6107 46.5045 88.6107 45.2607C88.6107 44.0168 88.1166 42.8239 87.2371 41.9444C86.3575 41.0648 85.1646 40.5707 83.9207 40.5707C82.6769 40.5707 81.484 41.0648 80.6044 41.9444C79.7249 42.8239 79.2307 44.0168 79.2307 45.2607Z" fill="#171717"/>
<path d="M99.6604 67.1952C99.6604 66.5845 99.7806 65.9799 100.014 65.4157C100.248 64.8515 100.591 64.3389 101.022 63.9071C101.454 63.4753 101.967 63.1328 102.531 62.8991C103.095 62.6654 103.7 62.5452 104.31 62.5452C105.544 62.5452 106.726 63.0351 107.598 63.9071C108.47 64.7792 108.96 65.9619 108.96 67.1952C108.96 68.4284 108.47 69.6112 107.598 70.4832C106.726 71.3553 105.544 71.8452 104.31 71.8452C103.7 71.8452 103.095 71.7249 102.531 71.4912C101.967 71.2575 101.454 70.915 101.022 70.4832C100.591 70.0514 100.248 69.5388 100.014 68.9746C99.7806 68.4105 99.6604 67.8058 99.6604 67.1952Z" stroke="#171717" stroke-width="0.5"/>
<path d="M79.3803 67.2351C79.3803 66.0416 79.8544 64.897 80.6983 64.0531C81.5422 63.2092 82.6868 62.7351 83.8803 62.7351C85.0738 62.7351 86.2183 63.2092 87.0623 64.0531C87.9062 64.897 88.3803 66.0416 88.3803 67.2351C88.3803 68.4286 87.9062 69.5732 87.0623 70.4171C86.2183 71.261 85.0738 71.7351 83.8803 71.7351C82.6868 71.7351 81.5422 71.261 80.6983 70.4171C79.8544 69.5732 79.3803 68.4286 79.3803 67.2351Z" stroke="#E0AC00" stroke-width="0.5"/>
<path d="M58.8602 67.1948C58.8602 66.004 59.3333 64.862 60.1753 64.0199C61.0174 63.1779 62.1594 62.7048 63.3502 62.7048C63.9399 62.7048 64.5237 62.821 65.0685 63.0466C65.6132 63.2723 66.1082 63.603 66.5251 64.0199C66.9421 64.4369 67.2728 64.9318 67.4985 65.4766C67.7241 66.0213 67.8402 66.6052 67.8402 67.1948C67.8402 67.7845 67.7241 68.3683 67.4985 68.9131C67.2728 69.4578 66.9421 69.9528 66.5251 70.3697C66.1082 70.7867 65.6132 71.1174 65.0685 71.3431C64.5237 71.5687 63.9399 71.6848 63.3502 71.6848C62.1594 71.6848 61.0174 71.2118 60.1753 70.3697C59.3333 69.5277 58.8602 68.3857 58.8602 67.1948Z" stroke="#E0AC00" stroke-width="0.5"/>
<path d="M79.5706 86.8055C79.5706 85.6226 80.0405 84.4882 80.8769 83.6518C81.7133 82.8154 82.8478 82.3455 84.0306 82.3455C85.2135 82.3455 86.3479 82.8154 87.1843 83.6518C88.0207 84.4882 88.4906 85.6226 88.4906 86.8055C88.4906 87.9883 88.0207 89.1227 87.1843 89.9592C86.3479 90.7956 85.2135 91.2655 84.0306 91.2655C82.8478 91.2655 81.7133 90.7956 80.8769 89.9592C80.0405 89.1227 79.5706 87.9883 79.5706 86.8055Z" stroke="#E0AC00" stroke-width="0.5"/>
<path d="M58.9607 86.8052C58.9607 86.2208 59.0759 85.6422 59.2995 85.1023C59.5231 84.5624 59.8509 84.0718 60.2641 83.6586C60.6773 83.2454 61.1679 82.9176 61.7078 82.694C62.2477 82.4703 62.8264 82.3552 63.4108 82.3552C64.591 82.3552 65.7228 82.8241 66.5574 83.6586C67.3919 84.4931 67.8607 85.625 67.8607 86.8052C67.8607 87.9854 67.3919 89.1173 66.5574 89.9519C65.7228 90.7864 64.591 91.2552 63.4108 91.2552C62.8264 91.2552 62.2477 91.1401 61.7078 90.9165C61.1679 90.6929 60.6773 90.3651 60.2641 89.9519C59.8509 89.5386 59.5231 89.0481 59.2995 88.5082C59.0759 87.9683 58.9607 87.3896 58.9607 86.8052Z" stroke="#E0AC00" stroke-width="0.5"/>
<path d="M99.8099 86.885C99.8099 85.7022 100.28 84.5678 101.116 83.7314C101.953 82.8949 103.087 82.425 104.27 82.425C105.453 82.425 106.587 82.8949 107.424 83.7314C108.26 84.5678 108.73 85.7022 108.73 86.885C108.73 88.0679 108.26 89.2023 107.424 90.0387C106.587 90.8752 105.453 91.345 104.27 91.345C103.087 91.345 101.953 90.8752 101.116 90.0387C100.28 89.2023 99.8099 88.0679 99.8099 86.885Z" stroke="#E0AC00" stroke-width="0.5"/>
<path d="M40.1104 86.8451C40.1104 85.8823 40.4928 84.959 41.1736 84.2783C41.8543 83.5975 42.7777 83.2151 43.7404 83.2151C44.7031 83.2151 45.6264 83.5975 46.3072 84.2783C46.9879 84.959 47.3704 85.8823 47.3704 86.8451C47.3704 87.8078 46.9879 88.7311 46.3072 89.4119C45.6264 90.0926 44.7031 90.4751 43.7404 90.4751C42.7777 90.4751 41.8543 90.0926 41.1736 89.4119C40.4928 88.7311 40.1104 87.8078 40.1104 86.8451Z" stroke="#E0AC00" stroke-width="0.5"/>
<path d="M99.8402 106.325C99.8402 105.137 100.312 103.998 101.152 103.158C101.993 102.317 103.132 101.845 104.32 101.845C105.508 101.845 106.648 102.317 107.488 103.158C108.328 103.998 108.8 105.137 108.8 106.325C108.8 106.914 108.684 107.496 108.459 108.04C108.234 108.583 107.904 109.077 107.488 109.493C107.072 109.909 106.578 110.239 106.035 110.464C105.491 110.69 104.909 110.805 104.32 110.805C103.732 110.805 103.149 110.69 102.606 110.464C102.062 110.239 101.568 109.909 101.152 109.493C100.736 109.077 100.406 108.583 100.181 108.04C99.9561 107.496 99.8402 106.914 99.8402 106.325Z" stroke="#E0AC00" stroke-width="0.5"/>
<path d="M79.3204 106.355C79.3204 105.132 79.8061 103.96 80.6707 103.095C81.5352 102.231 82.7078 101.745 83.9304 101.745C85.1531 101.745 86.3257 102.231 87.1902 103.095C88.0547 103.96 88.5404 105.132 88.5404 106.355C88.5404 107.578 88.0547 108.75 87.1902 109.615C86.3257 110.479 85.1531 110.965 83.9304 110.965C82.7078 110.965 81.5352 110.479 80.6707 109.615C79.8061 108.75 79.3204 107.578 79.3204 106.355Z" stroke="#171717" stroke-width="0.5"/>
<path d="M58.8801 106.355C58.8801 105.775 58.9944 105.2 59.2166 104.664C59.4387 104.128 59.7643 103.64 60.1747 103.23C60.5851 102.819 61.0724 102.494 61.6087 102.272C62.1449 102.05 62.7197 101.935 63.3001 101.935C64.4724 101.935 65.5966 102.401 66.4255 103.23C67.2544 104.059 67.7201 105.183 67.7201 106.355C67.7201 106.936 67.6058 107.511 67.3837 108.047C67.1615 108.583 66.836 109.07 66.4255 109.481C66.0151 109.891 65.5278 110.217 64.9916 110.439C64.4553 110.661 63.8806 110.775 63.3001 110.775C62.7197 110.775 62.1449 110.661 61.6087 110.439C61.0724 110.217 60.5851 109.891 60.1747 109.481C59.7643 109.07 59.4387 108.583 59.2166 108.047C58.9944 107.511 58.8801 106.936 58.8801 106.355Z" stroke="#E0AC00" stroke-width="0.5"/>
<path d="M99.8007 126.005C99.8007 125.416 99.9168 124.832 100.142 124.287C100.368 123.742 100.699 123.247 101.116 122.83C101.533 122.414 102.028 122.083 102.572 121.857C103.117 121.632 103.701 121.515 104.291 121.515C104.88 121.515 105.464 121.632 106.009 121.857C106.554 122.083 107.049 122.414 107.466 122.83C107.883 123.247 108.213 123.742 108.439 124.287C108.665 124.832 108.781 125.416 108.781 126.005C108.781 127.196 108.308 128.338 107.466 129.18C106.624 130.022 105.481 130.495 104.291 130.495C103.1 130.495 101.958 130.022 101.116 129.18C100.274 128.338 99.8007 127.196 99.8007 126.005Z" stroke="#E0AC00" stroke-width="0.5"/>
<path d="M79.2804 126.035C79.2804 124.812 79.7661 123.64 80.6306 122.775C81.4952 121.911 82.6677 121.425 83.8904 121.425C85.113 121.425 86.2856 121.911 87.1502 122.775C88.0147 123.64 88.5004 124.812 88.5004 126.035C88.5004 127.258 88.0147 128.43 87.1502 129.295C86.2856 130.159 85.113 130.645 83.8904 130.645C82.6677 130.645 81.4952 130.159 80.6306 129.295C79.7661 128.43 79.2804 127.258 79.2804 126.035Z" stroke="#171717" stroke-width="0.5"/>
<path d="M58.9201 126.075C58.9201 124.908 59.3837 123.789 60.2089 122.964C61.034 122.139 62.1532 121.675 63.3201 121.675C64.4871 121.675 65.6062 122.139 66.4314 122.964C67.2566 123.789 67.7201 124.908 67.7201 126.075C67.7201 127.242 67.2566 128.361 66.4314 129.186C65.6062 130.011 64.4871 130.475 63.3201 130.475C62.1532 130.475 61.034 130.011 60.2089 129.186C59.3837 128.361 58.9201 127.242 58.9201 126.075Z" stroke="#E0AC00" stroke-width="0.5"/>
<path d="M79.2107 145.705C79.2107 144.469 79.7016 143.284 80.5756 142.41C81.4495 141.536 82.6348 141.045 83.8707 141.045C84.4826 141.045 85.0886 141.166 85.654 141.4C86.2193 141.634 86.7331 141.977 87.1658 142.41C87.5985 142.843 87.9418 143.356 88.1759 143.922C88.4101 144.487 88.5307 145.093 88.5307 145.705C88.5307 146.317 88.4101 146.923 88.1759 147.488C87.9418 148.054 87.5985 148.568 87.1658 149C86.7331 149.433 86.2193 149.776 85.654 150.01C85.0886 150.245 84.4826 150.365 83.8707 150.365C83.2587 150.365 82.6527 150.245 82.0874 150.01C81.522 149.776 81.0083 149.433 80.5756 149C80.1428 148.568 79.7996 148.054 79.5654 147.488C79.3312 146.923 79.2107 146.317 79.2107 145.705Z" stroke="#171717" stroke-width="0.5"/>
<path d="M99.8202 145.795C99.8202 144.605 100.293 143.463 101.135 142.621C101.977 141.778 103.119 141.305 104.31 141.305C105.501 141.305 106.643 141.778 107.485 142.621C108.327 143.463 108.8 144.605 108.8 145.795C108.8 146.385 108.684 146.969 108.458 147.514C108.233 148.058 107.902 148.553 107.485 148.97C107.068 149.387 106.573 149.718 106.028 149.944C105.484 150.169 104.9 150.285 104.31 150.285C103.721 150.285 103.137 150.169 102.592 149.944C102.047 149.718 101.552 149.387 101.135 148.97C100.718 148.553 100.388 148.058 100.162 147.514C99.9363 146.969 99.8202 146.385 99.8202 145.795Z" stroke="#E0AC00" stroke-width="0.5"/>
<path d="M58.9304 145.735C58.9304 145.156 59.0445 144.582 59.2661 144.047C59.4877 143.512 59.8125 143.026 60.2221 142.617C60.6316 142.207 61.1177 141.882 61.6528 141.661C62.1878 141.439 62.7613 141.325 63.3404 141.325C64.51 141.325 65.6317 141.79 66.4587 142.617C67.2858 143.444 67.7504 144.565 67.7504 145.735C67.7504 146.905 67.2858 148.026 66.4587 148.853C65.6317 149.68 64.51 150.145 63.3404 150.145C62.7613 150.145 62.1878 150.031 61.6528 149.809C61.1177 149.588 60.6316 149.263 60.2221 148.853C59.8125 148.444 59.4877 147.958 59.2661 147.423C59.0445 146.888 58.9304 146.314 58.9304 145.735Z" stroke="#E0AC00" stroke-width="0.5"/>
<path d="M40.05 145.375C40.05 144.412 40.4324 143.489 41.1132 142.808C41.7939 142.127 42.7172 141.745 43.68 141.745C44.1567 141.745 44.6287 141.839 45.0691 142.021C45.5095 142.204 45.9097 142.471 46.2468 142.808C46.5838 143.145 46.8512 143.545 47.0337 143.986C47.2161 144.426 47.31 144.898 47.31 145.375C47.31 145.852 47.2161 146.324 47.0337 146.764C46.8512 147.204 46.5838 147.605 46.2468 147.942C45.9097 148.279 45.5095 148.546 45.0691 148.729C44.6287 148.911 44.1567 149.005 43.68 149.005C42.7172 149.005 41.7939 148.622 41.1132 147.942C40.4324 147.261 40.05 146.338 40.05 145.375Z" stroke="#E0AC00" stroke-width="0.5"/>
<path d="M79.1399 165.435C79.1399 164.197 79.6319 163.009 80.5077 162.133C81.3835 161.257 82.5713 160.765 83.8099 160.765C85.0485 160.765 86.2363 161.257 87.1121 162.133C87.9879 163.009 88.4799 164.197 88.4799 165.435C88.4799 166.049 88.3591 166.656 88.1244 167.223C87.8897 167.789 87.5457 168.304 87.1121 168.738C86.6784 169.171 86.1636 169.515 85.597 169.75C85.0304 169.985 84.4232 170.105 83.8099 170.105C83.1966 170.105 82.5893 169.985 82.0228 169.75C81.4562 169.515 80.9414 169.171 80.5077 168.738C80.0741 168.304 79.7301 167.789 79.4954 167.223C79.2607 166.656 79.1399 166.049 79.1399 165.435Z" stroke="#171717" stroke-width="0.5"/>
<path d="M58.67 165.345C58.67 164.133 59.1515 162.971 60.0085 162.114C60.8655 161.257 62.0279 160.775 63.24 160.775C64.452 160.775 65.6144 161.257 66.4715 162.114C67.3285 162.971 67.81 164.133 67.81 165.345C67.81 166.557 67.3285 167.72 66.4715 168.577C65.6144 169.434 64.452 169.915 63.24 169.915C62.0279 169.915 60.8655 169.434 60.0085 168.577C59.1515 167.72 58.67 166.557 58.67 165.345Z" stroke="#171717" stroke-width="0.5"/>
<path d="M99.8008 165.435C99.8008 164.84 99.9179 164.251 100.146 163.701C100.373 163.152 100.707 162.652 101.128 162.232C101.548 161.811 102.048 161.478 102.597 161.25C103.147 161.022 103.736 160.905 104.331 160.905C104.926 160.905 105.515 161.022 106.064 161.25C106.614 161.478 107.113 161.811 107.534 162.232C107.955 162.652 108.288 163.152 108.516 163.701C108.744 164.251 108.861 164.84 108.861 165.435C108.861 166.636 108.383 167.789 107.534 168.638C106.684 169.488 105.532 169.965 104.331 169.965C103.129 169.965 101.977 169.488 101.128 168.638C100.278 167.789 99.8008 166.636 99.8008 165.435Z" stroke="#E0AC00" stroke-width="0.5"/>
<path d="M99.6804 185.305C99.6804 184.069 100.171 182.884 101.045 182.01C101.919 181.136 103.104 180.645 104.34 180.645C105.576 180.645 106.762 181.136 107.636 182.01C108.509 182.884 109 184.069 109 185.305C109 186.541 108.509 187.726 107.636 188.6C106.762 189.474 105.576 189.965 104.34 189.965C103.104 189.965 101.919 189.474 101.045 188.6C100.171 187.726 99.6804 186.541 99.6804 185.305Z" stroke="#171717" stroke-width="0.5"/>
<path d="M79.2307 185.305C79.2307 184.061 79.7249 182.868 80.6044 181.989C81.484 181.109 82.6769 180.615 83.9207 180.615C85.1646 180.615 86.3575 181.109 87.2371 181.989C88.1166 182.868 88.6107 184.061 88.6107 185.305C88.6107 186.549 88.1166 187.742 87.2371 188.621C86.3575 189.501 85.1646 189.995 83.9207 189.995C82.6769 189.995 81.484 189.501 80.6044 188.621C79.7249 187.742 79.2307 186.549 79.2307 185.305Z" stroke="#171717" stroke-width="0.5"/>
<path d="M99.6604 67.1952C99.6604 67.8058 99.7806 68.4105 100.014 68.9746C100.248 69.5388 100.591 70.0514 101.022 70.4832C101.454 70.915 101.967 71.2575 102.531 71.4912C103.095 71.7249 103.7 71.8452 104.31 71.8452C105.544 71.8452 106.726 71.3553 107.598 70.4832C108.47 69.6112 108.96 68.4284 108.96 67.1952C108.96 65.9619 108.47 64.7792 107.598 63.9071C106.726 63.0351 105.544 62.5452 104.31 62.5452C103.7 62.5452 103.095 62.6654 102.531 62.8991C101.967 63.1328 101.454 63.4753 101.022 63.9071C100.591 64.3389 100.248 64.8515 100.014 65.4157C99.7806 65.9799 99.6604 66.5845 99.6604 67.1952Z" fill="#171717"/>
<path d="M79.3804 67.2351C79.3804 68.4286 79.8545 69.5732 80.6984 70.4171C81.5423 71.261 82.6869 71.7351 83.8804 71.7351C85.0739 71.7351 86.2185 71.261 87.0624 70.4171C87.9063 69.5732 88.3804 68.4286 88.3804 67.2351C88.3804 66.0416 87.9063 64.897 87.0624 64.0531C86.2185 63.2092 85.0739 62.7351 83.8804 62.7351C82.6869 62.7351 81.5423 63.2092 80.6984 64.0531C79.8545 64.897 79.3804 66.0416 79.3804 67.2351Z" fill="#E0AC00"/>
<path d="M58.8602 67.1948C58.8602 68.3857 59.3333 69.5277 60.1753 70.3697C61.0174 71.2118 62.1594 71.6848 63.3502 71.6848C63.9399 71.6848 64.5237 71.5687 65.0685 71.3431C65.6132 71.1174 66.1082 70.7867 66.5251 70.3697C66.9421 69.9528 67.2728 69.4578 67.4985 68.9131C67.7241 68.3683 67.8402 67.7845 67.8402 67.1948C67.8402 66.6052 67.7241 66.0213 67.4985 65.4766C67.2728 64.9318 66.9421 64.4369 66.5251 64.0199C66.1082 63.603 65.6132 63.2723 65.0685 63.0466C64.5237 62.821 63.9399 62.7048 63.3502 62.7048C62.1594 62.7048 61.0174 63.1779 60.1753 64.0199C59.3333 64.862 58.8602 66.004 58.8602 67.1948Z" fill="#E0AC00"/>
<path d="M79.5706 86.8055C79.5706 87.9883 80.0405 89.1227 80.8769 89.9592C81.7133 90.7956 82.8478 91.2655 84.0306 91.2655C85.2135 91.2655 86.3479 90.7956 87.1843 89.9592C88.0207 89.1227 88.4906 87.9883 88.4906 86.8055C88.4906 85.6226 88.0207 84.4882 87.1843 83.6518C86.3479 82.8154 85.2135 82.3455 84.0306 82.3455C82.8478 82.3455 81.7133 82.8154 80.8769 83.6518C80.0405 84.4882 79.5706 85.6226 79.5706 86.8055Z" fill="#E0AC00"/>
<path d="M58.9607 86.8052C58.9607 87.3896 59.0759 87.9683 59.2995 88.5082C59.5231 89.0481 59.8509 89.5386 60.2641 89.9519C60.6773 90.3651 61.1679 90.6929 61.7078 90.9165C62.2477 91.1401 62.8264 91.2552 63.4108 91.2552C64.591 91.2552 65.7228 90.7864 66.5574 89.9519C67.3919 89.1173 67.8607 87.9854 67.8607 86.8052C67.8607 85.625 67.3919 84.4931 66.5574 83.6586C65.7228 82.8241 64.591 82.3552 63.4108 82.3552C62.8264 82.3552 62.2477 82.4703 61.7078 82.694C61.1679 82.9176 60.6773 83.2454 60.2641 83.6586C59.8509 84.0718 59.5231 84.5624 59.2995 85.1023C59.0759 85.6422 58.9607 86.2208 58.9607 86.8052Z" fill="#E0AC00"/>
<path d="M99.8099 86.885C99.8099 88.0679 100.28 89.2023 101.116 90.0387C101.953 90.8752 103.087 91.345 104.27 91.345C105.453 91.345 106.587 90.8752 107.424 90.0387C108.26 89.2023 108.73 88.0679 108.73 86.885C108.73 85.7022 108.26 84.5678 107.424 83.7314C106.587 82.8949 105.453 82.425 104.27 82.425C103.087 82.425 101.953 82.8949 101.116 83.7314C100.28 84.5678 99.8099 85.7022 99.8099 86.885Z" fill="#E0AC00"/>
<path d="M40.1104 86.8451C40.1104 87.8078 40.4928 88.7311 41.1736 89.4119C41.8543 90.0926 42.7777 90.4751 43.7404 90.4751C44.7031 90.4751 45.6264 90.0926 46.3072 89.4119C46.9879 88.7311 47.3704 87.8078 47.3704 86.8451C47.3704 85.8823 46.9879 84.959 46.3072 84.2783C45.6264 83.5975 44.7031 83.2151 43.7404 83.2151C42.7777 83.2151 41.8543 83.5975 41.1736 84.2783C40.4928 84.959 40.1104 85.8823 40.1104 86.8451Z" fill="#E0AC00"/>
<path d="M99.8402 106.325C99.8402 106.914 99.9561 107.496 100.181 108.04C100.406 108.583 100.736 109.077 101.152 109.493C101.568 109.909 102.062 110.239 102.606 110.464C103.149 110.69 103.732 110.805 104.32 110.805C104.909 110.805 105.491 110.69 106.035 110.464C106.578 110.239 107.072 109.909 107.488 109.493C107.904 109.077 108.234 108.583 108.459 108.04C108.684 107.496 108.8 106.914 108.8 106.325C108.8 105.137 108.328 103.998 107.488 103.158C106.648 102.317 105.508 101.845 104.32 101.845C103.132 101.845 101.993 102.317 101.152 103.158C100.312 103.998 99.8402 105.137 99.8402 106.325Z" fill="#E0AC00"/>
<path d="M79.3204 106.355C79.3204 107.578 79.8061 108.75 80.6707 109.615C81.5352 110.479 82.7078 110.965 83.9304 110.965C85.1531 110.965 86.3257 110.479 87.1902 109.615C88.0547 108.75 88.5404 107.578 88.5404 106.355C88.5404 105.132 88.0547 103.96 87.1902 103.095C86.3257 102.231 85.1531 101.745 83.9304 101.745C82.7078 101.745 81.5352 102.231 80.6707 103.095C79.8061 103.96 79.3204 105.132 79.3204 106.355Z" fill="#171717"/>
<path d="M58.8801 106.355C58.8801 106.936 58.9944 107.511 59.2166 108.047C59.4387 108.583 59.7643 109.07 60.1747 109.481C60.5851 109.891 61.0724 110.217 61.6087 110.439C62.1449 110.661 62.7197 110.775 63.3001 110.775C63.8806 110.775 64.4553 110.661 64.9916 110.439C65.5278 110.217 66.0151 109.891 66.4255 109.481C66.836 109.07 67.1615 108.583 67.3837 108.047C67.6058 107.511 67.7201 106.936 67.7201 106.355C67.7201 105.183 67.2544 104.059 66.4255 103.23C65.5966 102.401 64.4724 101.935 63.3001 101.935C62.7197 101.935 62.1449 102.05 61.6087 102.272C61.0724 102.494 60.5851 102.819 60.1747 103.23C59.7643 103.64 59.4387 104.128 59.2166 104.664C58.9944 105.2 58.8801 105.775 58.8801 106.355Z" fill="#E0AC00"/>
<path d="M99.8007 126.005C99.8007 127.196 100.274 128.338 101.116 129.18C101.958 130.022 103.1 130.495 104.291 130.495C105.481 130.495 106.624 130.022 107.466 129.18C108.308 128.338 108.781 127.196 108.781 126.005C108.781 125.416 108.665 124.832 108.439 124.287C108.213 123.742 107.883 123.247 107.466 122.83C107.049 122.414 106.554 122.083 106.009 121.857C105.464 121.632 104.88 121.515 104.291 121.515C103.701 121.515 103.117 121.632 102.572 121.857C102.028 122.083 101.533 122.414 101.116 122.83C100.699 123.247 100.368 123.742 100.142 124.287C99.9168 124.832 99.8007 125.416 99.8007 126.005Z" fill="#E0AC00"/>
<path d="M79.2804 126.035C79.2804 127.258 79.7661 128.43 80.6306 129.295C81.4952 130.159 82.6677 130.645 83.8904 130.645C85.113 130.645 86.2856 130.159 87.1502 129.295C88.0147 128.43 88.5004 127.258 88.5004 126.035C88.5004 124.812 88.0147 123.64 87.1502 122.775C86.2856 121.911 85.113 121.425 83.8904 121.425C82.6677 121.425 81.4952 121.911 80.6306 122.775C79.7661 123.64 79.2804 124.812 79.2804 126.035Z" fill="#171717"/>
<path d="M58.9201 126.075C58.9201 127.242 59.3837 128.361 60.2089 129.186C61.034 130.011 62.1532 130.475 63.3201 130.475C64.4871 130.475 65.6062 130.011 66.4314 129.186C67.2566 128.361 67.7201 127.242 67.7201 126.075C67.7201 124.908 67.2566 123.789 66.4314 122.964C65.6062 122.139 64.4871 121.675 63.3201 121.675C62.1532 121.675 61.034 122.139 60.2089 122.964C59.3837 123.789 58.9201 124.908 58.9201 126.075Z" fill="#E0AC00"/>
<path d="M79.2107 145.705C79.2107 146.317 79.3312 146.923 79.5654 147.488C79.7996 148.054 80.1428 148.568 80.5756 149C81.0083 149.433 81.522 149.776 82.0874 150.01C82.6527 150.245 83.2587 150.365 83.8707 150.365C84.4826 150.365 85.0886 150.245 85.654 150.01C86.2193 149.776 86.7331 149.433 87.1658 149C87.5985 148.568 87.9418 148.054 88.1759 147.488C88.4101 146.923 88.5307 146.317 88.5307 145.705C88.5307 145.093 88.4101 144.487 88.1759 143.922C87.9418 143.356 87.5985 142.843 87.1658 142.41C86.7331 141.977 86.2193 141.634 85.654 141.4C85.0886 141.166 84.4826 141.045 83.8707 141.045C82.6348 141.045 81.4495 141.536 80.5756 142.41C79.7016 143.284 79.2107 144.469 79.2107 145.705Z" fill="#171717"/>
<path d="M99.8202 145.795C99.8202 146.385 99.9363 146.969 100.162 147.514C100.388 148.058 100.718 148.553 101.135 148.97C101.552 149.387 102.047 149.718 102.592 149.944C103.137 150.169 103.721 150.285 104.31 150.285C104.9 150.285 105.484 150.169 106.028 149.944C106.573 149.718 107.068 149.387 107.485 148.97C107.902 148.553 108.233 148.058 108.458 147.514C108.684 146.969 108.8 146.385 108.8 145.795C108.8 144.605 108.327 143.463 107.485 142.621C106.643 141.778 105.501 141.305 104.31 141.305C103.119 141.305 101.977 141.778 101.135 142.621C100.293 143.463 99.8202 144.605 99.8202 145.795Z" fill="#E0AC00"/>
<path d="M58.9304 145.735C58.9304 146.314 59.0445 146.888 59.2661 147.423C59.4877 147.958 59.8125 148.444 60.2221 148.853C60.6316 149.263 61.1177 149.588 61.6528 149.809C62.1878 150.031 62.7613 150.145 63.3404 150.145C64.51 150.145 65.6317 149.68 66.4587 148.853C67.2858 148.026 67.7504 146.905 67.7504 145.735C67.7504 144.565 67.2858 143.444 66.4587 142.617C65.6317 141.79 64.51 141.325 63.3404 141.325C62.7613 141.325 62.1878 141.439 61.6528 141.661C61.1177 141.882 60.6316 142.207 60.2221 142.617C59.8125 143.026 59.4877 143.512 59.2661 144.047C59.0445 144.582 58.9304 145.156 58.9304 145.735Z" fill="#E0AC00"/>
<path d="M40.05 145.375C40.05 146.338 40.4324 147.261 41.1132 147.942C41.7939 148.622 42.7172 149.005 43.68 149.005C44.1567 149.005 44.6287 148.911 45.0691 148.729C45.5095 148.546 45.9097 148.279 46.2468 147.942C46.5838 147.605 46.8512 147.204 47.0337 146.764C47.2161 146.324 47.31 145.852 47.31 145.375C47.31 144.898 47.2161 144.426 47.0337 143.986C46.8512 143.545 46.5838 143.145 46.2468 142.808C45.9097 142.471 45.5095 142.204 45.0691 142.021C44.6287 141.839 44.1567 141.745 43.68 141.745C42.7172 141.745 41.7939 142.127 41.1132 142.808C40.4324 143.489 40.05 144.412 40.05 145.375Z" fill="#E0AC00"/>
<path d="M79.1399 165.435C79.1399 166.049 79.2607 166.656 79.4954 167.223C79.7301 167.789 80.0741 168.304 80.5077 168.738C80.9414 169.171 81.4562 169.515 82.0228 169.75C82.5893 169.985 83.1966 170.105 83.8099 170.105C84.4232 170.105 85.0304 169.985 85.597 169.75C86.1636 169.515 86.6784 169.171 87.1121 168.738C87.5457 168.304 87.8897 167.789 88.1244 167.223C88.3591 166.656 88.4799 166.049 88.4799 165.435C88.4799 164.197 87.9879 163.009 87.1121 162.133C86.2363 161.257 85.0485 160.765 83.8099 160.765C82.5713 160.765 81.3835 161.257 80.5077 162.133C79.6319 163.009 79.1399 164.197 79.1399 165.435Z" fill="#171717"/>
<path d="M58.67 165.345C58.67 166.557 59.1515 167.72 60.0085 168.577C60.8655 169.434 62.0279 169.915 63.24 169.915C64.452 169.915 65.6144 169.434 66.4715 168.577C67.3285 167.72 67.81 166.557 67.81 165.345C67.81 164.133 67.3285 162.971 66.4715 162.114C65.6144 161.257 64.452 160.775 63.24 160.775C62.0279 160.775 60.8655 161.257 60.0085 162.114C59.1515 162.971 58.67 164.133 58.67 165.345Z" fill="#171717"/>
<path d="M99.8008 165.435C99.8008 166.636 100.278 167.789 101.128 168.638C101.977 169.488 103.129 169.965 104.331 169.965C105.532 169.965 106.684 169.488 107.534 168.638C108.383 167.789 108.861 166.636 108.861 165.435C108.861 164.84 108.744 164.251 108.516 163.701C108.288 163.152 107.955 162.652 107.534 162.232C107.113 161.811 106.614 161.478 106.064 161.25C105.515 161.022 104.926 160.905 104.331 160.905C103.736 160.905 103.147 161.022 102.597 161.25C102.048 161.478 101.548 161.811 101.128 162.232C100.707 162.652 100.373 163.152 100.146 163.701C99.9179 164.251 99.8008 164.84 99.8008 165.435Z" fill="#E0AC00"/>
<path d="M99.6804 185.305C99.6804 186.541 100.171 187.726 101.045 188.6C101.919 189.474 103.104 189.965 104.34 189.965C105.576 189.965 106.762 189.474 107.636 188.6C108.509 187.726 109 186.541 109 185.305C109 184.069 108.509 182.884 107.636 182.01C106.762 181.136 105.576 180.645 104.34 180.645C103.104 180.645 101.919 181.136 101.045 182.01C100.171 182.884 99.6804 184.069 99.6804 185.305Z" fill="#171717"/>
<path d="M79.2307 185.305C79.2307 186.549 79.7249 187.742 80.6044 188.621C81.484 189.501 82.6769 189.995 83.9207 189.995C85.1646 189.995 86.3575 189.501 87.2371 188.621C88.1166 187.742 88.6107 186.549 88.6107 185.305C88.6107 184.061 88.1166 182.868 87.2371 181.989C86.3575 181.109 85.1646 180.615 83.9207 180.615C82.6769 180.615 81.484 181.109 80.6044 181.989C79.7249 182.868 79.2307 184.061 79.2307 185.305Z" fill="#171717"/>
</g>
<defs>
<clipPath id="clip0_7_7514">
<rect width="108.65" height="190" fill="white" transform="translate(0.350586)"/>
</clipPath>
</defs>
</svg>
