<svg width="101" height="190" viewBox="0 0 101 190" fill="none" xmlns="http://www.w3.org/2000/svg">
<g clip-path="url(#clip0_7_3791)">
<path d="M9.34004 4.65C9.34004 4.03935 9.21976 3.43469 8.98608 2.87052C8.75239 2.30636 8.40988 1.79375 7.97808 1.36195C7.54629 0.930161 7.03368 0.587644 6.46952 0.35396C5.90535 0.120276 5.30069 0 4.69004 0C3.45678 0 2.27404 0.48991 1.40199 1.36195C0.529949 2.234 0.0400391 3.41674 0.0400391 4.65C0.0400391 5.88326 0.529949 7.066 1.40199 7.93805C2.27404 8.81009 3.45678 9.3 4.69004 9.3C5.30069 9.3 5.90535 9.17973 6.46952 8.94604C7.03368 8.71236 7.54629 8.36984 7.97808 7.93805C8.40988 7.50625 8.75239 6.99364 8.98608 6.42948C9.21976 5.86532 9.34004 5.26065 9.34004 4.65Z" stroke="#171717" stroke-width="0.5"/>
<path d="M29.6201 4.68994C29.6201 3.49647 29.146 2.35187 28.3021 1.50796C27.4582 0.664048 26.3136 0.189941 25.1201 0.189941C23.9266 0.189941 22.7821 0.664048 21.9381 1.50796C21.0942 2.35187 20.6201 3.49647 20.6201 4.68994C20.6201 5.88342 21.0942 7.02801 21.9381 7.87192C22.7821 8.71584 23.9266 9.18994 25.1201 9.18994C26.3136 9.18994 27.4582 8.71584 28.3021 7.87192C29.146 7.02801 29.6201 5.88342 29.6201 4.68994Z" stroke="#E0AC00" stroke-width="0.5"/>
<path d="M50.1402 4.64967C50.1402 3.45885 49.6671 2.3168 48.8251 1.47476C47.983 0.632722 46.841 0.159668 45.6502 0.159668C45.0605 0.159668 44.4767 0.275806 43.9319 0.50145C43.3872 0.727093 42.8922 1.05782 42.4753 1.47476C42.0583 1.8917 41.7276 2.38667 41.5019 2.93142C41.2763 3.47617 41.1602 4.06003 41.1602 4.64967C41.1602 5.2393 41.2763 5.82317 41.5019 6.36792C41.7276 6.91267 42.0583 7.40764 42.4753 7.82458C42.8922 8.24151 43.3872 8.57225 43.9319 8.79789C44.4767 9.02353 45.0605 9.13967 45.6502 9.13967C46.841 9.13967 47.983 8.66662 48.8251 7.82458C49.6671 6.98254 50.1402 5.84049 50.1402 4.64967Z" stroke="#E0AC00" stroke-width="0.5"/>
<path d="M88.6397 4.73002C88.6397 3.54716 88.1698 2.41274 87.3334 1.57632C86.497 0.739912 85.3626 0.27002 84.1797 0.27002C82.9969 0.27002 81.8624 0.739912 81.026 1.57632C80.1896 2.41274 79.7197 3.54716 79.7197 4.73002C79.7197 5.31572 79.8351 5.89568 80.0592 6.43679C80.2834 6.9779 80.6119 7.46957 81.026 7.88372C81.4402 8.29787 81.9318 8.62639 82.473 8.85052C83.0141 9.07466 83.594 9.19002 84.1797 9.19002C84.7654 9.19002 85.3454 9.07466 85.8865 8.85052C86.4276 8.62639 86.9193 8.29787 87.3334 7.88372C87.7476 7.46957 88.0761 6.9779 88.3002 6.43679C88.5244 5.89568 88.6397 5.31572 88.6397 4.73002Z" stroke="#E0AC00" stroke-width="0.5"/>
<path d="M29.4298 24.2603C29.4298 23.0774 28.9599 21.943 28.1235 21.1066C27.2871 20.2702 26.1526 19.8003 24.9698 19.8003C23.7869 19.8003 22.6525 20.2702 21.8161 21.1066C20.9797 21.943 20.5098 23.0774 20.5098 24.2603C20.5098 25.4432 20.9797 26.5776 21.8161 27.414C22.6525 28.2504 23.7869 28.7203 24.9698 28.7203C26.1526 28.7203 27.2871 28.2504 28.1235 27.414C28.9599 26.5776 29.4298 25.4432 29.4298 24.2603Z" stroke="#E0AC00" stroke-width="0.5"/>
<path d="M50.0396 24.2601C50.0396 23.6757 49.9245 23.097 49.7009 22.5571C49.4773 22.0172 49.1495 21.5267 48.7363 21.1134C48.3231 20.7002 47.8325 20.3724 47.2926 20.1488C46.7527 19.9252 46.174 19.8101 45.5896 19.8101C44.4094 19.8101 43.2776 20.2789 42.443 21.1134C41.6085 21.948 41.1396 23.0798 41.1396 24.2601C41.1396 25.4403 41.6085 26.5721 42.443 27.4067C43.2776 28.2412 44.4094 28.7101 45.5896 28.7101C46.174 28.7101 46.7527 28.595 47.2926 28.3713C47.8325 28.1477 48.3231 27.8199 48.7363 27.4067C49.1495 26.9935 49.4773 26.5029 49.7009 25.963C49.9245 25.4231 50.0396 24.8444 50.0396 24.2601Z" stroke="#E0AC00" stroke-width="0.5"/>
<path d="M9.19051 24.3399C9.19051 23.157 8.72062 22.0226 7.8842 21.1862C7.04779 20.3498 5.91337 19.8799 4.73051 19.8799C3.54764 19.8799 2.41322 20.3498 1.57681 21.1862C0.7404 22.0226 0.270508 23.157 0.270508 24.3399C0.270508 25.5227 0.7404 26.6572 1.57681 27.4936C2.41322 28.33 3.54764 28.7999 4.73051 28.7999C5.91337 28.7999 7.04779 28.33 7.8842 27.4936C8.72062 26.6572 9.19051 25.5227 9.19051 24.3399Z" stroke="#E0AC00" stroke-width="0.5"/>
<path d="M88.6797 24.2901C88.6797 23.1019 88.2077 21.9624 87.3676 21.1222C86.5274 20.2821 85.3879 19.8101 84.1997 19.8101C83.0116 19.8101 81.872 20.2821 81.0319 21.1222C80.1917 21.9624 79.7197 23.1019 79.7197 24.2901C79.7197 25.4782 80.1917 26.6177 81.0319 27.4579C81.872 28.2981 83.0116 28.7701 84.1997 28.7701C85.3879 28.7701 86.5274 28.2981 87.3676 27.4579C88.2077 26.6177 88.6797 25.4782 88.6797 24.2901Z" stroke="#E0AC00" stroke-width="0.5"/>
<path d="M68.89 24.2999C68.89 23.3372 68.5076 22.4139 67.8268 21.7331C67.146 21.0524 66.2227 20.6699 65.26 20.6699C64.2973 20.6699 63.374 21.0524 62.6932 21.7331C62.0124 22.4139 61.63 23.3372 61.63 24.2999C61.63 25.2627 62.0124 26.186 62.6932 26.8667C63.374 27.5475 64.2973 27.9299 65.26 27.9299C66.2227 27.9299 67.146 27.5475 67.8268 26.8667C68.5076 26.186 68.89 25.2627 68.89 24.2999Z" stroke="#E0AC00" stroke-width="0.5"/>
<path d="M9.1602 43.7803C9.1602 42.5921 8.6882 41.4526 7.84803 40.6125C7.00787 39.7723 5.86836 39.3003 4.68019 39.3003C3.49203 39.3003 2.35252 39.7723 1.51236 40.6125C0.672195 41.4526 0.200195 42.5921 0.200195 43.7803C0.200195 44.3686 0.316073 44.9512 0.541214 45.4947C0.766355 46.0383 1.09635 46.5321 1.51236 46.9481C1.92836 47.3641 2.42223 47.6941 2.96577 47.9193C3.50931 48.1444 4.09187 48.2603 4.68019 48.2603C5.26852 48.2603 5.85108 48.1444 6.39462 47.9193C6.93816 47.6941 7.43203 47.3641 7.84803 46.9481C8.26404 46.5321 8.59403 46.0383 8.81917 45.4947C9.04431 44.9512 9.1602 44.3686 9.1602 43.7803Z" stroke="#E0AC00" stroke-width="0.5"/>
<path d="M29.68 43.8097C29.68 42.5871 29.1943 41.4145 28.3297 40.5499C27.4652 39.6854 26.2926 39.1997 25.07 39.1997C23.8473 39.1997 22.6747 39.6854 21.8102 40.5499C20.9457 41.4145 20.46 42.5871 20.46 43.8097C20.46 45.0324 20.9457 46.2049 21.8102 47.0695C22.6747 47.934 23.8473 48.4197 25.07 48.4197C26.2926 48.4197 27.4652 47.934 28.3297 47.0695C29.1943 46.2049 29.68 45.0324 29.68 43.8097Z" stroke="#171717" stroke-width="0.5"/>
<path d="M50.1203 43.8101C50.1203 43.2297 50.0059 42.6549 49.7838 42.1187C49.5617 41.5824 49.2361 41.0952 48.8257 40.6847C48.4152 40.2743 47.928 39.9487 47.3917 39.7266C46.8555 39.5045 46.2807 39.3901 45.7003 39.3901C44.528 39.3901 43.4038 39.8558 42.5749 40.6847C41.7459 41.5136 41.2803 42.6379 41.2803 43.8101C41.2803 44.3906 41.3946 44.9653 41.6167 45.5016C41.8388 46.0379 42.1644 46.5251 42.5749 46.9356C42.9853 47.346 43.4726 47.6716 44.0088 47.8937C44.5451 48.1158 45.1198 48.2301 45.7003 48.2301C46.2807 48.2301 46.8555 48.1158 47.3917 47.8937C47.928 47.6716 48.4152 47.346 48.8257 46.9356C49.2361 46.5251 49.5617 46.0379 49.7838 45.5016C50.0059 44.9653 50.1203 44.3906 50.1203 43.8101Z" stroke="#E0AC00" stroke-width="0.5"/>
<path d="M88.6105 43.8799C88.6105 42.7024 88.1427 41.573 87.31 40.7404C86.4774 39.9077 85.348 39.4399 84.1705 39.4399C82.9929 39.4399 81.8636 39.9077 81.0309 40.7404C80.1983 41.573 79.7305 42.7024 79.7305 43.8799C79.7305 45.0575 80.1983 46.1868 81.0309 47.0195C81.8636 47.8522 82.9929 48.3199 84.1705 48.3199C85.348 48.3199 86.4774 47.8522 87.31 47.0195C88.1427 46.1868 88.6105 45.0575 88.6105 43.8799Z" stroke="#E0AC00" stroke-width="0.5"/>
<path d="M9.19972 63.4602C9.19972 62.8706 9.08359 62.2867 8.85795 61.742C8.6323 61.1972 8.30157 60.7022 7.88464 60.2853C7.4677 59.8684 6.97273 59.5376 6.42797 59.312C5.88322 59.0864 5.29936 58.9702 4.70973 58.9702C4.12009 58.9702 3.53623 59.0864 2.99148 59.312C2.44673 59.5376 1.95175 59.8684 1.53482 60.2853C1.11788 60.7022 0.78715 61.1972 0.561506 61.742C0.335863 62.2867 0.219727 62.8706 0.219727 63.4602C0.219727 64.651 0.692778 65.7931 1.53482 66.6351C2.37686 67.4772 3.5189 67.9502 4.70973 67.9502C5.90055 67.9502 7.0426 67.4772 7.88464 66.6351C8.72667 65.7931 9.19972 64.651 9.19972 63.4602Z" stroke="#E0AC00" stroke-width="0.5"/>
<path d="M29.72 63.4899C29.72 62.2672 29.2343 61.0947 28.3698 60.2301C27.5052 59.3656 26.3326 58.8799 25.11 58.8799C23.8874 58.8799 22.7148 59.3656 21.8502 60.2301C20.9857 61.0947 20.5 62.2672 20.5 63.4899C20.5 64.7125 20.9857 65.8851 21.8502 66.7496C22.7148 67.6142 23.8874 68.0999 25.11 68.0999C26.3326 68.0999 27.5052 67.6142 28.3698 66.7496C29.2343 65.8851 29.72 64.7125 29.72 63.4899Z" stroke="#171717" stroke-width="0.5"/>
<path d="M50.0803 63.5299C50.0803 62.3629 49.6167 61.2438 48.7915 60.4186C47.9664 59.5934 46.8472 59.1299 45.6803 59.1299C44.5133 59.1299 43.3942 59.5934 42.569 60.4186C41.7438 61.2438 41.2803 62.3629 41.2803 63.5299C41.2803 64.6968 41.7438 65.816 42.569 66.6412C43.3942 67.4663 44.5133 67.9299 45.6803 67.9299C46.8472 67.9299 47.9664 67.4663 48.7915 66.6412C49.6167 65.816 50.0803 64.6968 50.0803 63.5299Z" stroke="#E0AC00" stroke-width="0.5"/>
<path d="M29.7897 83.16C29.7897 81.9241 29.2988 80.7388 28.4248 79.8649C27.5509 78.991 26.3656 78.5 25.1297 78.5C24.5178 78.5 23.9118 78.6205 23.3464 78.8547C22.781 79.0889 22.2673 79.4322 21.8346 79.8649C21.4019 80.2976 21.0586 80.8113 20.8244 81.3767C20.5903 81.9421 20.4697 82.548 20.4697 83.16C20.4697 83.772 20.5903 84.3779 20.8244 84.9433C21.0586 85.5087 21.4019 86.0224 21.8346 86.4551C22.2673 86.8878 22.781 87.2311 23.3464 87.4653C23.9118 87.6995 24.5178 87.82 25.1297 87.82C25.7417 87.82 26.3477 87.6995 26.913 87.4653C27.4784 87.2311 27.9921 86.8878 28.4248 86.4551C28.8576 86.0224 29.2008 85.5087 29.435 84.9433C29.6692 84.3779 29.7897 83.772 29.7897 83.16Z" stroke="#171717" stroke-width="0.5"/>
<path d="M9.1802 83.2503C9.1802 82.0594 8.70714 80.9174 7.8651 80.0753C7.02307 79.2333 5.88102 78.7603 4.6902 78.7603C3.49937 78.7603 2.35732 79.2333 1.51529 80.0753C0.673247 80.9174 0.200195 82.0594 0.200195 83.2503C0.200195 83.8399 0.316333 84.4238 0.541977 84.9685C0.767621 85.5133 1.09835 86.0082 1.51529 86.4252C1.93222 86.8421 2.42719 87.1728 2.97195 87.3985C3.5167 87.6241 4.10056 87.7403 4.6902 87.7403C5.27983 87.7403 5.86369 87.6241 6.40844 87.3985C6.9532 87.1728 7.44817 86.8421 7.8651 86.4252C8.28204 86.0082 8.61277 85.5133 8.83842 84.9685C9.06406 84.4238 9.1802 83.8399 9.1802 83.2503Z" stroke="#E0AC00" stroke-width="0.5"/>
<path d="M50.07 83.1898C50.07 82.6107 49.9559 82.0372 49.7343 81.5022C49.5127 80.9671 49.1878 80.4809 48.7783 80.0714C48.3688 79.6619 47.8827 79.3371 47.3476 79.1155C46.8126 78.8938 46.2391 78.7798 45.66 78.7798C44.4904 78.7798 43.3687 79.2444 42.5417 80.0714C41.7146 80.8985 41.25 82.0202 41.25 83.1898C41.25 84.3594 41.7146 85.4811 42.5417 86.3081C43.3687 87.1352 44.4904 87.5998 45.66 87.5998C46.2391 87.5998 46.8126 87.4857 47.3476 87.2641C47.8827 87.0425 48.3688 86.7176 48.7783 86.3081C49.1878 85.8986 49.5127 85.4125 49.7343 84.8774C49.9559 84.3424 50.07 83.7689 50.07 83.1898Z" stroke="#E0AC00" stroke-width="0.5"/>
<path d="M108.65 82.5603C108.65 81.5524 108.249 80.5859 107.537 79.8733C106.824 79.1606 105.858 78.7603 104.85 78.7603C103.842 78.7603 102.875 79.1606 102.163 79.8733C101.45 80.5859 101.05 81.5524 101.05 82.5603C101.05 83.5681 101.45 84.5346 102.163 85.2473C102.875 85.9599 103.842 86.3603 104.85 86.3603C105.858 86.3603 106.824 85.9599 107.537 85.2473C108.249 84.5346 108.65 83.5681 108.65 82.5603Z" stroke="#171717" stroke-width="0.5"/>
<path d="M68.9504 82.8297C68.9504 81.867 68.568 80.9437 67.8872 80.2629C67.2065 79.5822 66.2832 79.1997 65.3204 79.1997C64.8437 79.1997 64.3717 79.2936 63.9313 79.476C63.4909 79.6584 63.0907 79.9258 62.7536 80.2629C62.4166 80.6 62.1492 81.0002 61.9667 81.4406C61.7843 81.881 61.6904 82.353 61.6904 82.8297C61.6904 83.3064 61.7843 83.7784 61.9667 84.2188C62.1492 84.6593 62.4166 85.0594 62.7536 85.3965C63.0907 85.7336 63.4909 86.001 63.9313 86.1834C64.3717 86.3658 64.8437 86.4597 65.3204 86.4597C66.2832 86.4597 67.2065 86.0773 67.8872 85.3965C68.568 84.7158 68.9504 83.7924 68.9504 82.8297Z" stroke="#E0AC00" stroke-width="0.5"/>
<path d="M29.8605 102.89C29.8605 101.652 29.3685 100.464 28.4927 99.588C27.6169 98.7122 26.4291 98.2202 25.1905 98.2202C23.9519 98.2202 22.7641 98.7122 21.8883 99.588C21.0125 100.464 20.5205 101.652 20.5205 102.89C20.5205 103.503 20.6413 104.111 20.876 104.677C21.1107 105.244 21.4547 105.759 21.8883 106.192C22.322 106.626 22.8368 106.97 23.4034 107.205C23.97 107.439 24.5772 107.56 25.1905 107.56C25.8038 107.56 26.411 107.439 26.9776 107.205C27.5442 106.97 28.059 106.626 28.4927 106.192C28.9263 105.759 29.2703 105.244 29.505 104.677C29.7397 104.111 29.8605 103.503 29.8605 102.89Z" stroke="#171717" stroke-width="0.5"/>
<path d="M50.3304 102.8C50.3304 101.588 49.8489 100.426 48.9919 99.5685C48.1349 98.7115 46.9725 98.23 45.7604 98.23C44.5484 98.23 43.386 98.7115 42.5289 99.5685C41.6719 100.426 41.1904 101.588 41.1904 102.8C41.1904 104.012 41.6719 105.174 42.5289 106.031C43.386 106.889 44.5484 107.37 45.7604 107.37C46.9725 107.37 48.1349 106.889 48.9919 106.031C49.8489 105.174 50.3304 104.012 50.3304 102.8Z" stroke="#171717" stroke-width="0.5"/>
<path d="M9.19965 102.89C9.19965 102.295 9.08247 101.706 8.85482 101.156C8.62717 100.607 8.29349 100.107 7.87284 99.6867C7.45219 99.266 6.95281 98.9323 6.4032 98.7047C5.8536 98.477 5.26454 98.3599 4.66965 98.3599C4.07476 98.3599 3.4857 98.477 2.93609 98.7047C2.38649 98.9323 1.8871 99.266 1.46645 99.6867C1.0458 100.107 0.712128 100.607 0.484474 101.156C0.25682 101.706 0.139648 102.295 0.139648 102.89C0.139648 104.091 0.616914 105.244 1.46645 106.093C2.31599 106.943 3.46822 107.42 4.66965 107.42C5.87108 107.42 7.0233 106.943 7.87284 106.093C8.72238 105.244 9.19965 104.091 9.19965 102.89Z" stroke="#E0AC00" stroke-width="0.5"/>
<path d="M9.32 122.76C9.32 121.524 8.82904 120.339 7.95512 119.465C7.0812 118.591 5.89591 118.1 4.66 118.1C3.42409 118.1 2.2388 118.591 1.36488 119.465C0.490964 120.339 0 121.524 0 122.76C0 123.996 0.490964 125.181 1.36488 126.055C2.2388 126.929 3.42409 127.42 4.66 127.42C5.89591 127.42 7.0812 126.929 7.95512 126.055C8.82904 125.181 9.32 123.996 9.32 122.76Z" stroke="#171717" stroke-width="0.5"/>
<path d="M29.7696 122.76C29.7696 121.516 29.2755 120.323 28.396 119.443C27.5164 118.564 26.3235 118.07 25.0796 118.07C23.8358 118.07 22.6429 118.564 21.7633 119.443C20.8838 120.323 20.3896 121.516 20.3896 122.76C20.3896 124.004 20.8838 125.197 21.7633 126.076C22.6429 126.956 23.8358 127.45 25.0796 127.45C26.3235 127.45 27.5164 126.956 28.396 126.076C29.2755 125.197 29.7696 124.004 29.7696 122.76Z" stroke="#171717" stroke-width="0.5"/>
<path d="M9.34004 4.65C9.34004 5.26065 9.21976 5.86532 8.98608 6.42948C8.75239 6.99364 8.40988 7.50625 7.97808 7.93805C7.54629 8.36984 7.03368 8.71236 6.46952 8.94604C5.90535 9.17973 5.30069 9.3 4.69004 9.3C3.45678 9.3 2.27404 8.81009 1.40199 7.93805C0.529949 7.066 0.0400391 5.88326 0.0400391 4.65C0.0400391 3.41674 0.529949 2.234 1.40199 1.36195C2.27404 0.48991 3.45678 0 4.69004 0C5.30069 0 5.90535 0.120276 6.46952 0.35396C7.03368 0.587644 7.54629 0.930161 7.97808 1.36195C8.40988 1.79375 8.75239 2.30636 8.98608 2.87052C9.21976 3.43469 9.34004 4.03935 9.34004 4.65Z" fill="#171717"/>
<path d="M29.62 4.68994C29.62 5.88342 29.1459 7.02801 28.302 7.87192C27.4581 8.71584 26.3135 9.18994 25.12 9.18994C23.9265 9.18994 22.7819 8.71584 21.938 7.87192C21.0941 7.02801 20.62 5.88342 20.62 4.68994C20.62 3.49647 21.0941 2.35187 21.938 1.50796C22.7819 0.664048 23.9265 0.189941 25.12 0.189941C26.3135 0.189941 27.4581 0.664048 28.302 1.50796C29.1459 2.35187 29.62 3.49647 29.62 4.68994Z" fill="#E0AC00"/>
<path d="M50.1402 4.64967C50.1402 5.84049 49.6671 6.98254 48.8251 7.82458C47.983 8.66662 46.841 9.13967 45.6502 9.13967C45.0605 9.13967 44.4767 9.02353 43.9319 8.79789C43.3872 8.57225 42.8922 8.24151 42.4753 7.82458C42.0583 7.40764 41.7276 6.91267 41.5019 6.36792C41.2763 5.82317 41.1602 5.2393 41.1602 4.64967C41.1602 4.06003 41.2763 3.47617 41.5019 2.93142C41.7276 2.38667 42.0583 1.8917 42.4753 1.47476C42.8922 1.05782 43.3872 0.727093 43.9319 0.50145C44.4767 0.275806 45.0605 0.159668 45.6502 0.159668C46.841 0.159668 47.983 0.632722 48.8251 1.47476C49.6671 2.3168 50.1402 3.45885 50.1402 4.64967Z" fill="#E0AC00"/>
<path d="M88.6397 4.73002C88.6397 5.31572 88.5244 5.89568 88.3002 6.43679C88.0761 6.9779 87.7476 7.46957 87.3334 7.88372C86.9193 8.29787 86.4276 8.62639 85.8865 8.85052C85.3454 9.07466 84.7654 9.19002 84.1797 9.19002C83.594 9.19002 83.0141 9.07466 82.473 8.85052C81.9318 8.62639 81.4402 8.29787 81.026 7.88372C80.6119 7.46957 80.2834 6.9779 80.0592 6.43679C79.8351 5.89568 79.7197 5.31572 79.7197 4.73002C79.7197 3.54716 80.1896 2.41274 81.026 1.57632C81.8624 0.739912 82.9969 0.27002 84.1797 0.27002C85.3626 0.27002 86.497 0.739912 87.3334 1.57632C88.1698 2.41274 88.6397 3.54716 88.6397 4.73002Z" fill="#E0AC00"/>
<path d="M29.4298 24.2603C29.4298 25.4432 28.9599 26.5776 28.1235 27.414C27.2871 28.2504 26.1526 28.7203 24.9698 28.7203C23.7869 28.7203 22.6525 28.2504 21.8161 27.414C20.9797 26.5776 20.5098 25.4432 20.5098 24.2603C20.5098 23.0774 20.9797 21.943 21.8161 21.1066C22.6525 20.2702 23.7869 19.8003 24.9698 19.8003C26.1526 19.8003 27.2871 20.2702 28.1235 21.1066C28.9599 21.943 29.4298 23.0774 29.4298 24.2603Z" fill="#E0AC00"/>
<path d="M50.0396 24.2601C50.0396 24.8444 49.9245 25.4231 49.7009 25.963C49.4773 26.5029 49.1495 26.9935 48.7363 27.4067C48.3231 27.8199 47.8325 28.1477 47.2926 28.3713C46.7527 28.595 46.174 28.7101 45.5896 28.7101C44.4094 28.7101 43.2776 28.2412 42.443 27.4067C41.6085 26.5721 41.1396 25.4403 41.1396 24.2601C41.1396 23.0798 41.6085 21.948 42.443 21.1134C43.2776 20.2789 44.4094 19.8101 45.5896 19.8101C46.174 19.8101 46.7527 19.9252 47.2926 20.1488C47.8325 20.3724 48.3231 20.7002 48.7363 21.1134C49.1495 21.5267 49.4773 22.0172 49.7009 22.5571C49.9245 23.097 50.0396 23.6757 50.0396 24.2601Z" fill="#E0AC00"/>
<path d="M9.19051 24.3399C9.19051 25.5227 8.72062 26.6572 7.8842 27.4936C7.04779 28.33 5.91337 28.7999 4.73051 28.7999C3.54764 28.7999 2.41322 28.33 1.57681 27.4936C0.7404 26.6572 0.270508 25.5227 0.270508 24.3399C0.270508 23.157 0.7404 22.0226 1.57681 21.1862C2.41322 20.3498 3.54764 19.8799 4.73051 19.8799C5.91337 19.8799 7.04779 20.3498 7.8842 21.1862C8.72062 22.0226 9.19051 23.157 9.19051 24.3399Z" fill="#E0AC00"/>
<path d="M88.6797 24.2901C88.6797 25.4782 88.2077 26.6177 87.3676 27.4579C86.5274 28.2981 85.3879 28.7701 84.1997 28.7701C83.0116 28.7701 81.872 28.2981 81.0319 27.4579C80.1917 26.6177 79.7197 25.4782 79.7197 24.2901C79.7197 23.1019 80.1917 21.9624 81.0319 21.1222C81.872 20.2821 83.0116 19.8101 84.1997 19.8101C85.3879 19.8101 86.5274 20.2821 87.3676 21.1222C88.2077 21.9624 88.6797 23.1019 88.6797 24.2901Z" fill="#E0AC00"/>
<path d="M68.89 24.2999C68.89 25.2627 68.5076 26.186 67.8268 26.8667C67.146 27.5475 66.2227 27.9299 65.26 27.9299C64.2973 27.9299 63.374 27.5475 62.6932 26.8667C62.0124 26.186 61.63 25.2627 61.63 24.2999C61.63 23.3372 62.0124 22.4139 62.6932 21.7331C63.374 21.0524 64.2973 20.6699 65.26 20.6699C66.2227 20.6699 67.146 21.0524 67.8268 21.7331C68.5076 22.4139 68.89 23.3372 68.89 24.2999Z" fill="#E0AC00"/>
<path d="M9.1602 43.7803C9.1602 44.3686 9.04431 44.9512 8.81917 45.4947C8.59403 46.0383 8.26404 46.5321 7.84803 46.9481C7.43203 47.3641 6.93816 47.6941 6.39462 47.9193C5.85108 48.1444 5.26852 48.2603 4.68019 48.2603C4.09187 48.2603 3.50931 48.1444 2.96577 47.9193C2.42223 47.6941 1.92836 47.3641 1.51236 46.9481C1.09635 46.5321 0.766355 46.0383 0.541214 45.4947C0.316073 44.9512 0.200195 44.3686 0.200195 43.7803C0.200195 42.5921 0.672195 41.4526 1.51236 40.6125C2.35252 39.7723 3.49203 39.3003 4.68019 39.3003C5.86836 39.3003 7.00787 39.7723 7.84803 40.6125C8.6882 41.4526 9.1602 42.5921 9.1602 43.7803Z" fill="#E0AC00"/>
<path d="M29.68 43.8097C29.68 45.0324 29.1943 46.2049 28.3297 47.0695C27.4652 47.934 26.2926 48.4197 25.07 48.4197C23.8473 48.4197 22.6747 47.934 21.8102 47.0695C20.9457 46.2049 20.46 45.0324 20.46 43.8097C20.46 42.5871 20.9457 41.4145 21.8102 40.5499C22.6747 39.6854 23.8473 39.1997 25.07 39.1997C26.2926 39.1997 27.4652 39.6854 28.3297 40.5499C29.1943 41.4145 29.68 42.5871 29.68 43.8097Z" fill="#171717"/>
<path d="M50.1203 43.8101C50.1203 44.3906 50.0059 44.9653 49.7838 45.5016C49.5617 46.0379 49.2361 46.5251 48.8257 46.9356C48.4152 47.346 47.928 47.6716 47.3917 47.8937C46.8555 48.1158 46.2807 48.2301 45.7003 48.2301C45.1198 48.2301 44.5451 48.1158 44.0088 47.8937C43.4726 47.6716 42.9853 47.346 42.5749 46.9356C42.1644 46.5251 41.8388 46.0379 41.6167 45.5016C41.3946 44.9653 41.2803 44.3906 41.2803 43.8101C41.2803 42.6379 41.7459 41.5136 42.5749 40.6847C43.4038 39.8558 44.528 39.3901 45.7003 39.3901C46.2807 39.3901 46.8555 39.5045 47.3917 39.7266C47.928 39.9487 48.4152 40.2743 48.8257 40.6847C49.2361 41.0952 49.5617 41.5824 49.7838 42.1187C50.0059 42.6549 50.1203 43.2297 50.1203 43.8101Z" fill="#E0AC00"/>
<path d="M88.6095 43.8799C88.6095 45.0575 88.1417 46.1868 87.3091 47.0195C86.4764 47.8522 85.3471 48.3199 84.1695 48.3199C82.9919 48.3199 81.8626 47.8522 81.0299 47.0195C80.1973 46.1868 79.7295 45.0575 79.7295 43.8799C79.7295 42.7024 80.1973 41.573 81.0299 40.7404C81.8626 39.9077 82.9919 39.4399 84.1695 39.4399C85.3471 39.4399 86.4764 39.9077 87.3091 40.7404C88.1417 41.573 88.6095 42.7024 88.6095 43.8799Z" fill="#E0AC00"/>
<path d="M9.19972 63.4602C9.19972 64.651 8.72667 65.7931 7.88464 66.6351C7.0426 67.4772 5.90055 67.9502 4.70973 67.9502C3.5189 67.9502 2.37686 67.4772 1.53482 66.6351C0.692778 65.7931 0.219727 64.651 0.219727 63.4602C0.219727 62.8706 0.335863 62.2867 0.561506 61.742C0.78715 61.1972 1.11788 60.7022 1.53482 60.2853C1.95175 59.8684 2.44673 59.5376 2.99148 59.312C3.53623 59.0864 4.12009 58.9702 4.70973 58.9702C5.29936 58.9702 5.88322 59.0864 6.42797 59.312C6.97273 59.5376 7.4677 59.8684 7.88464 60.2853C8.30157 60.7022 8.6323 61.1972 8.85795 61.742C9.08359 62.2867 9.19972 62.8706 9.19972 63.4602Z" fill="#E0AC00"/>
<path d="M29.72 63.4899C29.72 64.7125 29.2343 65.8851 28.3698 66.7496C27.5052 67.6142 26.3326 68.0999 25.11 68.0999C23.8874 68.0999 22.7148 67.6142 21.8502 66.7496C20.9857 65.8851 20.5 64.7125 20.5 63.4899C20.5 62.2672 20.9857 61.0947 21.8502 60.2301C22.7148 59.3656 23.8874 58.8799 25.11 58.8799C26.3326 58.8799 27.5052 59.3656 28.3698 60.2301C29.2343 61.0947 29.72 62.2672 29.72 63.4899Z" fill="#171717"/>
<path d="M50.0803 63.5299C50.0803 64.6968 49.6167 65.816 48.7915 66.6412C47.9664 67.4663 46.8472 67.9299 45.6803 67.9299C44.5133 67.9299 43.3942 67.4663 42.569 66.6412C41.7438 65.816 41.2803 64.6968 41.2803 63.5299C41.2803 62.3629 41.7438 61.2438 42.569 60.4186C43.3942 59.5934 44.5133 59.1299 45.6803 59.1299C46.8472 59.1299 47.9664 59.5934 48.7915 60.4186C49.6167 61.2438 50.0803 62.3629 50.0803 63.5299Z" fill="#E0AC00"/>
<path d="M29.7897 83.16C29.7897 83.772 29.6692 84.3779 29.435 84.9433C29.2008 85.5087 28.8576 86.0224 28.4248 86.4551C27.9921 86.8878 27.4784 87.2311 26.913 87.4653C26.3477 87.6995 25.7417 87.82 25.1297 87.82C24.5178 87.82 23.9118 87.6995 23.3464 87.4653C22.781 87.2311 22.2673 86.8878 21.8346 86.4551C21.4019 86.0224 21.0586 85.5087 20.8244 84.9433C20.5903 84.3779 20.4697 83.772 20.4697 83.16C20.4697 82.548 20.5903 81.9421 20.8244 81.3767C21.0586 80.8113 21.4019 80.2976 21.8346 79.8649C22.2673 79.4322 22.781 79.0889 23.3464 78.8547C23.9118 78.6205 24.5178 78.5 25.1297 78.5C26.3656 78.5 27.5509 78.991 28.4248 79.8649C29.2988 80.7388 29.7897 81.9241 29.7897 83.16Z" fill="#171717"/>
<path d="M9.1802 83.2503C9.1802 83.8399 9.06406 84.4238 8.83842 84.9685C8.61277 85.5133 8.28204 86.0082 7.8651 86.4252C7.44817 86.8421 6.9532 87.1728 6.40844 87.3985C5.86369 87.6241 5.27983 87.7403 4.6902 87.7403C4.10056 87.7403 3.5167 87.6241 2.97195 87.3985C2.42719 87.1728 1.93222 86.8421 1.51529 86.4252C1.09835 86.0082 0.767621 85.5133 0.541977 84.9685C0.316333 84.4238 0.200195 83.8399 0.200195 83.2503C0.200195 82.0594 0.673247 80.9174 1.51529 80.0753C2.35732 79.2333 3.49937 78.7603 4.6902 78.7603C5.88102 78.7603 7.02307 79.2333 7.8651 80.0753C8.70714 80.9174 9.1802 82.0594 9.1802 83.2503Z" fill="#E0AC00"/>
<path d="M50.07 83.1898C50.07 83.7689 49.9559 84.3424 49.7343 84.8774C49.5127 85.4125 49.1878 85.8986 48.7783 86.3081C48.3688 86.7176 47.8827 87.0425 47.3476 87.2641C46.8126 87.4857 46.2391 87.5998 45.66 87.5998C44.4904 87.5998 43.3687 87.1352 42.5417 86.3081C41.7146 85.4811 41.25 84.3594 41.25 83.1898C41.25 82.0202 41.7146 80.8985 42.5417 80.0714C43.3687 79.2444 44.4904 78.7798 45.66 78.7798C46.2391 78.7798 46.8126 78.8938 47.3476 79.1155C47.8827 79.3371 48.3688 79.6619 48.7783 80.0714C49.1878 80.4809 49.5127 80.9671 49.7343 81.5022C49.9559 82.0372 50.07 82.6107 50.07 83.1898Z" fill="#E0AC00"/>
<path d="M68.9504 82.8297C68.9504 83.7924 68.568 84.7158 67.8872 85.3965C67.2065 86.0773 66.2832 86.4597 65.3204 86.4597C64.8437 86.4597 64.3717 86.3658 63.9313 86.1834C63.4909 86.001 63.0907 85.7336 62.7536 85.3965C62.4166 85.0594 62.1492 84.6593 61.9667 84.2188C61.7843 83.7784 61.6904 83.3064 61.6904 82.8297C61.6904 82.353 61.7843 81.881 61.9667 81.4406C62.1492 81.0002 62.4166 80.6 62.7536 80.2629C63.0907 79.9258 63.4909 79.6584 63.9313 79.476C64.3717 79.2936 64.8437 79.1997 65.3204 79.1997C66.2832 79.1997 67.2065 79.5822 67.8872 80.2629C68.568 80.9437 68.9504 81.867 68.9504 82.8297Z" fill="#E0AC00"/>
<path d="M29.8605 102.89C29.8605 103.503 29.7397 104.111 29.505 104.677C29.2703 105.244 28.9263 105.759 28.4927 106.192C28.059 106.626 27.5442 106.97 26.9776 107.205C26.411 107.439 25.8038 107.56 25.1905 107.56C24.5772 107.56 23.97 107.439 23.4034 107.205C22.8368 106.97 22.322 106.626 21.8883 106.192C21.4547 105.759 21.1107 105.244 20.876 104.677C20.6413 104.111 20.5205 103.503 20.5205 102.89C20.5205 101.652 21.0125 100.464 21.8883 99.588C22.7641 98.7122 23.9519 98.2202 25.1905 98.2202C26.4291 98.2202 27.6169 98.7122 28.4927 99.588C29.3685 100.464 29.8605 101.652 29.8605 102.89Z" fill="#171717"/>
<path d="M50.3304 102.8C50.3304 104.012 49.8489 105.174 48.9919 106.031C48.1349 106.889 46.9725 107.37 45.7604 107.37C44.5484 107.37 43.386 106.889 42.5289 106.031C41.6719 105.174 41.1904 104.012 41.1904 102.8C41.1904 101.588 41.6719 100.426 42.5289 99.5685C43.386 98.7115 44.5484 98.23 45.7604 98.23C46.9725 98.23 48.1349 98.7115 48.9919 99.5685C49.8489 100.426 50.3304 101.588 50.3304 102.8Z" fill="#171717"/>
<path d="M9.19965 102.89C9.19965 104.091 8.72238 105.244 7.87284 106.093C7.0233 106.943 5.87108 107.42 4.66965 107.42C3.46822 107.42 2.31599 106.943 1.46645 106.093C0.616914 105.244 0.139648 104.091 0.139648 102.89C0.139648 102.295 0.25682 101.706 0.484474 101.156C0.712128 100.607 1.0458 100.107 1.46645 99.6867C1.8871 99.266 2.38649 98.9323 2.93609 98.7047C3.4857 98.477 4.07476 98.3599 4.66965 98.3599C5.26454 98.3599 5.8536 98.477 6.4032 98.7047C6.95281 98.9323 7.45219 99.266 7.87284 99.6867C8.29349 100.107 8.62717 100.607 8.85482 101.156C9.08247 101.706 9.19965 102.295 9.19965 102.89Z" fill="#E0AC00"/>
<path d="M9.32 122.76C9.32 123.996 8.82904 125.181 7.95512 126.055C7.0812 126.929 5.89591 127.42 4.66 127.42C3.42409 127.42 2.2388 126.929 1.36488 126.055C0.490964 125.181 0 123.996 0 122.76C0 121.524 0.490964 120.339 1.36488 119.465C2.2388 118.591 3.42409 118.1 4.66 118.1C5.89591 118.1 7.0812 118.591 7.95512 119.465C8.82904 120.339 9.32 121.524 9.32 122.76Z" fill="#171717"/>
<path d="M29.7696 122.76C29.7696 124.004 29.2755 125.197 28.396 126.076C27.5164 126.956 26.3235 127.45 25.0796 127.45C23.8358 127.45 22.6429 126.956 21.7633 126.076C20.8838 125.197 20.3896 124.004 20.3896 122.76C20.3896 121.516 20.8838 120.323 21.7633 119.443C22.6429 118.564 23.8358 118.07 25.0796 118.07C26.3235 118.07 27.5164 118.564 28.396 119.443C29.2755 120.323 29.7696 121.516 29.7696 122.76Z" fill="#171717"/>
<path d="M9.34004 144.1C9.34004 143.489 9.21976 142.884 8.98608 142.32C8.75239 141.756 8.40988 141.243 7.97808 140.812C7.54629 140.38 7.03368 140.037 6.46952 139.804C5.90535 139.57 5.30069 139.45 4.69004 139.45C3.45678 139.45 2.27404 139.94 1.40199 140.812C0.529949 141.684 0.0400391 142.866 0.0400391 144.1C0.0400391 145.333 0.529949 146.516 1.40199 147.388C2.27404 148.26 3.45678 148.75 4.69004 148.75C5.30069 148.75 5.90535 148.629 6.46952 148.396C7.03368 148.162 7.54629 147.82 7.97808 147.388C8.40988 146.956 8.75239 146.443 8.98608 145.879C9.21976 145.315 9.34004 144.71 9.34004 144.1Z" stroke="#171717" stroke-width="0.5"/>
<path d="M29.6201 144.14C29.6201 142.946 29.146 141.802 28.3021 140.958C27.4582 140.114 26.3136 139.64 25.1201 139.64C23.9266 139.64 22.7821 140.114 21.9381 140.958C21.0942 141.802 20.6201 142.946 20.6201 144.14C20.6201 145.333 21.0942 146.478 21.9381 147.322C22.7821 148.166 23.9266 148.64 25.1201 148.64C26.3136 148.64 27.4582 148.166 28.3021 147.322C29.146 146.478 29.6201 145.333 29.6201 144.14Z" stroke="#E0AC00" stroke-width="0.5"/>
<path d="M50.1402 144.099C50.1402 142.909 49.6671 141.767 48.8251 140.924C47.983 140.082 46.841 139.609 45.6502 139.609C45.0605 139.609 44.4767 139.726 43.9319 139.951C43.3872 140.177 42.8922 140.508 42.4753 140.924C42.0583 141.341 41.7276 141.836 41.5019 142.381C41.2763 142.926 41.1602 143.51 41.1602 144.099C41.1602 144.689 41.2763 145.273 41.5019 145.818C41.7276 146.362 42.0583 146.857 42.4753 147.274C42.8922 147.691 43.3872 148.022 43.9319 148.248C44.4767 148.473 45.0605 148.589 45.6502 148.589C46.841 148.589 47.983 148.116 48.8251 147.274C49.6671 146.432 50.1402 145.29 50.1402 144.099Z" stroke="#E0AC00" stroke-width="0.5"/>
<path d="M29.4298 163.71C29.4298 162.527 28.9599 161.393 28.1235 160.556C27.2871 159.72 26.1526 159.25 24.9698 159.25C23.7869 159.25 22.6525 159.72 21.8161 160.556C20.9797 161.393 20.5098 162.527 20.5098 163.71C20.5098 164.893 20.9797 166.027 21.8161 166.864C22.6525 167.7 23.7869 168.17 24.9698 168.17C26.1526 168.17 27.2871 167.7 28.1235 166.864C28.9599 166.027 29.4298 164.893 29.4298 163.71Z" stroke="#E0AC00" stroke-width="0.5"/>
<path d="M50.0396 163.71C50.0396 163.125 49.9245 162.547 49.7009 162.007C49.4773 161.467 49.1495 160.976 48.7363 160.563C48.3231 160.15 47.8325 159.822 47.2926 159.598C46.7527 159.375 46.174 159.26 45.5896 159.26C44.4094 159.26 43.2776 159.729 42.443 160.563C41.6085 161.398 41.1396 162.53 41.1396 163.71C41.1396 164.89 41.6085 166.022 42.443 166.856C43.2776 167.691 44.4094 168.16 45.5896 168.16C46.174 168.16 46.7527 168.045 47.2926 167.821C47.8325 167.597 48.3231 167.27 48.7363 166.856C49.1495 166.443 49.4773 165.953 49.7009 165.413C49.9245 164.873 50.0396 164.294 50.0396 163.71Z" stroke="#E0AC00" stroke-width="0.5"/>
<path d="M9.19051 163.79C9.19051 162.607 8.72062 161.472 7.8842 160.636C7.04779 159.799 5.91337 159.33 4.73051 159.33C3.54764 159.33 2.41322 159.799 1.57681 160.636C0.7404 161.472 0.270508 162.607 0.270508 163.79C0.270508 164.972 0.7404 166.107 1.57681 166.943C2.41322 167.78 3.54764 168.25 4.73051 168.25C5.91337 168.25 7.04779 167.78 7.8842 166.943C8.72062 166.107 9.19051 164.972 9.19051 163.79Z" stroke="#E0AC00" stroke-width="0.5"/>
<path d="M68.89 163.75C68.89 162.787 68.5076 161.864 67.8268 161.183C67.146 160.502 66.2227 160.12 65.26 160.12C64.2973 160.12 63.374 160.502 62.6932 161.183C62.0124 161.864 61.63 162.787 61.63 163.75C61.63 164.712 62.0124 165.636 62.6932 166.316C63.374 166.997 64.2973 167.38 65.26 167.38C66.2227 167.38 67.146 166.997 67.8268 166.316C68.5076 165.636 68.89 164.712 68.89 163.75Z" stroke="#E0AC00" stroke-width="0.5"/>
<path d="M9.1602 183.23C9.1602 182.042 8.6882 180.902 7.84803 180.062C7.00787 179.222 5.86836 178.75 4.68019 178.75C3.49203 178.75 2.35252 179.222 1.51236 180.062C0.672195 180.902 0.200195 182.042 0.200195 183.23C0.200195 183.818 0.316073 184.401 0.541214 184.944C0.766355 185.488 1.09635 185.982 1.51236 186.398C1.92836 186.814 2.42223 187.144 2.96577 187.369C3.50931 187.594 4.09187 187.71 4.68019 187.71C5.26852 187.71 5.85108 187.594 6.39462 187.369C6.93816 187.144 7.43203 186.814 7.84803 186.398C8.26404 185.982 8.59403 185.488 8.81917 184.944C9.04431 184.401 9.1602 183.818 9.1602 183.23Z" stroke="#E0AC00" stroke-width="0.5"/>
<path d="M29.68 183.259C29.68 182.037 29.1943 180.864 28.3297 180C27.4652 179.135 26.2926 178.649 25.07 178.649C23.8473 178.649 22.6747 179.135 21.8102 180C20.9457 180.864 20.46 182.037 20.46 183.259C20.46 184.482 20.9457 185.655 21.8102 186.519C22.6747 187.384 23.8473 187.869 25.07 187.869C26.2926 187.869 27.4652 187.384 28.3297 186.519C29.1943 185.655 29.68 184.482 29.68 183.259Z" stroke="#171717" stroke-width="0.5"/>
<path d="M50.1203 183.26C50.1203 182.679 50.0059 182.105 49.7838 181.568C49.5617 181.032 49.2361 180.545 48.8257 180.134C48.4152 179.724 47.928 179.398 47.3917 179.176C46.8555 178.954 46.2807 178.84 45.7003 178.84C44.528 178.84 43.4038 179.306 42.5749 180.134C41.7459 180.963 41.2803 182.088 41.2803 183.26C41.2803 183.84 41.3946 184.415 41.6167 184.951C41.8388 185.488 42.1644 185.975 42.5749 186.385C42.9853 186.796 43.4726 187.121 44.0088 187.343C44.5451 187.566 45.1198 187.68 45.7003 187.68C46.2807 187.68 46.8555 187.566 47.3917 187.343C47.928 187.121 48.4152 186.796 48.8257 186.385C49.2361 185.975 49.5617 185.488 49.7838 184.951C50.0059 184.415 50.1203 183.84 50.1203 183.26Z" stroke="#E0AC00" stroke-width="0.5"/>
<path d="M9.34004 144.1C9.34004 144.71 9.21976 145.315 8.98608 145.879C8.75239 146.443 8.40988 146.956 7.97808 147.388C7.54629 147.82 7.03368 148.162 6.46952 148.396C5.90535 148.629 5.30069 148.75 4.69004 148.75C3.45678 148.75 2.27404 148.26 1.40199 147.388C0.529949 146.516 0.0400391 145.333 0.0400391 144.1C0.0400391 142.866 0.529949 141.684 1.40199 140.812C2.27404 139.94 3.45678 139.45 4.69004 139.45C5.30069 139.45 5.90535 139.57 6.46952 139.804C7.03368 140.037 7.54629 140.38 7.97808 140.812C8.40988 141.243 8.75239 141.756 8.98608 142.32C9.21976 142.884 9.34004 143.489 9.34004 144.1Z" fill="#171717"/>
<path d="M29.62 144.14C29.62 145.333 29.1459 146.478 28.302 147.322C27.4581 148.166 26.3135 148.64 25.12 148.64C23.9265 148.64 22.7819 148.166 21.938 147.322C21.0941 146.478 20.62 145.333 20.62 144.14C20.62 142.946 21.0941 141.802 21.938 140.958C22.7819 140.114 23.9265 139.64 25.12 139.64C26.3135 139.64 27.4581 140.114 28.302 140.958C29.1459 141.802 29.62 142.946 29.62 144.14Z" fill="#E0AC00"/>
<path d="M50.1402 144.099C50.1402 145.29 49.6671 146.432 48.8251 147.274C47.983 148.116 46.841 148.589 45.6502 148.589C45.0605 148.589 44.4767 148.473 43.9319 148.248C43.3872 148.022 42.8922 147.691 42.4753 147.274C42.0583 146.857 41.7276 146.362 41.5019 145.818C41.2763 145.273 41.1602 144.689 41.1602 144.099C41.1602 143.51 41.2763 142.926 41.5019 142.381C41.7276 141.836 42.0583 141.341 42.4753 140.924C42.8922 140.508 43.3872 140.177 43.9319 139.951C44.4767 139.726 45.0605 139.609 45.6502 139.609C46.841 139.609 47.983 140.082 48.8251 140.924C49.6671 141.767 50.1402 142.909 50.1402 144.099Z" fill="#E0AC00"/>
<path d="M29.4298 163.71C29.4298 164.893 28.9599 166.027 28.1235 166.864C27.2871 167.7 26.1526 168.17 24.9698 168.17C23.7869 168.17 22.6525 167.7 21.8161 166.864C20.9797 166.027 20.5098 164.893 20.5098 163.71C20.5098 162.527 20.9797 161.393 21.8161 160.556C22.6525 159.72 23.7869 159.25 24.9698 159.25C26.1526 159.25 27.2871 159.72 28.1235 160.556C28.9599 161.393 29.4298 162.527 29.4298 163.71Z" fill="#E0AC00"/>
<path d="M50.0396 163.71C50.0396 164.294 49.9245 164.873 49.7009 165.413C49.4773 165.953 49.1495 166.443 48.7363 166.856C48.3231 167.27 47.8325 167.597 47.2926 167.821C46.7527 168.045 46.174 168.16 45.5896 168.16C44.4094 168.16 43.2776 167.691 42.443 166.856C41.6085 166.022 41.1396 164.89 41.1396 163.71C41.1396 162.53 41.6085 161.398 42.443 160.563C43.2776 159.729 44.4094 159.26 45.5896 159.26C46.174 159.26 46.7527 159.375 47.2926 159.598C47.8325 159.822 48.3231 160.15 48.7363 160.563C49.1495 160.976 49.4773 161.467 49.7009 162.007C49.9245 162.547 50.0396 163.125 50.0396 163.71Z" fill="#E0AC00"/>
<path d="M9.19051 163.79C9.19051 164.972 8.72062 166.107 7.8842 166.943C7.04779 167.78 5.91337 168.25 4.73051 168.25C3.54764 168.25 2.41322 167.78 1.57681 166.943C0.7404 166.107 0.270508 164.972 0.270508 163.79C0.270508 162.607 0.7404 161.472 1.57681 160.636C2.41322 159.799 3.54764 159.33 4.73051 159.33C5.91337 159.33 7.04779 159.799 7.8842 160.636C8.72062 161.472 9.19051 162.607 9.19051 163.79Z" fill="#E0AC00"/>
<path d="M68.89 163.75C68.89 164.712 68.5076 165.636 67.8268 166.316C67.146 166.997 66.2227 167.38 65.26 167.38C64.2973 167.38 63.374 166.997 62.6932 166.316C62.0124 165.636 61.63 164.712 61.63 163.75C61.63 162.787 62.0124 161.864 62.6932 161.183C63.374 160.502 64.2973 160.12 65.26 160.12C66.2227 160.12 67.146 160.502 67.8268 161.183C68.5076 161.864 68.89 162.787 68.89 163.75Z" fill="#E0AC00"/>
<path d="M9.1602 183.23C9.1602 183.818 9.04431 184.401 8.81917 184.944C8.59403 185.488 8.26404 185.982 7.84803 186.398C7.43203 186.814 6.93816 187.144 6.39462 187.369C5.85108 187.594 5.26852 187.71 4.68019 187.71C4.09187 187.71 3.50931 187.594 2.96577 187.369C2.42223 187.144 1.92836 186.814 1.51236 186.398C1.09635 185.982 0.766355 185.488 0.541214 184.944C0.316073 184.401 0.200195 183.818 0.200195 183.23C0.200195 182.042 0.672195 180.902 1.51236 180.062C2.35252 179.222 3.49203 178.75 4.68019 178.75C5.86836 178.75 7.00787 179.222 7.84803 180.062C8.6882 180.902 9.1602 182.042 9.1602 183.23Z" fill="#E0AC00"/>
<path d="M29.68 183.259C29.68 184.482 29.1943 185.655 28.3297 186.519C27.4652 187.384 26.2926 187.869 25.07 187.869C23.8473 187.869 22.6747 187.384 21.8102 186.519C20.9457 185.655 20.46 184.482 20.46 183.259C20.46 182.037 20.9457 180.864 21.8102 180C22.6747 179.135 23.8473 178.649 25.07 178.649C26.2926 178.649 27.4652 179.135 28.3297 180C29.1943 180.864 29.68 182.037 29.68 183.259Z" fill="#171717"/>
<path d="M50.1203 183.26C50.1203 183.84 50.0059 184.415 49.7838 184.951C49.5617 185.488 49.2361 185.975 48.8257 186.385C48.4152 186.796 47.928 187.121 47.3917 187.343C46.8555 187.566 46.2807 187.68 45.7003 187.68C45.1198 187.68 44.5451 187.566 44.0088 187.343C43.4726 187.121 42.9853 186.796 42.5749 186.385C42.1644 185.975 41.8388 185.488 41.6167 184.951C41.3946 184.415 41.2803 183.84 41.2803 183.26C41.2803 182.088 41.7459 180.963 42.5749 180.134C43.4038 179.306 44.528 178.84 45.7003 178.84C46.2807 178.84 46.8555 178.954 47.3917 179.176C47.928 179.398 48.4152 179.724 48.8257 180.134C49.2361 180.545 49.5617 181.032 49.7838 181.568C50.0059 182.105 50.1203 182.679 50.1203 183.26Z" fill="#E0AC00"/>
</g>
<defs>
<clipPath id="clip0_7_3791">
<rect width="101" height="190" fill="white"/>
</clipPath>
</defs>
</svg>
