<svg width="109" height="190" viewBox="0 0 109 190" fill="none" xmlns="http://www.w3.org/2000/svg">
<g clip-path="url(#clip0_7_7514)">
<path d="M79.2107 6.25558C79.2107 5.01967 79.7016 3.83438 80.5756 2.96046C81.4495 2.08654 82.6348 1.59558 83.8707 1.59558C84.4826 1.59558 85.0886 1.71612 85.654 1.9503C86.2193 2.18449 86.7331 2.52774 87.1658 2.96046C87.5985 3.39318 87.9418 3.9069 88.1759 4.47227C88.4101 5.03765 88.5307 5.64362 88.5307 6.25558C88.5307 6.86754 88.4101 7.4735 88.1759 8.03888C87.9418 8.60426 87.5985 9.11798 87.1658 9.5507C86.7331 9.98342 86.2193 10.3267 85.654 10.5609C85.0886 10.795 84.4826 10.9156 83.8707 10.9156C83.2587 10.9156 82.6527 10.795 82.0874 10.5609C81.522 10.3267 81.0083 9.98342 80.5756 9.5507C80.1428 9.11798 79.7996 8.60426 79.5654 8.03888C79.3312 7.4735 79.2107 6.86754 79.2107 6.25558Z" stroke="#171717" stroke-width="0.5"/>
<path d="M20.1306 6.31564C20.1306 5.07973 20.6215 3.89444 21.4955 3.02052C22.3694 2.1466 23.5547 1.65564 24.7906 1.65564C26.0265 1.65564 27.2118 2.1466 28.0857 3.02052C28.9596 3.89444 29.4506 5.07973 29.4506 6.31564C29.4506 7.55154 28.9596 8.73684 28.0857 9.61076C27.2118 10.4847 26.0265 10.9756 24.7906 10.9756C23.5547 10.9756 22.3694 10.4847 21.4955 9.61076C20.6215 8.73684 20.1306 7.55154 20.1306 6.31564Z" stroke="#171717" stroke-width="0.5"/>
<path d="M99.8202 6.34584C99.8202 5.15502 100.293 4.01297 101.135 3.17093C101.977 2.32889 103.119 1.85583 104.31 1.85583C105.501 1.85583 106.643 2.32889 107.485 3.17093C108.327 4.01297 108.8 5.15502 108.8 6.34584C108.8 6.93548 108.684 7.51934 108.458 8.06409C108.233 8.60884 107.902 9.10381 107.485 9.52074C107.068 9.93768 106.573 10.2684 106.028 10.4941C105.484 10.7197 104.9 10.8358 104.31 10.8358C103.721 10.8358 103.137 10.7197 102.592 10.4941C102.047 10.2684 101.552 9.93768 101.135 9.52074C100.718 9.10381 100.388 8.60884 100.162 8.06409C99.9363 7.51934 99.8202 6.93548 99.8202 6.34584Z" stroke="#E0AC00" stroke-width="0.5"/>
<path d="M58.9304 6.28536C58.9304 5.70623 59.0445 5.13278 59.2661 4.59773C59.4877 4.06269 59.8125 3.57653 60.2221 3.16702C60.6316 2.75752 61.1177 2.43268 61.6528 2.21105C62.1878 1.98943 62.7613 1.87537 63.3404 1.87537C64.51 1.87537 65.6317 2.33999 66.4587 3.16702C67.2858 3.99406 67.7504 5.11576 67.7504 6.28536C67.7504 7.45497 67.2858 8.57667 66.4587 9.4037C65.6317 10.2307 64.51 10.6954 63.3404 10.6954C62.7613 10.6954 62.1878 10.5813 61.6528 10.3597C61.1177 10.138 60.6316 9.81321 60.2221 9.4037C59.8125 8.9942 59.4877 8.50805 59.2661 7.973C59.0445 7.43795 58.9304 6.86449 58.9304 6.28536Z" stroke="#E0AC00" stroke-width="0.5"/>
<path d="M0.350594 5.65584C0.350594 4.64802 0.750947 3.68147 1.46358 2.96883C2.17622 2.2562 3.14276 1.85583 4.15058 1.85583C5.1584 1.85583 6.12495 2.2562 6.83759 2.96883C7.55023 3.68147 7.95059 4.64802 7.95059 5.65584C7.95059 6.66366 7.55023 7.6302 6.83759 8.34284C6.12495 9.05548 5.1584 9.45584 4.15058 9.45584C3.14276 9.45584 2.17622 9.05548 1.46358 8.34284C0.750947 7.6302 0.350594 6.66366 0.350594 5.65584Z" stroke="#171717" stroke-width="0.5"/>
<path d="M40.05 5.92529C40.05 4.96255 40.4324 4.03925 41.1132 3.35849C41.7939 2.67773 42.7172 2.29529 43.68 2.29529C44.1567 2.29529 44.6287 2.38918 45.0691 2.5716C45.5095 2.75403 45.9097 3.02141 46.2468 3.35849C46.5838 3.69557 46.8512 4.09574 47.0337 4.53615C47.2161 4.97656 47.31 5.44859 47.31 5.92529C47.31 6.40198 47.2161 6.87402 47.0337 7.31443C46.8512 7.75484 46.5838 8.15501 46.2468 8.49209C45.9097 8.82916 45.5095 9.09654 45.0691 9.27897C44.6287 9.46139 44.1567 9.55529 43.68 9.55529C42.7172 9.55529 41.7939 9.17285 41.1132 8.49209C40.4324 7.81133 40.05 6.88802 40.05 5.92529Z" stroke="#E0AC00" stroke-width="0.5"/>
<path d="M79.1399 25.9858C79.1399 24.7472 79.6319 23.5594 80.5077 22.6836C81.3835 21.8078 82.5713 21.3158 83.8099 21.3158C85.0485 21.3158 86.2363 21.8078 87.1121 22.6836C87.9879 23.5594 88.4799 24.7472 88.4799 25.9858C88.4799 26.5991 88.3591 27.2063 88.1244 27.7729C87.8897 28.3395 87.5457 28.8543 87.1121 29.288C86.6784 29.7216 86.1636 30.0656 85.597 30.3003C85.0304 30.535 84.4232 30.6558 83.8099 30.6558C83.1966 30.6558 82.5893 30.535 82.0228 30.3003C81.4562 30.0656 80.9414 29.7216 80.5077 29.288C80.0741 28.8543 79.7301 28.3395 79.4954 27.7729C79.2607 27.2063 79.1399 26.5991 79.1399 25.9858Z" stroke="#171717" stroke-width="0.5"/>
<path d="M58.67 25.8956C58.67 24.6835 59.1515 23.5211 60.0085 22.6641C60.8655 21.807 62.0279 21.3256 63.24 21.3256C64.452 21.3256 65.6144 21.807 66.4715 22.6641C67.3285 23.5211 67.81 24.6835 67.81 25.8956C67.81 27.1076 67.3285 28.27 66.4715 29.127C65.6144 29.9841 64.452 30.4656 63.24 30.4656C62.0279 30.4656 60.8655 29.9841 60.0085 29.127C59.1515 28.27 58.67 27.1076 58.67 25.8956Z" stroke="#171717" stroke-width="0.5"/>
<path d="M20.1502 26.0651C20.1502 24.8239 20.6432 23.6335 21.5209 22.7559C22.3986 21.8782 23.5889 21.3851 24.8302 21.3851C26.0714 21.3851 27.2617 21.8782 28.1394 22.7559C29.0171 23.6335 29.5102 24.8239 29.5102 26.0651C29.5102 27.3063 29.0171 28.4967 28.1394 29.3744C27.2617 30.2521 26.0714 30.7451 24.8302 30.7451C23.5889 30.7451 22.3986 30.2521 21.5209 29.3744C20.6432 28.4967 20.1502 27.3063 20.1502 26.0651Z" stroke="#171717" stroke-width="0.5"/>
<path d="M99.8008 25.9854C99.8008 25.3906 99.9179 24.8015 100.146 24.2519C100.373 23.7023 100.707 23.2029 101.128 22.7822C101.548 22.3616 102.048 22.0279 102.597 21.8003C103.147 21.5726 103.736 21.4554 104.331 21.4554C104.926 21.4554 105.515 21.5726 106.064 21.8003C106.614 22.0279 107.113 22.3616 107.534 22.7822C107.955 23.2029 108.288 23.7023 108.516 24.2519C108.744 24.8015 108.861 25.3906 108.861 25.9854C108.861 27.1869 108.383 28.3391 107.534 29.1886C106.684 30.0382 105.532 30.5154 104.331 30.5154C103.129 30.5154 101.977 30.0382 101.128 29.1886C100.278 28.3391 99.8008 27.1869 99.8008 25.9854Z" stroke="#E0AC00" stroke-width="0.5"/>
<path d="M99.6804 45.8557C99.6804 44.6198 100.171 43.4345 101.045 42.5606C101.919 41.6866 103.104 41.1957 104.34 41.1957C105.576 41.1957 106.762 41.6866 107.636 42.5606C108.509 43.4345 109 44.6198 109 45.8557C109 47.0916 108.509 48.2769 107.636 49.1508C106.762 50.0247 105.576 50.5157 104.34 50.5157C103.104 50.5157 101.919 50.0247 101.045 49.1508C100.171 48.2769 99.6804 47.0916 99.6804 45.8557Z" stroke="#171717" stroke-width="0.5"/>
<path d="M79.2307 45.8554C79.2307 44.6115 79.7249 43.4186 80.6044 42.5391C81.484 41.6595 82.6769 41.1654 83.9207 41.1654C85.1646 41.1654 86.3575 41.6595 87.2371 42.5391C88.1166 43.4186 88.6107 44.6115 88.6107 45.8554C88.6107 47.0993 88.1166 48.2922 87.2371 49.1717C86.3575 50.0513 85.1646 50.5454 83.9207 50.5454C82.6769 50.5454 81.484 50.0513 80.6044 49.1717C79.7249 48.2922 79.2307 47.0993 79.2307 45.8554Z" stroke="#171717" stroke-width="0.5"/>
<path d="M79.2107 6.25558C79.2107 6.86754 79.3312 7.4735 79.5654 8.03888C79.7996 8.60426 80.1428 9.11798 80.5756 9.5507C81.0083 9.98342 81.522 10.3267 82.0874 10.5609C82.6527 10.795 83.2587 10.9156 83.8707 10.9156C84.4826 10.9156 85.0886 10.795 85.654 10.5609C86.2193 10.3267 86.7331 9.98342 87.1658 9.5507C87.5985 9.11798 87.9418 8.60426 88.1759 8.03888C88.4101 7.4735 88.5307 6.86754 88.5307 6.25558C88.5307 5.64362 88.4101 5.03765 88.1759 4.47227C87.9418 3.9069 87.5985 3.39318 87.1658 2.96046C86.7331 2.52774 86.2193 2.18449 85.654 1.9503C85.0886 1.71612 84.4826 1.59558 83.8707 1.59558C82.6348 1.59558 81.4495 2.08654 80.5756 2.96046C79.7016 3.83438 79.2107 5.01967 79.2107 6.25558Z" fill="#171717"/>
<path d="M20.1306 6.31564C20.1306 7.55154 20.6215 8.73684 21.4955 9.61076C22.3694 10.4847 23.5547 10.9756 24.7906 10.9756C26.0265 10.9756 27.2118 10.4847 28.0857 9.61076C28.9596 8.73684 29.4506 7.55154 29.4506 6.31564C29.4506 5.07973 28.9596 3.89444 28.0857 3.02052C27.2118 2.1466 26.0265 1.65564 24.7906 1.65564C23.5547 1.65564 22.3694 2.1466 21.4955 3.02052C20.6215 3.89444 20.1306 5.07973 20.1306 6.31564Z" fill="#171717"/>
<path d="M99.8202 6.34584C99.8202 6.93548 99.9363 7.51934 100.162 8.06409C100.388 8.60884 100.718 9.10381 101.135 9.52074C101.552 9.93768 102.047 10.2684 102.592 10.4941C103.137 10.7197 103.721 10.8358 104.31 10.8358C104.9 10.8358 105.484 10.7197 106.028 10.4941C106.573 10.2684 107.068 9.93768 107.485 9.52074C107.902 9.10381 108.233 8.60884 108.458 8.06409C108.684 7.51934 108.8 6.93548 108.8 6.34584C108.8 5.15502 108.327 4.01297 107.485 3.17093C106.643 2.32889 105.501 1.85583 104.31 1.85583C103.119 1.85583 101.977 2.32889 101.135 3.17093C100.293 4.01297 99.8202 5.15502 99.8202 6.34584Z" fill="#E0AC00"/>
<path d="M58.9304 6.28536C58.9304 6.86449 59.0445 7.43795 59.2661 7.973C59.4877 8.50805 59.8125 8.9942 60.2221 9.4037C60.6316 9.81321 61.1177 10.138 61.6528 10.3597C62.1878 10.5813 62.7613 10.6954 63.3404 10.6954C64.51 10.6954 65.6317 10.2307 66.4587 9.4037C67.2858 8.57667 67.7504 7.45497 67.7504 6.28536C67.7504 5.11576 67.2858 3.99406 66.4587 3.16702C65.6317 2.33999 64.51 1.87537 63.3404 1.87537C62.7613 1.87537 62.1878 1.98943 61.6528 2.21105C61.1177 2.43268 60.6316 2.75752 60.2221 3.16702C59.8125 3.57653 59.4877 4.06269 59.2661 4.59773C59.0445 5.13278 58.9304 5.70623 58.9304 6.28536Z" fill="#E0AC00"/>
<path d="M0.350594 5.65584C0.350594 6.66366 0.750947 7.6302 1.46358 8.34284C2.17622 9.05548 3.14276 9.45584 4.15058 9.45584C5.1584 9.45584 6.12495 9.05548 6.83759 8.34284C7.55023 7.6302 7.95059 6.66366 7.95059 5.65584C7.95059 4.64802 7.55023 3.68147 6.83759 2.96883C6.12495 2.2562 5.1584 1.85583 4.15058 1.85583C3.14276 1.85583 2.17622 2.2562 1.46358 2.96883C0.750947 3.68147 0.350594 4.64802 0.350594 5.65584Z" fill="#171717"/>
<path d="M40.05 5.92529C40.05 6.88802 40.4324 7.81133 41.1132 8.49209C41.7939 9.17285 42.7172 9.55529 43.68 9.55529C44.1567 9.55529 44.6287 9.46139 45.0691 9.27897C45.5095 9.09654 45.9097 8.82916 46.2468 8.49209C46.5838 8.15501 46.8512 7.75484 47.0337 7.31443C47.2161 6.87402 47.31 6.40198 47.31 5.92529C47.31 5.44859 47.2161 4.97656 47.0337 4.53615C46.8512 4.09574 46.5838 3.69557 46.2468 3.35849C45.9097 3.02141 45.5095 2.75403 45.0691 2.5716C44.6287 2.38918 44.1567 2.29529 43.68 2.29529C42.7172 2.29529 41.7939 2.67773 41.1132 3.35849C40.4324 4.03925 40.05 4.96255 40.05 5.92529Z" fill="#E0AC00"/>
<path d="M79.1399 25.9858C79.1399 26.5991 79.2607 27.2063 79.4954 27.7729C79.7301 28.3395 80.0741 28.8543 80.5077 29.288C80.9414 29.7216 81.4562 30.0656 82.0228 30.3003C82.5893 30.535 83.1966 30.6558 83.8099 30.6558C84.4232 30.6558 85.0304 30.535 85.597 30.3003C86.1636 30.0656 86.6784 29.7216 87.1121 29.288C87.5457 28.8543 87.8897 28.3395 88.1244 27.7729C88.3591 27.2063 88.4799 26.5991 88.4799 25.9858C88.4799 24.7472 87.9879 23.5594 87.1121 22.6836C86.2363 21.8078 85.0485 21.3158 83.8099 21.3158C82.5713 21.3158 81.3835 21.8078 80.5077 22.6836C79.6319 23.5594 79.1399 24.7472 79.1399 25.9858Z" fill="#171717"/>
<path d="M58.67 25.8956C58.67 27.1076 59.1515 28.27 60.0085 29.127C60.8655 29.9841 62.0279 30.4656 63.24 30.4656C64.452 30.4656 65.6144 29.9841 66.4715 29.127C67.3285 28.27 67.81 27.1076 67.81 25.8956C67.81 24.6835 67.3285 23.5211 66.4715 22.6641C65.6144 21.807 64.452 21.3256 63.24 21.3256C62.0279 21.3256 60.8655 21.807 60.0085 22.6641C59.1515 23.5211 58.67 24.6835 58.67 25.8956Z" fill="#171717"/>
<path d="M20.1502 26.0651C20.1502 27.3063 20.6432 28.4967 21.5209 29.3744C22.3986 30.2521 23.5889 30.7451 24.8302 30.7451C26.0714 30.7451 27.2617 30.2521 28.1394 29.3744C29.0171 28.4967 29.5102 27.3063 29.5102 26.0651C29.5102 24.8239 29.0171 23.6335 28.1394 22.7559C27.2617 21.8782 26.0714 21.3851 24.8302 21.3851C23.5889 21.3851 22.3986 21.8782 21.5209 22.7559C20.6432 23.6335 20.1502 24.8239 20.1502 26.0651Z" fill="#171717"/>
<path d="M99.8008 25.9854C99.8008 27.1869 100.278 28.3391 101.128 29.1886C101.977 30.0382 103.129 30.5154 104.331 30.5154C105.532 30.5154 106.684 30.0382 107.534 29.1886C108.383 28.3391 108.861 27.1869 108.861 25.9854C108.861 25.3906 108.744 24.8015 108.516 24.2519C108.288 23.7023 107.955 23.2029 107.534 22.7822C107.113 22.3616 106.614 22.0279 106.064 21.8003C105.515 21.5726 104.926 21.4554 104.331 21.4554C103.736 21.4554 103.147 21.5726 102.597 21.8003C102.048 22.0279 101.548 22.3616 101.128 22.7822C100.707 23.2029 100.373 23.7023 100.146 24.2519C99.9179 24.8015 99.8008 25.3906 99.8008 25.9854Z" fill="#E0AC00"/>
<path d="M99.6804 45.8557C99.6804 47.0916 100.171 48.2769 101.045 49.1508C101.919 50.0247 103.104 50.5157 104.34 50.5157C105.576 50.5157 106.762 50.0247 107.636 49.1508C108.509 48.2769 109 47.0916 109 45.8557C109 44.6198 108.509 43.4345 107.636 42.5606C106.762 41.6866 105.576 41.1957 104.34 41.1957C103.104 41.1957 101.919 41.6866 101.045 42.5606C100.171 43.4345 99.6804 44.6198 99.6804 45.8557Z" fill="#171717"/>
<path d="M79.2307 45.8554C79.2307 47.0993 79.7249 48.2922 80.6044 49.1717C81.484 50.0513 82.6769 50.5454 83.9207 50.5454C85.1646 50.5454 86.3575 50.0513 87.2371 49.1717C88.1166 48.2922 88.6107 47.0993 88.6107 45.8554C88.6107 44.6115 88.1166 43.4186 87.2371 42.5391C86.3575 41.6595 85.1646 41.1654 83.9207 41.1654C82.6769 41.1654 81.484 41.6595 80.6044 42.5391C79.7249 43.4186 79.2307 44.6115 79.2307 45.8554Z" fill="#171717"/>
<path d="M99.6604 67.1954C99.6604 66.5848 99.7806 65.9801 100.014 65.4159C100.248 64.8518 100.591 64.3392 101.022 63.9074C101.454 63.4756 101.967 63.1331 102.531 62.8994C103.095 62.6657 103.7 62.5454 104.31 62.5454C105.544 62.5454 106.726 63.0353 107.598 63.9074C108.47 64.7794 108.96 65.9622 108.96 67.1954C108.96 68.4287 108.47 69.6114 107.598 70.4835C106.726 71.3555 105.544 71.8454 104.31 71.8454C103.7 71.8454 103.095 71.7251 102.531 71.4915C101.967 71.2578 101.454 70.9152 101.022 70.4835C100.591 70.0517 100.248 69.5391 100.014 68.9749C99.7806 68.4107 99.6604 67.8061 99.6604 67.1954Z" stroke="#171717" stroke-width="0.5"/>
<path d="M79.3803 67.2354C79.3803 66.0419 79.8544 64.8973 80.6983 64.0534C81.5422 63.2095 82.6868 62.7354 83.8803 62.7354C85.0738 62.7354 86.2183 63.2095 87.0623 64.0534C87.9062 64.8973 88.3803 66.0419 88.3803 67.2354C88.3803 68.4288 87.9062 69.5734 87.0623 70.4173C86.2183 71.2612 85.0738 71.7354 83.8803 71.7354C82.6868 71.7354 81.5422 71.2612 80.6983 70.4173C79.8544 69.5734 79.3803 68.4288 79.3803 67.2354Z" stroke="#E0AC00" stroke-width="0.5"/>
<path d="M58.8602 67.1951C58.8602 66.0043 59.3333 64.8622 60.1753 64.0202C61.0174 63.1781 62.1594 62.7051 63.3502 62.7051C63.9399 62.7051 64.5237 62.8212 65.0685 63.0469C65.6132 63.2725 66.1082 63.6032 66.5251 64.0202C66.9421 64.4371 67.2728 64.9321 67.4985 65.4768C67.7241 66.0216 67.8402 66.6054 67.8402 67.1951C67.8402 67.7847 67.7241 68.3686 67.4985 68.9133C67.2728 69.4581 66.9421 69.9531 66.5251 70.37C66.1082 70.7869 65.6132 71.1177 65.0685 71.3433C64.5237 71.5689 63.9399 71.6851 63.3502 71.6851C62.1594 71.6851 61.0174 71.212 60.1753 70.37C59.3333 69.5279 58.8602 68.3859 58.8602 67.1951Z" stroke="#E0AC00" stroke-width="0.5"/>
<path d="M79.5706 86.8057C79.5706 85.6228 80.0405 84.4884 80.8769 83.652C81.7133 82.8156 82.8478 82.3457 84.0306 82.3457C85.2135 82.3457 86.3479 82.8156 87.1843 83.652C88.0207 84.4884 88.4906 85.6228 88.4906 86.8057C88.4906 87.9886 88.0207 89.123 87.1843 89.9594C86.3479 90.7958 85.2135 91.2657 84.0306 91.2657C82.8478 91.2657 81.7133 90.7958 80.8769 89.9594C80.0405 89.123 79.5706 87.9886 79.5706 86.8057Z" stroke="#E0AC00" stroke-width="0.5"/>
<path d="M58.9607 86.8055C58.9607 86.2211 59.0759 85.6424 59.2995 85.1025C59.5231 84.5626 59.8509 84.0721 60.2641 83.6588C60.6773 83.2456 61.1679 82.9178 61.7078 82.6942C62.2477 82.4706 62.8264 82.3555 63.4108 82.3555C64.591 82.3555 65.7228 82.8243 66.5574 83.6588C67.3919 84.4934 67.8607 85.6253 67.8607 86.8055C67.8607 87.9857 67.3919 89.1176 66.5574 89.9521C65.7228 90.7866 64.591 91.2555 63.4108 91.2555C62.8264 91.2555 62.2477 91.1404 61.7078 90.9167C61.1679 90.6931 60.6773 90.3653 60.2641 89.9521C59.8509 89.5389 59.5231 89.0483 59.2995 88.5084C59.0759 87.9685 58.9607 87.3899 58.9607 86.8055Z" stroke="#E0AC00" stroke-width="0.5"/>
<path d="M99.8099 86.8853C99.8099 85.7024 100.28 84.568 101.116 83.7316C101.953 82.8952 103.087 82.4253 104.27 82.4253C105.453 82.4253 106.587 82.8952 107.424 83.7316C108.26 84.568 108.73 85.7024 108.73 86.8853C108.73 88.0682 108.26 89.2026 107.424 90.039C106.587 90.8754 105.453 91.3453 104.27 91.3453C103.087 91.3453 101.953 90.8754 101.116 90.039C100.28 89.2026 99.8099 88.0682 99.8099 86.8853Z" stroke="#E0AC00" stroke-width="0.5"/>
<path d="M40.1104 86.8453C40.1104 85.8826 40.4928 84.9593 41.1736 84.2785C41.8543 83.5978 42.7777 83.2153 43.7404 83.2153C44.7031 83.2153 45.6264 83.5978 46.3072 84.2785C46.9879 84.9593 47.3704 85.8826 47.3704 86.8453C47.3704 87.8081 46.9879 88.7314 46.3072 89.4121C45.6264 90.0929 44.7031 90.4753 43.7404 90.4753C42.7777 90.4753 41.8543 90.0929 41.1736 89.4121C40.4928 88.7314 40.1104 87.8081 40.1104 86.8453Z" stroke="#E0AC00" stroke-width="0.5"/>
<path d="M99.8402 106.326C99.8402 105.138 100.312 103.998 101.152 103.158C101.993 102.318 103.132 101.846 104.32 101.846C105.508 101.846 106.648 102.318 107.488 103.158C108.328 103.998 108.8 105.138 108.8 106.326C108.8 106.914 108.684 107.497 108.459 108.04C108.234 108.584 107.904 109.078 107.488 109.494C107.072 109.91 106.578 110.24 106.035 110.465C105.491 110.69 104.909 110.806 104.32 110.806C103.732 110.806 103.149 110.69 102.606 110.465C102.062 110.24 101.568 109.91 101.152 109.494C100.736 109.078 100.406 108.584 100.181 108.04C99.9561 107.497 99.8402 106.914 99.8402 106.326Z" stroke="#E0AC00" stroke-width="0.5"/>
<path d="M79.3204 106.355C79.3204 105.132 79.8061 103.96 80.6707 103.095C81.5352 102.231 82.7078 101.745 83.9304 101.745C85.1531 101.745 86.3257 102.231 87.1902 103.095C88.0547 103.96 88.5404 105.132 88.5404 106.355C88.5404 107.578 88.0547 108.75 87.1902 109.615C86.3257 110.479 85.1531 110.965 83.9304 110.965C82.7078 110.965 81.5352 110.479 80.6707 109.615C79.8061 108.75 79.3204 107.578 79.3204 106.355Z" stroke="#171717" stroke-width="0.5"/>
<path d="M58.8801 106.356C58.8801 105.775 58.9944 105.2 59.2166 104.664C59.4387 104.128 59.7643 103.641 60.1747 103.23C60.5851 102.82 61.0724 102.494 61.6087 102.272C62.1449 102.05 62.7197 101.936 63.3001 101.936C64.4724 101.936 65.5966 102.401 66.4255 103.23C67.2544 104.059 67.7201 105.183 67.7201 106.356C67.7201 106.936 67.6058 107.511 67.3837 108.047C67.1615 108.583 66.836 109.071 66.4255 109.481C66.0151 109.891 65.5278 110.217 64.9916 110.439C64.4553 110.661 63.8806 110.776 63.3001 110.776C62.7197 110.776 62.1449 110.661 61.6087 110.439C61.0724 110.217 60.5851 109.891 60.1747 109.481C59.7643 109.071 59.4387 108.583 59.2166 108.047C58.9944 107.511 58.8801 106.936 58.8801 106.356Z" stroke="#E0AC00" stroke-width="0.5"/>
<path d="M99.8007 126.006C99.8007 125.416 99.9168 124.832 100.142 124.287C100.368 123.743 100.699 123.248 101.116 122.831C101.533 122.414 102.028 122.083 102.572 121.857C103.117 121.632 103.701 121.516 104.291 121.516C104.88 121.516 105.464 121.632 106.009 121.857C106.554 122.083 107.049 122.414 107.466 122.831C107.883 123.248 108.213 123.743 108.439 124.287C108.665 124.832 108.781 125.416 108.781 126.006C108.781 127.196 108.308 128.338 107.466 129.181C106.624 130.023 105.481 130.496 104.291 130.496C103.1 130.496 101.958 130.023 101.116 129.181C100.274 128.338 99.8007 127.196 99.8007 126.006Z" stroke="#E0AC00" stroke-width="0.5"/>
<path d="M79.2804 126.035C79.2804 124.813 79.7661 123.64 80.6306 122.776C81.4952 121.911 82.6677 121.425 83.8904 121.425C85.113 121.425 86.2856 121.911 87.1502 122.776C88.0147 123.64 88.5004 124.813 88.5004 126.035C88.5004 127.258 88.0147 128.431 87.1502 129.295C86.2856 130.16 85.113 130.645 83.8904 130.645C82.6677 130.645 81.4952 130.16 80.6306 129.295C79.7661 128.431 79.2804 127.258 79.2804 126.035Z" stroke="#171717" stroke-width="0.5"/>
<path d="M58.9201 126.075C58.9201 124.908 59.3837 123.789 60.2089 122.964C61.034 122.139 62.1532 121.675 63.3201 121.675C64.4871 121.675 65.6062 122.139 66.4314 122.964C67.2566 123.789 67.7201 124.908 67.7201 126.075C67.7201 127.242 67.2566 128.361 66.4314 129.187C65.6062 130.012 64.4871 130.475 63.3201 130.475C62.1532 130.475 61.034 130.012 60.2089 129.187C59.3837 128.361 58.9201 127.242 58.9201 126.075Z" stroke="#E0AC00" stroke-width="0.5"/>
<path d="M79.2107 145.705C79.2107 144.469 79.7016 143.284 80.5756 142.41C81.4495 141.536 82.6348 141.045 83.8707 141.045C84.4826 141.045 85.0886 141.166 85.654 141.4C86.2193 141.634 86.7331 141.978 87.1658 142.41C87.5985 142.843 87.9418 143.357 88.1759 143.922C88.4101 144.487 88.5307 145.093 88.5307 145.705C88.5307 146.317 88.4101 146.923 88.1759 147.489C87.9418 148.054 87.5985 148.568 87.1658 149.001C86.7331 149.433 86.2193 149.777 85.654 150.011C85.0886 150.245 84.4826 150.365 83.8707 150.365C83.2587 150.365 82.6527 150.245 82.0874 150.011C81.522 149.777 81.0083 149.433 80.5756 149.001C80.1428 148.568 79.7996 148.054 79.5654 147.489C79.3312 146.923 79.2107 146.317 79.2107 145.705Z" stroke="#171717" stroke-width="0.5"/>
<path d="M99.8202 145.796C99.8202 144.605 100.293 143.463 101.135 142.621C101.977 141.779 103.119 141.306 104.31 141.306C105.501 141.306 106.643 141.779 107.485 142.621C108.327 143.463 108.8 144.605 108.8 145.796C108.8 146.385 108.684 146.969 108.458 147.514C108.233 148.059 107.902 148.554 107.485 148.971C107.068 149.388 106.573 149.718 106.028 149.944C105.484 150.17 104.9 150.286 104.31 150.286C103.721 150.286 103.137 150.17 102.592 149.944C102.047 149.718 101.552 149.388 101.135 148.971C100.718 148.554 100.388 148.059 100.162 147.514C99.9363 146.969 99.8202 146.385 99.8202 145.796Z" stroke="#E0AC00" stroke-width="0.5"/>
<path d="M58.9304 145.735C58.9304 145.156 59.0445 144.583 59.2661 144.048C59.4877 143.513 59.8125 143.026 60.2221 142.617C60.6316 142.207 61.1177 141.883 61.6528 141.661C62.1878 141.439 62.7613 141.325 63.3404 141.325C64.51 141.325 65.6317 141.79 66.4587 142.617C67.2858 143.444 67.7504 144.566 67.7504 145.735C67.7504 146.905 67.2858 148.026 66.4587 148.854C65.6317 149.681 64.51 150.145 63.3404 150.145C62.7613 150.145 62.1878 150.031 61.6528 149.81C61.1177 149.588 60.6316 149.263 60.2221 148.854C59.8125 148.444 59.4877 147.958 59.2661 147.423C59.0445 146.888 58.9304 146.314 58.9304 145.735Z" stroke="#E0AC00" stroke-width="0.5"/>
<path d="M40.05 145.375C40.05 144.412 40.4324 143.489 41.1132 142.808C41.7939 142.128 42.7172 141.745 43.68 141.745C44.1567 141.745 44.6287 141.839 45.0691 142.021C45.5095 142.204 45.9097 142.471 46.2468 142.808C46.5838 143.145 46.8512 143.546 47.0337 143.986C47.2161 144.426 47.31 144.898 47.31 145.375C47.31 145.852 47.2161 146.324 47.0337 146.764C46.8512 147.205 46.5838 147.605 46.2468 147.942C45.9097 148.279 45.5095 148.546 45.0691 148.729C44.6287 148.911 44.1567 149.005 43.68 149.005C42.7172 149.005 41.7939 148.623 41.1132 147.942C40.4324 147.261 40.05 146.338 40.05 145.375Z" stroke="#E0AC00" stroke-width="0.5"/>
<path d="M79.1399 165.436C79.1399 164.197 79.6319 163.009 80.5077 162.133C81.3835 161.258 82.5713 160.766 83.8099 160.766C85.0485 160.766 86.2363 161.258 87.1121 162.133C87.9879 163.009 88.4799 164.197 88.4799 165.436C88.4799 166.049 88.3591 166.656 88.1244 167.223C87.8897 167.789 87.5457 168.304 87.1121 168.738C86.6784 169.171 86.1636 169.515 85.597 169.75C85.0304 169.985 84.4232 170.106 83.8099 170.106C83.1966 170.106 82.5893 169.985 82.0228 169.75C81.4562 169.515 80.9414 169.171 80.5077 168.738C80.0741 168.304 79.7301 167.789 79.4954 167.223C79.2607 166.656 79.1399 166.049 79.1399 165.436Z" stroke="#171717" stroke-width="0.5"/>
<path d="M58.67 165.345C58.67 164.133 59.1515 162.971 60.0085 162.114C60.8655 161.257 62.0279 160.775 63.24 160.775C64.452 160.775 65.6144 161.257 66.4715 162.114C67.3285 162.971 67.81 164.133 67.81 165.345C67.81 166.557 67.3285 167.72 66.4715 168.577C65.6144 169.434 64.452 169.915 63.24 169.915C62.0279 169.915 60.8655 169.434 60.0085 168.577C59.1515 167.72 58.67 166.557 58.67 165.345Z" stroke="#171717" stroke-width="0.5"/>
<path d="M99.8008 165.435C99.8008 164.84 99.9179 164.251 100.146 163.702C100.373 163.152 100.707 162.653 101.128 162.232C101.548 161.811 102.048 161.478 102.597 161.25C103.147 161.022 103.736 160.905 104.331 160.905C104.926 160.905 105.515 161.022 106.064 161.25C106.614 161.478 107.113 161.811 107.534 162.232C107.955 162.653 108.288 163.152 108.516 163.702C108.744 164.251 108.861 164.84 108.861 165.435C108.861 166.637 108.383 167.789 107.534 168.638C106.684 169.488 105.532 169.965 104.331 169.965C103.129 169.965 101.977 169.488 101.128 168.638C100.278 167.789 99.8008 166.637 99.8008 165.435Z" stroke="#E0AC00" stroke-width="0.5"/>
<path d="M99.6804 185.306C99.6804 184.07 100.171 182.884 101.045 182.01C101.919 181.136 103.104 180.646 104.34 180.646C105.576 180.646 106.762 181.136 107.636 182.01C108.509 182.884 109 184.07 109 185.306C109 186.541 108.509 187.727 107.636 188.601C106.762 189.475 105.576 189.966 104.34 189.966C103.104 189.966 101.919 189.475 101.045 188.601C100.171 187.727 99.6804 186.541 99.6804 185.306Z" stroke="#171717" stroke-width="0.5"/>
<path d="M79.2307 185.305C79.2307 184.061 79.7249 182.868 80.6044 181.989C81.484 181.109 82.6769 180.615 83.9207 180.615C85.1646 180.615 86.3575 181.109 87.2371 181.989C88.1166 182.868 88.6107 184.061 88.6107 185.305C88.6107 186.549 88.1166 187.742 87.2371 188.622C86.3575 189.501 85.1646 189.995 83.9207 189.995C82.6769 189.995 81.484 189.501 80.6044 188.622C79.7249 187.742 79.2307 186.549 79.2307 185.305Z" stroke="#171717" stroke-width="0.5"/>
<path d="M99.6604 67.1954C99.6604 67.8061 99.7806 68.4107 100.014 68.9749C100.248 69.5391 100.591 70.0517 101.022 70.4835C101.454 70.9152 101.967 71.2578 102.531 71.4915C103.095 71.7251 103.7 71.8454 104.31 71.8454C105.544 71.8454 106.726 71.3555 107.598 70.4835C108.47 69.6114 108.96 68.4287 108.96 67.1954C108.96 65.9622 108.47 64.7794 107.598 63.9074C106.726 63.0353 105.544 62.5454 104.31 62.5454C103.7 62.5454 103.095 62.6657 102.531 62.8994C101.967 63.1331 101.454 63.4756 101.022 63.9074C100.591 64.3392 100.248 64.8518 100.014 65.4159C99.7806 65.9801 99.6604 66.5848 99.6604 67.1954Z" fill="#171717"/>
<path d="M79.3804 67.2354C79.3804 68.4288 79.8545 69.5734 80.6984 70.4173C81.5423 71.2612 82.6869 71.7354 83.8804 71.7354C85.0739 71.7354 86.2185 71.2612 87.0624 70.4173C87.9063 69.5734 88.3804 68.4288 88.3804 67.2354C88.3804 66.0419 87.9063 64.8973 87.0624 64.0534C86.2185 63.2095 85.0739 62.7354 83.8804 62.7354C82.6869 62.7354 81.5423 63.2095 80.6984 64.0534C79.8545 64.8973 79.3804 66.0419 79.3804 67.2354Z" fill="#E0AC00"/>
<path d="M58.8602 67.1951C58.8602 68.3859 59.3333 69.5279 60.1753 70.37C61.0174 71.212 62.1594 71.6851 63.3502 71.6851C63.9399 71.6851 64.5237 71.5689 65.0685 71.3433C65.6132 71.1177 66.1082 70.7869 66.5251 70.37C66.9421 69.9531 67.2728 69.4581 67.4985 68.9133C67.7241 68.3686 67.8402 67.7847 67.8402 67.1951C67.8402 66.6054 67.7241 66.0216 67.4985 65.4768C67.2728 64.9321 66.9421 64.4371 66.5251 64.0202C66.1082 63.6032 65.6132 63.2725 65.0685 63.0469C64.5237 62.8212 63.9399 62.7051 63.3502 62.7051C62.1594 62.7051 61.0174 63.1781 60.1753 64.0202C59.3333 64.8622 58.8602 66.0043 58.8602 67.1951Z" fill="#E0AC00"/>
<path d="M79.5706 86.8057C79.5706 87.9886 80.0405 89.123 80.8769 89.9594C81.7133 90.7958 82.8478 91.2657 84.0306 91.2657C85.2135 91.2657 86.3479 90.7958 87.1843 89.9594C88.0207 89.123 88.4906 87.9886 88.4906 86.8057C88.4906 85.6228 88.0207 84.4884 87.1843 83.652C86.3479 82.8156 85.2135 82.3457 84.0306 82.3457C82.8478 82.3457 81.7133 82.8156 80.8769 83.652C80.0405 84.4884 79.5706 85.6228 79.5706 86.8057Z" fill="#E0AC00"/>
<path d="M58.9607 86.8055C58.9607 87.3899 59.0759 87.9685 59.2995 88.5084C59.5231 89.0483 59.8509 89.5389 60.2641 89.9521C60.6773 90.3653 61.1679 90.6931 61.7078 90.9167C62.2477 91.1404 62.8264 91.2555 63.4108 91.2555C64.591 91.2555 65.7228 90.7866 66.5574 89.9521C67.3919 89.1176 67.8607 87.9857 67.8607 86.8055C67.8607 85.6253 67.3919 84.4934 66.5574 83.6588C65.7228 82.8243 64.591 82.3555 63.4108 82.3555C62.8264 82.3555 62.2477 82.4706 61.7078 82.6942C61.1679 82.9178 60.6773 83.2456 60.2641 83.6588C59.8509 84.0721 59.5231 84.5626 59.2995 85.1025C59.0759 85.6424 58.9607 86.2211 58.9607 86.8055Z" fill="#E0AC00"/>
<path d="M99.8099 86.8853C99.8099 88.0682 100.28 89.2026 101.116 90.039C101.953 90.8754 103.087 91.3453 104.27 91.3453C105.453 91.3453 106.587 90.8754 107.424 90.039C108.26 89.2026 108.73 88.0682 108.73 86.8853C108.73 85.7024 108.26 84.568 107.424 83.7316C106.587 82.8952 105.453 82.4253 104.27 82.4253C103.087 82.4253 101.953 82.8952 101.116 83.7316C100.28 84.568 99.8099 85.7024 99.8099 86.8853Z" fill="#E0AC00"/>
<path d="M40.1104 86.8453C40.1104 87.8081 40.4928 88.7314 41.1736 89.4121C41.8543 90.0929 42.7777 90.4753 43.7404 90.4753C44.7031 90.4753 45.6264 90.0929 46.3072 89.4121C46.9879 88.7314 47.3704 87.8081 47.3704 86.8453C47.3704 85.8826 46.9879 84.9593 46.3072 84.2785C45.6264 83.5978 44.7031 83.2153 43.7404 83.2153C42.7777 83.2153 41.8543 83.5978 41.1736 84.2785C40.4928 84.9593 40.1104 85.8826 40.1104 86.8453Z" fill="#E0AC00"/>
<path d="M99.8402 106.326C99.8402 106.914 99.9561 107.497 100.181 108.04C100.406 108.584 100.736 109.078 101.152 109.494C101.568 109.91 102.062 110.24 102.606 110.465C103.149 110.69 103.732 110.806 104.32 110.806C104.909 110.806 105.491 110.69 106.035 110.465C106.578 110.24 107.072 109.91 107.488 109.494C107.904 109.078 108.234 108.584 108.459 108.04C108.684 107.497 108.8 106.914 108.8 106.326C108.8 105.138 108.328 103.998 107.488 103.158C106.648 102.318 105.508 101.846 104.32 101.846C103.132 101.846 101.993 102.318 101.152 103.158C100.312 103.998 99.8402 105.138 99.8402 106.326Z" fill="#E0AC00"/>
<path d="M79.3204 106.355C79.3204 107.578 79.8061 108.75 80.6707 109.615C81.5352 110.479 82.7078 110.965 83.9304 110.965C85.1531 110.965 86.3257 110.479 87.1902 109.615C88.0547 108.75 88.5404 107.578 88.5404 106.355C88.5404 105.132 88.0547 103.96 87.1902 103.095C86.3257 102.231 85.1531 101.745 83.9304 101.745C82.7078 101.745 81.5352 102.231 80.6707 103.095C79.8061 103.96 79.3204 105.132 79.3204 106.355Z" fill="#171717"/>
<path d="M58.8801 106.356C58.8801 106.936 58.9944 107.511 59.2166 108.047C59.4387 108.583 59.7643 109.071 60.1747 109.481C60.5851 109.891 61.0724 110.217 61.6087 110.439C62.1449 110.661 62.7197 110.776 63.3001 110.776C63.8806 110.776 64.4553 110.661 64.9916 110.439C65.5278 110.217 66.0151 109.891 66.4255 109.481C66.836 109.071 67.1615 108.583 67.3837 108.047C67.6058 107.511 67.7201 106.936 67.7201 106.356C67.7201 105.183 67.2544 104.059 66.4255 103.23C65.5966 102.401 64.4724 101.936 63.3001 101.936C62.7197 101.936 62.1449 102.05 61.6087 102.272C61.0724 102.494 60.5851 102.82 60.1747 103.23C59.7643 103.641 59.4387 104.128 59.2166 104.664C58.9944 105.2 58.8801 105.775 58.8801 106.356Z" fill="#E0AC00"/>
<path d="M99.8007 126.006C99.8007 127.196 100.274 128.338 101.116 129.181C101.958 130.023 103.1 130.496 104.291 130.496C105.481 130.496 106.624 130.023 107.466 129.181C108.308 128.338 108.781 127.196 108.781 126.006C108.781 125.416 108.665 124.832 108.439 124.287C108.213 123.743 107.883 123.248 107.466 122.831C107.049 122.414 106.554 122.083 106.009 121.857C105.464 121.632 104.88 121.516 104.291 121.516C103.701 121.516 103.117 121.632 102.572 121.857C102.028 122.083 101.533 122.414 101.116 122.831C100.699 123.248 100.368 123.743 100.142 124.287C99.9168 124.832 99.8007 125.416 99.8007 126.006Z" fill="#E0AC00"/>
<path d="M79.2804 126.035C79.2804 127.258 79.7661 128.431 80.6306 129.295C81.4952 130.16 82.6677 130.645 83.8904 130.645C85.113 130.645 86.2856 130.16 87.1502 129.295C88.0147 128.431 88.5004 127.258 88.5004 126.035C88.5004 124.813 88.0147 123.64 87.1502 122.776C86.2856 121.911 85.113 121.425 83.8904 121.425C82.6677 121.425 81.4952 121.911 80.6306 122.776C79.7661 123.64 79.2804 124.813 79.2804 126.035Z" fill="#171717"/>
<path d="M58.9201 126.075C58.9201 127.242 59.3837 128.361 60.2089 129.187C61.034 130.012 62.1532 130.475 63.3201 130.475C64.4871 130.475 65.6062 130.012 66.4314 129.187C67.2566 128.361 67.7201 127.242 67.7201 126.075C67.7201 124.908 67.2566 123.789 66.4314 122.964C65.6062 122.139 64.4871 121.675 63.3201 121.675C62.1532 121.675 61.034 122.139 60.2089 122.964C59.3837 123.789 58.9201 124.908 58.9201 126.075Z" fill="#E0AC00"/>
<path d="M79.2107 145.705C79.2107 146.317 79.3312 146.923 79.5654 147.489C79.7996 148.054 80.1428 148.568 80.5756 149.001C81.0083 149.433 81.522 149.777 82.0874 150.011C82.6527 150.245 83.2587 150.365 83.8707 150.365C84.4826 150.365 85.0886 150.245 85.654 150.011C86.2193 149.777 86.7331 149.433 87.1658 149.001C87.5985 148.568 87.9418 148.054 88.1759 147.489C88.4101 146.923 88.5307 146.317 88.5307 145.705C88.5307 145.093 88.4101 144.487 88.1759 143.922C87.9418 143.357 87.5985 142.843 87.1658 142.41C86.7331 141.978 86.2193 141.634 85.654 141.4C85.0886 141.166 84.4826 141.045 83.8707 141.045C82.6348 141.045 81.4495 141.536 80.5756 142.41C79.7016 143.284 79.2107 144.469 79.2107 145.705Z" fill="#171717"/>
<path d="M99.8202 145.796C99.8202 146.385 99.9363 146.969 100.162 147.514C100.388 148.059 100.718 148.554 101.135 148.971C101.552 149.388 102.047 149.718 102.592 149.944C103.137 150.17 103.721 150.286 104.31 150.286C104.9 150.286 105.484 150.17 106.028 149.944C106.573 149.718 107.068 149.388 107.485 148.971C107.902 148.554 108.233 148.059 108.458 147.514C108.684 146.969 108.8 146.385 108.8 145.796C108.8 144.605 108.327 143.463 107.485 142.621C106.643 141.779 105.501 141.306 104.31 141.306C103.119 141.306 101.977 141.779 101.135 142.621C100.293 143.463 99.8202 144.605 99.8202 145.796Z" fill="#E0AC00"/>
<path d="M58.9304 145.735C58.9304 146.314 59.0445 146.888 59.2661 147.423C59.4877 147.958 59.8125 148.444 60.2221 148.854C60.6316 149.263 61.1177 149.588 61.6528 149.81C62.1878 150.031 62.7613 150.145 63.3404 150.145C64.51 150.145 65.6317 149.681 66.4587 148.854C67.2858 148.026 67.7504 146.905 67.7504 145.735C67.7504 144.566 67.2858 143.444 66.4587 142.617C65.6317 141.79 64.51 141.325 63.3404 141.325C62.7613 141.325 62.1878 141.439 61.6528 141.661C61.1177 141.883 60.6316 142.207 60.2221 142.617C59.8125 143.026 59.4877 143.513 59.2661 144.048C59.0445 144.583 58.9304 145.156 58.9304 145.735Z" fill="#E0AC00"/>
<path d="M40.05 145.375C40.05 146.338 40.4324 147.261 41.1132 147.942C41.7939 148.623 42.7172 149.005 43.68 149.005C44.1567 149.005 44.6287 148.911 45.0691 148.729C45.5095 148.546 45.9097 148.279 46.2468 147.942C46.5838 147.605 46.8512 147.205 47.0337 146.764C47.2161 146.324 47.31 145.852 47.31 145.375C47.31 144.898 47.2161 144.426 47.0337 143.986C46.8512 143.546 46.5838 143.145 46.2468 142.808C45.9097 142.471 45.5095 142.204 45.0691 142.021C44.6287 141.839 44.1567 141.745 43.68 141.745C42.7172 141.745 41.7939 142.128 41.1132 142.808C40.4324 143.489 40.05 144.412 40.05 145.375Z" fill="#E0AC00"/>
<path d="M79.1399 165.436C79.1399 166.049 79.2607 166.656 79.4954 167.223C79.7301 167.789 80.0741 168.304 80.5077 168.738C80.9414 169.171 81.4562 169.515 82.0228 169.75C82.5893 169.985 83.1966 170.106 83.8099 170.106C84.4232 170.106 85.0304 169.985 85.597 169.75C86.1636 169.515 86.6784 169.171 87.1121 168.738C87.5457 168.304 87.8897 167.789 88.1244 167.223C88.3591 166.656 88.4799 166.049 88.4799 165.436C88.4799 164.197 87.9879 163.009 87.1121 162.133C86.2363 161.258 85.0485 160.766 83.8099 160.766C82.5713 160.766 81.3835 161.258 80.5077 162.133C79.6319 163.009 79.1399 164.197 79.1399 165.436Z" fill="#171717"/>
<path d="M58.67 165.345C58.67 166.557 59.1515 167.72 60.0085 168.577C60.8655 169.434 62.0279 169.915 63.24 169.915C64.452 169.915 65.6144 169.434 66.4715 168.577C67.3285 167.72 67.81 166.557 67.81 165.345C67.81 164.133 67.3285 162.971 66.4715 162.114C65.6144 161.257 64.452 160.775 63.24 160.775C62.0279 160.775 60.8655 161.257 60.0085 162.114C59.1515 162.971 58.67 164.133 58.67 165.345Z" fill="#171717"/>
<path d="M99.8008 165.435C99.8008 166.637 100.278 167.789 101.128 168.638C101.977 169.488 103.129 169.965 104.331 169.965C105.532 169.965 106.684 169.488 107.534 168.638C108.383 167.789 108.861 166.637 108.861 165.435C108.861 164.84 108.744 164.251 108.516 163.702C108.288 163.152 107.955 162.653 107.534 162.232C107.113 161.811 106.614 161.478 106.064 161.25C105.515 161.022 104.926 160.905 104.331 160.905C103.736 160.905 103.147 161.022 102.597 161.25C102.048 161.478 101.548 161.811 101.128 162.232C100.707 162.653 100.373 163.152 100.146 163.702C99.9179 164.251 99.8008 164.84 99.8008 165.435Z" fill="#E0AC00"/>
<path d="M99.6804 185.306C99.6804 186.541 100.171 187.727 101.045 188.601C101.919 189.475 103.104 189.966 104.34 189.966C105.576 189.966 106.762 189.475 107.636 188.601C108.509 187.727 109 186.541 109 185.306C109 184.07 108.509 182.884 107.636 182.01C106.762 181.136 105.576 180.646 104.34 180.646C103.104 180.646 101.919 181.136 101.045 182.01C100.171 182.884 99.6804 184.07 99.6804 185.306Z" fill="#171717"/>
<path d="M79.2307 185.305C79.2307 186.549 79.7249 187.742 80.6044 188.622C81.484 189.501 82.6769 189.995 83.9207 189.995C85.1646 189.995 86.3575 189.501 87.2371 188.622C88.1166 187.742 88.6107 186.549 88.6107 185.305C88.6107 184.061 88.1166 182.868 87.2371 181.989C86.3575 181.109 85.1646 180.615 83.9207 180.615C82.6769 180.615 81.484 181.109 80.6044 181.989C79.7249 182.868 79.2307 184.061 79.2307 185.305Z" fill="#171717"/>
</g>
<defs>
<clipPath id="clip0_7_7514">
<rect width="109" height="190" fill="white" transform="translate(0.000396729)"/>
</clipPath>
</defs>
</svg>
