<svg width="1280" height="418" viewBox="0 0 1280 418" fill="none" xmlns="http://www.w3.org/2000/svg">
<rect width="1280" height="418" fill="white"/>
<g clip-path="url(#clip0_13475_1296)">
<g clip-path="url(#clip1_13475_1296)">
<path d="M9.34004 299.35C9.34004 299.961 9.21976 300.565 8.98608 301.129C8.75239 301.694 8.40988 302.206 7.97808 302.638C7.54629 303.07 7.03368 303.412 6.46952 303.646C5.90535 303.88 5.30069 304 4.69004 304C3.45678 304 2.27404 303.51 1.40199 302.638C0.529949 301.766 0.0400391 300.583 0.0400391 299.35C0.0400391 298.117 0.529949 296.934 1.40199 296.062C2.27404 295.19 3.45678 294.7 4.69004 294.7C5.30069 294.7 5.90535 294.82 6.46952 295.054C7.03368 295.288 7.54629 295.63 7.97808 296.062C8.40988 296.494 8.75239 297.006 8.98608 297.571C9.21976 298.135 9.34004 298.739 9.34004 299.35Z" stroke="#001133" stroke-width="0.5"/>
<path d="M29.6201 299.31C29.6201 300.504 29.146 301.648 28.3021 302.492C27.4582 303.336 26.3136 303.81 25.1201 303.81C23.9266 303.81 22.7821 303.336 21.9381 302.492C21.0942 301.648 20.6201 300.504 20.6201 299.31C20.6201 298.117 21.0942 296.972 21.9381 296.128C22.7821 295.284 23.9266 294.81 25.1201 294.81C26.3136 294.81 27.4582 295.284 28.3021 296.128C29.146 296.972 29.6201 298.117 29.6201 299.31Z" stroke="#22C55E" stroke-width="0.5"/>
<path d="M50.1402 299.35C50.1402 300.541 49.6671 301.683 48.8251 302.525C47.983 303.367 46.841 303.84 45.6502 303.84C45.0605 303.84 44.4767 303.724 43.9319 303.499C43.3872 303.273 42.8922 302.942 42.4753 302.525C42.0583 302.108 41.7276 301.613 41.5019 301.069C41.2763 300.524 41.1602 299.94 41.1602 299.35C41.1602 298.761 41.2763 298.177 41.5019 297.632C41.7276 297.087 42.0583 296.592 42.4753 296.175C42.8922 295.758 43.3872 295.428 43.9319 295.202C44.4767 294.976 45.0605 294.86 45.6502 294.86C46.841 294.86 47.983 295.333 48.8251 296.175C49.6671 297.017 50.1402 298.16 50.1402 299.35Z" stroke="#22C55E" stroke-width="0.5"/>
<path d="M88.6397 299.27C88.6397 300.453 88.1698 301.587 87.3334 302.424C86.497 303.26 85.3626 303.73 84.1797 303.73C82.9969 303.73 81.8624 303.26 81.026 302.424C80.1896 301.587 79.7197 300.453 79.7197 299.27C79.7197 298.684 79.8351 298.104 80.0592 297.563C80.2834 297.022 80.6119 296.53 81.026 296.116C81.4402 295.702 81.9318 295.374 82.473 295.149C83.0141 294.925 83.594 294.81 84.1797 294.81C84.7654 294.81 85.3454 294.925 85.8865 295.149C86.4276 295.374 86.9193 295.702 87.3334 296.116C87.7476 296.53 88.0761 297.022 88.3002 297.563C88.5244 298.104 88.6397 298.684 88.6397 299.27Z" stroke="#22C55E" stroke-width="0.5"/>
<path d="M29.4298 279.74C29.4298 280.923 28.9599 282.057 28.1235 282.893C27.2871 283.73 26.1526 284.2 24.9698 284.2C23.7869 284.2 22.6525 283.73 21.8161 282.893C20.9797 282.057 20.5098 280.923 20.5098 279.74C20.5098 278.557 20.9797 277.422 21.8161 276.586C22.6525 275.75 23.7869 275.28 24.9698 275.28C26.1526 275.28 27.2871 275.75 28.1235 276.586C28.9599 277.422 29.4298 278.557 29.4298 279.74Z" stroke="#22C55E" stroke-width="0.5"/>
<path d="M50.0396 279.74C50.0396 280.324 49.9245 280.903 49.7009 281.443C49.4773 281.983 49.1495 282.473 48.7363 282.887C48.3231 283.3 47.8325 283.628 47.2926 283.851C46.7527 284.075 46.174 284.19 45.5896 284.19C44.4094 284.19 43.2776 283.721 42.443 282.887C41.6085 282.052 41.1396 280.92 41.1396 279.74C41.1396 278.56 41.6085 277.428 42.443 276.593C43.2776 275.759 44.4094 275.29 45.5896 275.29C46.174 275.29 46.7527 275.405 47.2926 275.629C47.8325 275.852 48.3231 276.18 48.7363 276.593C49.1495 277.007 49.4773 277.497 49.7009 278.037C49.9245 278.577 50.0396 279.156 50.0396 279.74Z" stroke="#22C55E" stroke-width="0.5"/>
<path d="M9.19051 279.66C9.19051 280.843 8.72062 281.977 7.8842 282.814C7.04779 283.65 5.91337 284.12 4.73051 284.12C3.54764 284.12 2.41322 283.65 1.57681 282.814C0.7404 281.977 0.270508 280.843 0.270508 279.66C0.270508 278.477 0.7404 277.343 1.57681 276.506C2.41322 275.67 3.54764 275.2 4.73051 275.2C5.91337 275.2 7.04779 275.67 7.8842 276.506C8.72062 277.343 9.19051 278.477 9.19051 279.66Z" stroke="#22C55E" stroke-width="0.5"/>
<path d="M88.6797 279.71C88.6797 280.898 88.2077 282.038 87.3676 282.878C86.5274 283.718 85.3879 284.19 84.1997 284.19C83.0116 284.19 81.872 283.718 81.0319 282.878C80.1917 282.038 79.7197 280.898 79.7197 279.71C79.7197 278.522 80.1917 277.382 81.0319 276.542C81.872 275.702 83.0116 275.23 84.1997 275.23C85.3879 275.23 86.5274 275.702 87.3676 276.542C88.2077 277.382 88.6797 278.522 88.6797 279.71Z" stroke="#22C55E" stroke-width="0.5"/>
<path d="M68.89 279.7C68.89 280.663 68.5076 281.586 67.8268 282.267C67.146 282.948 66.2227 283.33 65.26 283.33C64.2973 283.33 63.374 282.948 62.6932 282.267C62.0124 281.586 61.63 280.663 61.63 279.7C61.63 278.737 62.0124 277.814 62.6932 277.133C63.374 276.453 64.2973 276.07 65.26 276.07C66.2227 276.07 67.146 276.453 67.8268 277.133C68.5076 277.814 68.89 278.737 68.89 279.7Z" stroke="#22C55E" stroke-width="0.5"/>
<path d="M9.1602 260.22C9.1602 261.408 8.6882 262.547 7.84803 263.388C7.00787 264.228 5.86836 264.7 4.68019 264.7C3.49203 264.7 2.35252 264.228 1.51236 263.388C0.672195 262.547 0.200195 261.408 0.200195 260.22C0.200195 259.631 0.316073 259.049 0.541214 258.505C0.766355 257.962 1.09635 257.468 1.51236 257.052C1.92836 256.636 2.42223 256.306 2.96577 256.081C3.50931 255.856 4.09187 255.74 4.68019 255.74C5.26852 255.74 5.85108 255.856 6.39462 256.081C6.93816 256.306 7.43203 256.636 7.84803 257.052C8.26404 257.468 8.59403 257.962 8.81917 258.505C9.04431 259.049 9.1602 259.631 9.1602 260.22Z" stroke="#22C55E" stroke-width="0.5"/>
<path d="M29.68 260.19C29.68 261.413 29.1943 262.586 28.3297 263.45C27.4652 264.315 26.2926 264.8 25.07 264.8C23.8473 264.8 22.6747 264.315 21.8102 263.45C20.9457 262.586 20.46 261.413 20.46 260.19C20.46 258.968 20.9457 257.795 21.8102 256.931C22.6747 256.066 23.8473 255.58 25.07 255.58C26.2926 255.58 27.4652 256.066 28.3297 256.931C29.1943 257.795 29.68 258.968 29.68 260.19Z" stroke="#001133" stroke-width="0.5"/>
<path d="M50.1203 260.19C50.1203 260.77 50.0059 261.345 49.7838 261.881C49.5617 262.418 49.2361 262.905 48.8257 263.315C48.4152 263.726 47.928 264.051 47.3917 264.273C46.8555 264.496 46.2807 264.61 45.7003 264.61C44.528 264.61 43.4038 264.144 42.5749 263.315C41.7459 262.486 41.2803 261.362 41.2803 260.19C41.2803 259.609 41.3946 259.035 41.6167 258.498C41.8388 257.962 42.1644 257.475 42.5749 257.064C42.9853 256.654 43.4726 256.328 44.0088 256.106C44.5451 255.884 45.1198 255.77 45.7003 255.77C46.2807 255.77 46.8555 255.884 47.3917 256.106C47.928 256.328 48.4152 256.654 48.8257 257.064C49.2361 257.475 49.5617 257.962 49.7838 258.498C50.0059 259.035 50.1203 259.609 50.1203 260.19Z" stroke="#22C55E" stroke-width="0.5"/>
<path d="M88.6105 260.12C88.6105 261.298 88.1427 262.427 87.31 263.26C86.4774 264.092 85.348 264.56 84.1705 264.56C82.9929 264.56 81.8636 264.092 81.0309 263.26C80.1983 262.427 79.7305 261.298 79.7305 260.12C79.7305 258.942 80.1983 257.813 81.0309 256.981C81.8636 256.148 82.9929 255.68 84.1705 255.68C85.348 255.68 86.4774 256.148 87.31 256.981C88.1427 257.813 88.6105 258.942 88.6105 260.12Z" stroke="#22C55E" stroke-width="0.5"/>
<path d="M88.9 240.51C88.9 241.13 88.7779 241.744 88.5407 242.316C88.3035 242.889 87.9558 243.409 87.5175 243.848C87.0792 244.286 86.5589 244.633 85.9862 244.871C85.4136 245.108 84.7998 245.23 84.18 245.23C83.5601 245.23 82.9464 245.108 82.3737 244.871C81.801 244.633 81.2807 244.286 80.8424 243.848C80.4041 243.409 80.0565 242.889 79.8193 242.316C79.582 241.744 79.46 241.13 79.46 240.51C79.46 239.258 79.9572 238.058 80.8424 237.172C81.7276 236.287 82.9281 235.79 84.18 235.79C85.4318 235.79 86.6323 236.287 87.5175 237.172C88.4027 238.058 88.9 239.258 88.9 240.51Z" stroke="#001133" stroke-width="0.5"/>
<path d="M9.19972 240.54C9.19972 241.129 9.08359 241.713 8.85795 242.258C8.6323 242.803 8.30157 243.298 7.88464 243.715C7.4677 244.132 6.97273 244.462 6.42797 244.688C5.88322 244.914 5.29936 245.03 4.70973 245.03C4.12009 245.03 3.53623 244.914 2.99148 244.688C2.44673 244.462 1.95175 244.132 1.53482 243.715C1.11788 243.298 0.78715 242.803 0.561506 242.258C0.335863 241.713 0.219727 241.129 0.219727 240.54C0.219727 239.349 0.692778 238.207 1.53482 237.365C2.37686 236.523 3.5189 236.05 4.70973 236.05C5.90055 236.05 7.0426 236.523 7.88464 237.365C8.72667 238.207 9.19972 239.349 9.19972 240.54Z" stroke="#22C55E" stroke-width="0.5"/>
<path d="M29.72 240.51C29.72 241.733 29.2343 242.905 28.3698 243.77C27.5052 244.634 26.3326 245.12 25.11 245.12C23.8874 245.12 22.7148 244.634 21.8502 243.77C20.9857 242.905 20.5 241.733 20.5 240.51C20.5 239.287 20.9857 238.115 21.8502 237.25C22.7148 236.386 23.8874 235.9 25.11 235.9C26.3326 235.9 27.5052 236.386 28.3698 237.25C29.2343 238.115 29.72 239.287 29.72 240.51Z" stroke="#001133" stroke-width="0.5"/>
<path d="M50.0803 240.47C50.0803 241.637 49.6167 242.756 48.7915 243.581C47.9664 244.407 46.8472 244.87 45.6803 244.87C44.5133 244.87 43.3942 244.407 42.569 243.581C41.7438 242.756 41.2803 241.637 41.2803 240.47C41.2803 239.303 41.7438 238.184 42.569 237.359C43.3942 236.534 44.5133 236.07 45.6803 236.07C46.8472 236.07 47.9664 236.534 48.7915 237.359C49.6167 238.184 50.0803 239.303 50.0803 240.47Z" stroke="#22C55E" stroke-width="0.5"/>
<path d="M29.7897 220.84C29.7897 222.076 29.2988 223.261 28.4248 224.135C27.5509 225.009 26.3656 225.5 25.1297 225.5C24.5178 225.5 23.9118 225.379 23.3464 225.145C22.781 224.911 22.2673 224.568 21.8346 224.135C21.4019 223.702 21.0586 223.189 20.8244 222.623C20.5903 222.058 20.4697 221.452 20.4697 220.84C20.4697 220.228 20.5903 219.622 20.8244 219.057C21.0586 218.491 21.4019 217.978 21.8346 217.545C22.2673 217.112 22.781 216.769 23.3464 216.535C23.9118 216.301 24.5178 216.18 25.1297 216.18C25.7417 216.18 26.3477 216.301 26.913 216.535C27.4784 216.769 27.9921 217.112 28.4248 217.545C28.8576 217.978 29.2008 218.491 29.435 219.057C29.6692 219.622 29.7897 220.228 29.7897 220.84Z" stroke="#001133" stroke-width="0.5"/>
<path d="M88.8698 220.78C88.8698 222.016 88.3788 223.201 87.5049 224.075C86.631 224.949 85.4457 225.44 84.2098 225.44C82.9739 225.44 81.7886 224.949 80.9147 224.075C80.0408 223.201 79.5498 222.016 79.5498 220.78C79.5498 219.544 80.0408 218.359 80.9147 217.485C81.7886 216.611 82.9739 216.12 84.2098 216.12C85.4457 216.12 86.631 216.611 87.5049 217.485C88.3788 218.359 88.8698 219.544 88.8698 220.78Z" stroke="#001133" stroke-width="0.5"/>
<path d="M9.1802 220.75C9.1802 221.941 8.70714 223.083 7.8651 223.925C7.02307 224.767 5.88102 225.24 4.6902 225.24C3.49937 225.24 2.35732 224.767 1.51529 223.925C0.673247 223.083 0.200195 221.941 0.200195 220.75C0.200195 220.16 0.316333 219.576 0.541977 219.031C0.767621 218.487 1.09835 217.992 1.51529 217.575C1.93222 217.158 2.42719 216.827 2.97195 216.602C3.5167 216.376 4.10056 216.26 4.6902 216.26C5.27983 216.26 5.86369 216.376 6.40844 216.602C6.9532 216.827 7.44817 217.158 7.8651 217.575C8.28204 217.992 8.61277 218.487 8.83842 219.031C9.06406 219.576 9.1802 220.16 9.1802 220.75Z" stroke="#22C55E" stroke-width="0.5"/>
<path d="M50.07 220.81C50.07 221.389 49.9559 221.963 49.7343 222.498C49.5127 223.033 49.1878 223.519 48.7783 223.929C48.3688 224.338 47.8827 224.663 47.3476 224.885C46.8126 225.106 46.2391 225.22 45.66 225.22C44.4904 225.22 43.3687 224.756 42.5417 223.929C41.7146 223.102 41.25 221.98 41.25 220.81C41.25 219.641 41.7146 218.519 42.5417 217.692C43.3687 216.865 44.4904 216.4 45.66 216.4C46.2391 216.4 46.8126 216.514 47.3476 216.736C47.8827 216.958 48.3688 217.282 48.7783 217.692C49.1878 218.101 49.5127 218.588 49.7343 219.123C49.9559 219.658 50.07 220.231 50.07 220.81Z" stroke="#22C55E" stroke-width="0.5"/>
<path d="M108.65 221.44C108.65 222.448 108.249 223.414 107.537 224.127C106.824 224.839 105.858 225.24 104.85 225.24C103.842 225.24 102.875 224.839 102.163 224.127C101.45 223.414 101.05 222.448 101.05 221.44C101.05 220.432 101.45 219.465 102.163 218.753C102.875 218.04 103.842 217.64 104.85 217.64C105.858 217.64 106.824 218.04 107.537 218.753C108.249 219.465 108.65 220.432 108.65 221.44Z" stroke="#001133" stroke-width="0.5"/>
<path d="M68.9504 221.17C68.9504 222.133 68.568 223.056 67.8872 223.737C67.2065 224.418 66.2832 224.8 65.3204 224.8C64.8437 224.8 64.3717 224.706 63.9313 224.524C63.4909 224.342 63.0907 224.074 62.7536 223.737C62.4166 223.4 62.1492 223 61.9667 222.559C61.7843 222.119 61.6904 221.647 61.6904 221.17C61.6904 220.694 61.7843 220.222 61.9667 219.781C62.1492 219.341 62.4166 218.941 62.7536 218.603C63.0907 218.266 63.4909 217.999 63.9313 217.817C64.3717 217.634 64.8437 217.54 65.3204 217.54C66.2832 217.54 67.2065 217.923 67.8872 218.603C68.568 219.284 68.9504 220.208 68.9504 221.17Z" stroke="#22C55E" stroke-width="0.5"/>
<path d="M29.8605 201.11C29.8605 202.348 29.3685 203.536 28.4927 204.412C27.6169 205.288 26.4291 205.78 25.1905 205.78C23.9519 205.78 22.7641 205.288 21.8883 204.412C21.0125 203.536 20.5205 202.348 20.5205 201.11C20.5205 200.497 20.6413 199.889 20.876 199.323C21.1107 198.756 21.4547 198.241 21.8883 197.808C22.322 197.374 22.8368 197.03 23.4034 196.795C23.97 196.561 24.5772 196.44 25.1905 196.44C25.8038 196.44 26.411 196.561 26.9776 196.795C27.5442 197.03 28.059 197.374 28.4927 197.808C28.9263 198.241 29.2703 198.756 29.505 199.323C29.7397 199.889 29.8605 200.497 29.8605 201.11Z" stroke="#001133" stroke-width="0.5"/>
<path d="M50.3304 201.2C50.3304 202.412 49.8489 203.574 48.9919 204.431C48.1349 205.289 46.9725 205.77 45.7604 205.77C44.5484 205.77 43.386 205.289 42.5289 204.431C41.6719 203.574 41.1904 202.412 41.1904 201.2C41.1904 199.988 41.6719 198.826 42.5289 197.969C43.386 197.111 44.5484 196.63 45.7604 196.63C46.9725 196.63 48.1349 197.111 48.9919 197.969C49.8489 198.826 50.3304 199.988 50.3304 201.2Z" stroke="#001133" stroke-width="0.5"/>
<path d="M88.8502 201.03C88.8502 202.272 88.3572 203.462 87.4795 204.34C86.6018 205.217 85.4114 205.71 84.1702 205.71C82.929 205.71 81.7386 205.217 80.861 204.34C79.9833 203.462 79.4902 202.272 79.4902 201.03C79.4902 199.789 79.9833 198.599 80.861 197.721C81.7386 196.844 82.929 196.35 84.1702 196.35C85.4114 196.35 86.6018 196.844 87.4795 197.721C88.3572 198.599 88.8502 199.789 88.8502 201.03Z" stroke="#001133" stroke-width="0.5"/>
<path d="M9.19965 201.11C9.19965 201.705 9.08247 202.294 8.85482 202.844C8.62717 203.393 8.29349 203.893 7.87284 204.313C7.45219 204.734 6.95281 205.068 6.4032 205.295C5.8536 205.523 5.26454 205.64 4.66965 205.64C4.07476 205.64 3.4857 205.523 2.93609 205.295C2.38649 205.068 1.8871 204.734 1.46645 204.313C1.0458 203.893 0.712128 203.393 0.484474 202.844C0.25682 202.294 0.139648 201.705 0.139648 201.11C0.139648 199.909 0.616914 198.756 1.46645 197.907C2.31599 197.057 3.46822 196.58 4.66965 196.58C5.87108 196.58 7.0233 197.057 7.87284 197.907C8.72238 198.756 9.19965 199.909 9.19965 201.11Z" stroke="#22C55E" stroke-width="0.5"/>
<path d="M9.32 181.24C9.32 182.476 8.82904 183.661 7.95512 184.535C7.0812 185.409 5.89591 185.9 4.66 185.9C3.42409 185.9 2.2388 185.409 1.36488 184.535C0.490964 183.661 0 182.476 0 181.24C0 180.004 0.490964 178.819 1.36488 177.945C2.2388 177.071 3.42409 176.58 4.66 176.58C5.89591 176.58 7.0812 177.071 7.95512 177.945C8.82904 178.819 9.32 180.004 9.32 181.24Z" stroke="#001133" stroke-width="0.5"/>
<path d="M29.7696 181.24C29.7696 182.484 29.2755 183.677 28.396 184.557C27.5164 185.436 26.3235 185.93 25.0796 185.93C23.8358 185.93 22.6429 185.436 21.7633 184.557C20.8838 183.677 20.3896 182.484 20.3896 181.24C20.3896 179.996 20.8838 178.803 21.7633 177.924C22.6429 177.044 23.8358 176.55 25.0796 176.55C26.3235 176.55 27.5164 177.044 28.396 177.924C29.2755 178.803 29.7696 179.996 29.7696 181.24Z" stroke="#001133" stroke-width="0.5"/>
<path d="M88.8405 181.24C88.8405 181.855 88.7194 182.464 88.4842 183.031C88.249 183.599 87.9043 184.115 87.4697 184.55C87.0352 184.984 86.5192 185.329 85.9514 185.564C85.3836 185.799 84.7751 185.92 84.1605 185.92C83.5459 185.92 82.9373 185.799 82.3695 185.564C81.8017 185.329 81.2858 184.984 80.8512 184.55C80.4166 184.115 80.0719 183.599 79.8367 183.031C79.6015 182.464 79.4805 181.855 79.4805 181.24C79.4805 180.626 79.6015 180.017 79.8367 179.449C80.0719 178.882 80.4166 178.366 80.8512 177.931C81.2858 177.497 81.8017 177.152 82.3695 176.917C82.9373 176.681 83.5459 176.56 84.1605 176.56C84.7751 176.56 85.3836 176.681 85.9514 176.917C86.5192 177.152 87.0352 177.497 87.4697 177.931C87.9043 178.366 88.249 178.882 88.4842 179.449C88.7194 180.017 88.8405 180.626 88.8405 181.24Z" stroke="#001133" stroke-width="0.5"/>
<path d="M9.34004 299.35C9.34004 298.739 9.21976 298.135 8.98608 297.571C8.75239 297.006 8.40988 296.494 7.97808 296.062C7.54629 295.63 7.03368 295.288 6.46952 295.054C5.90535 294.82 5.30069 294.7 4.69004 294.7C3.45678 294.7 2.27404 295.19 1.40199 296.062C0.529949 296.934 0.0400391 298.117 0.0400391 299.35C0.0400391 300.583 0.529949 301.766 1.40199 302.638C2.27404 303.51 3.45678 304 4.69004 304C5.30069 304 5.90535 303.88 6.46952 303.646C7.03368 303.412 7.54629 303.07 7.97808 302.638C8.40988 302.206 8.75239 301.694 8.98608 301.129C9.21976 300.565 9.34004 299.961 9.34004 299.35Z" fill="#001133"/>
<path d="M29.62 299.31C29.62 298.117 29.1459 296.972 28.302 296.128C27.4581 295.284 26.3135 294.81 25.12 294.81C23.9265 294.81 22.7819 295.284 21.938 296.128C21.0941 296.972 20.62 298.117 20.62 299.31C20.62 300.504 21.0941 301.648 21.938 302.492C22.7819 303.336 23.9265 303.81 25.12 303.81C26.3135 303.81 27.4581 303.336 28.302 302.492C29.1459 301.648 29.62 300.504 29.62 299.31Z" fill="#22C55E"/>
<path d="M50.1402 299.35C50.1402 298.16 49.6671 297.017 48.8251 296.175C47.983 295.333 46.841 294.86 45.6502 294.86C45.0605 294.86 44.4767 294.976 43.9319 295.202C43.3872 295.428 42.8922 295.758 42.4753 296.175C42.0583 296.592 41.7276 297.087 41.5019 297.632C41.2763 298.177 41.1602 298.761 41.1602 299.35C41.1602 299.94 41.2763 300.524 41.5019 301.069C41.7276 301.613 42.0583 302.108 42.4753 302.525C42.8922 302.942 43.3872 303.273 43.9319 303.499C44.4767 303.724 45.0605 303.84 45.6502 303.84C46.841 303.84 47.983 303.367 48.8251 302.525C49.6671 301.683 50.1402 300.541 50.1402 299.35Z" fill="#22C55E"/>
<path d="M88.6397 299.27C88.6397 298.684 88.5244 298.104 88.3002 297.563C88.0761 297.022 87.7476 296.53 87.3334 296.116C86.9193 295.702 86.4276 295.374 85.8865 295.149C85.3454 294.925 84.7654 294.81 84.1797 294.81C83.594 294.81 83.0141 294.925 82.473 295.149C81.9318 295.374 81.4402 295.702 81.026 296.116C80.6119 296.53 80.2834 297.022 80.0592 297.563C79.8351 298.104 79.7197 298.684 79.7197 299.27C79.7197 300.453 80.1896 301.587 81.026 302.424C81.8624 303.26 82.9969 303.73 84.1797 303.73C85.3626 303.73 86.497 303.26 87.3334 302.424C88.1698 301.587 88.6397 300.453 88.6397 299.27Z" fill="#22C55E"/>
<path d="M29.4298 279.74C29.4298 278.557 28.9599 277.422 28.1235 276.586C27.2871 275.75 26.1526 275.28 24.9698 275.28C23.7869 275.28 22.6525 275.75 21.8161 276.586C20.9797 277.422 20.5098 278.557 20.5098 279.74C20.5098 280.923 20.9797 282.057 21.8161 282.893C22.6525 283.73 23.7869 284.2 24.9698 284.2C26.1526 284.2 27.2871 283.73 28.1235 282.893C28.9599 282.057 29.4298 280.923 29.4298 279.74Z" fill="#22C55E"/>
<path d="M50.0396 279.74C50.0396 279.156 49.9245 278.577 49.7009 278.037C49.4773 277.497 49.1495 277.007 48.7363 276.593C48.3231 276.18 47.8325 275.852 47.2926 275.629C46.7527 275.405 46.174 275.29 45.5896 275.29C44.4094 275.29 43.2776 275.759 42.443 276.593C41.6085 277.428 41.1396 278.56 41.1396 279.74C41.1396 280.92 41.6085 282.052 42.443 282.887C43.2776 283.721 44.4094 284.19 45.5896 284.19C46.174 284.19 46.7527 284.075 47.2926 283.851C47.8325 283.628 48.3231 283.3 48.7363 282.887C49.1495 282.473 49.4773 281.983 49.7009 281.443C49.9245 280.903 50.0396 280.324 50.0396 279.74Z" fill="#22C55E"/>
<path d="M9.19051 279.66C9.19051 278.477 8.72062 277.343 7.8842 276.506C7.04779 275.67 5.91337 275.2 4.73051 275.2C3.54764 275.2 2.41322 275.67 1.57681 276.506C0.7404 277.343 0.270508 278.477 0.270508 279.66C0.270508 280.843 0.7404 281.977 1.57681 282.814C2.41322 283.65 3.54764 284.12 4.73051 284.12C5.91337 284.12 7.04779 283.65 7.8842 282.814C8.72062 281.977 9.19051 280.843 9.19051 279.66Z" fill="#22C55E"/>
<path d="M88.6797 279.71C88.6797 278.522 88.2077 277.382 87.3676 276.542C86.5274 275.702 85.3879 275.23 84.1997 275.23C83.0116 275.23 81.872 275.702 81.0319 276.542C80.1917 277.382 79.7197 278.522 79.7197 279.71C79.7197 280.898 80.1917 282.038 81.0319 282.878C81.872 283.718 83.0116 284.19 84.1997 284.19C85.3879 284.19 86.5274 283.718 87.3676 282.878C88.2077 282.038 88.6797 280.898 88.6797 279.71Z" fill="#22C55E"/>
<path d="M68.89 279.7C68.89 278.737 68.5076 277.814 67.8268 277.133C67.146 276.453 66.2227 276.07 65.26 276.07C64.2973 276.07 63.374 276.453 62.6932 277.133C62.0124 277.814 61.63 278.737 61.63 279.7C61.63 280.663 62.0124 281.586 62.6932 282.267C63.374 282.948 64.2973 283.33 65.26 283.33C66.2227 283.33 67.146 282.948 67.8268 282.267C68.5076 281.586 68.89 280.663 68.89 279.7Z" fill="#22C55E"/>
<path d="M9.1602 260.22C9.1602 259.631 9.04432 259.049 8.81917 258.505C8.59403 257.962 8.26404 257.468 7.84803 257.052C7.43203 256.636 6.93816 256.306 6.39462 256.081C5.85108 255.856 5.26852 255.74 4.68019 255.74C4.09187 255.74 3.50931 255.856 2.96577 256.081C2.42223 256.306 1.92836 256.636 1.51236 257.052C1.09635 257.468 0.766355 257.962 0.541214 258.505C0.316073 259.049 0.200195 259.631 0.200195 260.22C0.200195 261.408 0.672195 262.547 1.51236 263.388C2.35252 264.228 3.49202 264.7 4.68019 264.7C5.86836 264.7 7.00787 264.228 7.84803 263.388C8.6882 262.547 9.1602 261.408 9.1602 260.22Z" fill="#22C55E"/>
<path d="M29.68 260.19C29.68 258.968 29.1943 257.795 28.3297 256.931C27.4652 256.066 26.2926 255.58 25.07 255.58C23.8473 255.58 22.6747 256.066 21.8102 256.931C20.9457 257.795 20.46 258.968 20.46 260.19C20.46 261.413 20.9457 262.586 21.8102 263.45C22.6747 264.315 23.8473 264.8 25.07 264.8C26.2926 264.8 27.4652 264.315 28.3297 263.45C29.1943 262.586 29.68 261.413 29.68 260.19Z" fill="#001133"/>
<path d="M50.1203 260.19C50.1203 259.609 50.0059 259.035 49.7838 258.498C49.5617 257.962 49.2361 257.475 48.8257 257.064C48.4152 256.654 47.928 256.328 47.3917 256.106C46.8555 255.884 46.2807 255.77 45.7003 255.77C45.1198 255.77 44.5451 255.884 44.0088 256.106C43.4726 256.328 42.9853 256.654 42.5749 257.064C42.1644 257.475 41.8388 257.962 41.6167 258.498C41.3946 259.035 41.2803 259.609 41.2803 260.19C41.2803 261.362 41.7459 262.486 42.5749 263.315C43.4038 264.144 44.528 264.61 45.7003 264.61C46.2807 264.61 46.8555 264.496 47.3917 264.273C47.928 264.051 48.4152 263.726 48.8257 263.315C49.2361 262.905 49.5617 262.418 49.7838 261.881C50.0059 261.345 50.1203 260.77 50.1203 260.19Z" fill="#22C55E"/>
<path d="M88.6095 260.12C88.6095 258.942 88.1417 257.813 87.3091 256.981C86.4764 256.148 85.3471 255.68 84.1695 255.68C82.9919 255.68 81.8626 256.148 81.0299 256.981C80.1973 257.813 79.7295 258.942 79.7295 260.12C79.7295 261.298 80.1973 262.427 81.0299 263.26C81.8626 264.092 82.9919 264.56 84.1695 264.56C85.3471 264.56 86.4764 264.092 87.3091 263.26C88.1417 262.427 88.6095 261.298 88.6095 260.12Z" fill="#22C55E"/>
<path d="M88.9 240.51C88.9 239.258 88.4027 238.058 87.5175 237.172C86.6323 236.287 85.4318 235.79 84.18 235.79C82.9281 235.79 81.7276 236.287 80.8424 237.172C79.9572 238.058 79.46 239.258 79.46 240.51C79.46 241.13 79.582 241.744 79.8193 242.316C80.0565 242.889 80.4041 243.409 80.8424 243.848C81.2807 244.286 81.801 244.633 82.3737 244.871C82.9464 245.108 83.5601 245.23 84.18 245.23C84.7998 245.23 85.4136 245.108 85.9862 244.871C86.5589 244.633 87.0792 244.286 87.5175 243.848C87.9558 243.409 88.3035 242.889 88.5407 242.316C88.7779 241.744 88.9 241.13 88.9 240.51Z" fill="#001133"/>
<path d="M9.19972 240.54C9.19972 239.349 8.72667 238.207 7.88464 237.365C7.0426 236.523 5.90055 236.05 4.70973 236.05C3.5189 236.05 2.37686 236.523 1.53482 237.365C0.692778 238.207 0.219727 239.349 0.219727 240.54C0.219727 241.129 0.335863 241.713 0.561506 242.258C0.78715 242.803 1.11788 243.298 1.53482 243.715C1.95175 244.132 2.44673 244.462 2.99148 244.688C3.53623 244.914 4.12009 245.03 4.70973 245.03C5.29936 245.03 5.88322 244.914 6.42797 244.688C6.97273 244.462 7.4677 244.132 7.88464 243.715C8.30157 243.298 8.6323 242.803 8.85795 242.258C9.08359 241.713 9.19972 241.129 9.19972 240.54Z" fill="#22C55E"/>
<path d="M29.72 240.51C29.72 239.287 29.2343 238.115 28.3698 237.25C27.5052 236.386 26.3326 235.9 25.11 235.9C23.8874 235.9 22.7148 236.386 21.8502 237.25C20.9857 238.115 20.5 239.287 20.5 240.51C20.5 241.733 20.9857 242.905 21.8502 243.77C22.7148 244.634 23.8874 245.12 25.11 245.12C26.3326 245.12 27.5052 244.634 28.3698 243.77C29.2343 242.905 29.72 241.733 29.72 240.51Z" fill="#001133"/>
<path d="M50.0803 240.47C50.0803 239.303 49.6167 238.184 48.7915 237.359C47.9664 236.534 46.8472 236.07 45.6803 236.07C44.5133 236.07 43.3942 236.534 42.569 237.359C41.7438 238.184 41.2803 239.303 41.2803 240.47C41.2803 241.637 41.7438 242.756 42.569 243.581C43.3942 244.407 44.5133 244.87 45.6803 244.87C46.8472 244.87 47.9664 244.407 48.7915 243.581C49.6167 242.756 50.0803 241.637 50.0803 240.47Z" fill="#22C55E"/>
<path d="M29.7897 220.84C29.7897 220.228 29.6692 219.622 29.435 219.057C29.2008 218.491 28.8576 217.978 28.4248 217.545C27.9921 217.112 27.4784 216.769 26.913 216.535C26.3477 216.301 25.7417 216.18 25.1297 216.18C24.5178 216.18 23.9118 216.301 23.3464 216.535C22.781 216.769 22.2673 217.112 21.8346 217.545C21.4019 217.978 21.0586 218.491 20.8244 219.057C20.5903 219.622 20.4697 220.228 20.4697 220.84C20.4697 221.452 20.5903 222.058 20.8244 222.623C21.0586 223.189 21.4019 223.702 21.8346 224.135C22.2673 224.568 22.781 224.911 23.3464 225.145C23.9118 225.379 24.5178 225.5 25.1297 225.5C26.3656 225.5 27.5509 225.009 28.4248 224.135C29.2988 223.261 29.7897 222.076 29.7897 220.84Z" fill="#001133"/>
<path d="M88.8698 220.78C88.8698 219.544 88.3788 218.359 87.5049 217.485C86.631 216.611 85.4457 216.12 84.2098 216.12C82.9739 216.12 81.7886 216.611 80.9147 217.485C80.0408 218.359 79.5498 219.544 79.5498 220.78C79.5498 222.016 80.0408 223.201 80.9147 224.075C81.7886 224.949 82.9739 225.44 84.2098 225.44C85.4457 225.44 86.631 224.949 87.5049 224.075C88.3788 223.201 88.8698 222.016 88.8698 220.78Z" fill="#001133"/>
<path d="M9.1802 220.75C9.1802 220.16 9.06406 219.576 8.83842 219.031C8.61277 218.487 8.28204 217.992 7.8651 217.575C7.44817 217.158 6.9532 216.827 6.40844 216.602C5.86369 216.376 5.27983 216.26 4.6902 216.26C4.10056 216.26 3.5167 216.376 2.97195 216.602C2.42719 216.827 1.93222 217.158 1.51529 217.575C1.09835 217.992 0.767621 218.487 0.541977 219.031C0.316333 219.576 0.200195 220.16 0.200195 220.75C0.200195 221.941 0.673247 223.083 1.51529 223.925C2.35732 224.767 3.49937 225.24 4.6902 225.24C5.88102 225.24 7.02307 224.767 7.8651 223.925C8.70714 223.083 9.1802 221.941 9.1802 220.75Z" fill="#22C55E"/>
<path d="M50.07 220.81C50.07 220.231 49.9559 219.658 49.7343 219.123C49.5127 218.588 49.1878 218.101 48.7783 217.692C48.3688 217.282 47.8827 216.958 47.3476 216.736C46.8126 216.514 46.2391 216.4 45.66 216.4C44.4904 216.4 43.3687 216.865 42.5417 217.692C41.7146 218.519 41.25 219.641 41.25 220.81C41.25 221.98 41.7146 223.102 42.5417 223.929C43.3687 224.756 44.4904 225.22 45.66 225.22C46.2391 225.22 46.8126 225.106 47.3476 224.885C47.8827 224.663 48.3688 224.338 48.7783 223.929C49.1878 223.519 49.5127 223.033 49.7343 222.498C49.9559 221.963 50.07 221.389 50.07 220.81Z" fill="#22C55E"/>
<path d="M108.65 221.44C108.65 220.432 108.249 219.465 107.537 218.753C106.824 218.04 105.858 217.64 104.85 217.64C103.842 217.64 102.875 218.04 102.163 218.753C101.45 219.465 101.05 220.432 101.05 221.44C101.05 222.448 101.45 223.414 102.163 224.127C102.875 224.839 103.842 225.24 104.85 225.24C105.858 225.24 106.824 224.839 107.537 224.127C108.249 223.414 108.65 222.448 108.65 221.44Z" fill="#001133"/>
<path d="M68.9504 221.17C68.9504 220.208 68.568 219.284 67.8872 218.603C67.2065 217.923 66.2832 217.54 65.3204 217.54C64.8437 217.54 64.3717 217.634 63.9313 217.817C63.4909 217.999 63.0907 218.266 62.7536 218.603C62.4166 218.941 62.1492 219.341 61.9667 219.781C61.7843 220.222 61.6904 220.694 61.6904 221.17C61.6904 221.647 61.7843 222.119 61.9667 222.559C62.1492 223 62.4166 223.4 62.7536 223.737C63.0907 224.074 63.4909 224.342 63.9313 224.524C64.3717 224.706 64.8437 224.8 65.3204 224.8C66.2832 224.8 67.2065 224.418 67.8872 223.737C68.568 223.056 68.9504 222.133 68.9504 221.17Z" fill="#22C55E"/>
<path d="M29.8605 201.11C29.8605 200.497 29.7397 199.889 29.505 199.323C29.2703 198.756 28.9263 198.241 28.4927 197.808C28.059 197.374 27.5442 197.03 26.9776 196.795C26.411 196.561 25.8038 196.44 25.1905 196.44C24.5772 196.44 23.97 196.561 23.4034 196.795C22.8368 197.03 22.322 197.374 21.8883 197.808C21.4547 198.241 21.1107 198.756 20.876 199.323C20.6413 199.889 20.5205 200.497 20.5205 201.11C20.5205 202.348 21.0125 203.536 21.8883 204.412C22.7641 205.288 23.9519 205.78 25.1905 205.78C26.4291 205.78 27.6169 205.288 28.4927 204.412C29.3685 203.536 29.8605 202.348 29.8605 201.11Z" fill="#001133"/>
<path d="M50.3304 201.2C50.3304 199.988 49.8489 198.826 48.9919 197.969C48.1349 197.111 46.9725 196.63 45.7604 196.63C44.5484 196.63 43.386 197.111 42.5289 197.969C41.6719 198.826 41.1904 199.988 41.1904 201.2C41.1904 202.412 41.6719 203.574 42.5289 204.431C43.386 205.289 44.5484 205.77 45.7604 205.77C46.9725 205.77 48.1349 205.289 48.9919 204.431C49.8489 203.574 50.3304 202.412 50.3304 201.2Z" fill="#001133"/>
<path d="M88.8502 201.03C88.8502 199.789 88.3572 198.599 87.4795 197.721C86.6018 196.844 85.4114 196.35 84.1702 196.35C82.929 196.35 81.7386 196.844 80.861 197.721C79.9833 198.599 79.4902 199.789 79.4902 201.03C79.4902 202.272 79.9833 203.462 80.861 204.34C81.7386 205.217 82.929 205.71 84.1702 205.71C85.4114 205.71 86.6018 205.217 87.4795 204.34C88.3572 203.462 88.8502 202.272 88.8502 201.03Z" fill="#001133"/>
<path d="M9.19965 201.11C9.19965 199.909 8.72238 198.756 7.87284 197.907C7.0233 197.057 5.87108 196.58 4.66965 196.58C3.46822 196.58 2.31599 197.057 1.46645 197.907C0.616914 198.756 0.139648 199.909 0.139648 201.11C0.139648 201.705 0.25682 202.294 0.484474 202.844C0.712128 203.393 1.0458 203.893 1.46645 204.313C1.8871 204.734 2.38649 205.068 2.93609 205.295C3.4857 205.523 4.07476 205.64 4.66965 205.64C5.26454 205.64 5.8536 205.523 6.4032 205.295C6.95281 205.068 7.45219 204.734 7.87284 204.313C8.29349 203.893 8.62717 203.393 8.85482 202.844C9.08247 202.294 9.19965 201.705 9.19965 201.11Z" fill="#22C55E"/>
<path d="M9.32 181.24C9.32 180.004 8.82904 178.819 7.95512 177.945C7.0812 177.071 5.89591 176.58 4.66 176.58C3.42409 176.58 2.2388 177.071 1.36488 177.945C0.490964 178.819 0 180.004 0 181.24C0 182.476 0.490964 183.661 1.36488 184.535C2.2388 185.409 3.42409 185.9 4.66 185.9C5.89591 185.9 7.0812 185.409 7.95512 184.535C8.82904 183.661 9.32 182.476 9.32 181.24Z" fill="#001133"/>
<path d="M29.7696 181.24C29.7696 179.996 29.2755 178.803 28.396 177.924C27.5164 177.044 26.3235 176.55 25.0796 176.55C23.8358 176.55 22.6429 177.044 21.7633 177.924C20.8838 178.803 20.3896 179.996 20.3896 181.24C20.3896 182.484 20.8838 183.677 21.7633 184.557C22.6429 185.436 23.8358 185.93 25.0796 185.93C26.3235 185.93 27.5164 185.436 28.396 184.557C29.2755 183.677 29.7696 182.484 29.7696 181.24Z" fill="#001133"/>
<path d="M88.8395 181.24C88.8395 180.626 88.7184 180.017 88.4833 179.449C88.2481 178.882 87.9033 178.366 87.4688 177.931C87.0342 177.497 86.5183 177.152 85.9505 176.917C85.3827 176.681 84.7741 176.56 84.1595 176.56C83.5449 176.56 82.9363 176.681 82.3685 176.917C81.8007 177.152 81.2848 177.497 80.8502 177.931C80.4157 178.366 80.0709 178.882 79.8357 179.449C79.6005 180.017 79.4795 180.626 79.4795 181.24C79.4795 181.855 79.6005 182.464 79.8357 183.031C80.0709 183.599 80.4157 184.115 80.8502 184.55C81.2848 184.984 81.8007 185.329 82.3685 185.564C82.9363 185.799 83.5449 185.92 84.1595 185.92C84.7741 185.92 85.3827 185.799 85.9505 185.564C86.5183 185.329 87.0342 184.984 87.4688 184.55C87.9033 184.115 88.2481 183.599 88.4833 183.031C88.7184 182.464 88.8395 181.855 88.8395 181.24Z" fill="#001133"/>
<path d="M9.34004 159.9C9.34004 160.511 9.21976 161.116 8.98608 161.68C8.75239 162.244 8.40988 162.757 7.97808 163.188C7.54629 163.62 7.03368 163.963 6.46952 164.196C5.90535 164.43 5.30069 164.55 4.69004 164.55C3.45678 164.55 2.27404 164.06 1.40199 163.188C0.529949 162.316 0.0400391 161.134 0.0400391 159.9C0.0400391 158.667 0.529949 157.484 1.40199 156.612C2.27404 155.74 3.45678 155.25 4.69004 155.25C5.30069 155.25 5.90535 155.371 6.46952 155.604C7.03368 155.838 7.54629 156.18 7.97808 156.612C8.40988 157.044 8.75239 157.557 8.98608 158.121C9.21976 158.685 9.34004 159.29 9.34004 159.9Z" stroke="#001133" stroke-width="0.5"/>
<path d="M29.6201 159.86C29.6201 161.054 29.146 162.198 28.3021 163.042C27.4582 163.886 26.3136 164.36 25.1201 164.36C23.9266 164.36 22.7821 163.886 21.9381 163.042C21.0942 162.198 20.6201 161.054 20.6201 159.86C20.6201 158.667 21.0942 157.522 21.9381 156.678C22.7821 155.834 23.9266 155.36 25.1201 155.36C26.3136 155.36 27.4582 155.834 28.3021 156.678C29.146 157.522 29.6201 158.667 29.6201 159.86Z" stroke="#22C55E" stroke-width="0.5"/>
<path d="M50.1402 159.901C50.1402 161.091 49.6671 162.233 48.8251 163.076C47.983 163.918 46.841 164.391 45.6502 164.391C45.0605 164.391 44.4767 164.274 43.9319 164.049C43.3872 163.823 42.8922 163.492 42.4753 163.076C42.0583 162.659 41.7276 162.164 41.5019 161.619C41.2763 161.074 41.1602 160.49 41.1602 159.901C41.1602 159.311 41.2763 158.727 41.5019 158.182C41.7276 157.638 42.0583 157.143 42.4753 156.726C42.8922 156.309 43.3872 155.978 43.9319 155.752C44.4767 155.527 45.0605 155.411 45.6502 155.411C46.841 155.411 47.983 155.884 48.8251 156.726C49.6671 157.568 50.1402 158.71 50.1402 159.901Z" stroke="#22C55E" stroke-width="0.5"/>
<path d="M88.6397 159.82C88.6397 161.003 88.1698 162.138 87.3334 162.974C86.497 163.81 85.3626 164.28 84.1797 164.28C82.9969 164.28 81.8624 163.81 81.026 162.974C80.1896 162.138 79.7197 161.003 79.7197 159.82C79.7197 159.235 79.8351 158.655 80.0592 158.114C80.2834 157.572 80.6119 157.081 81.026 156.667C81.4402 156.252 81.9318 155.924 82.473 155.7C83.0141 155.476 83.594 155.36 84.1797 155.36C84.7654 155.36 85.3454 155.476 85.8865 155.7C86.4276 155.924 86.9193 156.252 87.3334 156.667C87.7476 157.081 88.0761 157.572 88.3002 158.114C88.5244 158.655 88.6397 159.235 88.6397 159.82Z" stroke="#22C55E" stroke-width="0.5"/>
<path d="M29.4298 140.29C29.4298 141.473 28.9599 142.607 28.1235 143.444C27.2871 144.28 26.1526 144.75 24.9698 144.75C23.7869 144.75 22.6525 144.28 21.8161 143.444C20.9797 142.607 20.5098 141.473 20.5098 140.29C20.5098 139.107 20.9797 137.973 21.8161 137.136C22.6525 136.3 23.7869 135.83 24.9698 135.83C26.1526 135.83 27.2871 136.3 28.1235 137.136C28.9599 137.973 29.4298 139.107 29.4298 140.29Z" stroke="#22C55E" stroke-width="0.5"/>
<path d="M50.0396 140.29C50.0396 140.875 49.9245 141.453 49.7009 141.993C49.4773 142.533 49.1495 143.024 48.7363 143.437C48.3231 143.85 47.8325 144.178 47.2926 144.402C46.7527 144.625 46.174 144.74 45.5896 144.74C44.4094 144.74 43.2776 144.271 42.443 143.437C41.6085 142.602 41.1396 141.47 41.1396 140.29C41.1396 139.11 41.6085 137.978 42.443 137.144C43.2776 136.309 44.4094 135.84 45.5896 135.84C46.174 135.84 46.7527 135.955 47.2926 136.179C47.8325 136.403 48.3231 136.73 48.7363 137.144C49.1495 137.557 49.4773 138.047 49.7009 138.587C49.9245 139.127 50.0396 139.706 50.0396 140.29Z" stroke="#22C55E" stroke-width="0.5"/>
<path d="M9.19051 140.21C9.19051 141.393 8.72062 142.528 7.8842 143.364C7.04779 144.201 5.91337 144.67 4.73051 144.67C3.54764 144.67 2.41322 144.201 1.57681 143.364C0.7404 142.528 0.270508 141.393 0.270508 140.21C0.270508 139.028 0.7404 137.893 1.57681 137.057C2.41322 136.22 3.54764 135.75 4.73051 135.75C5.91337 135.75 7.04779 136.22 7.8842 137.057C8.72062 137.893 9.19051 139.028 9.19051 140.21Z" stroke="#22C55E" stroke-width="0.5"/>
<path d="M88.6797 140.26C88.6797 141.448 88.2077 142.588 87.3676 143.428C86.5274 144.268 85.3879 144.74 84.1997 144.74C83.0116 144.74 81.872 144.268 81.0319 143.428C80.1917 142.588 79.7197 141.448 79.7197 140.26C79.7197 139.072 80.1917 137.933 81.0319 137.092C81.872 136.252 83.0116 135.78 84.1997 135.78C85.3879 135.78 86.5274 136.252 87.3676 137.092C88.2077 137.933 88.6797 139.072 88.6797 140.26Z" stroke="#22C55E" stroke-width="0.5"/>
<path d="M68.89 140.25C68.89 141.213 68.5076 142.136 67.8268 142.817C67.146 143.498 66.2227 143.88 65.26 143.88C64.2973 143.88 63.374 143.498 62.6932 142.817C62.0124 142.136 61.63 141.213 61.63 140.25C61.63 139.288 62.0124 138.364 62.6932 137.684C63.374 137.003 64.2973 136.62 65.26 136.62C66.2227 136.62 67.146 137.003 67.8268 137.684C68.5076 138.364 68.89 139.288 68.89 140.25Z" stroke="#22C55E" stroke-width="0.5"/>
<path d="M9.1602 120.77C9.1602 121.958 8.6882 123.098 7.84803 123.938C7.00787 124.778 5.86836 125.25 4.68019 125.25C3.49203 125.25 2.35252 124.778 1.51236 123.938C0.672195 123.098 0.200195 121.958 0.200195 120.77C0.200195 120.182 0.316073 119.599 0.541214 119.056C0.766355 118.512 1.09635 118.018 1.51236 117.602C1.92836 117.186 2.42223 116.856 2.96577 116.631C3.50931 116.406 4.09187 116.29 4.68019 116.29C5.26852 116.29 5.85108 116.406 6.39462 116.631C6.93816 116.856 7.43203 117.186 7.84803 117.602C8.26404 118.018 8.59403 118.512 8.81917 119.056C9.04431 119.599 9.1602 120.182 9.1602 120.77Z" stroke="#22C55E" stroke-width="0.5"/>
<path d="M29.68 120.741C29.68 121.963 29.1943 123.136 28.3297 124C27.4652 124.865 26.2926 125.351 25.07 125.351C23.8473 125.351 22.6747 124.865 21.8102 124C20.9457 123.136 20.46 121.963 20.46 120.741C20.46 119.518 20.9457 118.345 21.8102 117.481C22.6747 116.616 23.8473 116.131 25.07 116.131C26.2926 116.131 27.4652 116.616 28.3297 117.481C29.1943 118.345 29.68 119.518 29.68 120.741Z" stroke="#001133" stroke-width="0.5"/>
<path d="M50.1203 120.74C50.1203 121.321 50.0059 121.895 49.7838 122.432C49.5617 122.968 49.2361 123.455 48.8257 123.866C48.4152 124.276 47.928 124.602 47.3917 124.824C46.8555 125.046 46.2807 125.16 45.7003 125.16C44.528 125.16 43.4038 124.694 42.5749 123.866C41.7459 123.037 41.2803 121.912 41.2803 120.74C41.2803 120.16 41.3946 119.585 41.6167 119.049C41.8388 118.512 42.1644 118.025 42.5749 117.615C42.9853 117.204 43.4726 116.879 44.0088 116.657C44.5451 116.434 45.1198 116.32 45.7003 116.32C46.2807 116.32 46.8555 116.434 47.3917 116.657C47.928 116.879 48.4152 117.204 48.8257 117.615C49.2361 118.025 49.5617 118.512 49.7838 119.049C50.0059 119.585 50.1203 120.16 50.1203 120.74Z" stroke="#22C55E" stroke-width="0.5"/>
<path d="M88.6105 120.67C88.6105 121.848 88.1427 122.977 87.31 123.81C86.4774 124.643 85.348 125.11 84.1705 125.11C82.9929 125.11 81.8636 124.643 81.0309 123.81C80.1983 122.977 79.7305 121.848 79.7305 120.67C79.7305 119.493 80.1983 118.363 81.0309 117.531C81.8636 116.698 82.9929 116.23 84.1705 116.23C85.348 116.23 86.4774 116.698 87.31 117.531C88.1427 118.363 88.6105 119.493 88.6105 120.67Z" stroke="#22C55E" stroke-width="0.5"/>
<path d="M9.34004 159.9C9.34004 159.29 9.21976 158.685 8.98608 158.121C8.75239 157.557 8.40988 157.044 7.97808 156.612C7.54629 156.18 7.03368 155.838 6.46952 155.604C5.90535 155.371 5.30069 155.25 4.69004 155.25C3.45678 155.25 2.27404 155.74 1.40199 156.612C0.529949 157.484 0.0400391 158.667 0.0400391 159.9C0.0400391 161.134 0.529949 162.316 1.40199 163.188C2.27404 164.06 3.45678 164.55 4.69004 164.55C5.30069 164.55 5.90535 164.43 6.46952 164.196C7.03368 163.963 7.54629 163.62 7.97808 163.188C8.40988 162.757 8.75239 162.244 8.98608 161.68C9.21976 161.116 9.34004 160.511 9.34004 159.9Z" fill="#001133"/>
<path d="M29.62 159.86C29.62 158.667 29.1459 157.522 28.302 156.678C27.4581 155.834 26.3135 155.36 25.12 155.36C23.9265 155.36 22.7819 155.834 21.938 156.678C21.0941 157.522 20.62 158.667 20.62 159.86C20.62 161.054 21.0941 162.198 21.938 163.042C22.7819 163.886 23.9265 164.36 25.12 164.36C26.3135 164.36 27.4581 163.886 28.302 163.042C29.1459 162.198 29.62 161.054 29.62 159.86Z" fill="#22C55E"/>
<path d="M50.1402 159.901C50.1402 158.71 49.6671 157.568 48.8251 156.726C47.983 155.884 46.841 155.411 45.6502 155.411C45.0605 155.411 44.4767 155.527 43.9319 155.752C43.3872 155.978 42.8922 156.309 42.4753 156.726C42.0583 157.143 41.7276 157.638 41.5019 158.182C41.2763 158.727 41.1602 159.311 41.1602 159.901C41.1602 160.49 41.2763 161.074 41.5019 161.619C41.7276 162.164 42.0583 162.659 42.4753 163.076C42.8922 163.492 43.3872 163.823 43.9319 164.049C44.4767 164.274 45.0605 164.391 45.6502 164.391C46.841 164.391 47.983 163.918 48.8251 163.076C49.6671 162.233 50.1402 161.091 50.1402 159.901Z" fill="#22C55E"/>
<path d="M88.6397 159.82C88.6397 159.235 88.5244 158.655 88.3002 158.114C88.0761 157.572 87.7476 157.081 87.3334 156.667C86.9193 156.252 86.4276 155.924 85.8865 155.7C85.3454 155.476 84.7654 155.36 84.1797 155.36C83.594 155.36 83.0141 155.476 82.473 155.7C81.9318 155.924 81.4402 156.252 81.026 156.667C80.6119 157.081 80.2834 157.572 80.0592 158.114C79.8351 158.655 79.7197 159.235 79.7197 159.82C79.7197 161.003 80.1896 162.138 81.026 162.974C81.8624 163.81 82.9969 164.28 84.1797 164.28C85.3626 164.28 86.497 163.81 87.3334 162.974C88.1698 162.138 88.6397 161.003 88.6397 159.82Z" fill="#22C55E"/>
<path d="M29.4298 140.29C29.4298 139.107 28.9599 137.973 28.1235 137.136C27.2871 136.3 26.1526 135.83 24.9698 135.83C23.7869 135.83 22.6525 136.3 21.8161 137.136C20.9797 137.973 20.5098 139.107 20.5098 140.29C20.5098 141.473 20.9797 142.607 21.8161 143.444C22.6525 144.28 23.7869 144.75 24.9698 144.75C26.1526 144.75 27.2871 144.28 28.1235 143.444C28.9599 142.607 29.4298 141.473 29.4298 140.29Z" fill="#22C55E"/>
<path d="M50.0396 140.29C50.0396 139.706 49.9245 139.127 49.7009 138.587C49.4773 138.047 49.1495 137.557 48.7363 137.144C48.3231 136.73 47.8325 136.403 47.2926 136.179C46.7527 135.955 46.174 135.84 45.5896 135.84C44.4094 135.84 43.2776 136.309 42.443 137.144C41.6085 137.978 41.1396 139.11 41.1396 140.29C41.1396 141.47 41.6085 142.602 42.443 143.437C43.2776 144.271 44.4094 144.74 45.5896 144.74C46.174 144.74 46.7527 144.625 47.2926 144.402C47.8325 144.178 48.3231 143.85 48.7363 143.437C49.1495 143.024 49.4773 142.533 49.7009 141.993C49.9245 141.453 50.0396 140.875 50.0396 140.29Z" fill="#22C55E"/>
<path d="M9.19051 140.21C9.19051 139.028 8.72062 137.893 7.8842 137.057C7.04779 136.22 5.91337 135.75 4.73051 135.75C3.54764 135.75 2.41322 136.22 1.57681 137.057C0.7404 137.893 0.270508 139.028 0.270508 140.21C0.270508 141.393 0.7404 142.528 1.57681 143.364C2.41322 144.201 3.54764 144.67 4.73051 144.67C5.91337 144.67 7.04779 144.201 7.8842 143.364C8.72062 142.528 9.19051 141.393 9.19051 140.21Z" fill="#22C55E"/>
<path d="M88.6797 140.26C88.6797 139.072 88.2077 137.933 87.3676 137.092C86.5274 136.252 85.3879 135.78 84.1997 135.78C83.0116 135.78 81.872 136.252 81.0319 137.092C80.1917 137.933 79.7197 139.072 79.7197 140.26C79.7197 141.448 80.1917 142.588 81.0319 143.428C81.872 144.268 83.0116 144.74 84.1997 144.74C85.3879 144.74 86.5274 144.268 87.3676 143.428C88.2077 142.588 88.6797 141.448 88.6797 140.26Z" fill="#22C55E"/>
<path d="M68.89 140.25C68.89 139.288 68.5076 138.364 67.8268 137.684C67.146 137.003 66.2227 136.62 65.26 136.62C64.2973 136.62 63.374 137.003 62.6932 137.684C62.0124 138.364 61.63 139.288 61.63 140.25C61.63 141.213 62.0124 142.136 62.6932 142.817C63.374 143.498 64.2973 143.88 65.26 143.88C66.2227 143.88 67.146 143.498 67.8268 142.817C68.5076 142.136 68.89 141.213 68.89 140.25Z" fill="#22C55E"/>
<path d="M9.1602 120.77C9.1602 120.182 9.04432 119.599 8.81917 119.056C8.59403 118.512 8.26404 118.018 7.84803 117.602C7.43203 117.186 6.93816 116.856 6.39462 116.631C5.85108 116.406 5.26852 116.29 4.68019 116.29C4.09187 116.29 3.50931 116.406 2.96577 116.631C2.42223 116.856 1.92836 117.186 1.51236 117.602C1.09635 118.018 0.766355 118.512 0.541214 119.056C0.316073 119.599 0.200195 120.182 0.200195 120.77C0.200195 121.958 0.672195 123.098 1.51236 123.938C2.35252 124.778 3.49202 125.25 4.68019 125.25C5.86836 125.25 7.00787 124.778 7.84803 123.938C8.6882 123.098 9.1602 121.958 9.1602 120.77Z" fill="#22C55E"/>
<path d="M29.68 120.741C29.68 119.518 29.1943 118.345 28.3297 117.481C27.4652 116.616 26.2926 116.131 25.07 116.131C23.8473 116.131 22.6747 116.616 21.8102 117.481C20.9457 118.345 20.46 119.518 20.46 120.741C20.46 121.963 20.9457 123.136 21.8102 124C22.6747 124.865 23.8473 125.351 25.07 125.351C26.2926 125.351 27.4652 124.865 28.3297 124C29.1943 123.136 29.68 121.963 29.68 120.741Z" fill="#001133"/>
<path d="M50.1203 120.74C50.1203 120.16 50.0059 119.585 49.7838 119.049C49.5617 118.512 49.2361 118.025 48.8257 117.615C48.4152 117.204 47.928 116.879 47.3917 116.657C46.8555 116.434 46.2807 116.32 45.7003 116.32C45.1198 116.32 44.5451 116.434 44.0088 116.657C43.4726 116.879 42.9853 117.204 42.5749 117.615C42.1644 118.025 41.8388 118.512 41.6167 119.049C41.3946 119.585 41.2803 120.16 41.2803 120.74C41.2803 121.912 41.7459 123.037 42.5749 123.866C43.4038 124.694 44.528 125.16 45.7003 125.16C46.2807 125.16 46.8555 125.046 47.3917 124.824C47.928 124.602 48.4152 124.276 48.8257 123.866C49.2361 123.455 49.5617 122.968 49.7838 122.432C50.0059 121.895 50.1203 121.321 50.1203 120.74Z" fill="#22C55E"/>
<path d="M88.6095 120.67C88.6095 119.493 88.1417 118.363 87.3091 117.531C86.4764 116.698 85.3471 116.23 84.1695 116.23C82.9919 116.23 81.8626 116.698 81.0299 117.531C80.1973 118.363 79.7295 119.493 79.7295 120.67C79.7295 121.848 80.1973 122.977 81.0299 123.81C81.8626 124.643 82.9919 125.11 84.1695 125.11C85.3471 125.11 86.4764 124.643 87.3091 123.81C88.1417 122.977 88.6095 121.848 88.6095 120.67Z" fill="#22C55E"/>
</g>
<g clip-path="url(#clip2_13475_1296)">
<path d="M1250.21 297.744C1250.21 298.98 1250.7 300.166 1251.58 301.04C1252.45 301.913 1253.63 302.404 1254.87 302.404C1255.48 302.404 1256.09 302.284 1256.65 302.05C1257.22 301.816 1257.73 301.472 1258.17 301.04C1258.6 300.607 1258.94 300.093 1259.18 299.528C1259.41 298.962 1259.53 298.356 1259.53 297.744C1259.53 297.132 1259.41 296.526 1259.18 295.961C1258.94 295.396 1258.6 294.882 1258.17 294.449C1257.73 294.017 1257.22 293.673 1256.65 293.439C1256.09 293.205 1255.48 293.084 1254.87 293.084C1254.26 293.084 1253.65 293.205 1253.09 293.439C1252.52 293.673 1252.01 294.017 1251.58 294.449C1251.14 294.882 1250.8 295.396 1250.56 295.961C1250.33 296.526 1250.21 297.132 1250.21 297.744Z" stroke="#001133" stroke-width="0.5"/>
<path d="M1191.13 297.684C1191.13 298.92 1191.62 300.106 1192.5 300.979C1193.37 301.853 1194.55 302.344 1195.79 302.344C1197.03 302.344 1198.21 301.853 1199.09 300.979C1199.96 300.106 1200.45 298.92 1200.45 297.684C1200.45 296.448 1199.96 295.263 1199.09 294.389C1198.21 293.515 1197.03 293.024 1195.79 293.024C1194.55 293.024 1193.37 293.515 1192.5 294.389C1191.62 295.263 1191.13 296.448 1191.13 297.684Z" stroke="#001133" stroke-width="0.5"/>
<path d="M1270.82 297.654C1270.82 298.845 1271.29 299.987 1272.13 300.829C1272.98 301.671 1274.12 302.144 1275.31 302.144C1276.5 302.144 1277.64 301.671 1278.48 300.829C1279.33 299.987 1279.8 298.845 1279.8 297.654C1279.8 297.065 1279.68 296.481 1279.46 295.936C1279.23 295.391 1278.9 294.896 1278.48 294.479C1278.07 294.062 1277.57 293.732 1277.03 293.506C1276.48 293.28 1275.9 293.164 1275.31 293.164C1274.72 293.164 1274.14 293.28 1273.59 293.506C1273.05 293.732 1272.55 294.062 1272.13 294.479C1271.72 294.896 1271.39 295.391 1271.16 295.936C1270.94 296.481 1270.82 297.065 1270.82 297.654Z" stroke="#22C55E" stroke-width="0.5"/>
<path d="M1229.93 297.715C1229.93 298.294 1230.04 298.867 1230.27 299.402C1230.49 299.937 1230.81 300.423 1231.22 300.833C1231.63 301.242 1232.12 301.567 1232.65 301.789C1233.19 302.011 1233.76 302.125 1234.34 302.125C1235.51 302.125 1236.63 301.66 1237.46 300.833C1238.29 300.006 1238.75 298.884 1238.75 297.715C1238.75 296.545 1238.29 295.423 1237.46 294.596C1236.63 293.769 1235.51 293.305 1234.34 293.305C1233.76 293.305 1233.19 293.419 1232.65 293.64C1232.12 293.862 1231.63 294.187 1231.22 294.596C1230.81 295.006 1230.49 295.492 1230.27 296.027C1230.04 296.562 1229.93 297.136 1229.93 297.715Z" stroke="#22C55E" stroke-width="0.5"/>
<path d="M1171.35 298.344C1171.35 299.352 1171.75 300.319 1172.46 301.031C1173.18 301.744 1174.14 302.144 1175.15 302.144C1176.16 302.144 1177.12 301.744 1177.84 301.031C1178.55 300.319 1178.95 299.352 1178.95 298.344C1178.95 297.336 1178.55 296.37 1177.84 295.657C1177.12 294.945 1176.16 294.544 1175.15 294.544C1174.14 294.544 1173.18 294.945 1172.46 295.657C1171.75 296.37 1171.35 297.336 1171.35 298.344Z" stroke="#001133" stroke-width="0.5"/>
<path d="M1211.05 298.075C1211.05 299.037 1211.43 299.961 1212.11 300.642C1212.79 301.322 1213.72 301.705 1214.68 301.705C1215.16 301.705 1215.63 301.611 1216.07 301.428C1216.51 301.246 1216.91 300.979 1217.25 300.642C1217.58 300.304 1217.85 299.904 1218.03 299.464C1218.22 299.023 1218.31 298.551 1218.31 298.075C1218.31 297.598 1218.22 297.126 1218.03 296.686C1217.85 296.245 1217.58 295.845 1217.25 295.508C1216.91 295.171 1216.51 294.903 1216.07 294.721C1215.63 294.539 1215.16 294.445 1214.68 294.445C1213.72 294.445 1212.79 294.827 1212.11 295.508C1211.43 296.189 1211.05 297.112 1211.05 298.075Z" stroke="#22C55E" stroke-width="0.5"/>
<path d="M1250.14 278.014C1250.14 279.253 1250.63 280.441 1251.51 281.316C1252.38 282.192 1253.57 282.684 1254.81 282.684C1256.05 282.684 1257.24 282.192 1258.11 281.316C1258.99 280.441 1259.48 279.253 1259.48 278.014C1259.48 277.401 1259.36 276.794 1259.12 276.227C1258.89 275.66 1258.55 275.146 1258.11 274.712C1257.68 274.278 1257.16 273.934 1256.6 273.7C1256.03 273.465 1255.42 273.344 1254.81 273.344C1254.2 273.344 1253.59 273.465 1253.02 273.7C1252.46 273.934 1251.94 274.278 1251.51 274.712C1251.07 275.146 1250.73 275.66 1250.49 276.227C1250.26 276.794 1250.14 277.401 1250.14 278.014Z" stroke="#001133" stroke-width="0.5"/>
<path d="M1229.67 278.104C1229.67 279.316 1230.15 280.479 1231.01 281.336C1231.87 282.193 1233.03 282.674 1234.24 282.674C1235.45 282.674 1236.61 282.193 1237.47 281.336C1238.33 280.479 1238.81 279.316 1238.81 278.104C1238.81 276.892 1238.33 275.73 1237.47 274.873C1236.61 274.016 1235.45 273.534 1234.24 273.534C1233.03 273.534 1231.87 274.016 1231.01 274.873C1230.15 275.73 1229.67 276.892 1229.67 278.104Z" stroke="#001133" stroke-width="0.5"/>
<path d="M1191.15 277.935C1191.15 279.176 1191.64 280.366 1192.52 281.244C1193.4 282.122 1194.59 282.615 1195.83 282.615C1197.07 282.615 1198.26 282.122 1199.14 281.244C1200.02 280.366 1200.51 279.176 1200.51 277.935C1200.51 276.694 1200.02 275.503 1199.14 274.626C1198.26 273.748 1197.07 273.255 1195.83 273.255C1194.59 273.255 1193.4 273.748 1192.52 274.626C1191.64 275.503 1191.15 276.694 1191.15 277.935Z" stroke="#001133" stroke-width="0.5"/>
<path d="M1270.8 278.015C1270.8 278.609 1270.92 279.199 1271.15 279.748C1271.37 280.298 1271.71 280.797 1272.13 281.218C1272.55 281.638 1273.05 281.972 1273.6 282.2C1274.15 282.427 1274.74 282.545 1275.33 282.545C1275.93 282.545 1276.51 282.427 1277.06 282.2C1277.61 281.972 1278.11 281.638 1278.53 281.218C1278.95 280.797 1279.29 280.298 1279.52 279.748C1279.74 279.199 1279.86 278.609 1279.86 278.015C1279.86 276.813 1279.38 275.661 1278.53 274.811C1277.68 273.962 1276.53 273.485 1275.33 273.485C1274.13 273.485 1272.98 273.962 1272.13 274.811C1271.28 275.661 1270.8 276.813 1270.8 278.015Z" stroke="#22C55E" stroke-width="0.5"/>
<path d="M1270.68 258.144C1270.68 259.38 1271.17 260.566 1272.04 261.439C1272.92 262.313 1274.1 262.804 1275.34 262.804C1276.58 262.804 1277.76 262.313 1278.64 261.439C1279.51 260.566 1280 259.38 1280 258.144C1280 256.908 1279.51 255.723 1278.64 254.849C1277.76 253.975 1276.58 253.484 1275.34 253.484C1274.1 253.484 1272.92 253.975 1272.04 254.849C1271.17 255.723 1270.68 256.908 1270.68 258.144Z" stroke="#001133" stroke-width="0.5"/>
<path d="M1250.23 258.145C1250.23 259.388 1250.72 260.581 1251.6 261.461C1252.48 262.34 1253.68 262.835 1254.92 262.835C1256.16 262.835 1257.36 262.34 1258.24 261.461C1259.12 260.581 1259.61 259.388 1259.61 258.145C1259.61 256.901 1259.12 255.708 1258.24 254.828C1257.36 253.949 1256.16 253.455 1254.92 253.455C1253.68 253.455 1252.48 253.949 1251.6 254.828C1250.72 255.708 1250.23 256.901 1250.23 258.145Z" stroke="#001133" stroke-width="0.5"/>
<path d="M1191.16 258.145C1191.16 258.759 1191.28 259.368 1191.52 259.936C1191.75 260.504 1192.1 261.02 1192.53 261.454C1192.96 261.889 1193.48 262.233 1194.05 262.469C1194.62 262.704 1195.22 262.825 1195.84 262.825C1196.45 262.825 1197.06 262.704 1197.63 262.469C1198.2 262.233 1198.71 261.889 1199.15 261.454C1199.58 261.02 1199.93 260.504 1200.16 259.936C1200.4 259.368 1200.52 258.759 1200.52 258.145C1200.52 257.53 1200.4 256.922 1200.16 256.354C1199.93 255.786 1199.58 255.27 1199.15 254.836C1198.71 254.401 1198.2 254.056 1197.63 253.821C1197.06 253.586 1196.45 253.465 1195.84 253.465C1195.22 253.465 1194.62 253.586 1194.05 253.821C1193.48 254.056 1192.96 254.401 1192.53 254.836C1192.1 255.27 1191.75 255.786 1191.52 256.354C1191.28 256.922 1191.16 257.53 1191.16 258.145Z" stroke="#001133" stroke-width="0.5"/>
<path d="M1250.21 297.744C1250.21 297.132 1250.33 296.526 1250.56 295.961C1250.8 295.396 1251.14 294.882 1251.58 294.449C1252.01 294.017 1252.52 293.673 1253.09 293.439C1253.65 293.205 1254.26 293.084 1254.87 293.084C1255.48 293.084 1256.09 293.205 1256.65 293.439C1257.22 293.673 1257.73 294.017 1258.17 294.449C1258.6 294.882 1258.94 295.396 1259.18 295.961C1259.41 296.526 1259.53 297.132 1259.53 297.744C1259.53 298.356 1259.41 298.962 1259.18 299.528C1258.94 300.093 1258.6 300.607 1258.17 301.04C1257.73 301.472 1257.22 301.816 1256.65 302.05C1256.09 302.284 1255.48 302.404 1254.87 302.404C1253.63 302.404 1252.45 301.913 1251.58 301.04C1250.7 300.166 1250.21 298.98 1250.21 297.744Z" fill="#001133"/>
<path d="M1191.13 297.684C1191.13 296.448 1191.62 295.263 1192.5 294.389C1193.37 293.515 1194.55 293.024 1195.79 293.024C1197.03 293.024 1198.21 293.515 1199.09 294.389C1199.96 295.263 1200.45 296.448 1200.45 297.684C1200.45 298.92 1199.96 300.106 1199.09 300.979C1198.21 301.853 1197.03 302.344 1195.79 302.344C1194.55 302.344 1193.37 301.853 1192.5 300.979C1191.62 300.106 1191.13 298.92 1191.13 297.684Z" fill="#001133"/>
<path d="M1270.82 297.654C1270.82 297.065 1270.94 296.481 1271.16 295.936C1271.39 295.391 1271.72 294.896 1272.13 294.479C1272.55 294.062 1273.05 293.732 1273.59 293.506C1274.14 293.28 1274.72 293.164 1275.31 293.164C1275.9 293.164 1276.48 293.28 1277.03 293.506C1277.57 293.732 1278.07 294.062 1278.48 294.479C1278.9 294.896 1279.23 295.391 1279.46 295.936C1279.68 296.481 1279.8 297.065 1279.8 297.654C1279.8 298.845 1279.33 299.987 1278.48 300.829C1277.64 301.671 1276.5 302.144 1275.31 302.144C1274.12 302.144 1272.98 301.671 1272.13 300.829C1271.29 299.987 1270.82 298.845 1270.82 297.654Z" fill="#22C55E"/>
<path d="M1229.93 297.715C1229.93 297.136 1230.04 296.562 1230.27 296.027C1230.49 295.492 1230.81 295.006 1231.22 294.596C1231.63 294.187 1232.12 293.862 1232.65 293.64C1233.19 293.419 1233.76 293.305 1234.34 293.305C1235.51 293.305 1236.63 293.769 1237.46 294.596C1238.29 295.423 1238.75 296.545 1238.75 297.715C1238.75 298.884 1238.29 300.006 1237.46 300.833C1236.63 301.66 1235.51 302.125 1234.34 302.125C1233.76 302.125 1233.19 302.011 1232.65 301.789C1232.12 301.567 1231.63 301.242 1231.22 300.833C1230.81 300.423 1230.49 299.937 1230.27 299.402C1230.04 298.867 1229.93 298.294 1229.93 297.715Z" fill="#22C55E"/>
<path d="M1171.35 298.344C1171.35 297.336 1171.75 296.37 1172.46 295.657C1173.18 294.945 1174.14 294.544 1175.15 294.544C1176.16 294.544 1177.12 294.945 1177.84 295.657C1178.55 296.37 1178.95 297.336 1178.95 298.344C1178.95 299.352 1178.55 300.319 1177.84 301.031C1177.12 301.744 1176.16 302.144 1175.15 302.144C1174.14 302.144 1173.18 301.744 1172.46 301.031C1171.75 300.319 1171.35 299.352 1171.35 298.344Z" fill="#001133"/>
<path d="M1211.05 298.075C1211.05 297.112 1211.43 296.189 1212.11 295.508C1212.79 294.827 1213.72 294.445 1214.68 294.445C1215.16 294.445 1215.63 294.539 1216.07 294.721C1216.51 294.903 1216.91 295.171 1217.25 295.508C1217.58 295.845 1217.85 296.245 1218.03 296.686C1218.22 297.126 1218.31 297.598 1218.31 298.075C1218.31 298.551 1218.22 299.023 1218.03 299.464C1217.85 299.904 1217.58 300.304 1217.25 300.642C1216.91 300.979 1216.51 301.246 1216.07 301.428C1215.63 301.611 1215.16 301.705 1214.68 301.705C1213.72 301.705 1212.79 301.322 1212.11 300.642C1211.43 299.961 1211.05 299.037 1211.05 298.075Z" fill="#22C55E"/>
<path d="M1250.14 278.014C1250.14 277.401 1250.26 276.794 1250.49 276.227C1250.73 275.66 1251.07 275.146 1251.51 274.712C1251.94 274.278 1252.46 273.934 1253.02 273.7C1253.59 273.465 1254.2 273.344 1254.81 273.344C1255.42 273.344 1256.03 273.465 1256.6 273.7C1257.16 273.934 1257.68 274.278 1258.11 274.712C1258.55 275.146 1258.89 275.66 1259.12 276.227C1259.36 276.794 1259.48 277.401 1259.48 278.014C1259.48 279.253 1258.99 280.441 1258.11 281.316C1257.24 282.192 1256.05 282.684 1254.81 282.684C1253.57 282.684 1252.38 282.192 1251.51 281.316C1250.63 280.441 1250.14 279.253 1250.14 278.014Z" fill="#001133"/>
<path d="M1229.67 278.104C1229.67 276.892 1230.15 275.73 1231.01 274.873C1231.87 274.016 1233.03 273.534 1234.24 273.534C1235.45 273.534 1236.61 274.016 1237.47 274.873C1238.33 275.73 1238.81 276.892 1238.81 278.104C1238.81 279.316 1238.33 280.479 1237.47 281.336C1236.61 282.193 1235.45 282.674 1234.24 282.674C1233.03 282.674 1231.87 282.193 1231.01 281.336C1230.15 280.479 1229.67 279.316 1229.67 278.104Z" fill="#001133"/>
<path d="M1191.15 277.935C1191.15 276.694 1191.64 275.503 1192.52 274.626C1193.4 273.748 1194.59 273.255 1195.83 273.255C1197.07 273.255 1198.26 273.748 1199.14 274.626C1200.02 275.503 1200.51 276.694 1200.51 277.935C1200.51 279.176 1200.02 280.366 1199.14 281.244C1198.26 282.122 1197.07 282.615 1195.83 282.615C1194.59 282.615 1193.4 282.122 1192.52 281.244C1191.64 280.366 1191.15 279.176 1191.15 277.935Z" fill="#001133"/>
<path d="M1270.8 278.015C1270.8 276.813 1271.28 275.661 1272.13 274.811C1272.98 273.962 1274.13 273.485 1275.33 273.485C1276.53 273.485 1277.68 273.962 1278.53 274.811C1279.38 275.661 1279.86 276.813 1279.86 278.015C1279.86 278.609 1279.74 279.199 1279.52 279.748C1279.29 280.298 1278.95 280.797 1278.53 281.218C1278.11 281.638 1277.61 281.972 1277.06 282.2C1276.51 282.427 1275.93 282.545 1275.33 282.545C1274.74 282.545 1274.15 282.427 1273.6 282.2C1273.05 281.972 1272.55 281.638 1272.13 281.218C1271.71 280.797 1271.37 280.298 1271.15 279.748C1270.92 279.199 1270.8 278.609 1270.8 278.015Z" fill="#22C55E"/>
<path d="M1270.68 258.144C1270.68 256.908 1271.17 255.723 1272.04 254.849C1272.92 253.975 1274.1 253.484 1275.34 253.484C1276.58 253.484 1277.76 253.975 1278.64 254.849C1279.51 255.723 1280 256.908 1280 258.144C1280 259.38 1279.51 260.566 1278.64 261.439C1277.76 262.313 1276.58 262.804 1275.34 262.804C1274.1 262.804 1272.92 262.313 1272.04 261.439C1271.17 260.566 1270.68 259.38 1270.68 258.144Z" fill="#001133"/>
<path d="M1250.23 258.145C1250.23 256.901 1250.72 255.708 1251.6 254.828C1252.48 253.949 1253.68 253.455 1254.92 253.455C1256.16 253.455 1257.36 253.949 1258.24 254.828C1259.12 255.708 1259.61 256.901 1259.61 258.145C1259.61 259.388 1259.12 260.581 1258.24 261.461C1257.36 262.34 1256.16 262.835 1254.92 262.835C1253.68 262.835 1252.48 262.34 1251.6 261.461C1250.72 260.581 1250.23 259.388 1250.23 258.145Z" fill="#001133"/>
<path d="M1191.16 258.145C1191.16 257.53 1191.28 256.922 1191.52 256.354C1191.75 255.786 1192.1 255.27 1192.53 254.836C1192.97 254.401 1193.48 254.056 1194.05 253.821C1194.62 253.586 1195.23 253.465 1195.84 253.465C1196.46 253.465 1197.06 253.586 1197.63 253.821C1198.2 254.056 1198.72 254.401 1199.15 254.836C1199.58 255.27 1199.93 255.786 1200.16 256.354C1200.4 256.922 1200.52 257.53 1200.52 258.145C1200.52 258.759 1200.4 259.368 1200.16 259.936C1199.93 260.504 1199.58 261.02 1199.15 261.454C1198.72 261.889 1198.2 262.233 1197.63 262.469C1197.06 262.704 1196.46 262.825 1195.84 262.825C1195.23 262.825 1194.62 262.704 1194.05 262.469C1193.48 262.233 1192.97 261.889 1192.53 261.454C1192.1 261.02 1191.75 260.504 1191.52 259.936C1191.28 259.368 1191.16 258.759 1191.16 258.145Z" fill="#001133"/>
<path d="M1270.66 236.805C1270.66 237.415 1270.78 238.02 1271.01 238.584C1271.25 239.148 1271.59 239.661 1272.02 240.093C1272.45 240.524 1272.97 240.867 1273.53 241.101C1274.09 241.334 1274.7 241.455 1275.31 241.455C1276.54 241.455 1277.73 240.965 1278.6 240.093C1279.47 239.221 1279.96 238.038 1279.96 236.805C1279.96 235.571 1279.47 234.389 1278.6 233.517C1277.73 232.645 1276.54 232.155 1275.31 232.155C1274.7 232.155 1274.09 232.275 1273.53 232.509C1272.97 232.742 1272.45 233.085 1272.02 233.517C1271.59 233.948 1271.25 234.461 1271.01 235.025C1270.78 235.589 1270.66 236.194 1270.66 236.805Z" stroke="#001133" stroke-width="0.5"/>
<path d="M1250.38 236.765C1250.38 237.958 1250.85 239.103 1251.7 239.947C1252.54 240.791 1253.69 241.265 1254.88 241.265C1256.07 241.265 1257.22 240.791 1258.06 239.947C1258.91 239.103 1259.38 237.958 1259.38 236.765C1259.38 235.571 1258.91 234.427 1258.06 233.583C1257.22 232.739 1256.07 232.265 1254.88 232.265C1253.69 232.265 1252.54 232.739 1251.7 233.583C1250.85 234.427 1250.38 235.571 1250.38 236.765Z" stroke="#22C55E" stroke-width="0.5"/>
<path d="M1229.86 236.805C1229.86 237.996 1230.33 239.138 1231.17 239.98C1232.02 240.822 1233.16 241.295 1234.35 241.295C1234.94 241.295 1235.52 241.179 1236.07 240.953C1236.61 240.727 1237.11 240.397 1237.52 239.98C1237.94 239.563 1238.27 239.068 1238.5 238.523C1238.72 237.978 1238.84 237.395 1238.84 236.805C1238.84 236.215 1238.72 235.631 1238.5 235.087C1238.27 234.542 1237.94 234.047 1237.52 233.63C1237.11 233.213 1236.61 232.882 1236.07 232.657C1235.52 232.431 1234.94 232.315 1234.35 232.315C1233.16 232.315 1232.02 232.788 1231.17 233.63C1230.33 234.472 1229.86 235.614 1229.86 236.805Z" stroke="#22C55E" stroke-width="0.5"/>
<path d="M1191.36 236.725C1191.36 237.907 1191.83 239.042 1192.67 239.878C1193.5 240.715 1194.64 241.185 1195.82 241.185C1197 241.185 1198.14 240.715 1198.97 239.878C1199.81 239.042 1200.28 237.907 1200.28 236.725C1200.28 236.139 1200.16 235.559 1199.94 235.018C1199.72 234.477 1199.39 233.985 1198.97 233.571C1198.56 233.157 1198.07 232.828 1197.53 232.604C1196.99 232.38 1196.41 232.265 1195.82 232.265C1195.23 232.265 1194.65 232.38 1194.11 232.604C1193.57 232.828 1193.08 233.157 1192.67 233.571C1192.25 233.985 1191.92 234.477 1191.7 235.018C1191.48 235.559 1191.36 236.139 1191.36 236.725Z" stroke="#22C55E" stroke-width="0.5"/>
<path d="M1250.57 217.194C1250.57 218.377 1251.04 219.512 1251.88 220.348C1252.71 221.184 1253.85 221.654 1255.03 221.654C1256.21 221.654 1257.35 221.184 1258.18 220.348C1259.02 219.512 1259.49 218.377 1259.49 217.194C1259.49 216.011 1259.02 214.877 1258.18 214.041C1257.35 213.204 1256.21 212.734 1255.03 212.734C1253.85 212.734 1252.71 213.204 1251.88 214.041C1251.04 214.877 1250.57 216.011 1250.57 217.194Z" stroke="#22C55E" stroke-width="0.5"/>
<path d="M1229.96 217.195C1229.96 217.779 1230.08 218.358 1230.3 218.897C1230.52 219.437 1230.85 219.928 1231.26 220.341C1231.68 220.754 1232.17 221.082 1232.71 221.306C1233.25 221.529 1233.83 221.645 1234.41 221.645C1235.59 221.645 1236.72 221.176 1237.56 220.341C1238.39 219.507 1238.86 218.375 1238.86 217.195C1238.86 216.014 1238.39 214.882 1237.56 214.048C1236.72 213.213 1235.59 212.745 1234.41 212.745C1233.83 212.745 1233.25 212.86 1232.71 213.083C1232.17 213.307 1231.68 213.635 1231.26 214.048C1230.85 214.461 1230.52 214.952 1230.3 215.492C1230.08 216.031 1229.96 216.61 1229.96 217.195Z" stroke="#22C55E" stroke-width="0.5"/>
<path d="M1270.81 217.115C1270.81 218.298 1271.28 219.432 1272.12 220.268C1272.95 221.105 1274.09 221.575 1275.27 221.575C1276.45 221.575 1277.59 221.105 1278.42 220.268C1279.26 219.432 1279.73 218.298 1279.73 217.115C1279.73 215.932 1279.26 214.797 1278.42 213.961C1277.59 213.125 1276.45 212.655 1275.27 212.655C1274.09 212.655 1272.95 213.125 1272.12 213.961C1271.28 214.797 1270.81 215.932 1270.81 217.115Z" stroke="#22C55E" stroke-width="0.5"/>
<path d="M1191.32 217.165C1191.32 218.353 1191.79 219.492 1192.63 220.332C1193.47 221.173 1194.61 221.645 1195.8 221.645C1196.99 221.645 1198.13 221.173 1198.97 220.332C1199.81 219.492 1200.28 218.353 1200.28 217.165C1200.28 215.976 1199.81 214.837 1198.97 213.997C1198.13 213.157 1196.99 212.685 1195.8 212.685C1194.61 212.685 1193.47 213.157 1192.63 213.997C1191.79 214.837 1191.32 215.976 1191.32 217.165Z" stroke="#22C55E" stroke-width="0.5"/>
<path d="M1211.11 217.155C1211.11 218.117 1211.49 219.041 1212.17 219.721C1212.85 220.402 1213.78 220.785 1214.74 220.785C1215.7 220.785 1216.63 220.402 1217.31 219.721C1217.99 219.041 1218.37 218.117 1218.37 217.155C1218.37 216.192 1217.99 215.269 1217.31 214.588C1216.63 213.907 1215.7 213.525 1214.74 213.525C1213.78 213.525 1212.85 213.907 1212.17 214.588C1211.49 215.269 1211.11 216.192 1211.11 217.155Z" stroke="#22C55E" stroke-width="0.5"/>
<path d="M1270.84 197.674C1270.84 198.862 1271.31 200.002 1272.15 200.842C1272.99 201.682 1274.13 202.154 1275.32 202.154C1276.51 202.154 1277.65 201.682 1278.49 200.842C1279.33 200.002 1279.8 198.862 1279.8 197.674C1279.8 197.086 1279.68 196.503 1279.46 195.96C1279.23 195.416 1278.9 194.922 1278.49 194.506C1278.07 194.09 1277.58 193.76 1277.03 193.535C1276.49 193.31 1275.91 193.194 1275.32 193.194C1274.73 193.194 1274.15 193.31 1273.61 193.535C1273.06 193.76 1272.57 194.09 1272.15 194.506C1271.74 194.922 1271.41 195.416 1271.18 195.96C1270.96 196.503 1270.84 197.086 1270.84 197.674Z" stroke="#22C55E" stroke-width="0.5"/>
<path d="M1250.32 197.645C1250.32 198.868 1250.81 200.04 1251.67 200.905C1252.53 201.769 1253.71 202.255 1254.93 202.255C1256.15 202.255 1257.33 201.769 1258.19 200.905C1259.05 200.04 1259.54 198.868 1259.54 197.645C1259.54 196.422 1259.05 195.25 1258.19 194.385C1257.33 193.521 1256.15 193.035 1254.93 193.035C1253.71 193.035 1252.53 193.521 1251.67 194.385C1250.81 195.25 1250.32 196.422 1250.32 197.645Z" stroke="#001133" stroke-width="0.5"/>
<path d="M1229.88 197.644C1229.88 198.225 1229.99 198.8 1230.22 199.336C1230.44 199.872 1230.76 200.359 1231.17 200.77C1231.58 201.18 1232.07 201.506 1232.61 201.728C1233.14 201.95 1233.72 202.064 1234.3 202.064C1235.47 202.064 1236.6 201.599 1237.43 200.77C1238.25 199.941 1238.72 198.817 1238.72 197.644C1238.72 197.064 1238.61 196.489 1238.38 195.953C1238.16 195.417 1237.84 194.929 1237.43 194.519C1237.01 194.109 1236.53 193.783 1235.99 193.561C1235.45 193.339 1234.88 193.224 1234.3 193.224C1233.72 193.224 1233.14 193.339 1232.61 193.561C1232.07 193.783 1231.58 194.109 1231.17 194.519C1230.76 194.929 1230.44 195.417 1230.22 195.953C1229.99 196.489 1229.88 197.064 1229.88 197.644Z" stroke="#22C55E" stroke-width="0.5"/>
<path d="M1191.39 197.575C1191.39 198.752 1191.86 199.882 1192.69 200.714C1193.52 201.547 1194.65 202.015 1195.83 202.015C1197.01 202.015 1198.14 201.547 1198.97 200.714C1199.8 199.882 1200.27 198.752 1200.27 197.575C1200.27 196.397 1199.8 195.268 1198.97 194.435C1198.14 193.602 1197.01 193.135 1195.83 193.135C1194.65 193.135 1193.52 193.602 1192.69 194.435C1191.86 195.268 1191.39 196.397 1191.39 197.575Z" stroke="#22C55E" stroke-width="0.5"/>
<path d="M1191.1 177.965C1191.1 178.584 1191.22 179.198 1191.46 179.771C1191.7 180.343 1192.04 180.864 1192.48 181.302C1192.92 181.74 1193.44 182.088 1194.01 182.325C1194.59 182.562 1195.2 182.685 1195.82 182.685C1196.44 182.685 1197.05 182.562 1197.63 182.325C1198.2 182.088 1198.72 181.74 1199.16 181.302C1199.6 180.864 1199.94 180.343 1200.18 179.771C1200.42 179.198 1200.54 178.584 1200.54 177.965C1200.54 176.713 1200.04 175.512 1199.16 174.627C1198.27 173.742 1197.07 173.245 1195.82 173.245C1194.57 173.245 1193.37 173.742 1192.48 174.627C1191.6 175.512 1191.1 176.713 1191.1 177.965Z" stroke="#001133" stroke-width="0.5"/>
<path d="M1270.8 177.994C1270.8 178.584 1270.92 179.168 1271.14 179.713C1271.37 180.257 1271.7 180.752 1272.12 181.169C1272.53 181.586 1273.03 181.917 1273.57 182.143C1274.12 182.368 1274.7 182.484 1275.29 182.484C1275.88 182.484 1276.46 182.368 1277.01 182.143C1277.55 181.917 1278.05 181.586 1278.47 181.169C1278.88 180.752 1279.21 180.257 1279.44 179.713C1279.66 179.168 1279.78 178.584 1279.78 177.994C1279.78 176.804 1279.31 175.662 1278.47 174.819C1277.62 173.977 1276.48 173.504 1275.29 173.504C1274.1 173.504 1272.96 173.977 1272.12 174.819C1271.27 175.662 1270.8 176.804 1270.8 177.994Z" stroke="#22C55E" stroke-width="0.5"/>
<path d="M1250.28 177.965C1250.28 179.187 1250.77 180.36 1251.63 181.224C1252.49 182.089 1253.67 182.575 1254.89 182.575C1256.11 182.575 1257.29 182.089 1258.15 181.224C1259.01 180.36 1259.5 179.187 1259.5 177.965C1259.5 176.742 1259.01 175.569 1258.15 174.705C1257.29 173.84 1256.11 173.355 1254.89 173.355C1253.67 173.355 1252.49 173.84 1251.63 174.705C1250.77 175.569 1250.28 176.742 1250.28 177.965Z" stroke="#001133" stroke-width="0.5"/>
<path d="M1229.92 177.925C1229.92 179.092 1230.38 180.211 1231.21 181.036C1232.03 181.861 1233.15 182.325 1234.32 182.325C1235.49 182.325 1236.61 181.861 1237.43 181.036C1238.26 180.211 1238.72 179.092 1238.72 177.925C1238.72 176.758 1238.26 175.639 1237.43 174.813C1236.61 173.988 1235.49 173.525 1234.32 173.525C1233.15 173.525 1232.03 173.988 1231.21 174.813C1230.38 175.639 1229.92 176.758 1229.92 177.925Z" stroke="#22C55E" stroke-width="0.5"/>
<path d="M1250.21 158.295C1250.21 159.531 1250.7 160.716 1251.58 161.59C1252.45 162.464 1253.63 162.955 1254.87 162.955C1255.48 162.955 1256.09 162.834 1256.65 162.6C1257.22 162.366 1257.73 162.022 1258.17 161.59C1258.6 161.157 1258.94 160.643 1259.18 160.078C1259.41 159.513 1259.53 158.907 1259.53 158.295C1259.53 157.683 1259.41 157.077 1259.18 156.511C1258.94 155.946 1258.6 155.432 1258.17 154.999C1257.73 154.567 1257.22 154.223 1256.65 153.989C1256.09 153.755 1255.48 153.635 1254.87 153.635C1254.26 153.635 1253.65 153.755 1253.09 153.989C1252.52 154.223 1252.01 154.567 1251.58 154.999C1251.14 155.432 1250.8 155.946 1250.56 156.511C1250.33 157.077 1250.21 157.683 1250.21 158.295Z" stroke="#001133" stroke-width="0.5"/>
<path d="M1191.13 158.235C1191.13 159.47 1191.62 160.656 1192.5 161.53C1193.37 162.404 1194.55 162.895 1195.79 162.895C1197.03 162.895 1198.21 162.404 1199.09 161.53C1199.96 160.656 1200.45 159.47 1200.45 158.235C1200.45 156.999 1199.96 155.813 1199.09 154.939C1198.21 154.065 1197.03 153.575 1195.79 153.575C1194.55 153.575 1193.37 154.065 1192.5 154.939C1191.62 155.813 1191.13 156.999 1191.13 158.235Z" stroke="#001133" stroke-width="0.5"/>
<path d="M1270.82 158.204C1270.82 159.395 1271.29 160.537 1272.13 161.379C1272.98 162.221 1274.12 162.694 1275.31 162.694C1276.5 162.694 1277.64 162.221 1278.48 161.379C1279.33 160.537 1279.8 159.395 1279.8 158.204C1279.8 157.615 1279.68 157.031 1279.46 156.486C1279.23 155.941 1278.9 155.446 1278.48 155.029C1278.07 154.612 1277.57 154.282 1277.03 154.056C1276.48 153.83 1275.9 153.714 1275.31 153.714C1274.72 153.714 1274.14 153.83 1273.59 154.056C1273.05 154.282 1272.55 154.612 1272.13 155.029C1271.72 155.446 1271.39 155.941 1271.16 156.486C1270.94 157.031 1270.82 157.615 1270.82 158.204Z" stroke="#22C55E" stroke-width="0.5"/>
<path d="M1229.93 158.265C1229.93 158.844 1230.04 159.417 1230.27 159.952C1230.49 160.487 1230.81 160.974 1231.22 161.383C1231.63 161.793 1232.12 162.117 1232.65 162.339C1233.19 162.561 1233.76 162.675 1234.34 162.675C1235.51 162.675 1236.63 162.21 1237.46 161.383C1238.29 160.556 1238.75 159.434 1238.75 158.265C1238.75 157.095 1238.29 155.974 1237.46 155.146C1236.63 154.319 1235.51 153.855 1234.34 153.855C1233.76 153.855 1233.19 153.969 1232.65 154.19C1232.12 154.412 1231.63 154.737 1231.22 155.146C1230.81 155.556 1230.49 156.042 1230.27 156.577C1230.04 157.112 1229.93 157.686 1229.93 158.265Z" stroke="#22C55E" stroke-width="0.5"/>
<path d="M1171.35 158.894C1171.35 159.902 1171.75 160.869 1172.46 161.581C1173.18 162.294 1174.14 162.694 1175.15 162.694C1176.16 162.694 1177.12 162.294 1177.84 161.581C1178.55 160.869 1178.95 159.902 1178.95 158.894C1178.95 157.887 1178.55 156.92 1177.84 156.207C1177.12 155.495 1176.16 155.094 1175.15 155.094C1174.14 155.094 1173.18 155.495 1172.46 156.207C1171.75 156.92 1171.35 157.887 1171.35 158.894Z" stroke="#001133" stroke-width="0.5"/>
<path d="M1211.05 158.625C1211.05 159.588 1211.43 160.511 1212.11 161.192C1212.79 161.872 1213.72 162.255 1214.68 162.255C1215.16 162.255 1215.63 162.161 1216.07 161.979C1216.51 161.796 1216.91 161.529 1217.25 161.192C1217.58 160.855 1217.85 160.454 1218.03 160.014C1218.22 159.574 1218.31 159.102 1218.31 158.625C1218.31 158.148 1218.22 157.676 1218.03 157.236C1217.85 156.795 1217.58 156.395 1217.25 156.058C1216.91 155.721 1216.51 155.454 1216.07 155.271C1215.63 155.089 1215.16 154.995 1214.68 154.995C1213.72 154.995 1212.79 155.377 1212.11 156.058C1211.43 156.739 1211.05 157.662 1211.05 158.625Z" stroke="#22C55E" stroke-width="0.5"/>
<path d="M1250.14 138.564C1250.14 139.803 1250.63 140.991 1251.51 141.867C1252.38 142.742 1253.57 143.234 1254.81 143.234C1256.05 143.234 1257.24 142.742 1258.11 141.867C1258.99 140.991 1259.48 139.803 1259.48 138.564C1259.48 137.951 1259.36 137.344 1259.12 136.777C1258.89 136.211 1258.55 135.696 1258.11 135.262C1257.68 134.829 1257.16 134.485 1256.6 134.25C1256.03 134.015 1255.42 133.894 1254.81 133.894C1254.2 133.894 1253.59 134.015 1253.02 134.25C1252.46 134.485 1251.94 134.829 1251.51 135.262C1251.07 135.696 1250.73 136.211 1250.49 136.777C1250.26 137.344 1250.14 137.951 1250.14 138.564Z" stroke="#001133" stroke-width="0.5"/>
<path d="M1229.67 138.655C1229.67 139.867 1230.15 141.029 1231.01 141.886C1231.87 142.743 1233.03 143.225 1234.24 143.225C1235.45 143.225 1236.61 142.743 1237.47 141.886C1238.33 141.029 1238.81 139.867 1238.81 138.655C1238.81 137.443 1238.33 136.28 1237.47 135.423C1236.61 134.566 1235.45 134.085 1234.24 134.085C1233.03 134.085 1231.87 134.566 1231.01 135.423C1230.15 136.28 1229.67 137.443 1229.67 138.655Z" stroke="#001133" stroke-width="0.5"/>
<path d="M1191.15 138.485C1191.15 139.726 1191.64 140.917 1192.52 141.794C1193.4 142.672 1194.59 143.165 1195.83 143.165C1197.07 143.165 1198.26 142.672 1199.14 141.794C1200.02 140.917 1200.51 139.726 1200.51 138.485C1200.51 137.244 1200.02 136.053 1199.14 135.176C1198.26 134.298 1197.07 133.805 1195.83 133.805C1194.59 133.805 1193.4 134.298 1192.52 135.176C1191.64 136.053 1191.15 137.244 1191.15 138.485Z" stroke="#001133" stroke-width="0.5"/>
<path d="M1270.8 138.565C1270.8 139.16 1270.92 139.749 1271.15 140.298C1271.37 140.848 1271.71 141.347 1272.13 141.768C1272.55 142.189 1273.05 142.522 1273.6 142.75C1274.15 142.978 1274.74 143.095 1275.33 143.095C1275.93 143.095 1276.51 142.978 1277.06 142.75C1277.61 142.522 1278.11 142.189 1278.53 141.768C1278.95 141.347 1279.29 140.848 1279.52 140.298C1279.74 139.749 1279.86 139.16 1279.86 138.565C1279.86 137.363 1279.38 136.211 1278.53 135.362C1277.68 134.512 1276.53 134.035 1275.33 134.035C1274.13 134.035 1272.98 134.512 1272.13 135.362C1271.28 136.211 1270.8 137.363 1270.8 138.565Z" stroke="#22C55E" stroke-width="0.5"/>
<path d="M1270.68 118.694C1270.68 119.93 1271.17 121.116 1272.04 121.99C1272.92 122.864 1274.1 123.354 1275.34 123.354C1276.58 123.354 1277.76 122.864 1278.64 121.99C1279.51 121.116 1280 119.93 1280 118.694C1280 117.459 1279.51 116.273 1278.64 115.399C1277.76 114.525 1276.58 114.034 1275.34 114.034C1274.1 114.034 1272.92 114.525 1272.04 115.399C1271.17 116.273 1270.68 117.459 1270.68 118.694Z" stroke="#001133" stroke-width="0.5"/>
<path d="M1250.23 118.695C1250.23 119.939 1250.72 121.132 1251.6 122.011C1252.48 122.891 1253.68 123.385 1254.92 123.385C1256.16 123.385 1257.36 122.891 1258.24 122.011C1259.12 121.132 1259.61 119.939 1259.61 118.695C1259.61 117.451 1259.12 116.258 1258.24 115.378C1257.36 114.499 1256.16 114.005 1254.92 114.005C1253.68 114.005 1252.48 114.499 1251.6 115.378C1250.72 116.258 1250.23 117.451 1250.23 118.695Z" stroke="#001133" stroke-width="0.5"/>
<path d="M1191.16 118.695C1191.16 119.31 1191.28 119.918 1191.52 120.486C1191.75 121.054 1192.1 121.57 1192.53 122.004C1192.96 122.439 1193.48 122.784 1194.05 123.019C1194.62 123.254 1195.22 123.375 1195.84 123.375C1196.45 123.375 1197.06 123.254 1197.63 123.019C1198.2 122.784 1198.71 122.439 1199.15 122.004C1199.58 121.57 1199.93 121.054 1200.16 120.486C1200.4 119.918 1200.52 119.31 1200.52 118.695C1200.52 118.08 1200.4 117.472 1200.16 116.904C1199.93 116.336 1199.58 115.82 1199.15 115.386C1198.71 114.951 1198.2 114.606 1197.63 114.371C1197.06 114.136 1196.45 114.015 1195.84 114.015C1195.22 114.015 1194.62 114.136 1194.05 114.371C1193.48 114.606 1192.96 114.951 1192.53 115.386C1192.1 115.82 1191.75 116.336 1191.52 116.904C1191.28 117.472 1191.16 118.08 1191.16 118.695Z" stroke="#001133" stroke-width="0.5"/>
<path d="M1270.66 236.805C1270.66 236.194 1270.78 235.589 1271.01 235.025C1271.25 234.461 1271.59 233.948 1272.02 233.517C1272.45 233.085 1272.97 232.742 1273.53 232.509C1274.09 232.275 1274.7 232.155 1275.31 232.155C1276.54 232.155 1277.73 232.644 1278.6 233.517C1279.47 234.389 1279.96 235.571 1279.96 236.805C1279.96 238.038 1279.47 239.221 1278.6 240.093C1277.73 240.965 1276.54 241.455 1275.31 241.455C1274.7 241.455 1274.09 241.334 1273.53 241.101C1272.97 240.867 1272.45 240.524 1272.02 240.093C1271.59 239.661 1271.25 239.148 1271.01 238.584C1270.78 238.02 1270.66 237.415 1270.66 236.805Z" fill="#001133"/>
<path d="M1250.38 236.765C1250.38 235.571 1250.85 234.427 1251.7 233.583C1252.54 232.739 1253.69 232.265 1254.88 232.265C1256.07 232.265 1257.22 232.739 1258.06 233.583C1258.91 234.427 1259.38 235.571 1259.38 236.765C1259.38 237.958 1258.91 239.103 1258.06 239.947C1257.22 240.791 1256.07 241.265 1254.88 241.265C1253.69 241.265 1252.54 240.791 1251.7 239.947C1250.85 239.103 1250.38 237.958 1250.38 236.765Z" fill="#22C55E"/>
<path d="M1229.86 236.805C1229.86 235.614 1230.33 234.472 1231.17 233.63C1232.02 232.788 1233.16 232.315 1234.35 232.315C1234.94 232.315 1235.52 232.431 1236.07 232.657C1236.61 232.882 1237.11 233.213 1237.52 233.63C1237.94 234.047 1238.27 234.542 1238.5 235.087C1238.72 235.631 1238.84 236.215 1238.84 236.805C1238.84 237.395 1238.72 237.978 1238.5 238.523C1238.27 239.068 1237.94 239.563 1237.52 239.98C1237.11 240.397 1236.61 240.727 1236.07 240.953C1235.52 241.179 1234.94 241.295 1234.35 241.295C1233.16 241.295 1232.02 240.822 1231.17 239.98C1230.33 239.138 1229.86 237.996 1229.86 236.805Z" fill="#22C55E"/>
<path d="M1191.36 236.725C1191.36 236.139 1191.48 235.559 1191.7 235.018C1191.92 234.477 1192.25 233.985 1192.67 233.571C1193.08 233.157 1193.57 232.828 1194.11 232.604C1194.65 232.38 1195.23 232.265 1195.82 232.265C1196.41 232.265 1196.99 232.38 1197.53 232.604C1198.07 232.828 1198.56 233.157 1198.97 233.571C1199.39 233.985 1199.72 234.477 1199.94 235.018C1200.16 235.559 1200.28 236.139 1200.28 236.725C1200.28 237.907 1199.81 239.042 1198.97 239.878C1198.14 240.715 1197 241.185 1195.82 241.185C1194.64 241.185 1193.5 240.715 1192.67 239.878C1191.83 239.042 1191.36 237.907 1191.36 236.725Z" fill="#22C55E"/>
<path d="M1250.57 217.194C1250.57 216.011 1251.04 214.877 1251.88 214.041C1252.71 213.204 1253.85 212.734 1255.03 212.734C1256.21 212.734 1257.35 213.204 1258.18 214.041C1259.02 214.877 1259.49 216.011 1259.49 217.194C1259.49 218.377 1259.02 219.512 1258.18 220.348C1257.35 221.184 1256.21 221.654 1255.03 221.654C1253.85 221.654 1252.71 221.184 1251.88 220.348C1251.04 219.512 1250.57 218.377 1250.57 217.194Z" fill="#22C55E"/>
<path d="M1229.96 217.195C1229.96 216.61 1230.08 216.031 1230.3 215.492C1230.52 214.952 1230.85 214.461 1231.26 214.048C1231.68 213.635 1232.17 213.307 1232.71 213.083C1233.25 212.86 1233.83 212.745 1234.41 212.745C1235.59 212.745 1236.72 213.213 1237.56 214.048C1238.39 214.882 1238.86 216.014 1238.86 217.195C1238.86 218.375 1238.39 219.507 1237.56 220.341C1236.72 221.176 1235.59 221.645 1234.41 221.645C1233.83 221.645 1233.25 221.529 1232.71 221.306C1232.17 221.082 1231.68 220.754 1231.26 220.341C1230.85 219.928 1230.52 219.437 1230.3 218.897C1230.08 218.358 1229.96 217.779 1229.96 217.195Z" fill="#22C55E"/>
<path d="M1270.81 217.115C1270.81 215.932 1271.28 214.797 1272.12 213.961C1272.95 213.125 1274.09 212.655 1275.27 212.655C1276.45 212.655 1277.59 213.125 1278.42 213.961C1279.26 214.797 1279.73 215.932 1279.73 217.115C1279.73 218.298 1279.26 219.432 1278.42 220.268C1277.59 221.105 1276.45 221.575 1275.27 221.575C1274.09 221.575 1272.95 221.105 1272.12 220.268C1271.28 219.432 1270.81 218.298 1270.81 217.115Z" fill="#22C55E"/>
<path d="M1191.32 217.165C1191.32 215.976 1191.79 214.837 1192.63 213.997C1193.47 213.157 1194.61 212.685 1195.8 212.685C1196.99 212.685 1198.13 213.157 1198.97 213.997C1199.81 214.837 1200.28 215.976 1200.28 217.165C1200.28 218.353 1199.81 219.492 1198.97 220.332C1198.13 221.173 1196.99 221.645 1195.8 221.645C1194.61 221.645 1193.47 221.173 1192.63 220.332C1191.79 219.492 1191.32 218.353 1191.32 217.165Z" fill="#22C55E"/>
<path d="M1211.11 217.155C1211.11 216.192 1211.49 215.269 1212.17 214.588C1212.85 213.907 1213.78 213.525 1214.74 213.525C1215.7 213.525 1216.63 213.907 1217.31 214.588C1217.99 215.269 1218.37 216.192 1218.37 217.155C1218.37 218.117 1217.99 219.041 1217.31 219.721C1216.63 220.402 1215.7 220.785 1214.74 220.785C1213.78 220.785 1212.85 220.402 1212.17 219.721C1211.49 219.041 1211.11 218.117 1211.11 217.155Z" fill="#22C55E"/>
<path d="M1270.84 197.674C1270.84 197.086 1270.96 196.503 1271.18 195.96C1271.41 195.416 1271.74 194.922 1272.15 194.506C1272.57 194.09 1273.06 193.76 1273.61 193.535C1274.15 193.31 1274.73 193.194 1275.32 193.194C1275.91 193.194 1276.49 193.31 1277.03 193.535C1277.58 193.76 1278.07 194.09 1278.49 194.506C1278.9 194.922 1279.23 195.416 1279.46 195.96C1279.68 196.503 1279.8 197.086 1279.8 197.674C1279.8 198.862 1279.33 200.002 1278.49 200.842C1277.65 201.682 1276.51 202.154 1275.32 202.154C1274.13 202.154 1272.99 201.682 1272.15 200.842C1271.31 200.002 1270.84 198.862 1270.84 197.674Z" fill="#22C55E"/>
<path d="M1250.32 197.645C1250.32 196.422 1250.81 195.25 1251.67 194.385C1252.53 193.521 1253.71 193.035 1254.93 193.035C1256.15 193.035 1257.33 193.521 1258.19 194.385C1259.05 195.25 1259.54 196.422 1259.54 197.645C1259.54 198.868 1259.05 200.04 1258.19 200.905C1257.33 201.769 1256.15 202.255 1254.93 202.255C1253.71 202.255 1252.53 201.769 1251.67 200.905C1250.81 200.04 1250.32 198.868 1250.32 197.645Z" fill="#001133"/>
<path d="M1229.88 197.644C1229.88 197.064 1229.99 196.489 1230.22 195.953C1230.44 195.417 1230.76 194.929 1231.17 194.519C1231.58 194.109 1232.07 193.783 1232.61 193.561C1233.14 193.339 1233.72 193.224 1234.3 193.224C1234.88 193.224 1235.45 193.339 1235.99 193.561C1236.53 193.783 1237.01 194.109 1237.43 194.519C1237.84 194.929 1238.16 195.417 1238.38 195.953C1238.61 196.489 1238.72 197.064 1238.72 197.644C1238.72 198.817 1238.25 199.941 1237.43 200.77C1236.6 201.599 1235.47 202.064 1234.3 202.064C1233.72 202.064 1233.14 201.95 1232.61 201.728C1232.07 201.506 1231.58 201.18 1231.17 200.77C1230.76 200.359 1230.44 199.872 1230.22 199.336C1229.99 198.8 1229.88 198.225 1229.88 197.644Z" fill="#22C55E"/>
<path d="M1191.39 197.575C1191.39 196.397 1191.86 195.268 1192.69 194.435C1193.52 193.602 1194.65 193.135 1195.83 193.135C1197.01 193.135 1198.14 193.602 1198.97 194.435C1199.8 195.268 1200.27 196.397 1200.27 197.575C1200.27 198.752 1199.8 199.882 1198.97 200.714C1198.14 201.547 1197.01 202.015 1195.83 202.015C1194.65 202.015 1193.52 201.547 1192.69 200.714C1191.86 199.882 1191.39 198.752 1191.39 197.575Z" fill="#22C55E"/>
<path d="M1191.1 177.965C1191.1 176.713 1191.6 175.512 1192.48 174.627C1193.37 173.742 1194.57 173.245 1195.82 173.245C1197.07 173.245 1198.27 173.742 1199.16 174.627C1200.04 175.512 1200.54 176.713 1200.54 177.965C1200.54 178.584 1200.42 179.198 1200.18 179.771C1199.94 180.343 1199.6 180.864 1199.16 181.302C1198.72 181.74 1198.2 182.088 1197.63 182.325C1197.05 182.562 1196.44 182.685 1195.82 182.685C1195.2 182.685 1194.59 182.562 1194.01 182.325C1193.44 182.088 1192.92 181.74 1192.48 181.302C1192.04 180.864 1191.7 180.343 1191.46 179.771C1191.22 179.198 1191.1 178.584 1191.1 177.965Z" fill="#001133"/>
<path d="M1270.8 177.994C1270.8 176.804 1271.27 175.662 1272.12 174.819C1272.96 173.977 1274.1 173.504 1275.29 173.504C1276.48 173.504 1277.62 173.977 1278.47 174.819C1279.31 175.662 1279.78 176.804 1279.78 177.994C1279.78 178.584 1279.66 179.168 1279.44 179.713C1279.21 180.257 1278.88 180.752 1278.47 181.169C1278.05 181.586 1277.55 181.917 1277.01 182.143C1276.46 182.368 1275.88 182.484 1275.29 182.484C1274.7 182.484 1274.12 182.368 1273.57 182.143C1273.03 181.917 1272.53 181.586 1272.12 181.169C1271.7 180.752 1271.37 180.257 1271.14 179.713C1270.92 179.168 1270.8 178.584 1270.8 177.994Z" fill="#22C55E"/>
<path d="M1250.28 177.965C1250.28 176.742 1250.77 175.569 1251.63 174.705C1252.49 173.84 1253.67 173.355 1254.89 173.355C1256.11 173.355 1257.29 173.84 1258.15 174.705C1259.01 175.569 1259.5 176.742 1259.5 177.965C1259.5 179.187 1259.01 180.36 1258.15 181.224C1257.29 182.089 1256.11 182.575 1254.89 182.575C1253.67 182.575 1252.49 182.089 1251.63 181.224C1250.77 180.36 1250.28 179.187 1250.28 177.965Z" fill="#001133"/>
<path d="M1229.92 177.925C1229.92 176.758 1230.38 175.639 1231.21 174.813C1232.03 173.988 1233.15 173.525 1234.32 173.525C1235.49 173.525 1236.61 173.988 1237.43 174.813C1238.26 175.639 1238.72 176.758 1238.72 177.925C1238.72 179.092 1238.26 180.211 1237.43 181.036C1236.61 181.861 1235.49 182.325 1234.32 182.325C1233.15 182.325 1232.03 181.861 1231.21 181.036C1230.38 180.211 1229.92 179.092 1229.92 177.925Z" fill="#22C55E"/>
<path d="M1250.21 158.295C1250.21 157.683 1250.33 157.077 1250.56 156.511C1250.8 155.946 1251.14 155.432 1251.58 154.999C1252.01 154.567 1252.52 154.223 1253.09 153.989C1253.65 153.755 1254.26 153.635 1254.87 153.635C1255.48 153.635 1256.09 153.755 1256.65 153.989C1257.22 154.223 1257.73 154.567 1258.17 154.999C1258.6 155.432 1258.94 155.946 1259.18 156.511C1259.41 157.077 1259.53 157.683 1259.53 158.295C1259.53 158.907 1259.41 159.513 1259.18 160.078C1258.94 160.643 1258.6 161.157 1258.17 161.59C1257.73 162.022 1257.22 162.366 1256.65 162.6C1256.09 162.834 1255.48 162.955 1254.87 162.955C1253.63 162.955 1252.45 162.464 1251.58 161.59C1250.7 160.716 1250.21 159.531 1250.21 158.295Z" fill="#001133"/>
<path d="M1191.13 158.235C1191.13 156.999 1191.62 155.813 1192.5 154.939C1193.37 154.065 1194.55 153.575 1195.79 153.575C1197.03 153.575 1198.21 154.065 1199.09 154.939C1199.96 155.813 1200.45 156.999 1200.45 158.235C1200.45 159.47 1199.96 160.656 1199.09 161.53C1198.21 162.404 1197.03 162.895 1195.79 162.895C1194.55 162.895 1193.37 162.404 1192.5 161.53C1191.62 160.656 1191.13 159.47 1191.13 158.235Z" fill="#001133"/>
<path d="M1270.82 158.204C1270.82 157.615 1270.94 157.031 1271.16 156.486C1271.39 155.941 1271.72 155.446 1272.13 155.029C1272.55 154.612 1273.05 154.282 1273.59 154.056C1274.14 153.83 1274.72 153.714 1275.31 153.714C1275.9 153.714 1276.48 153.83 1277.03 154.056C1277.57 154.282 1278.07 154.612 1278.48 155.029C1278.9 155.446 1279.23 155.941 1279.46 156.486C1279.68 157.031 1279.8 157.615 1279.8 158.204C1279.8 159.395 1279.33 160.537 1278.48 161.379C1277.64 162.221 1276.5 162.694 1275.31 162.694C1274.12 162.694 1272.98 162.221 1272.13 161.379C1271.29 160.537 1270.82 159.395 1270.82 158.204Z" fill="#22C55E"/>
<path d="M1229.93 158.265C1229.93 157.686 1230.04 157.112 1230.27 156.577C1230.49 156.042 1230.81 155.556 1231.22 155.146C1231.63 154.737 1232.12 154.412 1232.65 154.19C1233.19 153.969 1233.76 153.855 1234.34 153.855C1235.51 153.855 1236.63 154.319 1237.46 155.146C1238.29 155.974 1238.75 157.095 1238.75 158.265C1238.75 159.434 1238.29 160.556 1237.46 161.383C1236.63 162.21 1235.51 162.675 1234.34 162.675C1233.76 162.675 1233.19 162.561 1232.65 162.339C1232.12 162.117 1231.63 161.793 1231.22 161.383C1230.81 160.974 1230.49 160.487 1230.27 159.952C1230.04 159.417 1229.93 158.844 1229.93 158.265Z" fill="#22C55E"/>
<path d="M1171.35 158.894C1171.35 157.887 1171.75 156.92 1172.46 156.207C1173.18 155.495 1174.14 155.094 1175.15 155.094C1176.16 155.094 1177.12 155.495 1177.84 156.207C1178.55 156.92 1178.95 157.887 1178.95 158.894C1178.95 159.902 1178.55 160.869 1177.84 161.581C1177.12 162.294 1176.16 162.694 1175.15 162.694C1174.14 162.694 1173.18 162.294 1172.46 161.581C1171.75 160.869 1171.35 159.902 1171.35 158.894Z" fill="#001133"/>
<path d="M1211.05 158.625C1211.05 157.662 1211.43 156.739 1212.11 156.058C1212.79 155.377 1213.72 154.995 1214.68 154.995C1215.16 154.995 1215.63 155.089 1216.07 155.271C1216.51 155.454 1216.91 155.721 1217.25 156.058C1217.58 156.395 1217.85 156.795 1218.03 157.236C1218.22 157.676 1218.31 158.148 1218.31 158.625C1218.31 159.102 1218.22 159.574 1218.03 160.014C1217.85 160.454 1217.58 160.855 1217.25 161.192C1216.91 161.529 1216.51 161.796 1216.07 161.979C1215.63 162.161 1215.16 162.255 1214.68 162.255C1213.72 162.255 1212.79 161.872 1212.11 161.192C1211.43 160.511 1211.05 159.588 1211.05 158.625Z" fill="#22C55E"/>
<path d="M1250.14 138.564C1250.14 137.951 1250.26 137.344 1250.49 136.777C1250.73 136.211 1251.07 135.696 1251.51 135.262C1251.94 134.829 1252.46 134.485 1253.02 134.25C1253.59 134.015 1254.2 133.894 1254.81 133.894C1255.42 133.894 1256.03 134.015 1256.6 134.25C1257.16 134.485 1257.68 134.829 1258.11 135.262C1258.55 135.696 1258.89 136.211 1259.12 136.777C1259.36 137.344 1259.48 137.951 1259.48 138.564C1259.48 139.803 1258.99 140.991 1258.11 141.867C1257.24 142.742 1256.05 143.234 1254.81 143.234C1253.57 143.234 1252.38 142.742 1251.51 141.867C1250.63 140.991 1250.14 139.803 1250.14 138.564Z" fill="#001133"/>
<path d="M1229.67 138.655C1229.67 137.443 1230.15 136.28 1231.01 135.423C1231.87 134.566 1233.03 134.085 1234.24 134.085C1235.45 134.085 1236.61 134.566 1237.47 135.423C1238.33 136.28 1238.81 137.443 1238.81 138.655C1238.81 139.867 1238.33 141.029 1237.47 141.886C1236.61 142.743 1235.45 143.225 1234.24 143.225C1233.03 143.225 1231.87 142.743 1231.01 141.886C1230.15 141.029 1229.67 139.867 1229.67 138.655Z" fill="#001133"/>
<path d="M1191.15 138.485C1191.15 137.244 1191.64 136.053 1192.52 135.176C1193.4 134.298 1194.59 133.805 1195.83 133.805C1197.07 133.805 1198.26 134.298 1199.14 135.176C1200.02 136.053 1200.51 137.244 1200.51 138.485C1200.51 139.726 1200.02 140.917 1199.14 141.794C1198.26 142.672 1197.07 143.165 1195.83 143.165C1194.59 143.165 1193.4 142.672 1192.52 141.794C1191.64 140.917 1191.15 139.726 1191.15 138.485Z" fill="#001133"/>
<path d="M1270.8 138.565C1270.8 137.363 1271.28 136.211 1272.13 135.362C1272.98 134.512 1274.13 134.035 1275.33 134.035C1276.53 134.035 1277.68 134.512 1278.53 135.362C1279.38 136.211 1279.86 137.363 1279.86 138.565C1279.86 139.16 1279.74 139.749 1279.52 140.298C1279.29 140.848 1278.95 141.347 1278.53 141.768C1278.11 142.189 1277.61 142.522 1277.06 142.75C1276.51 142.978 1275.93 143.095 1275.33 143.095C1274.74 143.095 1274.15 142.978 1273.6 142.75C1273.05 142.522 1272.55 142.189 1272.13 141.768C1271.71 141.347 1271.37 140.848 1271.15 140.298C1270.92 139.749 1270.8 139.16 1270.8 138.565Z" fill="#22C55E"/>
<path d="M1270.68 118.694C1270.68 117.459 1271.17 116.273 1272.04 115.399C1272.92 114.525 1274.1 114.034 1275.34 114.034C1276.58 114.034 1277.76 114.525 1278.64 115.399C1279.51 116.273 1280 117.459 1280 118.694C1280 119.93 1279.51 121.116 1278.64 121.99C1277.76 122.864 1276.58 123.354 1275.34 123.354C1274.1 123.354 1272.92 122.864 1272.04 121.99C1271.17 121.116 1270.68 119.93 1270.68 118.694Z" fill="#001133"/>
<path d="M1250.23 118.695C1250.23 117.451 1250.72 116.258 1251.6 115.378C1252.48 114.499 1253.68 114.005 1254.92 114.005C1256.16 114.005 1257.36 114.499 1258.24 115.378C1259.12 116.258 1259.61 117.451 1259.61 118.695C1259.61 119.939 1259.12 121.132 1258.24 122.011C1257.36 122.891 1256.16 123.385 1254.92 123.385C1253.68 123.385 1252.48 122.891 1251.6 122.011C1250.72 121.132 1250.23 119.939 1250.23 118.695Z" fill="#001133"/>
<path d="M1191.16 118.695C1191.16 118.08 1191.28 117.472 1191.52 116.904C1191.75 116.336 1192.1 115.82 1192.53 115.386C1192.97 114.951 1193.48 114.606 1194.05 114.371C1194.62 114.136 1195.23 114.015 1195.84 114.015C1196.46 114.015 1197.06 114.136 1197.63 114.371C1198.2 114.606 1198.72 114.951 1199.15 115.386C1199.58 115.82 1199.93 116.336 1200.16 116.904C1200.4 117.472 1200.52 118.08 1200.52 118.695C1200.52 119.31 1200.4 119.918 1200.16 120.486C1199.93 121.054 1199.58 121.57 1199.15 122.004C1198.72 122.439 1198.2 122.784 1197.63 123.019C1197.06 123.254 1196.46 123.375 1195.84 123.375C1195.23 123.375 1194.62 123.254 1194.05 123.019C1193.48 122.784 1192.97 122.439 1192.53 122.004C1192.1 121.57 1191.75 121.054 1191.52 120.486C1191.28 119.918 1191.16 119.31 1191.16 118.695Z" fill="#001133"/>
</g>
</g>
<defs>
<clipPath id="clip0_13475_1296">
<rect width="1280" height="190" fill="white" transform="matrix(1 0 0 -1 0 304)"/>
</clipPath>
<clipPath id="clip1_13475_1296">
<rect width="108.65" height="190" fill="white" transform="matrix(1 0 0 -1 0 304)"/>
</clipPath>
<clipPath id="clip2_13475_1296">
<rect width="108.65" height="190" fill="white" transform="matrix(1 0 0 -1 1171.35 304)"/>
</clipPath>
</defs>
</svg>
