<svg width="109" height="190" viewBox="0 0 109 190" fill="none" xmlns="http://www.w3.org/2000/svg">
<g clip-path="url(#clip0_13604_1298)">
<path d="M9.34004 4.65C9.34004 4.03935 9.21976 3.43469 8.98608 2.87052C8.75239 2.30636 8.40988 1.79375 7.97808 1.36195C7.54629 0.930161 7.03368 0.587644 6.46952 0.35396C5.90535 0.120276 5.30069 0 4.69004 0C3.45678 0 2.27404 0.48991 1.40199 1.36195C0.529949 2.234 0.0400391 3.41674 0.0400391 4.65C0.0400391 5.88326 0.529949 7.066 1.40199 7.93805C2.27404 8.81009 3.45678 9.3 4.69004 9.3C5.30069 9.3 5.90535 9.17973 6.46952 8.94604C7.03368 8.71236 7.54629 8.36984 7.97808 7.93805C8.40988 7.50625 8.75239 6.99364 8.98608 6.42948C9.21976 5.86532 9.34004 5.26065 9.34004 4.65Z" stroke="#171717" stroke-width="0.5"/>
<path d="M29.6201 4.68945C29.6201 3.49598 29.146 2.35139 28.3021 1.50747C27.4582 0.663559 26.3136 0.189453 25.1201 0.189453C23.9266 0.189453 22.7821 0.663559 21.9381 1.50747C21.0942 2.35139 20.6201 3.49598 20.6201 4.68945C20.6201 5.88293 21.0942 7.02752 21.9381 7.87144C22.7821 8.71535 23.9266 9.18946 25.1201 9.18946C26.3136 9.18946 27.4582 8.71535 28.3021 7.87144C29.146 7.02752 29.6201 5.88293 29.6201 4.68945Z" stroke="#E0AC00" stroke-width="0.5"/>
<path d="M50.1402 4.65016C50.1402 3.45934 49.6671 2.31729 48.8251 1.47525C47.983 0.63321 46.841 0.160156 45.6502 0.160156C45.0605 0.160156 44.4767 0.276294 43.9319 0.501938C43.3872 0.727581 42.8922 1.05831 42.4753 1.47525C42.0583 1.89218 41.7276 2.38716 41.5019 2.93191C41.2763 3.47666 41.1602 4.06052 41.1602 4.65016C41.1602 5.23979 41.2763 5.82365 41.5019 6.36841C41.7276 6.91316 42.0583 7.40813 42.4753 7.82507C42.8922 8.242 43.3872 8.57273 43.9319 8.79838C44.4767 9.02402 45.0605 9.14016 45.6502 9.14016C46.841 9.14016 47.983 8.6671 48.8251 7.82507C49.6671 6.98303 50.1402 5.84098 50.1402 4.65016Z" stroke="#E0AC00" stroke-width="0.5"/>
<path d="M88.6397 4.72953C88.6397 3.54667 88.1698 2.41225 87.3334 1.57584C86.497 0.739424 85.3626 0.269531 84.1797 0.269531C82.9969 0.269531 81.8624 0.739424 81.026 1.57584C80.1896 2.41225 79.7197 3.54667 79.7197 4.72953C79.7197 5.31523 79.8351 5.89519 80.0592 6.4363C80.2834 6.97741 80.6119 7.46908 81.026 7.88323C81.4402 8.29738 81.9318 8.6259 82.473 8.85003C83.0141 9.07417 83.594 9.18953 84.1797 9.18953C84.7654 9.18953 85.3454 9.07417 85.8865 8.85003C86.4276 8.6259 86.9193 8.29738 87.3334 7.88323C87.7476 7.46908 88.0761 6.97741 88.3002 6.4363C88.5244 5.89519 88.6397 5.31523 88.6397 4.72953Z" stroke="#E0AC00" stroke-width="0.5"/>
<path d="M29.4298 24.2608C29.4298 23.0779 28.9599 21.9435 28.1235 21.1071C27.2871 20.2707 26.1526 19.8008 24.9698 19.8008C23.7869 19.8008 22.6525 20.2707 21.8161 21.1071C20.9797 21.9435 20.5098 23.0779 20.5098 24.2608C20.5098 25.4436 20.9797 26.5781 21.8161 27.4145C22.6525 28.2509 23.7869 28.7208 24.9698 28.7208C26.1526 28.7208 27.2871 28.2509 28.1235 27.4145C28.9599 26.5781 29.4298 25.4436 29.4298 24.2608Z" stroke="#E0AC00" stroke-width="0.5"/>
<path d="M50.0396 24.2605C50.0396 23.6762 49.9245 23.0975 49.7009 22.5576C49.4773 22.0177 49.1495 21.5271 48.7363 21.1139C48.3231 20.7007 47.8325 20.3729 47.2926 20.1493C46.7527 19.9256 46.174 19.8105 45.5896 19.8105C44.4094 19.8105 43.2776 20.2794 42.443 21.1139C41.6085 21.9485 41.1396 23.0803 41.1396 24.2605C41.1396 25.4408 41.6085 26.5726 42.443 27.4072C43.2776 28.2417 44.4094 28.7105 45.5896 28.7105C46.174 28.7105 46.7527 28.5954 47.2926 28.3718C47.8325 28.1482 48.3231 27.8204 48.7363 27.4072C49.1495 26.994 49.4773 26.5034 49.7009 25.9635C49.9245 25.4236 50.0396 24.8449 50.0396 24.2605Z" stroke="#E0AC00" stroke-width="0.5"/>
<path d="M9.19051 24.3399C9.19051 23.157 8.72062 22.0226 7.8842 21.1862C7.04779 20.3498 5.91337 19.8799 4.73051 19.8799C3.54764 19.8799 2.41322 20.3498 1.57681 21.1862C0.7404 22.0226 0.270508 23.157 0.270508 24.3399C0.270508 25.5227 0.7404 26.6572 1.57681 27.4936C2.41322 28.33 3.54764 28.7999 4.73051 28.7999C5.91337 28.7999 7.04779 28.33 7.8842 27.4936C8.72062 26.6572 9.19051 25.5227 9.19051 24.3399Z" stroke="#E0AC00" stroke-width="0.5"/>
<path d="M88.6797 24.2905C88.6797 23.1024 88.2077 21.9629 87.3676 21.1227C86.5274 20.2825 85.3879 19.8105 84.1997 19.8105C83.0116 19.8105 81.872 20.2825 81.0319 21.1227C80.1917 21.9629 79.7197 23.1024 79.7197 24.2905C79.7197 25.4787 80.1917 26.6182 81.0319 27.4584C81.872 28.2985 83.0116 28.7705 84.1997 28.7705C85.3879 28.7705 86.5274 28.2985 87.3676 27.4584C88.2077 26.6182 88.6797 25.4787 88.6797 24.2905Z" stroke="#E0AC00" stroke-width="0.5"/>
<path d="M68.8899 24.2999C68.8899 23.3372 68.5074 22.4139 67.8267 21.7331C67.1459 21.0524 66.2226 20.6699 65.2599 20.6699C64.2972 20.6699 63.3738 21.0524 62.6931 21.7331C62.0123 22.4139 61.6299 23.3372 61.6299 24.2999C61.6299 25.2627 62.0123 26.186 62.6931 26.8667C63.3738 27.5475 64.2972 27.9299 65.2599 27.9299C66.2226 27.9299 67.1459 27.5475 67.8267 26.8667C68.5074 26.186 68.8899 25.2627 68.8899 24.2999Z" stroke="#E0AC00" stroke-width="0.5"/>
<path d="M9.1602 43.7808C9.1602 42.5926 8.6882 41.4531 7.84803 40.6129C7.00787 39.7728 5.86836 39.3008 4.68019 39.3008C3.49203 39.3008 2.35252 39.7728 1.51236 40.6129C0.672195 41.4531 0.200195 42.5926 0.200195 43.7808C0.200195 44.3691 0.316073 44.9517 0.541214 45.4952C0.766355 46.0387 1.09635 46.5326 1.51236 46.9486C1.92836 47.3646 2.42223 47.6946 2.96577 47.9198C3.50931 48.1449 4.09187 48.2608 4.68019 48.2608C5.26852 48.2608 5.85108 48.1449 6.39462 47.9198C6.93816 47.6946 7.43203 47.3646 7.84803 46.9486C8.26404 46.5326 8.59403 46.0387 8.81917 45.4952C9.04431 44.9517 9.1602 44.3691 9.1602 43.7808Z" stroke="#E0AC00" stroke-width="0.5"/>
<path d="M29.68 43.8092C29.68 42.5866 29.1943 41.414 28.3297 40.5495C27.4652 39.6849 26.2926 39.1992 25.07 39.1992C23.8473 39.1992 22.6747 39.6849 21.8102 40.5495C20.9457 41.414 20.46 42.5866 20.46 43.8092C20.46 45.0319 20.9457 46.2044 21.8102 47.069C22.6747 47.9335 23.8473 48.4192 25.07 48.4192C26.2926 48.4192 27.4652 47.9335 28.3297 47.069C29.1943 46.2044 29.68 45.0319 29.68 43.8092Z" stroke="#171717" stroke-width="0.5"/>
<path d="M50.1203 43.8106C50.1203 43.2302 50.0059 42.6554 49.7838 42.1192C49.5617 41.5829 49.2361 41.0956 48.8257 40.6852C48.4152 40.2748 47.928 39.9492 47.3917 39.7271C46.8555 39.505 46.2807 39.3906 45.7003 39.3906C44.528 39.3906 43.4038 39.8563 42.5749 40.6852C41.7459 41.5141 41.2803 42.6384 41.2803 43.8106C41.2803 44.3911 41.3946 44.9658 41.6167 45.5021C41.8388 46.0383 42.1644 46.5256 42.5749 46.936C42.9853 47.3465 43.4726 47.6721 44.0088 47.8942C44.5451 48.1163 45.1198 48.2306 45.7003 48.2306C46.2807 48.2306 46.8555 48.1163 47.3917 47.8942C47.928 47.6721 48.4152 47.3465 48.8257 46.936C49.2361 46.5256 49.5617 46.0383 49.7838 45.5021C50.0059 44.9658 50.1203 44.3911 50.1203 43.8106Z" stroke="#E0AC00" stroke-width="0.5"/>
<path d="M88.6105 43.8795C88.6105 42.7019 88.1427 41.5726 87.31 40.7399C86.4774 39.9072 85.348 39.4395 84.1705 39.4395C82.9929 39.4395 81.8636 39.9072 81.0309 40.7399C80.1983 41.5726 79.7305 42.7019 79.7305 43.8795C79.7305 45.057 80.1983 46.1863 81.0309 47.019C81.8636 47.8517 82.9929 48.3195 84.1705 48.3195C85.348 48.3195 86.4774 47.8517 87.31 47.019C88.1427 46.1863 88.6105 45.057 88.6105 43.8795Z" stroke="#E0AC00" stroke-width="0.5"/>
<path d="M88.9 63.4895C88.9 62.8697 88.7779 62.2559 88.5407 61.6833C88.3035 61.1106 87.9558 60.5903 87.5175 60.152C87.0792 59.7137 86.5589 59.366 85.9862 59.1288C85.4136 58.8916 84.7998 58.7695 84.18 58.7695C83.5601 58.7695 82.9464 58.8916 82.3737 59.1288C81.801 59.366 81.2807 59.7137 80.8424 60.152C80.4041 60.5903 80.0565 61.1106 79.8193 61.6833C79.582 62.2559 79.46 62.8697 79.46 63.4895C79.46 64.7414 79.9572 65.9419 80.8424 66.8271C81.7276 67.7122 82.9281 68.2095 84.18 68.2095C85.4318 68.2095 86.6323 67.7122 87.5175 66.8271C88.4027 65.9419 88.9 64.7414 88.9 63.4895Z" stroke="#171717" stroke-width="0.5"/>
<path d="M9.19972 63.4607C9.19972 62.8711 9.08359 62.2872 8.85795 61.7425C8.6323 61.1977 8.30157 60.7027 7.88464 60.2858C7.4677 59.8689 6.97273 59.5381 6.42797 59.3125C5.88322 59.0868 5.29936 58.9707 4.70973 58.9707C4.12009 58.9707 3.53623 59.0868 2.99148 59.3125C2.44673 59.5381 1.95175 59.8689 1.53482 60.2858C1.11788 60.7027 0.78715 61.1977 0.561506 61.7425C0.335863 62.2872 0.219727 62.8711 0.219727 63.4607C0.219727 64.6515 0.692778 65.7936 1.53482 66.6356C2.37686 67.4777 3.5189 67.9507 4.70973 67.9507C5.90055 67.9507 7.0426 67.4777 7.88464 66.6356C8.72667 65.7936 9.19972 64.6515 9.19972 63.4607Z" stroke="#E0AC00" stroke-width="0.5"/>
<path d="M29.72 63.4899C29.72 62.2672 29.2343 61.0947 28.3698 60.2301C27.5052 59.3656 26.3326 58.8799 25.11 58.8799C23.8874 58.8799 22.7148 59.3656 21.8502 60.2301C20.9857 61.0947 20.5 62.2672 20.5 63.4899C20.5 64.7125 20.9857 65.8851 21.8502 66.7496C22.7148 67.6142 23.8874 68.0999 25.11 68.0999C26.3326 68.0999 27.5052 67.6142 28.3698 66.7496C29.2343 65.8851 29.72 64.7125 29.72 63.4899Z" stroke="#171717" stroke-width="0.5"/>
<path d="M50.0803 63.5299C50.0803 62.3629 49.6167 61.2438 48.7915 60.4186C47.9664 59.5934 46.8472 59.1299 45.6803 59.1299C44.5133 59.1299 43.3942 59.5934 42.569 60.4186C41.7438 61.2438 41.2803 62.3629 41.2803 63.5299C41.2803 64.6968 41.7438 65.816 42.569 66.6412C43.3942 67.4663 44.5133 67.9299 45.6803 67.9299C46.8472 67.9299 47.9664 67.4663 48.7915 66.6412C49.6167 65.816 50.0803 64.6968 50.0803 63.5299Z" stroke="#E0AC00" stroke-width="0.5"/>
<path d="M29.7897 83.16C29.7897 81.9241 29.2988 80.7388 28.4248 79.8649C27.5509 78.991 26.3656 78.5 25.1297 78.5C24.5178 78.5 23.9118 78.6205 23.3464 78.8547C22.781 79.0889 22.2673 79.4322 21.8346 79.8649C21.4019 80.2976 21.0586 80.8113 20.8244 81.3767C20.5903 81.9421 20.4697 82.548 20.4697 83.16C20.4697 83.772 20.5903 84.3779 20.8244 84.9433C21.0586 85.5087 21.4019 86.0224 21.8346 86.4551C22.2673 86.8878 22.781 87.2311 23.3464 87.4653C23.9118 87.6995 24.5178 87.82 25.1297 87.82C25.7417 87.82 26.3477 87.6995 26.913 87.4653C27.4784 87.2311 27.9921 86.8878 28.4248 86.4551C28.8576 86.0224 29.2008 85.5087 29.435 84.9433C29.6692 84.3779 29.7897 83.772 29.7897 83.16Z" stroke="#171717" stroke-width="0.5"/>
<path d="M88.8698 83.2205C88.8698 81.9846 88.3788 80.7993 87.5049 79.9254C86.631 79.0515 85.4457 78.5605 84.2098 78.5605C82.9739 78.5605 81.7886 79.0515 80.9147 79.9254C80.0408 80.7993 79.5498 81.9846 79.5498 83.2205C79.5498 84.4565 80.0408 85.6417 80.9147 86.5157C81.7886 87.3896 82.9739 87.8805 84.2098 87.8805C85.4457 87.8805 86.631 87.3896 87.5049 86.5157C88.3788 85.6417 88.8698 84.4565 88.8698 83.2205Z" stroke="#171717" stroke-width="0.5"/>
<path d="M9.1802 83.2498C9.1802 82.0589 8.70714 80.9169 7.8651 80.0749C7.02307 79.2328 5.88102 78.7598 4.6902 78.7598C3.49937 78.7598 2.35732 79.2328 1.51529 80.0749C0.673247 80.9169 0.200195 82.0589 0.200195 83.2498C0.200195 83.8394 0.316333 84.4233 0.541977 84.968C0.767621 85.5128 1.09835 86.0077 1.51529 86.4247C1.93222 86.8416 2.42719 87.1723 2.97195 87.398C3.5167 87.6236 4.10056 87.7398 4.6902 87.7398C5.27983 87.7398 5.86369 87.6236 6.40844 87.398C6.9532 87.1723 7.44817 86.8416 7.8651 86.4247C8.28204 86.0077 8.61277 85.5128 8.83842 84.968C9.06406 84.4233 9.1802 83.8394 9.1802 83.2498Z" stroke="#E0AC00" stroke-width="0.5"/>
<path d="M50.07 83.1893C50.07 82.6102 49.9559 82.0367 49.7343 81.5017C49.5127 80.9666 49.1878 80.4805 48.7783 80.071C48.3688 79.6614 47.8827 79.3366 47.3476 79.115C46.8126 78.8934 46.2391 78.7793 45.66 78.7793C44.4904 78.7793 43.3687 79.2439 42.5417 80.071C41.7146 80.898 41.25 82.0197 41.25 83.1893C41.25 84.3589 41.7146 85.4806 42.5417 86.3076C43.3687 87.1347 44.4904 87.5993 45.66 87.5993C46.2391 87.5993 46.8126 87.4852 47.3476 87.2636C47.8827 87.042 48.3688 86.7171 48.7783 86.3076C49.1878 85.8981 49.5127 85.412 49.7343 84.8769C49.9559 84.3419 50.07 83.7684 50.07 83.1893Z" stroke="#E0AC00" stroke-width="0.5"/>
<path d="M108.65 82.5598C108.65 81.5519 108.249 80.5854 107.537 79.8728C106.824 79.1601 105.858 78.7598 104.85 78.7598C103.842 78.7598 102.875 79.1601 102.163 79.8728C101.45 80.5854 101.05 81.5519 101.05 82.5598C101.05 83.5676 101.45 84.5341 102.163 85.2468C102.875 85.9594 103.842 86.3598 104.85 86.3598C105.858 86.3598 106.824 85.9594 107.537 85.2468C108.249 84.5341 108.65 83.5676 108.65 82.5598Z" stroke="#171717" stroke-width="0.5"/>
<path d="M68.9504 82.8292C68.9504 81.8665 68.568 80.9432 67.8872 80.2624C67.2065 79.5817 66.2832 79.1992 65.3204 79.1992C64.8437 79.1992 64.3717 79.2931 63.9313 79.4755C63.4909 79.658 63.0907 79.9253 62.7536 80.2624C62.4166 80.5995 62.1492 80.9997 61.9667 81.4401C61.7843 81.8805 61.6904 82.3525 61.6904 82.8292C61.6904 83.3059 61.7843 83.7779 61.9667 84.2184C62.1492 84.6588 62.4166 85.0589 62.7536 85.396C63.0907 85.7331 63.4909 86.0005 63.9313 86.1829C64.3717 86.3653 64.8437 86.4592 65.3204 86.4592C66.2832 86.4592 67.2065 86.0768 67.8872 85.396C68.568 84.7153 68.9504 83.792 68.9504 82.8292Z" stroke="#E0AC00" stroke-width="0.5"/>
<path d="M29.8605 102.891C29.8605 101.652 29.3685 100.464 28.4927 99.5885C27.6169 98.7127 26.4291 98.2207 25.1905 98.2207C23.9519 98.2207 22.7641 98.7127 21.8883 99.5885C21.0125 100.464 20.5205 101.652 20.5205 102.891C20.5205 103.504 20.6413 104.111 20.876 104.678C21.1107 105.244 21.4547 105.759 21.8883 106.193C22.322 106.627 22.8368 106.971 23.4034 107.205C23.97 107.44 24.5772 107.561 25.1905 107.561C25.8038 107.561 26.411 107.44 26.9776 107.205C27.5442 106.971 28.059 106.627 28.4927 106.193C28.9263 105.759 29.2703 105.244 29.505 104.678C29.7397 104.111 29.8605 103.504 29.8605 102.891Z" stroke="#171717" stroke-width="0.5"/>
<path d="M50.3304 102.8C50.3304 101.588 49.8489 100.426 48.9919 99.569C48.1349 98.712 46.9725 98.2305 45.7604 98.2305C44.5484 98.2305 43.386 98.712 42.5289 99.569C41.6719 100.426 41.1904 101.588 41.1904 102.8C41.1904 104.013 41.6719 105.175 42.5289 106.032C43.386 106.889 44.5484 107.37 45.7604 107.37C46.9725 107.37 48.1349 106.889 48.9919 106.032C49.8489 105.175 50.3304 104.013 50.3304 102.8Z" stroke="#171717" stroke-width="0.5"/>
<path d="M88.8502 102.969C88.8502 101.728 88.3572 100.537 87.4795 99.6598C86.6018 98.7821 85.4114 98.2891 84.1702 98.2891C82.929 98.2891 81.7386 98.7821 80.861 99.6598C79.9833 100.537 79.4902 101.728 79.4902 102.969C79.4902 104.21 79.9833 105.401 80.861 106.278C81.7386 107.156 82.929 107.649 84.1702 107.649C85.4114 107.649 86.6018 107.156 87.4795 106.278C88.3572 105.401 88.8502 104.21 88.8502 102.969Z" stroke="#171717" stroke-width="0.5"/>
<path d="M9.19965 102.889C9.19965 102.294 9.08247 101.705 8.85482 101.156C8.62717 100.606 8.29349 100.107 7.87284 99.6862C7.45219 99.2655 6.95281 98.9319 6.4032 98.7042C5.8536 98.4765 5.26454 98.3594 4.66965 98.3594C4.07476 98.3594 3.4857 98.4765 2.93609 98.7042C2.38649 98.9319 1.8871 99.2655 1.46645 99.6862C1.0458 100.107 0.712128 100.606 0.484474 101.156C0.25682 101.705 0.139648 102.294 0.139648 102.889C0.139648 104.091 0.616914 105.243 1.46645 106.093C2.31599 106.942 3.46822 107.419 4.66965 107.419C5.87108 107.419 7.0233 106.942 7.87284 106.093C8.72238 105.243 9.19965 104.091 9.19965 102.889Z" stroke="#E0AC00" stroke-width="0.5"/>
<path d="M9.32 122.76C9.32 121.524 8.82904 120.338 7.95512 119.464C7.0812 118.591 5.89591 118.1 4.66 118.1C3.42409 118.1 2.2388 118.591 1.36488 119.464C0.490964 120.338 0 121.524 0 122.76C0 123.996 0.490964 125.181 1.36488 126.055C2.2388 126.929 3.42409 127.42 4.66 127.42C5.89591 127.42 7.0812 126.929 7.95512 126.055C8.82904 125.181 9.32 123.996 9.32 122.76Z" stroke="#171717" stroke-width="0.5"/>
<path d="M29.7696 122.76C29.7696 121.516 29.2755 120.324 28.396 119.444C27.5164 118.564 26.3235 118.07 25.0796 118.07C23.8358 118.07 22.6429 118.564 21.7633 119.444C20.8838 120.324 20.3896 121.516 20.3896 122.76C20.3896 124.004 20.8838 125.197 21.7633 126.077C22.6429 126.956 23.8358 127.45 25.0796 127.45C26.3235 127.45 27.5164 126.956 28.396 126.077C29.2755 125.197 29.7696 124.004 29.7696 122.76Z" stroke="#171717" stroke-width="0.5"/>
<path d="M88.8405 122.76C88.8405 122.145 88.7194 121.537 88.4842 120.969C88.249 120.401 87.9043 119.885 87.4697 119.451C87.0352 119.016 86.5192 118.672 85.9514 118.436C85.3836 118.201 84.7751 118.08 84.1605 118.08C83.5459 118.08 82.9373 118.201 82.3695 118.436C81.8017 118.672 81.2858 119.016 80.8512 119.451C80.4166 119.885 80.0719 120.401 79.8367 120.969C79.6015 121.537 79.4805 122.145 79.4805 122.76C79.4805 123.375 79.6015 123.983 79.8367 124.551C80.0719 125.119 80.4166 125.635 80.8512 126.069C81.2858 126.504 81.8017 126.849 82.3695 127.084C82.9373 127.319 83.5459 127.44 84.1605 127.44C84.7751 127.44 85.3836 127.319 85.9514 127.084C86.5192 126.849 87.0352 126.504 87.4697 126.069C87.9043 125.635 88.249 125.119 88.4842 124.551C88.7194 123.983 88.8405 123.375 88.8405 122.76Z" stroke="#171717" stroke-width="0.5"/>
<path d="M9.34004 4.65C9.34004 5.26065 9.21976 5.86532 8.98608 6.42948C8.75239 6.99364 8.40988 7.50625 7.97808 7.93805C7.54629 8.36984 7.03368 8.71236 6.46952 8.94604C5.90535 9.17973 5.30069 9.3 4.69004 9.3C3.45678 9.3 2.27404 8.81009 1.40199 7.93805C0.529949 7.066 0.0400391 5.88326 0.0400391 4.65C0.0400391 3.41674 0.529949 2.234 1.40199 1.36195C2.27404 0.48991 3.45678 0 4.69004 0C5.30069 0 5.90535 0.120276 6.46952 0.35396C7.03368 0.587644 7.54629 0.930161 7.97808 1.36195C8.40988 1.79375 8.75239 2.30636 8.98608 2.87052C9.21976 3.43469 9.34004 4.03935 9.34004 4.65Z" fill="#171717"/>
<path d="M29.6201 4.68945C29.6201 5.88293 29.146 7.02752 28.3021 7.87144C27.4582 8.71535 26.3136 9.18946 25.1201 9.18946C23.9266 9.18946 22.7821 8.71535 21.9381 7.87144C21.0942 7.02752 20.6201 5.88293 20.6201 4.68945C20.6201 3.49598 21.0942 2.35139 21.9381 1.50747C22.7821 0.663559 23.9266 0.189453 25.1201 0.189453C26.3136 0.189453 27.4582 0.663559 28.3021 1.50747C29.146 2.35139 29.6201 3.49598 29.6201 4.68945Z" fill="#E0AC00"/>
<path d="M50.1402 4.65016C50.1402 5.84098 49.6671 6.98303 48.8251 7.82507C47.983 8.6671 46.841 9.14016 45.6502 9.14016C45.0605 9.14016 44.4767 9.02402 43.9319 8.79838C43.3872 8.57273 42.8922 8.242 42.4753 7.82507C42.0583 7.40813 41.7276 6.91316 41.5019 6.36841C41.2763 5.82365 41.1602 5.23979 41.1602 4.65016C41.1602 4.06052 41.2763 3.47666 41.5019 2.93191C41.7276 2.38716 42.0583 1.89218 42.4753 1.47525C42.8922 1.05831 43.3872 0.727582 43.9319 0.501938C44.4767 0.276294 45.0605 0.160156 45.6502 0.160156C46.841 0.160156 47.983 0.63321 48.8251 1.47525C49.6671 2.31729 50.1402 3.45934 50.1402 4.65016Z" fill="#E0AC00"/>
<path d="M88.6397 4.72953C88.6397 5.31523 88.5244 5.89519 88.3002 6.4363C88.0761 6.97741 87.7476 7.46908 87.3334 7.88323C86.9193 8.29738 86.4276 8.6259 85.8865 8.85003C85.3454 9.07417 84.7654 9.18953 84.1797 9.18953C83.594 9.18953 83.0141 9.07417 82.473 8.85003C81.9318 8.6259 81.4402 8.29738 81.026 7.88323C80.6119 7.46908 80.2834 6.97741 80.0592 6.4363C79.8351 5.89519 79.7197 5.31523 79.7197 4.72953C79.7197 3.54667 80.1896 2.41225 81.026 1.57584C81.8624 0.739424 82.9969 0.269531 84.1797 0.269531C85.3626 0.269531 86.497 0.739424 87.3334 1.57584C88.1698 2.41225 88.6397 3.54667 88.6397 4.72953Z" fill="#E0AC00"/>
<path d="M29.4298 24.2608C29.4298 25.4436 28.9599 26.5781 28.1235 27.4145C27.2871 28.2509 26.1526 28.7208 24.9698 28.7208C23.7869 28.7208 22.6525 28.2509 21.8161 27.4145C20.9797 26.5781 20.5098 25.4436 20.5098 24.2608C20.5098 23.0779 20.9797 21.9435 21.8161 21.1071C22.6525 20.2707 23.7869 19.8008 24.9698 19.8008C26.1526 19.8008 27.2871 20.2707 28.1235 21.1071C28.9599 21.9435 29.4298 23.0779 29.4298 24.2608Z" fill="#E0AC00"/>
<path d="M50.0396 24.2605C50.0396 24.8449 49.9245 25.4236 49.7009 25.9635C49.4773 26.5034 49.1495 26.994 48.7363 27.4072C48.3231 27.8204 47.8325 28.1482 47.2926 28.3718C46.7527 28.5954 46.174 28.7105 45.5896 28.7105C44.4094 28.7105 43.2776 28.2417 42.443 27.4072C41.6085 26.5726 41.1396 25.4408 41.1396 24.2605C41.1396 23.0803 41.6085 21.9485 42.443 21.1139C43.2776 20.2794 44.4094 19.8105 45.5896 19.8105C46.174 19.8105 46.7527 19.9256 47.2926 20.1493C47.8325 20.3729 48.3231 20.7007 48.7363 21.1139C49.1495 21.5271 49.4773 22.0177 49.7009 22.5576C49.9245 23.0975 50.0396 23.6762 50.0396 24.2605Z" fill="#E0AC00"/>
<path d="M9.19051 24.3399C9.19051 25.5227 8.72062 26.6572 7.8842 27.4936C7.04779 28.33 5.91337 28.7999 4.73051 28.7999C3.54764 28.7999 2.41322 28.33 1.57681 27.4936C0.7404 26.6572 0.270508 25.5227 0.270508 24.3399C0.270508 23.157 0.7404 22.0226 1.57681 21.1862C2.41322 20.3498 3.54764 19.8799 4.73051 19.8799C5.91337 19.8799 7.04779 20.3498 7.8842 21.1862C8.72062 22.0226 9.19051 23.157 9.19051 24.3399Z" fill="#E0AC00"/>
<path d="M88.6797 24.2905C88.6797 25.4787 88.2077 26.6182 87.3676 27.4584C86.5274 28.2985 85.3879 28.7705 84.1997 28.7705C83.0116 28.7705 81.872 28.2985 81.0319 27.4584C80.1917 26.6182 79.7197 25.4787 79.7197 24.2905C79.7197 23.1024 80.1917 21.9629 81.0319 21.1227C81.872 20.2825 83.0116 19.8105 84.1997 19.8105C85.3879 19.8105 86.5274 20.2825 87.3676 21.1227C88.2077 21.9629 88.6797 23.1024 88.6797 24.2905Z" fill="#E0AC00"/>
<path d="M68.8899 24.2999C68.8899 25.2627 68.5074 26.186 67.8267 26.8667C67.1459 27.5475 66.2226 27.9299 65.2599 27.9299C64.2972 27.9299 63.3738 27.5475 62.6931 26.8667C62.0123 26.186 61.6299 25.2627 61.6299 24.2999C61.6299 23.3372 62.0123 22.4139 62.6931 21.7331C63.3738 21.0524 64.2972 20.6699 65.2599 20.6699C66.2226 20.6699 67.1459 21.0524 67.8267 21.7331C68.5074 22.4139 68.8899 23.3372 68.8899 24.2999Z" fill="#E0AC00"/>
<path d="M9.1602 43.7808C9.1602 44.3691 9.04432 44.9517 8.81917 45.4952C8.59403 46.0387 8.26404 46.5326 7.84803 46.9486C7.43203 47.3646 6.93816 47.6946 6.39462 47.9198C5.85108 48.1449 5.26852 48.2608 4.68019 48.2608C4.09187 48.2608 3.50931 48.1449 2.96577 47.9198C2.42223 47.6946 1.92836 47.3646 1.51236 46.9486C1.09635 46.5326 0.766355 46.0387 0.541214 45.4952C0.316073 44.9517 0.200195 44.3691 0.200195 43.7808C0.200195 42.5926 0.672195 41.4531 1.51236 40.6129C2.35252 39.7728 3.49202 39.3008 4.68019 39.3008C5.86836 39.3008 7.00787 39.7728 7.84803 40.6129C8.6882 41.4531 9.1602 42.5926 9.1602 43.7808Z" fill="#E0AC00"/>
<path d="M29.68 43.8092C29.68 45.0319 29.1943 46.2044 28.3297 47.069C27.4652 47.9335 26.2926 48.4192 25.07 48.4192C23.8473 48.4192 22.6747 47.9335 21.8102 47.069C20.9457 46.2044 20.46 45.0319 20.46 43.8092C20.46 42.5866 20.9457 41.414 21.8102 40.5495C22.6747 39.6849 23.8473 39.1992 25.07 39.1992C26.2926 39.1992 27.4652 39.6849 28.3297 40.5495C29.1943 41.414 29.68 42.5866 29.68 43.8092Z" fill="#171717"/>
<path d="M50.1203 43.8106C50.1203 44.3911 50.0059 44.9658 49.7838 45.5021C49.5617 46.0383 49.2361 46.5256 48.8257 46.936C48.4152 47.3465 47.928 47.6721 47.3917 47.8942C46.8555 48.1163 46.2807 48.2306 45.7003 48.2306C45.1198 48.2306 44.5451 48.1163 44.0088 47.8942C43.4726 47.6721 42.9853 47.3465 42.5749 46.936C42.1644 46.5256 41.8388 46.0383 41.6167 45.5021C41.3946 44.9658 41.2803 44.3911 41.2803 43.8106C41.2803 42.6384 41.7459 41.5141 42.5749 40.6852C43.4038 39.8563 44.528 39.3906 45.7003 39.3906C46.2807 39.3906 46.8555 39.505 47.3917 39.7271C47.928 39.9492 48.4152 40.2748 48.8257 40.6852C49.2361 41.0956 49.5617 41.5829 49.7838 42.1192C50.0059 42.6554 50.1203 43.2302 50.1203 43.8106Z" fill="#E0AC00"/>
<path d="M88.6095 43.8795C88.6095 45.057 88.1417 46.1863 87.3091 47.019C86.4764 47.8517 85.3471 48.3195 84.1695 48.3195C82.9919 48.3195 81.8626 47.8517 81.0299 47.019C80.1973 46.1863 79.7295 45.057 79.7295 43.8795C79.7295 42.7019 80.1973 41.5726 81.0299 40.7399C81.8626 39.9072 82.9919 39.4395 84.1695 39.4395C85.3471 39.4395 86.4764 39.9072 87.3091 40.7399C88.1417 41.5726 88.6095 42.7019 88.6095 43.8795Z" fill="#E0AC00"/>
<path d="M88.9 63.4895C88.9 64.7414 88.4027 65.9419 87.5175 66.8271C86.6323 67.7122 85.4318 68.2095 84.18 68.2095C82.9281 68.2095 81.7276 67.7122 80.8424 66.8271C79.9572 65.9419 79.46 64.7414 79.46 63.4895C79.46 62.8697 79.582 62.2559 79.8193 61.6833C80.0565 61.1106 80.4041 60.5903 80.8424 60.152C81.2807 59.7137 81.801 59.366 82.3737 59.1288C82.9464 58.8916 83.5601 58.7695 84.18 58.7695C84.7998 58.7695 85.4136 58.8916 85.9862 59.1288C86.5589 59.366 87.0792 59.7137 87.5175 60.152C87.9558 60.5903 88.3035 61.1106 88.5407 61.6833C88.7779 62.2559 88.9 62.8697 88.9 63.4895Z" fill="#171717"/>
<path d="M9.19972 63.4607C9.19972 64.6515 8.72667 65.7936 7.88464 66.6356C7.0426 67.4777 5.90055 67.9507 4.70973 67.9507C3.5189 67.9507 2.37686 67.4777 1.53482 66.6356C0.692778 65.7936 0.219727 64.6515 0.219727 63.4607C0.219727 62.8711 0.335863 62.2872 0.561506 61.7425C0.78715 61.1977 1.11788 60.7027 1.53482 60.2858C1.95175 59.8689 2.44673 59.5381 2.99148 59.3125C3.53623 59.0868 4.12009 58.9707 4.70973 58.9707C5.29936 58.9707 5.88322 59.0868 6.42797 59.3125C6.97273 59.5381 7.4677 59.8689 7.88464 60.2858C8.30157 60.7027 8.6323 61.1977 8.85795 61.7425C9.08359 62.2872 9.19972 62.8711 9.19972 63.4607Z" fill="#E0AC00"/>
<path d="M29.72 63.4899C29.72 64.7125 29.2343 65.8851 28.3698 66.7496C27.5052 67.6142 26.3326 68.0999 25.11 68.0999C23.8874 68.0999 22.7148 67.6142 21.8502 66.7496C20.9857 65.8851 20.5 64.7125 20.5 63.4899C20.5 62.2672 20.9857 61.0947 21.8502 60.2301C22.7148 59.3656 23.8874 58.8799 25.11 58.8799C26.3326 58.8799 27.5052 59.3656 28.3698 60.2301C29.2343 61.0947 29.72 62.2672 29.72 63.4899Z" fill="#171717"/>
<path d="M50.0803 63.5299C50.0803 64.6968 49.6167 65.816 48.7915 66.6412C47.9664 67.4663 46.8472 67.9299 45.6803 67.9299C44.5133 67.9299 43.3942 67.4663 42.569 66.6412C41.7438 65.816 41.2803 64.6968 41.2803 63.5299C41.2803 62.3629 41.7438 61.2438 42.569 60.4186C43.3942 59.5934 44.5133 59.1299 45.6803 59.1299C46.8472 59.1299 47.9664 59.5934 48.7915 60.4186C49.6167 61.2438 50.0803 62.3629 50.0803 63.5299Z" fill="#E0AC00"/>
<path d="M29.7897 83.16C29.7897 83.772 29.6692 84.3779 29.435 84.9433C29.2008 85.5087 28.8576 86.0224 28.4248 86.4551C27.9921 86.8878 27.4784 87.2311 26.913 87.4653C26.3477 87.6995 25.7417 87.82 25.1297 87.82C24.5178 87.82 23.9118 87.6995 23.3464 87.4653C22.781 87.2311 22.2673 86.8878 21.8346 86.4551C21.4019 86.0224 21.0586 85.5087 20.8244 84.9433C20.5903 84.3779 20.4697 83.772 20.4697 83.16C20.4697 82.548 20.5903 81.9421 20.8244 81.3767C21.0586 80.8113 21.4019 80.2976 21.8346 79.8649C22.2673 79.4322 22.781 79.0889 23.3464 78.8547C23.9118 78.6205 24.5178 78.5 25.1297 78.5C26.3656 78.5 27.5509 78.991 28.4248 79.8649C29.2988 80.7388 29.7897 81.9241 29.7897 83.16Z" fill="#171717"/>
<path d="M88.8698 83.2205C88.8698 84.4565 88.3788 85.6417 87.5049 86.5157C86.631 87.3896 85.4457 87.8805 84.2098 87.8805C82.9739 87.8805 81.7886 87.3896 80.9147 86.5157C80.0408 85.6417 79.5498 84.4565 79.5498 83.2205C79.5498 81.9846 80.0408 80.7993 80.9147 79.9254C81.7886 79.0515 82.9739 78.5605 84.2098 78.5605C85.4457 78.5605 86.631 79.0515 87.5049 79.9254C88.3788 80.7993 88.8698 81.9846 88.8698 83.2205Z" fill="#171717"/>
<path d="M9.1802 83.2498C9.1802 83.8394 9.06406 84.4233 8.83842 84.968C8.61277 85.5128 8.28204 86.0077 7.8651 86.4247C7.44817 86.8416 6.9532 87.1723 6.40844 87.398C5.86369 87.6236 5.27983 87.7398 4.6902 87.7398C4.10056 87.7398 3.5167 87.6236 2.97195 87.398C2.42719 87.1723 1.93222 86.8416 1.51529 86.4247C1.09835 86.0077 0.767621 85.5128 0.541977 84.968C0.316333 84.4233 0.200195 83.8394 0.200195 83.2498C0.200195 82.0589 0.673247 80.9169 1.51529 80.0749C2.35732 79.2328 3.49937 78.7598 4.6902 78.7598C5.88102 78.7598 7.02307 79.2328 7.8651 80.0749C8.70714 80.9169 9.1802 82.0589 9.1802 83.2498Z" fill="#E0AC00"/>
<path d="M50.07 83.1893C50.07 83.7684 49.9559 84.3419 49.7343 84.8769C49.5127 85.412 49.1878 85.8981 48.7783 86.3076C48.3688 86.7171 47.8827 87.042 47.3476 87.2636C46.8126 87.4852 46.2391 87.5993 45.66 87.5993C44.4904 87.5993 43.3687 87.1347 42.5417 86.3076C41.7146 85.4806 41.25 84.3589 41.25 83.1893C41.25 82.0197 41.7146 80.898 42.5417 80.071C43.3687 79.2439 44.4904 78.7793 45.66 78.7793C46.2391 78.7793 46.8126 78.8934 47.3476 79.115C47.8827 79.3366 48.3688 79.6614 48.7783 80.071C49.1878 80.4805 49.5127 80.9666 49.7343 81.5017C49.9559 82.0367 50.07 82.6102 50.07 83.1893Z" fill="#E0AC00"/>
<path d="M108.65 82.5598C108.65 83.5676 108.249 84.5341 107.537 85.2468C106.824 85.9594 105.858 86.3598 104.85 86.3598C103.842 86.3598 102.875 85.9594 102.163 85.2468C101.45 84.5341 101.05 83.5676 101.05 82.5598C101.05 81.5519 101.45 80.5854 102.163 79.8728C102.875 79.1601 103.842 78.7598 104.85 78.7598C105.858 78.7598 106.824 79.1601 107.537 79.8728C108.249 80.5854 108.65 81.5519 108.65 82.5598Z" fill="#171717"/>
<path d="M68.9504 82.8292C68.9504 83.792 68.568 84.7153 67.8872 85.396C67.2065 86.0768 66.2832 86.4592 65.3204 86.4592C64.8437 86.4592 64.3717 86.3653 63.9313 86.1829C63.4909 86.0005 63.0907 85.7331 62.7536 85.396C62.4166 85.0589 62.1492 84.6588 61.9667 84.2184C61.7843 83.7779 61.6904 83.3059 61.6904 82.8292C61.6904 82.3525 61.7843 81.8805 61.9667 81.4401C62.1492 80.9997 62.4166 80.5995 62.7536 80.2624C63.0907 79.9253 63.4909 79.658 63.9313 79.4755C64.3717 79.2931 64.8437 79.1992 65.3204 79.1992C66.2832 79.1992 67.2065 79.5817 67.8872 80.2624C68.568 80.9432 68.9504 81.8665 68.9504 82.8292Z" fill="#E0AC00"/>
<path d="M29.8605 102.891C29.8605 103.504 29.7397 104.111 29.505 104.678C29.2703 105.244 28.9263 105.759 28.4927 106.193C28.059 106.627 27.5442 106.971 26.9776 107.205C26.411 107.44 25.8038 107.561 25.1905 107.561C24.5772 107.561 23.97 107.44 23.4034 107.205C22.8368 106.971 22.322 106.627 21.8883 106.193C21.4547 105.759 21.1107 105.244 20.876 104.678C20.6413 104.111 20.5205 103.504 20.5205 102.891C20.5205 101.652 21.0125 100.464 21.8883 99.5885C22.7641 98.7127 23.9519 98.2207 25.1905 98.2207C26.4291 98.2207 27.6169 98.7127 28.4927 99.5885C29.3685 100.464 29.8605 101.652 29.8605 102.891Z" fill="#171717"/>
<path d="M50.3304 102.8C50.3304 104.013 49.8489 105.175 48.9919 106.032C48.1349 106.889 46.9725 107.37 45.7604 107.37C44.5484 107.37 43.386 106.889 42.5289 106.032C41.6719 105.175 41.1904 104.013 41.1904 102.8C41.1904 101.588 41.6719 100.426 42.5289 99.569C43.386 98.712 44.5484 98.2305 45.7604 98.2305C46.9725 98.2305 48.1349 98.712 48.9919 99.569C49.8489 100.426 50.3304 101.588 50.3304 102.8Z" fill="#171717"/>
<path d="M88.8502 102.969C88.8502 104.21 88.3572 105.401 87.4795 106.278C86.6018 107.156 85.4114 107.649 84.1702 107.649C82.929 107.649 81.7386 107.156 80.861 106.278C79.9833 105.401 79.4902 104.21 79.4902 102.969C79.4902 101.728 79.9833 100.537 80.861 99.6598C81.7386 98.7821 82.929 98.2891 84.1702 98.2891C85.4114 98.2891 86.6018 98.7821 87.4795 99.6598C88.3572 100.537 88.8502 101.728 88.8502 102.969Z" fill="#171717"/>
<path d="M9.19965 102.889C9.19965 104.091 8.72238 105.243 7.87284 106.093C7.0233 106.942 5.87108 107.419 4.66965 107.419C3.46822 107.419 2.31599 106.942 1.46645 106.093C0.616914 105.243 0.139648 104.091 0.139648 102.889C0.139648 102.294 0.25682 101.705 0.484474 101.156C0.712128 100.606 1.0458 100.107 1.46645 99.6862C1.8871 99.2655 2.38649 98.9319 2.93609 98.7042C3.4857 98.4765 4.07476 98.3594 4.66965 98.3594C5.26454 98.3594 5.8536 98.4765 6.4032 98.7042C6.95281 98.9319 7.45219 99.2655 7.87284 99.6862C8.29349 100.107 8.62717 100.606 8.85482 101.156C9.08247 101.705 9.19965 102.294 9.19965 102.889Z" fill="#E0AC00"/>
<path d="M9.32 122.76C9.32 123.996 8.82904 125.181 7.95512 126.055C7.0812 126.929 5.89591 127.42 4.66 127.42C3.42409 127.42 2.2388 126.929 1.36488 126.055C0.490964 125.181 0 123.996 0 122.76C0 121.524 0.490964 120.338 1.36488 119.464C2.2388 118.591 3.42409 118.1 4.66 118.1C5.89591 118.1 7.0812 118.591 7.95512 119.464C8.82904 120.338 9.32 121.524 9.32 122.76Z" fill="#171717"/>
<path d="M29.7696 122.76C29.7696 124.004 29.2755 125.197 28.396 126.077C27.5164 126.956 26.3235 127.45 25.0796 127.45C23.8358 127.45 22.6429 126.956 21.7633 126.077C20.8838 125.197 20.3896 124.004 20.3896 122.76C20.3896 121.516 20.8838 120.324 21.7633 119.444C22.6429 118.564 23.8358 118.07 25.0796 118.07C26.3235 118.07 27.5164 118.564 28.396 119.444C29.2755 120.324 29.7696 121.516 29.7696 122.76Z" fill="#171717"/>
<path d="M88.8395 122.76C88.8395 123.375 88.7184 123.983 88.4833 124.551C88.2481 125.119 87.9033 125.635 87.4688 126.069C87.0342 126.504 86.5183 126.849 85.9505 127.084C85.3827 127.319 84.7741 127.44 84.1595 127.44C83.5449 127.44 82.9363 127.319 82.3685 127.084C81.8007 126.849 81.2848 126.504 80.8502 126.069C80.4157 125.635 80.0709 125.119 79.8357 124.551C79.6005 123.983 79.4795 123.375 79.4795 122.76C79.4795 122.145 79.6005 121.537 79.8357 120.969C80.0709 120.401 80.4157 119.885 80.8502 119.451C81.2848 119.016 81.8007 118.672 82.3685 118.436C82.9363 118.201 83.5449 118.08 84.1595 118.08C84.7741 118.08 85.3827 118.201 85.9505 118.436C86.5183 118.672 87.0342 119.016 87.4688 119.451C87.9033 119.885 88.2481 120.401 88.4833 120.969C88.7184 121.537 88.8395 122.145 88.8395 122.76Z" fill="#171717"/>
<path d="M9.34004 144.099C9.34004 143.489 9.21976 142.884 8.98608 142.32C8.75239 141.756 8.40988 141.243 7.97808 140.811C7.54629 140.379 7.03368 140.037 6.46952 139.803C5.90535 139.569 5.30069 139.449 4.69004 139.449C3.45678 139.449 2.27404 139.939 1.40199 140.811C0.529949 141.683 0.0400391 142.866 0.0400391 144.099C0.0400391 145.332 0.529949 146.515 1.40199 147.387C2.27404 148.259 3.45678 148.749 4.69004 148.749C5.30069 148.749 5.90535 148.629 6.46952 148.395C7.03368 148.162 7.54629 147.819 7.97808 147.387C8.40988 146.955 8.75239 146.443 8.98608 145.879C9.21976 145.315 9.34004 144.71 9.34004 144.099Z" stroke="#171717" stroke-width="0.5"/>
<path d="M29.6201 144.139C29.6201 142.945 29.146 141.801 28.3021 140.957C27.4582 140.113 26.3136 139.639 25.1201 139.639C23.9266 139.639 22.7821 140.113 21.9381 140.957C21.0942 141.801 20.6201 142.945 20.6201 144.139C20.6201 145.332 21.0942 146.477 21.9381 147.321C22.7821 148.165 23.9266 148.639 25.1201 148.639C26.3136 148.639 27.4582 148.165 28.3021 147.321C29.146 146.477 29.6201 145.332 29.6201 144.139Z" stroke="#E0AC00" stroke-width="0.5"/>
<path d="M50.1402 144.099C50.1402 142.909 49.6671 141.767 48.8251 140.924C47.983 140.082 46.841 139.609 45.6502 139.609C45.0605 139.609 44.4767 139.726 43.9319 139.951C43.3872 140.177 42.8922 140.508 42.4753 140.924C42.0583 141.341 41.7276 141.836 41.5019 142.381C41.2763 142.926 41.1602 143.51 41.1602 144.099C41.1602 144.689 41.2763 145.273 41.5019 145.818C41.7276 146.362 42.0583 146.857 42.4753 147.274C42.8922 147.691 43.3872 148.022 43.9319 148.248C44.4767 148.473 45.0605 148.589 45.6502 148.589C46.841 148.589 47.983 148.116 48.8251 147.274C49.6671 146.432 50.1402 145.29 50.1402 144.099Z" stroke="#E0AC00" stroke-width="0.5"/>
<path d="M88.6397 144.179C88.6397 142.996 88.1698 141.861 87.3334 141.025C86.497 140.189 85.3626 139.719 84.1797 139.719C82.9969 139.719 81.8624 140.189 81.026 141.025C80.1896 141.861 79.7197 142.996 79.7197 144.179C79.7197 144.764 79.8351 145.344 80.0592 145.886C80.2834 146.427 80.6119 146.918 81.026 147.332C81.4402 147.747 81.9318 148.075 82.473 148.299C83.0141 148.523 83.594 148.639 84.1797 148.639C84.7654 148.639 85.3454 148.523 85.8865 148.299C86.4276 148.075 86.9193 147.747 87.3334 147.332C87.7476 146.918 88.0761 146.427 88.3002 145.886C88.5244 145.344 88.6397 144.764 88.6397 144.179Z" stroke="#E0AC00" stroke-width="0.5"/>
<path d="M29.4298 163.71C29.4298 162.527 28.9599 161.393 28.1235 160.556C27.2871 159.72 26.1526 159.25 24.9698 159.25C23.7869 159.25 22.6525 159.72 21.8161 160.556C20.9797 161.393 20.5098 162.527 20.5098 163.71C20.5098 164.893 20.9797 166.027 21.8161 166.864C22.6525 167.7 23.7869 168.17 24.9698 168.17C26.1526 168.17 27.2871 167.7 28.1235 166.864C28.9599 166.027 29.4298 164.893 29.4298 163.71Z" stroke="#E0AC00" stroke-width="0.5"/>
<path d="M50.0396 163.71C50.0396 163.125 49.9245 162.547 49.7009 162.007C49.4773 161.467 49.1495 160.976 48.7363 160.563C48.3231 160.15 47.8325 159.822 47.2926 159.598C46.7527 159.375 46.174 159.26 45.5896 159.26C44.4094 159.26 43.2776 159.729 42.443 160.563C41.6085 161.398 41.1396 162.53 41.1396 163.71C41.1396 164.89 41.6085 166.022 42.443 166.856C43.2776 167.691 44.4094 168.16 45.5896 168.16C46.174 168.16 46.7527 168.045 47.2926 167.821C47.8325 167.597 48.3231 167.27 48.7363 166.856C49.1495 166.443 49.4773 165.953 49.7009 165.413C49.9245 164.873 50.0396 164.294 50.0396 163.71Z" stroke="#E0AC00" stroke-width="0.5"/>
<path d="M9.19051 163.789C9.19051 162.606 8.72062 161.472 7.8842 160.635C7.04779 159.799 5.91337 159.329 4.73051 159.329C3.54764 159.329 2.41322 159.799 1.57681 160.635C0.7404 161.472 0.270508 162.606 0.270508 163.789C0.270508 164.972 0.7404 166.106 1.57681 166.943C2.41322 167.779 3.54764 168.249 4.73051 168.249C5.91337 168.249 7.04779 167.779 7.8842 166.943C8.72062 166.106 9.19051 164.972 9.19051 163.789Z" stroke="#E0AC00" stroke-width="0.5"/>
<path d="M88.6797 163.74C88.6797 162.552 88.2077 161.412 87.3676 160.572C86.5274 159.732 85.3879 159.26 84.1997 159.26C83.0116 159.26 81.872 159.732 81.0319 160.572C80.1917 161.412 79.7197 162.552 79.7197 163.74C79.7197 164.928 80.1917 166.067 81.0319 166.908C81.872 167.748 83.0116 168.22 84.1997 168.22C85.3879 168.22 86.5274 167.748 87.3676 166.908C88.2077 166.067 88.6797 164.928 88.6797 163.74Z" stroke="#E0AC00" stroke-width="0.5"/>
<path d="M68.8899 163.749C68.8899 162.786 68.5074 161.863 67.8267 161.182C67.1459 160.502 66.2226 160.119 65.2599 160.119C64.2972 160.119 63.3738 160.502 62.6931 161.182C62.0123 161.863 61.6299 162.786 61.6299 163.749C61.6299 164.712 62.0123 165.635 62.6931 166.316C63.3738 166.997 64.2972 167.379 65.2599 167.379C66.2226 167.379 67.1459 166.997 67.8267 166.316C68.5074 165.635 68.8899 164.712 68.8899 163.749Z" stroke="#E0AC00" stroke-width="0.5"/>
<path d="M9.1602 183.23C9.1602 182.042 8.6882 180.902 7.84803 180.062C7.00787 179.222 5.86836 178.75 4.68019 178.75C3.49203 178.75 2.35252 179.222 1.51236 180.062C0.672195 180.902 0.200195 182.042 0.200195 183.23C0.200195 183.818 0.316073 184.401 0.541214 184.944C0.766355 185.488 1.09635 185.982 1.51236 186.398C1.92836 186.814 2.42223 187.144 2.96577 187.369C3.50931 187.594 4.09187 187.71 4.68019 187.71C5.26852 187.71 5.85108 187.594 6.39462 187.369C6.93816 187.144 7.43203 186.814 7.84803 186.398C8.26404 185.982 8.59403 185.488 8.81917 184.944C9.04431 184.401 9.1602 183.818 9.1602 183.23Z" stroke="#E0AC00" stroke-width="0.5"/>
<path d="M29.68 183.258C29.68 182.036 29.1943 180.863 28.3297 179.999C27.4652 179.134 26.2926 178.648 25.07 178.648C23.8473 178.648 22.6747 179.134 21.8102 179.999C20.9457 180.863 20.46 182.036 20.46 183.258C20.46 184.481 20.9457 185.654 21.8102 186.518C22.6747 187.383 23.8473 187.868 25.07 187.868C26.2926 187.868 27.4652 187.383 28.3297 186.518C29.1943 185.654 29.68 184.481 29.68 183.258Z" stroke="#171717" stroke-width="0.5"/>
<path d="M50.1203 183.26C50.1203 182.679 50.0059 182.105 49.7838 181.568C49.5617 181.032 49.2361 180.545 48.8257 180.134C48.4152 179.724 47.928 179.398 47.3917 179.176C46.8555 178.954 46.2807 178.84 45.7003 178.84C44.528 178.84 43.4038 179.306 42.5749 180.134C41.7459 180.963 41.2803 182.088 41.2803 183.26C41.2803 183.84 41.3946 184.415 41.6167 184.951C41.8388 185.488 42.1644 185.975 42.5749 186.385C42.9853 186.796 43.4726 187.121 44.0088 187.343C44.5451 187.566 45.1198 187.68 45.7003 187.68C46.2807 187.68 46.8555 187.566 47.3917 187.343C47.928 187.121 48.4152 186.796 48.8257 186.385C49.2361 185.975 49.5617 185.488 49.7838 184.951C50.0059 184.415 50.1203 183.84 50.1203 183.26Z" stroke="#E0AC00" stroke-width="0.5"/>
<path d="M88.6105 183.329C88.6105 182.151 88.1427 181.022 87.31 180.189C86.4774 179.356 85.348 178.889 84.1705 178.889C82.9929 178.889 81.8636 179.356 81.0309 180.189C80.1983 181.022 79.7305 182.151 79.7305 183.329C79.7305 184.506 80.1983 185.636 81.0309 186.468C81.8636 187.301 82.9929 187.769 84.1705 187.769C85.348 187.769 86.4774 187.301 87.31 186.468C88.1427 185.636 88.6105 184.506 88.6105 183.329Z" stroke="#E0AC00" stroke-width="0.5"/>
<path d="M9.34004 144.099C9.34004 144.71 9.21976 145.315 8.98608 145.879C8.75239 146.443 8.40988 146.955 7.97808 147.387C7.54629 147.819 7.03368 148.162 6.46952 148.395C5.90535 148.629 5.30069 148.749 4.69004 148.749C3.45678 148.749 2.27404 148.259 1.40199 147.387C0.529949 146.515 0.0400391 145.332 0.0400391 144.099C0.0400391 142.866 0.529949 141.683 1.40199 140.811C2.27404 139.939 3.45678 139.449 4.69004 139.449C5.30069 139.449 5.90535 139.569 6.46952 139.803C7.03368 140.037 7.54629 140.379 7.97808 140.811C8.40988 141.243 8.75239 141.756 8.98608 142.32C9.21976 142.884 9.34004 143.489 9.34004 144.099Z" fill="#171717"/>
<path d="M29.6201 144.139C29.6201 145.332 29.146 146.477 28.3021 147.321C27.4582 148.165 26.3136 148.639 25.1201 148.639C23.9266 148.639 22.7821 148.165 21.9381 147.321C21.0942 146.477 20.6201 145.332 20.6201 144.139C20.6201 142.945 21.0942 141.801 21.9381 140.957C22.7821 140.113 23.9266 139.639 25.1201 139.639C26.3136 139.639 27.4582 140.113 28.3021 140.957C29.146 141.801 29.6201 142.945 29.6201 144.139Z" fill="#E0AC00"/>
<path d="M50.1402 144.099C50.1402 145.29 49.6671 146.432 48.8251 147.274C47.983 148.116 46.841 148.589 45.6502 148.589C45.0605 148.589 44.4767 148.473 43.9319 148.248C43.3872 148.022 42.8922 147.691 42.4753 147.274C42.0583 146.857 41.7276 146.362 41.5019 145.818C41.2763 145.273 41.1602 144.689 41.1602 144.099C41.1602 143.51 41.2763 142.926 41.5019 142.381C41.7276 141.836 42.0583 141.341 42.4753 140.924C42.8922 140.508 43.3872 140.177 43.9319 139.951C44.4767 139.726 45.0605 139.609 45.6502 139.609C46.841 139.609 47.983 140.082 48.8251 140.924C49.6671 141.767 50.1402 142.909 50.1402 144.099Z" fill="#E0AC00"/>
<path d="M88.6397 144.179C88.6397 144.764 88.5244 145.344 88.3002 145.886C88.0761 146.427 87.7476 146.918 87.3334 147.332C86.9193 147.747 86.4276 148.075 85.8865 148.299C85.3454 148.523 84.7654 148.639 84.1797 148.639C83.594 148.639 83.0141 148.523 82.473 148.299C81.9318 148.075 81.4402 147.747 81.026 147.332C80.6119 146.918 80.2834 146.427 80.0592 145.886C79.8351 145.344 79.7197 144.764 79.7197 144.179C79.7197 142.996 80.1896 141.861 81.026 141.025C81.8624 140.189 82.9969 139.719 84.1797 139.719C85.3626 139.719 86.497 140.189 87.3334 141.025C88.1698 141.861 88.6397 142.996 88.6397 144.179Z" fill="#E0AC00"/>
<path d="M29.4298 163.71C29.4298 164.893 28.9599 166.027 28.1235 166.864C27.2871 167.7 26.1526 168.17 24.9698 168.17C23.7869 168.17 22.6525 167.7 21.8161 166.864C20.9797 166.027 20.5098 164.893 20.5098 163.71C20.5098 162.527 20.9797 161.393 21.8161 160.556C22.6525 159.72 23.7869 159.25 24.9698 159.25C26.1526 159.25 27.2871 159.72 28.1235 160.556C28.9599 161.393 29.4298 162.527 29.4298 163.71Z" fill="#E0AC00"/>
<path d="M50.0396 163.71C50.0396 164.294 49.9245 164.873 49.7009 165.413C49.4773 165.953 49.1495 166.443 48.7363 166.856C48.3231 167.27 47.8325 167.597 47.2926 167.821C46.7527 168.045 46.174 168.16 45.5896 168.16C44.4094 168.16 43.2776 167.691 42.443 166.856C41.6085 166.022 41.1396 164.89 41.1396 163.71C41.1396 162.53 41.6085 161.398 42.443 160.563C43.2776 159.729 44.4094 159.26 45.5896 159.26C46.174 159.26 46.7527 159.375 47.2926 159.598C47.8325 159.822 48.3231 160.15 48.7363 160.563C49.1495 160.976 49.4773 161.467 49.7009 162.007C49.9245 162.547 50.0396 163.125 50.0396 163.71Z" fill="#E0AC00"/>
<path d="M9.19051 163.789C9.19051 164.972 8.72062 166.106 7.8842 166.943C7.04779 167.779 5.91337 168.249 4.73051 168.249C3.54764 168.249 2.41322 167.779 1.57681 166.943C0.7404 166.106 0.270508 164.972 0.270508 163.789C0.270508 162.606 0.7404 161.472 1.57681 160.635C2.41322 159.799 3.54764 159.329 4.73051 159.329C5.91337 159.329 7.04779 159.799 7.8842 160.635C8.72062 161.472 9.19051 162.606 9.19051 163.789Z" fill="#E0AC00"/>
<path d="M88.6797 163.74C88.6797 164.928 88.2077 166.067 87.3676 166.908C86.5274 167.748 85.3879 168.22 84.1997 168.22C83.0116 168.22 81.872 167.748 81.0319 166.908C80.1917 166.067 79.7197 164.928 79.7197 163.74C79.7197 162.552 80.1917 161.412 81.0319 160.572C81.872 159.732 83.0116 159.26 84.1997 159.26C85.3879 159.26 86.5274 159.732 87.3676 160.572C88.2077 161.412 88.6797 162.552 88.6797 163.74Z" fill="#E0AC00"/>
<path d="M68.8899 163.749C68.8899 164.712 68.5074 165.635 67.8267 166.316C67.1459 166.997 66.2226 167.379 65.2599 167.379C64.2972 167.379 63.3738 166.997 62.6931 166.316C62.0123 165.635 61.6299 164.712 61.6299 163.749C61.6299 162.786 62.0123 161.863 62.6931 161.182C63.3738 160.502 64.2972 160.119 65.2599 160.119C66.2226 160.119 67.1459 160.502 67.8267 161.182C68.5074 161.863 68.8899 162.786 68.8899 163.749Z" fill="#E0AC00"/>
<path d="M9.1602 183.23C9.1602 183.818 9.04432 184.401 8.81917 184.944C8.59403 185.488 8.26404 185.982 7.84803 186.398C7.43203 186.814 6.93816 187.144 6.39462 187.369C5.85108 187.594 5.26852 187.71 4.68019 187.71C4.09187 187.71 3.50931 187.594 2.96577 187.369C2.42223 187.144 1.92836 186.814 1.51236 186.398C1.09635 185.982 0.766355 185.488 0.541214 184.944C0.316073 184.401 0.200195 183.818 0.200195 183.23C0.200195 182.042 0.672195 180.902 1.51236 180.062C2.35252 179.222 3.49202 178.75 4.68019 178.75C5.86836 178.75 7.00787 179.222 7.84803 180.062C8.6882 180.902 9.1602 182.042 9.1602 183.23Z" fill="#E0AC00"/>
<path d="M29.68 183.258C29.68 184.481 29.1943 185.654 28.3297 186.518C27.4652 187.383 26.2926 187.868 25.07 187.868C23.8473 187.868 22.6747 187.383 21.8102 186.518C20.9457 185.654 20.46 184.481 20.46 183.258C20.46 182.036 20.9457 180.863 21.8102 179.999C22.6747 179.134 23.8473 178.648 25.07 178.648C26.2926 178.648 27.4652 179.134 28.3297 179.999C29.1943 180.863 29.68 182.036 29.68 183.258Z" fill="#171717"/>
<path d="M50.1203 183.26C50.1203 183.84 50.0059 184.415 49.7838 184.951C49.5617 185.488 49.2361 185.975 48.8257 186.385C48.4152 186.796 47.928 187.121 47.3917 187.343C46.8555 187.566 46.2807 187.68 45.7003 187.68C45.1198 187.68 44.5451 187.566 44.0088 187.343C43.4726 187.121 42.9853 186.796 42.5749 186.385C42.1644 185.975 41.8388 185.488 41.6167 184.951C41.3946 184.415 41.2803 183.84 41.2803 183.26C41.2803 182.088 41.7459 180.963 42.5749 180.134C43.4038 179.306 44.528 178.84 45.7003 178.84C46.2807 178.84 46.8555 178.954 47.3917 179.176C47.928 179.398 48.4152 179.724 48.8257 180.134C49.2361 180.545 49.5617 181.032 49.7838 181.568C50.0059 182.105 50.1203 182.679 50.1203 183.26Z" fill="#E0AC00"/>
<path d="M88.6095 183.329C88.6095 184.506 88.1417 185.636 87.3091 186.468C86.4764 187.301 85.3471 187.769 84.1695 187.769C82.9919 187.769 81.8626 187.301 81.0299 186.468C80.1973 185.636 79.7295 184.506 79.7295 183.329C79.7295 182.151 80.1973 181.022 81.0299 180.189C81.8626 179.356 82.9919 178.889 84.1695 178.889C85.3471 178.889 86.4764 179.356 87.3091 180.189C88.1417 181.022 88.6095 182.151 88.6095 183.329Z" fill="#E0AC00"/>
</g>
<defs>
<clipPath id="clip0_13604_1298">
<rect width="108.65" height="190" fill="white"/>
</clipPath>
</defs>
</svg>
