<svg width="109" height="190" viewBox="0 0 109 190" fill="none" xmlns="http://www.w3.org/2000/svg">
<g clip-path="url(#clip0_13604_5020)">
<path d="M79.2103 6.2557C79.2103 5.01979 79.7012 3.8345 80.5752 2.96058C81.4491 2.08666 82.6344 1.5957 83.8703 1.5957C84.4822 1.5957 85.0882 1.71624 85.6536 1.95042C86.219 2.18461 86.7327 2.52786 87.1654 2.96058C87.5981 3.3933 87.9414 3.90702 88.1756 4.4724C88.4097 5.03777 88.5303 5.64374 88.5303 6.2557C88.5303 6.86766 88.4097 7.47362 88.1756 8.039C87.9414 8.60438 87.5981 9.1181 87.1654 9.55082C86.7327 9.98354 86.219 10.3268 85.6536 10.561C85.0882 10.7952 84.4822 10.9157 83.8703 10.9157C83.2583 10.9157 82.6523 10.7952 82.087 10.561C81.5216 10.3268 81.0079 9.98354 80.5752 9.55082C80.1424 9.1181 79.7992 8.60438 79.565 8.039C79.3308 7.47362 79.2103 6.86766 79.2103 6.2557Z" stroke="#171717" stroke-width="0.5"/>
<path d="M20.1302 6.31625C20.1302 5.08034 20.6212 3.89505 21.4951 3.02113C22.369 2.14721 23.5543 1.65625 24.7902 1.65625C26.0261 1.65625 27.2114 2.14721 28.0853 3.02113C28.9592 3.89505 29.4502 5.08034 29.4502 6.31625C29.4502 7.55215 28.9592 8.73745 28.0853 9.61137C27.2114 10.4853 26.0261 10.9762 24.7902 10.9762C23.5543 10.9762 22.369 10.4853 21.4951 9.61137C20.6212 8.73745 20.1302 7.55215 20.1302 6.31625Z" stroke="#171717" stroke-width="0.5"/>
<path d="M99.8198 6.34547C99.8198 5.15465 100.293 4.0126 101.135 3.17056C101.977 2.32852 103.119 1.85547 104.31 1.85547C105.501 1.85547 106.643 2.32852 107.485 3.17056C108.327 4.0126 108.8 5.15465 108.8 6.34547C108.8 6.93511 108.684 7.51897 108.458 8.06372C108.232 8.60847 107.902 9.10344 107.485 9.52038C107.068 9.93731 106.573 10.268 106.028 10.4937C105.483 10.7193 104.899 10.8355 104.31 10.8355C103.72 10.8355 103.136 10.7193 102.592 10.4937C102.047 10.268 101.552 9.93731 101.135 9.52038C100.718 9.10344 100.387 8.60847 100.162 8.06372C99.9359 7.51897 99.8198 6.93511 99.8198 6.34547Z" stroke="#E0AC00" stroke-width="0.5"/>
<path d="M58.93 6.285C58.93 5.70587 59.0441 5.13241 59.2657 4.59737C59.4873 4.06232 59.8122 3.57616 60.2217 3.16666C60.6312 2.75715 61.1173 2.43231 61.6524 2.21069C62.1874 1.98906 62.7609 1.875 63.34 1.875C64.5096 1.875 65.6313 2.33962 66.4583 3.16666C67.2854 3.99369 67.75 5.11539 67.75 6.285C67.75 7.4546 67.2854 8.5763 66.4583 9.40334C65.6313 10.2304 64.5096 10.695 63.34 10.695C62.7609 10.695 62.1874 10.5809 61.6524 10.3593C61.1173 10.1377 60.6312 9.81284 60.2217 9.40334C59.8122 8.99383 59.4873 8.50768 59.2657 7.97263C59.0441 7.43759 58.93 6.86413 58.93 6.285Z" stroke="#E0AC00" stroke-width="0.5"/>
<path d="M0.350197 5.65547C0.350197 4.64765 0.75055 3.68111 1.46319 2.96847C2.17583 2.25583 3.14236 1.85547 4.15018 1.85547C5.15801 1.85547 6.12456 2.25583 6.8372 2.96847C7.54983 3.68111 7.9502 4.64765 7.9502 5.65547C7.9502 6.66329 7.54983 7.62984 6.8372 8.34248C6.12456 9.05511 5.15801 9.45547 4.15018 9.45547C3.14236 9.45547 2.17583 9.05511 1.46319 8.34248C0.75055 7.62984 0.350197 6.66329 0.350197 5.65547Z" stroke="#171717" stroke-width="0.5"/>
<path d="M40.0496 5.92492C40.0496 4.96218 40.432 4.03888 41.1128 3.35812C41.7935 2.67737 42.7168 2.29492 43.6796 2.29492C44.1563 2.29492 44.6283 2.38881 45.0687 2.57124C45.5091 2.75366 45.9093 3.02105 46.2464 3.35812C46.5834 3.6952 46.8508 4.09537 47.0333 4.53578C47.2157 4.97619 47.3096 5.44822 47.3096 5.92492C47.3096 6.40162 47.2157 6.87365 47.0333 7.31406C46.8508 7.75448 46.5834 8.15465 46.2464 8.49172C45.9093 8.8288 45.5091 9.09618 45.0687 9.2786C44.6283 9.46103 44.1563 9.55492 43.6796 9.55492C42.7168 9.55492 41.7935 9.17248 41.1128 8.49172C40.432 7.81097 40.0496 6.88765 40.0496 5.92492Z" stroke="#E0AC00" stroke-width="0.5"/>
<path d="M79.1395 25.9864C79.1395 24.7479 79.6315 23.56 80.5073 22.6842C81.3831 21.8084 82.5709 21.3164 83.8095 21.3164C85.0481 21.3164 86.2359 21.8084 87.1117 22.6842C87.9875 23.56 88.4795 24.7479 88.4795 25.9864C88.4795 26.5997 88.3587 27.2069 88.124 27.7735C87.8893 28.3401 87.5453 28.8549 87.1117 29.2886C86.678 29.7222 86.1632 30.0662 85.5966 30.3009C85.03 30.5356 84.4228 30.6564 83.8095 30.6564C83.1962 30.6564 82.589 30.5356 82.0224 30.3009C81.4558 30.0662 80.941 29.7222 80.5073 29.2886C80.0737 28.8549 79.7297 28.3401 79.495 27.7735C79.2603 27.2069 79.1395 26.5997 79.1395 25.9864Z" stroke="#171717" stroke-width="0.5"/>
<path d="M58.6696 25.8962C58.6696 24.6841 59.1511 23.5217 60.0081 22.6647C60.8651 21.8077 62.0275 21.3262 63.2396 21.3262C64.4516 21.3262 65.614 21.8077 66.4711 22.6647C67.3281 23.5217 67.8096 24.6841 67.8096 25.8962C67.8096 27.1082 67.3281 28.2706 66.4711 29.1277C65.614 29.9847 64.4516 30.4662 63.2396 30.4662C62.0275 30.4662 60.8651 29.9847 60.0081 29.1277C59.1511 28.2706 58.6696 27.1082 58.6696 25.8962Z" stroke="#171717" stroke-width="0.5"/>
<path d="M20.1498 26.0648C20.1498 24.8236 20.6428 23.6332 21.5205 22.7555C22.3982 21.8778 23.5886 21.3848 24.8298 21.3848C26.071 21.3848 27.2614 21.8778 28.139 22.7555C29.0167 23.6332 29.5098 24.8236 29.5098 26.0648C29.5098 27.306 29.0167 28.4964 28.139 29.374C27.2614 30.2517 26.071 30.7448 24.8298 30.7448C23.5886 30.7448 22.3982 30.2517 21.5205 29.374C20.6428 28.4964 20.1498 27.306 20.1498 26.0648Z" stroke="#171717" stroke-width="0.5"/>
<path d="M99.8004 25.9851C99.8004 25.3902 99.9175 24.8011 100.145 24.2515C100.373 23.7019 100.707 23.2025 101.127 22.7819C101.548 22.3612 102.047 22.0276 102.597 21.7999C103.146 21.5723 103.735 21.4551 104.33 21.4551C104.925 21.4551 105.514 21.5723 106.064 21.7999C106.614 22.0276 107.113 22.3612 107.534 22.7819C107.954 23.2025 108.288 23.7019 108.516 24.2515C108.743 24.8011 108.86 25.3902 108.86 25.9851C108.86 27.1865 108.383 28.3387 107.534 29.1883C106.684 30.0378 105.532 30.5151 104.33 30.5151C103.129 30.5151 101.977 30.0378 101.127 29.1883C100.278 28.3387 99.8004 27.1865 99.8004 25.9851Z" stroke="#E0AC00" stroke-width="0.5"/>
<path d="M99.68 45.8553C99.68 44.6194 100.171 43.4341 101.045 42.5602C101.919 41.6863 103.104 41.1953 104.34 41.1953C105.576 41.1953 106.761 41.6863 107.635 42.5602C108.509 43.4341 109 44.6194 109 45.8553C109 47.0912 108.509 48.2765 107.635 49.1504C106.761 50.0244 105.576 50.5153 104.34 50.5153C103.104 50.5153 101.919 50.0244 101.045 49.1504C100.171 48.2765 99.68 47.0912 99.68 45.8553Z" stroke="#171717" stroke-width="0.5"/>
<path d="M79.2304 45.856C79.2304 44.6122 79.7245 43.4192 80.604 42.5397C81.4836 41.6601 82.6765 41.166 83.9204 41.166C85.1642 41.166 86.3571 41.6601 87.2367 42.5397C88.1162 43.4192 88.6104 44.6122 88.6104 45.856C88.6104 47.0999 88.1162 48.2928 87.2367 49.1723C86.3571 50.0519 85.1642 50.546 83.9204 50.546C82.6765 50.546 81.4836 50.0519 80.604 49.1723C79.7245 48.2928 79.2304 47.0999 79.2304 45.856Z" stroke="#171717" stroke-width="0.5"/>
<path d="M20.1595 45.8558C20.1595 45.2412 20.2806 44.6326 20.5158 44.0648C20.751 43.497 21.0957 42.9811 21.5303 42.5465C21.9648 42.1119 22.4808 41.7672 23.0486 41.532C23.6164 41.2968 24.2249 41.1758 24.8395 41.1758C25.4541 41.1758 26.0627 41.2968 26.6305 41.532C27.1983 41.7672 27.7142 42.1119 28.1488 42.5465C28.5834 42.9811 28.9281 43.497 29.1633 44.0648C29.3985 44.6326 29.5195 45.2412 29.5195 45.8558C29.5195 46.4704 29.3985 47.0789 29.1633 47.6467C28.9281 48.2145 28.5834 48.7305 28.1488 49.165C27.7142 49.5996 27.1983 49.9443 26.6305 50.1795C26.0627 50.4147 25.4541 50.5358 24.8395 50.5358C24.2249 50.5358 23.6164 50.4147 23.0486 50.1795C22.4808 49.9443 21.9648 49.5996 21.5303 49.165C21.0957 48.7305 20.751 48.2145 20.5158 47.6467C20.2806 47.0789 20.1595 46.4704 20.1595 45.8558Z" stroke="#171717" stroke-width="0.5"/>
<path d="M79.2103 6.2557C79.2103 6.86766 79.3308 7.47362 79.565 8.039C79.7992 8.60438 80.1424 9.1181 80.5752 9.55082C81.0079 9.98354 81.5216 10.3268 82.087 10.561C82.6523 10.7952 83.2583 10.9157 83.8703 10.9157C84.4822 10.9157 85.0882 10.7952 85.6536 10.561C86.219 10.3268 86.7327 9.98354 87.1654 9.55082C87.5981 9.1181 87.9414 8.60438 88.1756 8.039C88.4097 7.47362 88.5303 6.86766 88.5303 6.2557C88.5303 5.64374 88.4097 5.03777 88.1756 4.4724C87.9414 3.90702 87.5981 3.3933 87.1654 2.96058C86.7327 2.52786 86.219 2.18461 85.6536 1.95042C85.0882 1.71624 84.4822 1.5957 83.8703 1.5957C82.6344 1.5957 81.4491 2.08666 80.5752 2.96058C79.7012 3.8345 79.2103 5.01979 79.2103 6.2557Z" fill="#171717"/>
<path d="M20.1302 6.31625C20.1302 7.55216 20.6212 8.73745 21.4951 9.61137C22.369 10.4853 23.5543 10.9762 24.7902 10.9762C26.0261 10.9762 27.2114 10.4853 28.0853 9.61137C28.9592 8.73745 29.4502 7.55216 29.4502 6.31625C29.4502 5.08034 28.9592 3.89505 28.0853 3.02113C27.2114 2.14721 26.0261 1.65625 24.7902 1.65625C23.5543 1.65625 22.369 2.14721 21.4951 3.02113C20.6212 3.89505 20.1302 5.08034 20.1302 6.31625Z" fill="#171717"/>
<path d="M99.8198 6.34547C99.8198 6.93511 99.9359 7.51897 100.162 8.06372C100.387 8.60847 100.718 9.10344 101.135 9.52038C101.552 9.93731 102.047 10.268 102.592 10.4937C103.136 10.7193 103.72 10.8355 104.31 10.8355C104.899 10.8355 105.483 10.7193 106.028 10.4937C106.573 10.268 107.068 9.93731 107.485 9.52038C107.902 9.10344 108.232 8.60847 108.458 8.06372C108.684 7.51897 108.8 6.93511 108.8 6.34547C108.8 5.15465 108.327 4.0126 107.485 3.17056C106.643 2.32852 105.501 1.85547 104.31 1.85547C103.119 1.85547 101.977 2.32852 101.135 3.17056C100.293 4.0126 99.8198 5.15465 99.8198 6.34547Z" fill="#E0AC00"/>
<path d="M58.93 6.285C58.93 6.86413 59.0441 7.43759 59.2657 7.97263C59.4873 8.50768 59.8122 8.99383 60.2217 9.40334C60.6312 9.81284 61.1173 10.1377 61.6524 10.3593C62.1874 10.5809 62.7609 10.695 63.34 10.695C64.5096 10.695 65.6313 10.2304 66.4583 9.40334C67.2854 8.5763 67.75 7.4546 67.75 6.285C67.75 5.11539 67.2854 3.99369 66.4583 3.16666C65.6313 2.33962 64.5096 1.875 63.34 1.875C62.7609 1.875 62.1874 1.98906 61.6524 2.21069C61.1173 2.43231 60.6312 2.75715 60.2217 3.16666C59.8122 3.57616 59.4873 4.06232 59.2657 4.59737C59.0441 5.13241 58.93 5.70587 58.93 6.285Z" fill="#E0AC00"/>
<path d="M0.350197 5.65547C0.350197 6.66329 0.75055 7.62984 1.46319 8.34248C2.17583 9.05511 3.14236 9.45547 4.15018 9.45547C5.15801 9.45547 6.12456 9.05511 6.8372 8.34248C7.54983 7.62984 7.9502 6.66329 7.9502 5.65547C7.9502 4.64765 7.54983 3.68111 6.8372 2.96847C6.12456 2.25583 5.15801 1.85547 4.15018 1.85547C3.14236 1.85547 2.17583 2.25583 1.46319 2.96847C0.75055 3.68111 0.350197 4.64765 0.350197 5.65547Z" fill="#171717"/>
<path d="M40.0496 5.92492C40.0496 6.88765 40.432 7.81097 41.1128 8.49172C41.7935 9.17248 42.7168 9.55492 43.6796 9.55492C44.1563 9.55492 44.6283 9.46103 45.0687 9.2786C45.5091 9.09618 45.9093 8.8288 46.2464 8.49172C46.5834 8.15465 46.8508 7.75448 47.0333 7.31406C47.2157 6.87365 47.3096 6.40162 47.3096 5.92492C47.3096 5.44822 47.2157 4.97619 47.0333 4.53578C46.8508 4.09537 46.5834 3.6952 46.2464 3.35812C45.9093 3.02105 45.5091 2.75366 45.0687 2.57124C44.6283 2.38881 44.1563 2.29492 43.6796 2.29492C42.7168 2.29492 41.7935 2.67737 41.1128 3.35812C40.432 4.03888 40.0496 4.96218 40.0496 5.92492Z" fill="#E0AC00"/>
<path d="M79.1395 25.9864C79.1395 26.5997 79.2603 27.2069 79.495 27.7735C79.7297 28.3401 80.0737 28.8549 80.5073 29.2886C80.941 29.7222 81.4558 30.0662 82.0224 30.3009C82.589 30.5356 83.1962 30.6564 83.8095 30.6564C84.4228 30.6564 85.03 30.5356 85.5966 30.3009C86.1632 30.0662 86.678 29.7222 87.1117 29.2886C87.5453 28.8549 87.8893 28.3401 88.124 27.7735C88.3587 27.2069 88.4795 26.5997 88.4795 25.9864C88.4795 24.7479 87.9875 23.56 87.1117 22.6842C86.2359 21.8084 85.0481 21.3164 83.8095 21.3164C82.5709 21.3164 81.3831 21.8084 80.5073 22.6842C79.6315 23.56 79.1395 24.7479 79.1395 25.9864Z" fill="#171717"/>
<path d="M58.6696 25.8962C58.6696 27.1082 59.1511 28.2706 60.0081 29.1277C60.8651 29.9847 62.0275 30.4662 63.2396 30.4662C64.4516 30.4662 65.614 29.9847 66.4711 29.1277C67.3281 28.2706 67.8096 27.1082 67.8096 25.8962C67.8096 24.6841 67.3281 23.5217 66.4711 22.6647C65.614 21.8077 64.4516 21.3262 63.2396 21.3262C62.0275 21.3262 60.8651 21.8077 60.0081 22.6647C59.1511 23.5217 58.6696 24.6841 58.6696 25.8962Z" fill="#171717"/>
<path d="M20.1498 26.0648C20.1498 27.306 20.6428 28.4964 21.5205 29.374C22.3982 30.2517 23.5886 30.7448 24.8298 30.7448C26.071 30.7448 27.2614 30.2517 28.139 29.374C29.0167 28.4964 29.5098 27.306 29.5098 26.0648C29.5098 24.8236 29.0167 23.6332 28.139 22.7555C27.2614 21.8778 26.071 21.3848 24.8298 21.3848C23.5886 21.3848 22.3982 21.8778 21.5205 22.7555C20.6428 23.6332 20.1498 24.8236 20.1498 26.0648Z" fill="#171717"/>
<path d="M99.8004 25.9851C99.8004 27.1865 100.278 28.3387 101.127 29.1883C101.977 30.0378 103.129 30.5151 104.33 30.5151C105.532 30.5151 106.684 30.0378 107.534 29.1883C108.383 28.3387 108.86 27.1865 108.86 25.9851C108.86 25.3902 108.743 24.8011 108.516 24.2515C108.288 23.7019 107.954 23.2025 107.534 22.7819C107.113 22.3612 106.614 22.0276 106.064 21.7999C105.514 21.5723 104.925 21.4551 104.33 21.4551C103.735 21.4551 103.146 21.5723 102.597 21.7999C102.047 22.0276 101.548 22.3612 101.127 22.7819C100.707 23.2025 100.373 23.7019 100.145 24.2515C99.9175 24.8011 99.8004 25.3902 99.8004 25.9851Z" fill="#E0AC00"/>
<path d="M99.68 45.8553C99.68 47.0912 100.171 48.2765 101.045 49.1504C101.919 50.0244 103.104 50.5153 104.34 50.5153C105.576 50.5153 106.761 50.0244 107.635 49.1504C108.509 48.2765 109 47.0912 109 45.8553C109 44.6194 108.509 43.4341 107.635 42.5602C106.761 41.6863 105.576 41.1953 104.34 41.1953C103.104 41.1953 101.919 41.6863 101.045 42.5602C100.171 43.4341 99.68 44.6194 99.68 45.8553Z" fill="#171717"/>
<path d="M79.2304 45.856C79.2304 47.0999 79.7245 48.2928 80.604 49.1723C81.4836 50.0519 82.6765 50.546 83.9204 50.546C85.1642 50.546 86.3571 50.0519 87.2367 49.1723C88.1162 48.2928 88.6104 47.0999 88.6104 45.856C88.6104 44.6122 88.1162 43.4192 87.2367 42.5397C86.3571 41.6601 85.1642 41.166 83.9204 41.166C82.6765 41.166 81.4836 41.6601 80.604 42.5397C79.7245 43.4192 79.2304 44.6122 79.2304 45.856Z" fill="#171717"/>
<path d="M20.1605 45.8558C20.1605 46.4704 20.2816 47.0789 20.5167 47.6467C20.7519 48.2145 21.0967 48.7305 21.5312 49.165C21.9658 49.5996 22.4817 49.9443 23.0495 50.1795C23.6173 50.4147 24.2259 50.5358 24.8405 50.5358C25.4551 50.5358 26.0637 50.4147 26.6315 50.1795C27.1993 49.9443 27.7152 49.5996 28.1498 49.165C28.5843 48.7305 28.9291 48.2145 29.1643 47.6467C29.3995 47.0789 29.5205 46.4704 29.5205 45.8558C29.5205 45.2412 29.3995 44.6326 29.1643 44.0648C28.9291 43.497 28.5843 42.9811 28.1498 42.5465C27.7152 42.1119 27.1993 41.7672 26.6315 41.532C26.0637 41.2968 25.4551 41.1758 24.8405 41.1758C24.2259 41.1758 23.6173 41.2968 23.0495 41.532C22.4817 41.7672 21.9658 42.1119 21.5312 42.5465C21.0967 42.9811 20.7519 43.497 20.5167 44.0648C20.2816 44.6326 20.1605 45.2412 20.1605 45.8558Z" fill="#171717"/>
<path d="M99.66 67.1949C99.66 66.5843 99.7802 65.9796 100.014 65.4154C100.248 64.8513 100.59 64.3387 101.022 63.9069C101.454 63.4751 101.966 63.1326 102.53 62.8989C103.095 62.6652 103.699 62.5449 104.31 62.5449C105.543 62.5449 106.726 63.0348 107.598 63.9069C108.47 64.7789 108.96 65.9617 108.96 67.1949C108.96 68.4282 108.47 69.6109 107.598 70.483C106.726 71.355 105.543 71.8449 104.31 71.8449C103.699 71.8449 103.095 71.7246 102.53 71.491C101.966 71.2573 101.454 70.9148 101.022 70.483C100.59 70.0512 100.248 69.5386 100.014 68.9744C99.7802 68.4102 99.66 67.8056 99.66 67.1949Z" stroke="#171717" stroke-width="0.5"/>
<path d="M79.3799 67.2344C79.3799 66.0409 79.854 64.8963 80.6979 64.0524C81.5418 63.2085 82.6864 62.7344 83.8799 62.7344C85.0734 62.7344 86.2179 63.2085 87.0619 64.0524C87.9058 64.8963 88.3799 66.0409 88.3799 67.2344C88.3799 68.4278 87.9058 69.5724 87.0619 70.4164C86.2179 71.2603 85.0734 71.7344 83.8799 71.7344C82.6864 71.7344 81.5418 71.2603 80.6979 70.4164C79.854 69.5724 79.3799 68.4278 79.3799 67.2344Z" stroke="#E0AC00" stroke-width="0.5"/>
<path d="M58.8598 67.1951C58.8598 66.0043 59.3329 64.8622 60.1749 64.0202C61.017 63.1781 62.159 62.7051 63.3498 62.7051C63.9395 62.7051 64.5233 62.8212 65.0681 63.0469C65.6128 63.2725 66.1078 63.6032 66.5247 64.0202C66.9417 64.4371 67.2724 64.9321 67.4981 65.4768C67.7237 66.0216 67.8398 66.6054 67.8398 67.1951C67.8398 67.7847 67.7237 68.3686 67.4981 68.9133C67.2724 69.4581 66.9417 69.9531 66.5247 70.37C66.1078 70.7869 65.6128 71.1177 65.0681 71.3433C64.5233 71.5689 63.9395 71.6851 63.3498 71.6851C62.159 71.6851 61.017 71.212 60.1749 70.37C59.3329 69.5279 58.8598 68.3859 58.8598 67.1951Z" stroke="#E0AC00" stroke-width="0.5"/>
<path d="M20.3603 67.2745C20.3603 66.0916 20.8302 64.9572 21.6666 64.1208C22.503 63.2843 23.6374 62.8145 24.8203 62.8145C26.0031 62.8145 27.1376 63.2843 27.974 64.1208C28.8104 64.9572 29.2803 66.0916 29.2803 67.2745C29.2803 67.8601 29.1649 68.4401 28.9408 68.9812C28.7166 69.5223 28.3881 70.014 27.974 70.4282C27.5598 70.8423 27.0682 71.1708 26.527 71.395C25.9859 71.6191 25.406 71.7345 24.8203 71.7345C24.2346 71.7345 23.6546 71.6191 23.1135 71.395C22.5724 71.1708 22.0807 70.8423 21.6666 70.4282C21.2524 70.014 20.9239 69.5223 20.6998 68.9812C20.4756 68.4401 20.3603 67.8601 20.3603 67.2745Z" stroke="#E0AC00" stroke-width="0.5"/>
<path d="M79.5702 86.8057C79.5702 85.6228 80.0401 84.4884 80.8765 83.652C81.7129 82.8156 82.8474 82.3457 84.0302 82.3457C85.2131 82.3457 86.3475 82.8156 87.1839 83.652C88.0203 84.4884 88.4902 85.6228 88.4902 86.8057C88.4902 87.9886 88.0203 89.123 87.1839 89.9594C86.3475 90.7958 85.2131 91.2657 84.0302 91.2657C82.8474 91.2657 81.7129 90.7958 80.8765 89.9594C80.0401 89.123 79.5702 87.9886 79.5702 86.8057Z" stroke="#E0AC00" stroke-width="0.5"/>
<path d="M58.9604 86.8055C58.9604 86.2211 59.0755 85.6424 59.2991 85.1025C59.5227 84.5626 59.8505 84.0721 60.2637 83.6588C60.6769 83.2456 61.1675 82.9178 61.7074 82.6942C62.2473 82.4706 62.826 82.3555 63.4104 82.3555C64.5906 82.3555 65.7224 82.8243 66.557 83.6588C67.3915 84.4934 67.8604 85.6253 67.8604 86.8055C67.8604 87.9857 67.3915 89.1176 66.557 89.9521C65.7224 90.7866 64.5906 91.2555 63.4104 91.2555C62.826 91.2555 62.2473 91.1404 61.7074 90.9167C61.1675 90.6931 60.6769 90.3653 60.2637 89.9521C59.8505 89.5389 59.5227 89.0483 59.2991 88.5084C59.0755 87.9685 58.9604 87.3899 58.9604 86.8055Z" stroke="#E0AC00" stroke-width="0.5"/>
<path d="M99.8095 86.8848C99.8095 85.7019 100.279 84.5675 101.116 83.7311C101.952 82.8947 103.087 82.4248 104.269 82.4248C105.452 82.4248 106.587 82.8947 107.423 83.7311C108.26 84.5675 108.729 85.7019 108.729 86.8848C108.729 88.0677 108.26 89.2021 107.423 90.0385C106.587 90.8749 105.452 91.3448 104.269 91.3448C103.087 91.3448 101.952 90.8749 101.116 90.0385C100.279 89.2021 99.8095 88.0677 99.8095 86.8848Z" stroke="#E0AC00" stroke-width="0.5"/>
<path d="M20.3203 86.8355C20.3203 85.6473 20.7923 84.5078 21.6324 83.6676C22.4726 82.8275 23.6121 82.3555 24.8003 82.3555C25.9884 82.3555 27.128 82.8275 27.9681 83.6676C28.8083 84.5078 29.2803 85.6473 29.2803 86.8355C29.2803 88.0236 28.8083 89.1631 27.9681 90.0033C27.128 90.8435 25.9884 91.3155 24.8003 91.3155C23.6121 91.3155 22.4726 90.8435 21.6324 90.0033C20.7923 89.1631 20.3203 88.0236 20.3203 86.8355Z" stroke="#E0AC00" stroke-width="0.5"/>
<path d="M40.1101 86.8448C40.1101 85.8821 40.4926 84.9588 41.1733 84.278C41.8541 83.5973 42.7774 83.2148 43.7401 83.2148C44.7028 83.2148 45.6262 83.5973 46.3069 84.278C46.9877 84.9588 47.3701 85.8821 47.3701 86.8448C47.3701 87.8076 46.9877 88.7309 46.3069 89.4116C45.6262 90.0924 44.7028 90.4748 43.7401 90.4748C42.7774 90.4748 41.8541 90.0924 41.1733 89.4116C40.4926 88.7309 40.1101 87.8076 40.1101 86.8448Z" stroke="#E0AC00" stroke-width="0.5"/>
<path d="M99.8398 106.326C99.8398 105.138 100.312 103.998 101.152 103.158C101.992 102.318 103.132 101.846 104.32 101.846C105.508 101.846 106.647 102.318 107.488 103.158C108.328 103.998 108.8 105.138 108.8 106.326C108.8 106.914 108.684 107.497 108.459 108.04C108.234 108.584 107.904 109.078 107.488 109.494C107.072 109.91 106.578 110.24 106.034 110.465C105.491 110.69 104.908 110.806 104.32 110.806C103.731 110.806 103.149 110.69 102.605 110.465C102.062 110.24 101.568 109.91 101.152 109.494C100.736 109.078 100.406 108.584 100.181 108.04C99.9557 107.497 99.8398 106.914 99.8398 106.326Z" stroke="#E0AC00" stroke-width="0.5"/>
<path d="M79.32 106.354C79.32 105.131 79.8057 103.959 80.6703 103.094C81.5348 102.23 82.7074 101.744 83.93 101.744C85.1527 101.744 86.3253 102.23 87.1898 103.094C88.0543 103.959 88.54 105.131 88.54 106.354C88.54 107.577 88.0543 108.749 87.1898 109.614C86.3253 110.478 85.1527 110.964 83.93 110.964C82.7074 110.964 81.5348 110.478 80.6703 109.614C79.8057 108.749 79.32 107.577 79.32 106.354Z" stroke="#171717" stroke-width="0.5"/>
<path d="M58.8797 106.356C58.8797 105.775 58.9941 105.2 59.2162 104.664C59.4383 104.128 59.7639 103.641 60.1743 103.23C60.5848 102.82 61.072 102.494 61.6083 102.272C62.1445 102.05 62.7193 101.936 63.2997 101.936C64.472 101.936 65.5962 102.401 66.4251 103.23C67.2541 104.059 67.7197 105.183 67.7197 106.356C67.7197 106.936 67.6054 107.511 67.3833 108.047C67.1612 108.583 66.8356 109.071 66.4251 109.481C66.0147 109.891 65.5274 110.217 64.9912 110.439C64.4549 110.661 63.8802 110.776 63.2997 110.776C62.7193 110.776 62.1445 110.661 61.6083 110.439C61.072 110.217 60.5848 109.891 60.1743 109.481C59.7639 109.071 59.4383 108.583 59.2162 108.047C58.9941 107.511 58.8797 106.936 58.8797 106.356Z" stroke="#E0AC00" stroke-width="0.5"/>
<path d="M20.3895 106.424C20.3895 105.247 20.8573 104.117 21.69 103.285C22.5226 102.452 23.652 101.984 24.8295 101.984C26.0071 101.984 27.1364 102.452 27.9691 103.285C28.8017 104.117 29.2695 105.247 29.2695 106.424C29.2695 107.602 28.8017 108.731 27.9691 109.564C27.1364 110.397 26.0071 110.864 24.8295 110.864C23.652 110.864 22.5226 110.397 21.69 109.564C20.8573 108.731 20.3895 107.602 20.3895 106.424Z" stroke="#E0AC00" stroke-width="0.5"/>
<path d="M20.1 126.034C20.1 125.415 20.2221 124.801 20.4593 124.228C20.6965 123.656 21.0442 123.135 21.4825 122.697C21.9208 122.259 22.4411 121.911 23.0138 121.674C23.5864 121.437 24.2002 121.314 24.82 121.314C25.4399 121.314 26.0536 121.437 26.6263 121.674C27.199 121.911 27.7193 122.259 28.1576 122.697C28.5959 123.135 28.9435 123.656 29.1807 124.228C29.418 124.801 29.54 125.415 29.54 126.034C29.54 127.286 29.0428 128.487 28.1576 129.372C27.2724 130.257 26.0719 130.754 24.82 130.754C23.5682 130.754 22.3677 130.257 21.4825 129.372C20.5973 128.487 20.1 127.286 20.1 126.034Z" stroke="#171717" stroke-width="0.5"/>
<path d="M99.8003 126.006C99.8003 125.416 99.9164 124.832 100.142 124.287C100.368 123.743 100.698 123.248 101.115 122.831C101.532 122.414 102.027 122.083 102.572 121.857C103.117 121.632 103.701 121.516 104.29 121.516C104.88 121.516 105.464 121.632 106.009 121.857C106.553 122.083 107.048 122.414 107.465 122.831C107.882 123.248 108.213 123.743 108.438 124.287C108.664 124.832 108.78 125.416 108.78 126.006C108.78 127.196 108.307 128.338 107.465 129.181C106.623 130.023 105.481 130.496 104.29 130.496C103.099 130.496 101.957 130.023 101.115 129.181C100.273 128.338 99.8003 127.196 99.8003 126.006Z" stroke="#E0AC00" stroke-width="0.5"/>
<path d="M79.28 126.035C79.28 124.812 79.7657 123.64 80.6302 122.775C81.4948 121.91 82.6674 121.425 83.89 121.425C85.1126 121.425 86.2852 121.91 87.1498 122.775C88.0143 123.64 88.5 124.812 88.5 126.035C88.5 127.257 88.0143 128.43 87.1498 129.295C86.2852 130.159 85.1126 130.645 83.89 130.645C82.6674 130.645 81.4948 130.159 80.6302 129.295C79.7657 128.43 79.28 127.257 79.28 126.035Z" stroke="#171717" stroke-width="0.5"/>
<path d="M58.9197 126.075C58.9197 124.908 59.3833 123.789 60.2085 122.964C61.0336 122.138 62.1528 121.675 63.3197 121.675C64.4867 121.675 65.6058 122.138 66.431 122.964C67.2562 123.789 67.7197 124.908 67.7197 126.075C67.7197 127.242 67.2562 128.361 66.431 129.186C65.6058 130.011 64.4867 130.475 63.3197 130.475C62.1528 130.475 61.0336 130.011 60.2085 129.186C59.3833 128.361 58.9197 127.242 58.9197 126.075Z" stroke="#E0AC00" stroke-width="0.5"/>
<path d="M79.2103 145.705C79.2103 144.469 79.7012 143.284 80.5752 142.41C81.4491 141.536 82.6344 141.045 83.8703 141.045C84.4822 141.045 85.0882 141.165 85.6536 141.4C86.219 141.634 86.7327 141.977 87.1654 142.41C87.5981 142.843 87.9414 143.356 88.1756 143.922C88.4097 144.487 88.5303 145.093 88.5303 145.705C88.5303 146.317 88.4097 146.923 88.1756 147.488C87.9414 148.054 87.5981 148.567 87.1654 149C86.7327 149.433 86.219 149.776 85.6536 150.01C85.0882 150.244 84.4822 150.365 83.8703 150.365C83.2583 150.365 82.6523 150.244 82.087 150.01C81.5216 149.776 81.0079 149.433 80.5752 149C80.1424 148.567 79.7992 148.054 79.565 147.488C79.3308 146.923 79.2103 146.317 79.2103 145.705Z" stroke="#171717" stroke-width="0.5"/>
<path d="M20.1302 145.765C20.1302 144.53 20.6212 143.344 21.4951 142.47C22.369 141.596 23.5543 141.105 24.7902 141.105C26.0261 141.105 27.2114 141.596 28.0853 142.47C28.9592 143.344 29.4502 144.53 29.4502 145.765C29.4502 147.001 28.9592 148.187 28.0853 149.061C27.2114 149.935 26.0261 150.425 24.7902 150.425C23.5543 150.425 22.369 149.935 21.4951 149.061C20.6212 148.187 20.1302 147.001 20.1302 145.765Z" stroke="#171717" stroke-width="0.5"/>
<path d="M99.8198 145.795C99.8198 144.604 100.293 143.462 101.135 142.62C101.977 141.778 103.119 141.305 104.31 141.305C105.501 141.305 106.643 141.778 107.485 142.62C108.327 143.462 108.8 144.604 108.8 145.795C108.8 146.384 108.684 146.968 108.458 147.513C108.232 148.058 107.902 148.553 107.485 148.97C107.068 149.387 106.573 149.717 106.028 149.943C105.483 150.169 104.899 150.285 104.31 150.285C103.72 150.285 103.136 150.169 102.592 149.943C102.047 149.717 101.552 149.387 101.135 148.97C100.718 148.553 100.387 148.058 100.162 147.513C99.9359 146.968 99.8198 146.384 99.8198 145.795Z" stroke="#E0AC00" stroke-width="0.5"/>
<path d="M58.93 145.734C58.93 145.155 59.0441 144.582 59.2657 144.047C59.4873 143.512 59.8122 143.025 60.2217 142.616C60.6312 142.206 61.1173 141.882 61.6524 141.66C62.1874 141.438 62.7609 141.324 63.34 141.324C64.5096 141.324 65.6313 141.789 66.4583 142.616C67.2854 143.443 67.75 144.565 67.75 145.734C67.75 146.904 67.2854 148.026 66.4583 148.853C65.6313 149.68 64.5096 150.144 63.34 150.144C62.7609 150.144 62.1874 150.03 61.6524 149.809C61.1173 149.587 60.6312 149.262 60.2217 148.853C59.8122 148.443 59.4873 147.957 59.2657 147.422C59.0441 146.887 58.93 146.313 58.93 145.734Z" stroke="#E0AC00" stroke-width="0.5"/>
<path d="M0.350197 145.105C0.350197 144.097 0.75055 143.13 1.46319 142.418C2.17583 141.705 3.14236 141.305 4.15018 141.305C5.15801 141.305 6.12456 141.705 6.8372 142.418C7.54983 143.13 7.9502 144.097 7.9502 145.105C7.9502 146.113 7.54983 147.079 6.8372 147.792C6.12456 148.504 5.15801 148.905 4.15018 148.905C3.14236 148.905 2.17583 148.504 1.46319 147.792C0.75055 147.079 0.350197 146.113 0.350197 145.105Z" stroke="#171717" stroke-width="0.5"/>
<path d="M40.0496 145.374C40.0496 144.411 40.432 143.488 41.1128 142.807C41.7935 142.127 42.7168 141.744 43.6796 141.744C44.1563 141.744 44.6283 141.838 45.0687 142.02C45.5091 142.203 45.9093 142.47 46.2464 142.807C46.5834 143.144 46.8508 143.545 47.0333 143.985C47.2157 144.425 47.3096 144.897 47.3096 145.374C47.3096 145.851 47.2157 146.323 47.0333 146.763C46.8508 147.204 46.5834 147.604 46.2464 147.941C45.9093 148.278 45.5091 148.545 45.0687 148.728C44.6283 148.91 44.1563 149.004 43.6796 149.004C42.7168 149.004 41.7935 148.622 41.1128 147.941C40.432 147.26 40.0496 146.337 40.0496 145.374Z" stroke="#E0AC00" stroke-width="0.5"/>
<path d="M79.1395 165.436C79.1395 164.197 79.6315 163.009 80.5073 162.133C81.3831 161.258 82.5709 160.766 83.8095 160.766C85.0481 160.766 86.2359 161.258 87.1117 162.133C87.9875 163.009 88.4795 164.197 88.4795 165.436C88.4795 166.049 88.3587 166.656 88.124 167.223C87.8893 167.789 87.5453 168.304 87.1117 168.738C86.678 169.171 86.1632 169.515 85.5966 169.75C85.03 169.985 84.4228 170.106 83.8095 170.106C83.1962 170.106 82.589 169.985 82.0224 169.75C81.4558 169.515 80.941 169.171 80.5073 168.738C80.0737 168.304 79.7297 167.789 79.495 167.223C79.2603 166.656 79.1395 166.049 79.1395 165.436Z" stroke="#171717" stroke-width="0.5"/>
<path d="M58.6696 165.345C58.6696 164.133 59.1511 162.971 60.0081 162.114C60.8651 161.257 62.0275 160.775 63.2396 160.775C64.4516 160.775 65.614 161.257 66.4711 162.114C67.3281 162.971 67.8096 164.133 67.8096 165.345C67.8096 166.557 67.3281 167.72 66.4711 168.577C65.614 169.434 64.4516 169.915 63.2396 169.915C62.0275 169.915 60.8651 169.434 60.0081 168.577C59.1511 167.72 58.6696 166.557 58.6696 165.345Z" stroke="#171717" stroke-width="0.5"/>
<path d="M20.1498 165.514C20.1498 164.273 20.6428 163.082 21.5205 162.205C22.3982 161.327 23.5886 160.834 24.8298 160.834C26.071 160.834 27.2614 161.327 28.139 162.205C29.0167 163.082 29.5098 164.273 29.5098 165.514C29.5098 166.755 29.0167 167.946 28.139 168.823C27.2614 169.701 26.071 170.194 24.8298 170.194C23.5886 170.194 22.3982 169.701 21.5205 168.823C20.6428 167.946 20.1498 166.755 20.1498 165.514Z" stroke="#171717" stroke-width="0.5"/>
<path d="M99.8004 165.434C99.8004 164.839 99.9175 164.25 100.145 163.701C100.373 163.151 100.707 162.652 101.127 162.231C101.548 161.81 102.047 161.477 102.597 161.249C103.146 161.021 103.735 160.904 104.33 160.904C104.925 160.904 105.514 161.021 106.064 161.249C106.614 161.477 107.113 161.81 107.534 162.231C107.954 162.652 108.288 163.151 108.516 163.701C108.743 164.25 108.86 164.839 108.86 165.434C108.86 166.636 108.383 167.788 107.534 168.637C106.684 169.487 105.532 169.964 104.33 169.964C103.129 169.964 101.977 169.487 101.127 168.637C100.278 167.788 99.8004 166.636 99.8004 165.434Z" stroke="#E0AC00" stroke-width="0.5"/>
<path d="M99.68 185.305C99.68 184.069 100.171 182.883 101.045 182.009C101.919 181.135 103.104 180.645 104.34 180.645C105.576 180.645 106.761 181.135 107.635 182.009C108.509 182.883 109 184.069 109 185.305C109 186.54 108.509 187.726 107.635 188.6C106.761 189.474 105.576 189.965 104.34 189.965C103.104 189.965 101.919 189.474 101.045 188.6C100.171 187.726 99.68 186.54 99.68 185.305Z" stroke="#171717" stroke-width="0.5"/>
<path d="M79.2304 185.305C79.2304 184.061 79.7245 182.868 80.604 181.989C81.4836 181.109 82.6765 180.615 83.9204 180.615C85.1642 180.615 86.3571 181.109 87.2367 181.989C88.1162 182.868 88.6104 184.061 88.6104 185.305C88.6104 186.549 88.1162 187.742 87.2367 188.622C86.3571 189.501 85.1642 189.995 83.9204 189.995C82.6765 189.995 81.4836 189.501 80.604 188.622C79.7245 187.742 79.2304 186.549 79.2304 185.305Z" stroke="#171717" stroke-width="0.5"/>
<path d="M20.1595 185.305C20.1595 184.69 20.2806 184.082 20.5158 183.514C20.751 182.946 21.0957 182.43 21.5303 181.996C21.9648 181.561 22.4808 181.216 23.0486 180.981C23.6164 180.746 24.2249 180.625 24.8395 180.625C25.4541 180.625 26.0627 180.746 26.6305 180.981C27.1983 181.216 27.7142 181.561 28.1488 181.996C28.5834 182.43 28.9281 182.946 29.1633 183.514C29.3985 184.082 29.5195 184.69 29.5195 185.305C29.5195 185.92 29.3985 186.528 29.1633 187.096C28.9281 187.664 28.5834 188.18 28.1488 188.614C27.7142 189.049 27.1983 189.394 26.6305 189.629C26.0627 189.864 25.4541 189.985 24.8395 189.985C24.2249 189.985 23.6164 189.864 23.0486 189.629C22.4808 189.394 21.9648 189.049 21.5303 188.614C21.0957 188.18 20.751 187.664 20.5158 187.096C20.2806 186.528 20.1595 185.92 20.1595 185.305Z" stroke="#171717" stroke-width="0.5"/>
<path d="M99.66 67.1949C99.66 67.8056 99.7802 68.4102 100.014 68.9744C100.248 69.5386 100.59 70.0512 101.022 70.483C101.454 70.9148 101.966 71.2573 102.53 71.491C103.095 71.7246 103.699 71.8449 104.31 71.8449C105.543 71.8449 106.726 71.355 107.598 70.483C108.47 69.6109 108.96 68.4282 108.96 67.1949C108.96 65.9617 108.47 64.7789 107.598 63.9069C106.726 63.0348 105.543 62.5449 104.31 62.5449C103.699 62.5449 103.095 62.6652 102.53 62.8989C101.966 63.1326 101.454 63.4751 101.022 63.9069C100.59 64.3387 100.248 64.8513 100.014 65.4154C99.7802 65.9796 99.66 66.5843 99.66 67.1949Z" fill="#171717"/>
<path d="M79.3799 67.2344C79.3799 68.4278 79.854 69.5724 80.6979 70.4164C81.5418 71.2603 82.6864 71.7344 83.8799 71.7344C85.0734 71.7344 86.2179 71.2603 87.0619 70.4164C87.9058 69.5724 88.3799 68.4278 88.3799 67.2344C88.3799 66.0409 87.9058 64.8963 87.0619 64.0524C86.2179 63.2085 85.0734 62.7344 83.8799 62.7344C82.6864 62.7344 81.5418 63.2085 80.6979 64.0524C79.854 64.8963 79.3799 66.0409 79.3799 67.2344Z" fill="#E0AC00"/>
<path d="M58.8598 67.1951C58.8598 68.3859 59.3329 69.5279 60.1749 70.37C61.017 71.212 62.159 71.6851 63.3498 71.6851C63.9395 71.6851 64.5233 71.5689 65.0681 71.3433C65.6128 71.1177 66.1078 70.7869 66.5247 70.37C66.9417 69.9531 67.2724 69.4581 67.4981 68.9133C67.7237 68.3686 67.8398 67.7847 67.8398 67.1951C67.8398 66.6054 67.7237 66.0216 67.4981 65.4768C67.2724 64.9321 66.9417 64.4371 66.5247 64.0202C66.1078 63.6032 65.6128 63.2725 65.0681 63.0469C64.5233 62.8212 63.9395 62.7051 63.3498 62.7051C62.159 62.7051 61.017 63.1781 60.1749 64.0202C59.3329 64.8622 58.8598 66.0043 58.8598 67.1951Z" fill="#E0AC00"/>
<path d="M20.3603 67.2745C20.3603 67.8601 20.4756 68.4401 20.6998 68.9812C20.9239 69.5223 21.2524 70.014 21.6666 70.4282C22.0807 70.8423 22.5724 71.1708 23.1135 71.395C23.6546 71.6191 24.2346 71.7345 24.8203 71.7345C25.406 71.7345 25.9859 71.6191 26.527 71.395C27.0682 71.1708 27.5598 70.8423 27.974 70.4282C28.3881 70.014 28.7166 69.5223 28.9408 68.9812C29.1649 68.4401 29.2803 67.8601 29.2803 67.2745C29.2803 66.0916 28.8104 64.9572 27.974 64.1208C27.1376 63.2843 26.0031 62.8145 24.8203 62.8145C23.6374 62.8145 22.503 63.2843 21.6666 64.1208C20.8302 64.9572 20.3603 66.0916 20.3603 67.2745Z" fill="#E0AC00"/>
<path d="M79.5702 86.8057C79.5702 87.9886 80.0401 89.123 80.8765 89.9594C81.7129 90.7958 82.8474 91.2657 84.0302 91.2657C85.2131 91.2657 86.3475 90.7958 87.1839 89.9594C88.0203 89.123 88.4902 87.9886 88.4902 86.8057C88.4902 85.6228 88.0203 84.4884 87.1839 83.652C86.3475 82.8156 85.2131 82.3457 84.0302 82.3457C82.8474 82.3457 81.7129 82.8156 80.8765 83.652C80.0401 84.4884 79.5702 85.6228 79.5702 86.8057Z" fill="#E0AC00"/>
<path d="M58.9604 86.8055C58.9604 87.3899 59.0755 87.9685 59.2991 88.5084C59.5227 89.0483 59.8505 89.5389 60.2637 89.9521C60.6769 90.3653 61.1675 90.6931 61.7074 90.9167C62.2473 91.1404 62.826 91.2555 63.4104 91.2555C64.5906 91.2555 65.7224 90.7866 66.557 89.9521C67.3915 89.1176 67.8604 87.9857 67.8604 86.8055C67.8604 85.6253 67.3915 84.4934 66.557 83.6588C65.7224 82.8243 64.5906 82.3555 63.4104 82.3555C62.826 82.3555 62.2473 82.4706 61.7074 82.6942C61.1675 82.9178 60.6769 83.2456 60.2637 83.6588C59.8505 84.0721 59.5227 84.5626 59.2991 85.1025C59.0755 85.6424 58.9604 86.2211 58.9604 86.8055Z" fill="#E0AC00"/>
<path d="M99.8095 86.8848C99.8095 88.0677 100.279 89.2021 101.116 90.0385C101.952 90.8749 103.087 91.3448 104.269 91.3448C105.452 91.3448 106.587 90.8749 107.423 90.0385C108.26 89.2021 108.729 88.0677 108.729 86.8848C108.729 85.7019 108.26 84.5675 107.423 83.7311C106.587 82.8947 105.452 82.4248 104.269 82.4248C103.087 82.4248 101.952 82.8947 101.116 83.7311C100.279 84.5675 99.8095 85.7019 99.8095 86.8848Z" fill="#E0AC00"/>
<path d="M20.3203 86.8355C20.3203 88.0236 20.7923 89.1631 21.6324 90.0033C22.4726 90.8435 23.6121 91.3155 24.8003 91.3155C25.9884 91.3155 27.128 90.8435 27.9681 90.0033C28.8083 89.1631 29.2803 88.0236 29.2803 86.8355C29.2803 85.6473 28.8083 84.5078 27.9681 83.6676C27.128 82.8275 25.9884 82.3555 24.8003 82.3555C23.6121 82.3555 22.4726 82.8275 21.6324 83.6676C20.7923 84.5078 20.3203 85.6473 20.3203 86.8355Z" fill="#E0AC00"/>
<path d="M40.1101 86.8448C40.1101 87.8076 40.4926 88.7309 41.1733 89.4116C41.8541 90.0924 42.7774 90.4748 43.7401 90.4748C44.7028 90.4748 45.6262 90.0924 46.3069 89.4116C46.9877 88.7309 47.3701 87.8076 47.3701 86.8448C47.3701 85.8821 46.9877 84.9588 46.3069 84.278C45.6262 83.5973 44.7028 83.2148 43.7401 83.2148C42.7774 83.2148 41.8541 83.5973 41.1733 84.278C40.4926 84.9588 40.1101 85.8821 40.1101 86.8448Z" fill="#E0AC00"/>
<path d="M99.8398 106.326C99.8398 106.914 99.9557 107.497 100.181 108.04C100.406 108.584 100.736 109.078 101.152 109.494C101.568 109.91 102.062 110.24 102.605 110.465C103.149 110.69 103.731 110.806 104.32 110.806C104.908 110.806 105.491 110.69 106.034 110.465C106.578 110.24 107.072 109.91 107.488 109.494C107.904 109.078 108.234 108.584 108.459 108.04C108.684 107.497 108.8 106.914 108.8 106.326C108.8 105.138 108.328 103.998 107.488 103.158C106.647 102.318 105.508 101.846 104.32 101.846C103.132 101.846 101.992 102.318 101.152 103.158C100.312 103.998 99.8398 105.138 99.8398 106.326Z" fill="#E0AC00"/>
<path d="M79.32 106.354C79.32 107.577 79.8057 108.749 80.6703 109.614C81.5348 110.478 82.7074 110.964 83.93 110.964C85.1527 110.964 86.3253 110.478 87.1898 109.614C88.0543 108.749 88.54 107.577 88.54 106.354C88.54 105.131 88.0543 103.959 87.1898 103.094C86.3253 102.23 85.1527 101.744 83.93 101.744C82.7074 101.744 81.5348 102.23 80.6703 103.094C79.8057 103.959 79.32 105.131 79.32 106.354Z" fill="#171717"/>
<path d="M58.8797 106.356C58.8797 106.936 58.9941 107.511 59.2162 108.047C59.4383 108.583 59.7639 109.071 60.1743 109.481C60.5848 109.891 61.072 110.217 61.6083 110.439C62.1445 110.661 62.7193 110.776 63.2997 110.776C63.8802 110.776 64.4549 110.661 64.9912 110.439C65.5274 110.217 66.0147 109.891 66.4251 109.481C66.8356 109.071 67.1612 108.583 67.3833 108.047C67.6054 107.511 67.7197 106.936 67.7197 106.356C67.7197 105.183 67.2541 104.059 66.4251 103.23C65.5962 102.401 64.472 101.936 63.2997 101.936C62.7193 101.936 62.1445 102.05 61.6083 102.272C61.072 102.494 60.5848 102.82 60.1743 103.23C59.7639 103.641 59.4383 104.128 59.2162 104.664C58.9941 105.2 58.8797 105.775 58.8797 106.356Z" fill="#E0AC00"/>
<path d="M20.3905 106.424C20.3905 107.602 20.8583 108.731 21.6909 109.564C22.5236 110.397 23.6529 110.864 24.8305 110.864C26.0081 110.864 27.1374 110.397 27.9701 109.564C28.8027 108.731 29.2705 107.602 29.2705 106.424C29.2705 105.247 28.8027 104.117 27.9701 103.285C27.1374 102.452 26.0081 101.984 24.8305 101.984C23.6529 101.984 22.5236 102.452 21.6909 103.285C20.8583 104.117 20.3905 105.247 20.3905 106.424Z" fill="#E0AC00"/>
<path d="M20.1 126.034C20.1 127.286 20.5973 128.487 21.4825 129.372C22.3677 130.257 23.5682 130.754 24.82 130.754C26.0719 130.754 27.2724 130.257 28.1576 129.372C29.0428 128.487 29.54 127.286 29.54 126.034C29.54 125.415 29.418 124.801 29.1807 124.228C28.9435 123.656 28.5959 123.135 28.1576 122.697C27.7193 122.259 27.199 121.911 26.6263 121.674C26.0536 121.437 25.4399 121.314 24.82 121.314C24.2002 121.314 23.5864 121.437 23.0138 121.674C22.4411 121.911 21.9208 122.259 21.4825 122.697C21.0442 123.135 20.6965 123.656 20.4593 124.228C20.2221 124.801 20.1 125.415 20.1 126.034Z" fill="#171717"/>
<path d="M99.8003 126.006C99.8003 127.196 100.273 128.338 101.115 129.181C101.957 130.023 103.099 130.496 104.29 130.496C105.481 130.496 106.623 130.023 107.465 129.181C108.307 128.338 108.78 127.196 108.78 126.006C108.78 125.416 108.664 124.832 108.438 124.287C108.213 123.743 107.882 123.248 107.465 122.831C107.048 122.414 106.553 122.083 106.009 121.857C105.464 121.632 104.88 121.516 104.29 121.516C103.701 121.516 103.117 121.632 102.572 121.857C102.027 122.083 101.532 122.414 101.115 122.831C100.698 123.248 100.368 123.743 100.142 124.287C99.9164 124.832 99.8003 125.416 99.8003 126.006Z" fill="#E0AC00"/>
<path d="M79.28 126.035C79.28 127.257 79.7657 128.43 80.6302 129.295C81.4948 130.159 82.6674 130.645 83.89 130.645C85.1126 130.645 86.2852 130.159 87.1498 129.295C88.0143 128.43 88.5 127.257 88.5 126.035C88.5 124.812 88.0143 123.64 87.1498 122.775C86.2852 121.91 85.1126 121.425 83.89 121.425C82.6674 121.425 81.4948 121.91 80.6302 122.775C79.7657 123.64 79.28 124.812 79.28 126.035Z" fill="#171717"/>
<path d="M58.9197 126.075C58.9197 127.242 59.3833 128.361 60.2085 129.186C61.0336 130.011 62.1528 130.475 63.3197 130.475C64.4867 130.475 65.6058 130.011 66.431 129.186C67.2562 128.361 67.7197 127.242 67.7197 126.075C67.7197 124.908 67.2562 123.789 66.431 122.964C65.6058 122.138 64.4867 121.675 63.3197 121.675C62.1528 121.675 61.0336 122.138 60.2085 122.964C59.3833 123.789 58.9197 124.908 58.9197 126.075Z" fill="#E0AC00"/>
<path d="M79.2103 145.705C79.2103 146.317 79.3308 146.923 79.565 147.488C79.7992 148.054 80.1424 148.567 80.5752 149C81.0079 149.433 81.5216 149.776 82.087 150.01C82.6523 150.244 83.2583 150.365 83.8703 150.365C84.4822 150.365 85.0882 150.244 85.6536 150.01C86.219 149.776 86.7327 149.433 87.1654 149C87.5981 148.567 87.9414 148.054 88.1756 147.488C88.4097 146.923 88.5303 146.317 88.5303 145.705C88.5303 145.093 88.4097 144.487 88.1756 143.922C87.9414 143.356 87.5981 142.843 87.1654 142.41C86.7327 141.977 86.219 141.634 85.6536 141.4C85.0882 141.165 84.4822 141.045 83.8703 141.045C82.6344 141.045 81.4491 141.536 80.5752 142.41C79.7012 143.284 79.2103 144.469 79.2103 145.705Z" fill="#171717"/>
<path d="M20.1302 145.765C20.1302 147.001 20.6212 148.187 21.4951 149.061C22.369 149.935 23.5543 150.425 24.7902 150.425C26.0261 150.425 27.2114 149.935 28.0853 149.061C28.9592 148.187 29.4502 147.001 29.4502 145.765C29.4502 144.53 28.9592 143.344 28.0853 142.47C27.2114 141.596 26.0261 141.105 24.7902 141.105C23.5543 141.105 22.369 141.596 21.4951 142.47C20.6212 143.344 20.1302 144.53 20.1302 145.765Z" fill="#171717"/>
<path d="M99.8198 145.795C99.8198 146.384 99.9359 146.968 100.162 147.513C100.387 148.058 100.718 148.553 101.135 148.97C101.552 149.387 102.047 149.717 102.592 149.943C103.136 150.169 103.72 150.285 104.31 150.285C104.899 150.285 105.483 150.169 106.028 149.943C106.573 149.717 107.068 149.387 107.485 148.97C107.902 148.553 108.232 148.058 108.458 147.513C108.684 146.968 108.8 146.384 108.8 145.795C108.8 144.604 108.327 143.462 107.485 142.62C106.643 141.778 105.501 141.305 104.31 141.305C103.119 141.305 101.977 141.778 101.135 142.62C100.293 143.462 99.8198 144.604 99.8198 145.795Z" fill="#E0AC00"/>
<path d="M58.93 145.734C58.93 146.313 59.0441 146.887 59.2657 147.422C59.4873 147.957 59.8122 148.443 60.2217 148.853C60.6312 149.262 61.1173 149.587 61.6524 149.809C62.1874 150.03 62.7609 150.144 63.34 150.144C64.5096 150.144 65.6313 149.68 66.4583 148.853C67.2854 148.026 67.75 146.904 67.75 145.734C67.75 144.565 67.2854 143.443 66.4583 142.616C65.6313 141.789 64.5096 141.324 63.34 141.324C62.7609 141.324 62.1874 141.438 61.6524 141.66C61.1173 141.882 60.6312 142.206 60.2217 142.616C59.8122 143.025 59.4873 143.512 59.2657 144.047C59.0441 144.582 58.93 145.155 58.93 145.734Z" fill="#E0AC00"/>
<path d="M0.350197 145.105C0.350197 146.113 0.75055 147.079 1.46319 147.792C2.17583 148.504 3.14236 148.905 4.15018 148.905C5.15801 148.905 6.12456 148.504 6.8372 147.792C7.54983 147.079 7.9502 146.113 7.9502 145.105C7.9502 144.097 7.54983 143.13 6.8372 142.418C6.12456 141.705 5.15801 141.305 4.15018 141.305C3.14236 141.305 2.17583 141.705 1.46319 142.418C0.75055 143.13 0.350197 144.097 0.350197 145.105Z" fill="#171717"/>
<path d="M40.0496 145.374C40.0496 146.337 40.432 147.26 41.1128 147.941C41.7935 148.622 42.7168 149.004 43.6796 149.004C44.1563 149.004 44.6283 148.91 45.0687 148.728C45.5091 148.545 45.9093 148.278 46.2464 147.941C46.5834 147.604 46.8508 147.204 47.0333 146.763C47.2157 146.323 47.3096 145.851 47.3096 145.374C47.3096 144.897 47.2157 144.425 47.0333 143.985C46.8508 143.545 46.5834 143.144 46.2464 142.807C45.9093 142.47 45.5091 142.203 45.0687 142.02C44.6283 141.838 44.1563 141.744 43.6796 141.744C42.7168 141.744 41.7935 142.127 41.1128 142.807C40.432 143.488 40.0496 144.411 40.0496 145.374Z" fill="#E0AC00"/>
<path d="M79.1395 165.436C79.1395 166.049 79.2603 166.656 79.495 167.223C79.7297 167.789 80.0737 168.304 80.5073 168.738C80.941 169.171 81.4558 169.515 82.0224 169.75C82.589 169.985 83.1962 170.106 83.8095 170.106C84.4228 170.106 85.03 169.985 85.5966 169.75C86.1632 169.515 86.678 169.171 87.1117 168.738C87.5453 168.304 87.8893 167.789 88.124 167.223C88.3587 166.656 88.4795 166.049 88.4795 165.436C88.4795 164.197 87.9875 163.009 87.1117 162.133C86.2359 161.258 85.0481 160.766 83.8095 160.766C82.5709 160.766 81.3831 161.258 80.5073 162.133C79.6315 163.009 79.1395 164.197 79.1395 165.436Z" fill="#171717"/>
<path d="M58.6696 165.345C58.6696 166.557 59.1511 167.72 60.0081 168.577C60.8651 169.434 62.0275 169.915 63.2396 169.915C64.4516 169.915 65.614 169.434 66.4711 168.577C67.3281 167.72 67.8096 166.557 67.8096 165.345C67.8096 164.133 67.3281 162.971 66.4711 162.114C65.614 161.257 64.4516 160.775 63.2396 160.775C62.0275 160.775 60.8651 161.257 60.0081 162.114C59.1511 162.971 58.6696 164.133 58.6696 165.345Z" fill="#171717"/>
<path d="M20.1498 165.514C20.1498 166.755 20.6428 167.946 21.5205 168.823C22.3982 169.701 23.5886 170.194 24.8298 170.194C26.071 170.194 27.2614 169.701 28.139 168.823C29.0167 167.946 29.5098 166.755 29.5098 165.514C29.5098 164.273 29.0167 163.082 28.139 162.205C27.2614 161.327 26.071 160.834 24.8298 160.834C23.5886 160.834 22.3982 161.327 21.5205 162.205C20.6428 163.082 20.1498 164.273 20.1498 165.514Z" fill="#171717"/>
<path d="M99.8004 165.434C99.8004 166.636 100.278 167.788 101.127 168.637C101.977 169.487 103.129 169.964 104.33 169.964C105.532 169.964 106.684 169.487 107.534 168.637C108.383 167.788 108.86 166.636 108.86 165.434C108.86 164.839 108.743 164.25 108.516 163.701C108.288 163.151 107.954 162.652 107.534 162.231C107.113 161.81 106.614 161.477 106.064 161.249C105.514 161.021 104.925 160.904 104.33 160.904C103.735 160.904 103.146 161.021 102.597 161.249C102.047 161.477 101.548 161.81 101.127 162.231C100.707 162.652 100.373 163.151 100.145 163.701C99.9175 164.25 99.8004 164.839 99.8004 165.434Z" fill="#E0AC00"/>
<path d="M99.68 185.305C99.68 186.54 100.171 187.726 101.045 188.6C101.919 189.474 103.104 189.965 104.34 189.965C105.576 189.965 106.761 189.474 107.635 188.6C108.509 187.726 109 186.54 109 185.305C109 184.069 108.509 182.883 107.635 182.009C106.761 181.135 105.576 180.645 104.34 180.645C103.104 180.645 101.919 181.135 101.045 182.009C100.171 182.883 99.68 184.069 99.68 185.305Z" fill="#171717"/>
<path d="M79.2304 185.305C79.2304 186.549 79.7245 187.742 80.604 188.622C81.4836 189.501 82.6765 189.995 83.9204 189.995C85.1642 189.995 86.3571 189.501 87.2367 188.622C88.1162 187.742 88.6104 186.549 88.6104 185.305C88.6104 184.061 88.1162 182.868 87.2367 181.989C86.3571 181.109 85.1642 180.615 83.9204 180.615C82.6765 180.615 81.4836 181.109 80.604 181.989C79.7245 182.868 79.2304 184.061 79.2304 185.305Z" fill="#171717"/>
<path d="M20.1605 185.305C20.1605 185.92 20.2816 186.528 20.5167 187.096C20.7519 187.664 21.0967 188.18 21.5312 188.614C21.9658 189.049 22.4817 189.394 23.0495 189.629C23.6173 189.864 24.2259 189.985 24.8405 189.985C25.4551 189.985 26.0637 189.864 26.6315 189.629C27.1993 189.394 27.7152 189.049 28.1498 188.614C28.5843 188.18 28.9291 187.664 29.1643 187.096C29.3995 186.528 29.5205 185.92 29.5205 185.305C29.5205 184.69 29.3995 184.082 29.1643 183.514C28.9291 182.946 28.5843 182.43 28.1498 181.996C27.7152 181.561 27.1993 181.216 26.6315 180.981C26.0637 180.746 25.4551 180.625 24.8405 180.625C24.2259 180.625 23.6173 180.746 23.0495 180.981C22.4817 181.216 21.9658 181.561 21.5312 181.996C21.0967 182.43 20.7519 182.946 20.5167 183.514C20.2816 184.082 20.1605 184.69 20.1605 185.305Z" fill="#171717"/>
</g>
<defs>
<clipPath id="clip0_13604_5020">
<rect width="108.65" height="190" fill="white" transform="translate(0.350586)"/>
</clipPath>
</defs>
</svg>
