<svg width="79" height="190" viewBox="0 0 79 190" fill="none" xmlns="http://www.w3.org/2000/svg">
<g clip-path="url(#clip0_11_3607)">
<path d="M9.34004 185.35C9.34004 185.961 9.21976 186.565 8.98608 187.129C8.75239 187.694 8.40988 188.206 7.97808 188.638C7.54629 189.07 7.03368 189.412 6.46952 189.646C5.90535 189.88 5.30069 190 4.69004 190C3.45678 190 2.27404 189.51 1.40199 188.638C0.529949 187.766 0.0400391 186.583 0.0400391 185.35C0.0400391 184.117 0.529949 182.934 1.40199 182.062C2.27404 181.19 3.45678 180.7 4.69004 180.7C5.30069 180.7 5.90535 180.82 6.46952 181.054C7.03368 181.288 7.54629 181.63 7.97808 182.062C8.40988 182.494 8.75239 183.006 8.98608 183.571C9.21976 184.135 9.34004 184.739 9.34004 185.35Z" stroke="#001133" stroke-width="0.5"/>
<path d="M29.6201 185.31C29.6201 186.504 29.146 187.648 28.3021 188.492C27.4582 189.336 26.3136 189.81 25.1201 189.81C23.9266 189.81 22.7821 189.336 21.9381 188.492C21.0942 187.648 20.6201 186.504 20.6201 185.31C20.6201 184.117 21.0942 182.972 21.9381 182.128C22.7821 181.284 23.9266 180.81 25.1201 180.81C26.3136 180.81 27.4582 181.284 28.3021 182.128C29.146 182.972 29.6201 184.117 29.6201 185.31Z" stroke="#22C55E" stroke-width="0.5"/>
<path d="M50.1402 185.35C50.1402 186.541 49.6671 187.683 48.8251 188.525C47.983 189.367 46.841 189.84 45.6502 189.84C45.0605 189.84 44.4767 189.724 43.9319 189.499C43.3872 189.273 42.8922 188.942 42.4753 188.525C42.0583 188.108 41.7276 187.613 41.5019 187.069C41.2763 186.524 41.1602 185.94 41.1602 185.35C41.1602 184.761 41.2763 184.177 41.5019 183.632C41.7276 183.087 42.0583 182.592 42.4753 182.175C42.8922 181.758 43.3872 181.428 43.9319 181.202C44.4767 180.976 45.0605 180.86 45.6502 180.86C46.841 180.86 47.983 181.333 48.8251 182.175C49.6671 183.017 50.1402 184.16 50.1402 185.35Z" stroke="#22C55E" stroke-width="0.5"/>
<path d="M29.4298 165.74C29.4298 166.923 28.9599 168.057 28.1235 168.893C27.2871 169.73 26.1526 170.2 24.9698 170.2C23.7869 170.2 22.6525 169.73 21.8161 168.893C20.9797 168.057 20.5098 166.923 20.5098 165.74C20.5098 164.557 20.9797 163.422 21.8161 162.586C22.6525 161.75 23.7869 161.28 24.9698 161.28C26.1526 161.28 27.2871 161.75 28.1235 162.586C28.9599 163.422 29.4298 164.557 29.4298 165.74Z" stroke="#22C55E" stroke-width="0.5"/>
<path d="M50.0396 165.74C50.0396 166.324 49.9245 166.903 49.7009 167.443C49.4773 167.983 49.1495 168.473 48.7363 168.887C48.3231 169.3 47.8325 169.628 47.2926 169.851C46.7527 170.075 46.174 170.19 45.5896 170.19C44.4094 170.19 43.2776 169.721 42.443 168.887C41.6085 168.052 41.1396 166.92 41.1396 165.74C41.1396 164.56 41.6085 163.428 42.443 162.593C43.2776 161.759 44.4094 161.29 45.5896 161.29C46.174 161.29 46.7527 161.405 47.2926 161.629C47.8325 161.852 48.3231 162.18 48.7363 162.593C49.1495 163.007 49.4773 163.497 49.7009 164.037C49.9245 164.577 50.0396 165.156 50.0396 165.74Z" stroke="#22C55E" stroke-width="0.5"/>
<path d="M9.19051 165.66C9.19051 166.843 8.72062 167.977 7.8842 168.814C7.04779 169.65 5.91337 170.12 4.73051 170.12C3.54764 170.12 2.41322 169.65 1.57681 168.814C0.7404 167.977 0.270508 166.843 0.270508 165.66C0.270508 164.477 0.7404 163.343 1.57681 162.506C2.41322 161.67 3.54764 161.2 4.73051 161.2C5.91337 161.2 7.04779 161.67 7.8842 162.506C8.72062 163.343 9.19051 164.477 9.19051 165.66Z" stroke="#22C55E" stroke-width="0.5"/>
<path d="M68.89 165.7C68.89 166.663 68.5076 167.586 67.8268 168.267C67.146 168.948 66.2227 169.33 65.26 169.33C64.2973 169.33 63.374 168.948 62.6932 168.267C62.0124 167.586 61.63 166.663 61.63 165.7C61.63 164.737 62.0124 163.814 62.6932 163.133C63.374 162.453 64.2973 162.07 65.26 162.07C66.2227 162.07 67.146 162.453 67.8268 163.133C68.5076 163.814 68.89 164.737 68.89 165.7Z" stroke="#22C55E" stroke-width="0.5"/>
<path d="M9.1602 146.22C9.1602 147.408 8.6882 148.547 7.84803 149.388C7.00787 150.228 5.86836 150.7 4.68019 150.7C3.49203 150.7 2.35252 150.228 1.51236 149.388C0.672195 148.547 0.200195 147.408 0.200195 146.22C0.200195 145.631 0.316073 145.049 0.541214 144.505C0.766355 143.962 1.09635 143.468 1.51236 143.052C1.92836 142.636 2.42223 142.306 2.96577 142.081C3.50931 141.856 4.09187 141.74 4.68019 141.74C5.26852 141.74 5.85108 141.856 6.39462 142.081C6.93816 142.306 7.43203 142.636 7.84803 143.052C8.26404 143.468 8.59403 143.962 8.81917 144.505C9.04431 145.049 9.1602 145.631 9.1602 146.22Z" stroke="#22C55E" stroke-width="0.5"/>
<path d="M29.68 146.19C29.68 147.413 29.1943 148.586 28.3297 149.45C27.4652 150.315 26.2926 150.8 25.07 150.8C23.8473 150.8 22.6747 150.315 21.8102 149.45C20.9457 148.586 20.46 147.413 20.46 146.19C20.46 144.968 20.9457 143.795 21.8102 142.931C22.6747 142.066 23.8473 141.58 25.07 141.58C26.2926 141.58 27.4652 142.066 28.3297 142.931C29.1943 143.795 29.68 144.968 29.68 146.19Z" stroke="#001133" stroke-width="0.5"/>
<path d="M50.1203 146.19C50.1203 146.77 50.0059 147.345 49.7838 147.881C49.5617 148.418 49.2361 148.905 48.8257 149.315C48.4152 149.726 47.928 150.051 47.3917 150.273C46.8555 150.496 46.2807 150.61 45.7003 150.61C44.528 150.61 43.4038 150.144 42.5749 149.315C41.7459 148.486 41.2803 147.362 41.2803 146.19C41.2803 145.609 41.3946 145.035 41.6167 144.498C41.8388 143.962 42.1644 143.475 42.5749 143.064C42.9853 142.654 43.4726 142.328 44.0088 142.106C44.5451 141.884 45.1198 141.77 45.7003 141.77C46.2807 141.77 46.8555 141.884 47.3917 142.106C47.928 142.328 48.4152 142.654 48.8257 143.064C49.2361 143.475 49.5617 143.962 49.7838 144.498C50.0059 145.035 50.1203 145.609 50.1203 146.19Z" stroke="#22C55E" stroke-width="0.5"/>
<path d="M9.19972 126.54C9.19972 127.129 9.08359 127.713 8.85795 128.258C8.6323 128.803 8.30157 129.298 7.88464 129.715C7.4677 130.132 6.97273 130.462 6.42797 130.688C5.88322 130.914 5.29936 131.03 4.70973 131.03C4.12009 131.03 3.53623 130.914 2.99148 130.688C2.44673 130.462 1.95175 130.132 1.53482 129.715C1.11788 129.298 0.78715 128.803 0.561506 128.258C0.335863 127.713 0.219727 127.129 0.219727 126.54C0.219727 125.349 0.692778 124.207 1.53482 123.365C2.37686 122.523 3.5189 122.05 4.70973 122.05C5.90055 122.05 7.0426 122.523 7.88464 123.365C8.72667 124.207 9.19972 125.349 9.19972 126.54Z" stroke="#22C55E" stroke-width="0.5"/>
<path d="M29.72 126.51C29.72 127.733 29.2343 128.905 28.3698 129.77C27.5052 130.634 26.3326 131.12 25.11 131.12C23.8874 131.12 22.7148 130.634 21.8502 129.77C20.9857 128.905 20.5 127.733 20.5 126.51C20.5 125.287 20.9857 124.115 21.8502 123.25C22.7148 122.386 23.8874 121.9 25.11 121.9C26.3326 121.9 27.5052 122.386 28.3698 123.25C29.2343 124.115 29.72 125.287 29.72 126.51Z" stroke="#001133" stroke-width="0.5"/>
<path d="M50.0803 126.47C50.0803 127.637 49.6167 128.756 48.7915 129.581C47.9664 130.407 46.8472 130.87 45.6803 130.87C44.5133 130.87 43.3942 130.407 42.569 129.581C41.7438 128.756 41.2803 127.637 41.2803 126.47C41.2803 125.303 41.7438 124.184 42.569 123.359C43.3942 122.534 44.5133 122.07 45.6803 122.07C46.8472 122.07 47.9664 122.534 48.7915 123.359C49.6167 124.184 50.0803 125.303 50.0803 126.47Z" stroke="#22C55E" stroke-width="0.5"/>
<path d="M29.7897 106.84C29.7897 108.076 29.2988 109.261 28.4248 110.135C27.5509 111.009 26.3656 111.5 25.1297 111.5C24.5178 111.5 23.9118 111.379 23.3464 111.145C22.781 110.911 22.2673 110.568 21.8346 110.135C21.4019 109.702 21.0586 109.189 20.8244 108.623C20.5903 108.058 20.4697 107.452 20.4697 106.84C20.4697 106.228 20.5903 105.622 20.8244 105.057C21.0586 104.491 21.4019 103.978 21.8346 103.545C22.2673 103.112 22.781 102.769 23.3464 102.535C23.9118 102.301 24.5178 102.18 25.1297 102.18C25.7417 102.18 26.3477 102.301 26.913 102.535C27.4784 102.769 27.9921 103.112 28.4248 103.545C28.8576 103.978 29.2008 104.491 29.435 105.057C29.6692 105.622 29.7897 106.228 29.7897 106.84Z" stroke="#001133" stroke-width="0.5"/>
<path d="M9.1802 106.75C9.1802 107.941 8.70714 109.083 7.8651 109.925C7.02307 110.767 5.88102 111.24 4.6902 111.24C3.49937 111.24 2.35732 110.767 1.51529 109.925C0.673247 109.083 0.200195 107.941 0.200195 106.75C0.200195 106.16 0.316333 105.576 0.541977 105.031C0.767621 104.487 1.09835 103.992 1.51529 103.575C1.93222 103.158 2.42719 102.827 2.97195 102.602C3.5167 102.376 4.10056 102.26 4.6902 102.26C5.27983 102.26 5.86369 102.376 6.40844 102.602C6.9532 102.827 7.44817 103.158 7.8651 103.575C8.28204 103.992 8.61277 104.487 8.83842 105.031C9.06406 105.576 9.1802 106.16 9.1802 106.75Z" stroke="#22C55E" stroke-width="0.5"/>
<path d="M50.07 106.81C50.07 107.389 49.9559 107.963 49.7343 108.498C49.5127 109.033 49.1878 109.519 48.7783 109.929C48.3688 110.338 47.8827 110.663 47.3476 110.885C46.8126 111.106 46.2391 111.22 45.66 111.22C44.4904 111.22 43.3687 110.756 42.5417 109.929C41.7146 109.102 41.25 107.98 41.25 106.81C41.25 105.641 41.7146 104.519 42.5417 103.692C43.3687 102.865 44.4904 102.4 45.66 102.4C46.2391 102.4 46.8126 102.514 47.3476 102.736C47.8827 102.958 48.3688 103.282 48.7783 103.692C49.1878 104.101 49.5127 104.588 49.7343 105.123C49.9559 105.658 50.07 106.231 50.07 106.81Z" stroke="#22C55E" stroke-width="0.5"/>
<path d="M68.9504 107.17C68.9504 108.133 68.568 109.056 67.8872 109.737C67.2065 110.418 66.2832 110.8 65.3204 110.8C64.8437 110.8 64.3717 110.706 63.9313 110.524C63.4909 110.342 63.0907 110.074 62.7536 109.737C62.4166 109.4 62.1492 109 61.9667 108.559C61.7843 108.119 61.6904 107.647 61.6904 107.17C61.6904 106.694 61.7843 106.222 61.9667 105.781C62.1492 105.341 62.4166 104.941 62.7536 104.603C63.0907 104.266 63.4909 103.999 63.9313 103.817C64.3717 103.634 64.8437 103.54 65.3204 103.54C66.2832 103.54 67.2065 103.923 67.8872 104.603C68.568 105.284 68.9504 106.208 68.9504 107.17Z" stroke="#22C55E" stroke-width="0.5"/>
<path d="M29.8605 87.1098C29.8605 88.3483 29.3685 89.5362 28.4927 90.412C27.6169 91.2878 26.4291 91.7798 25.1905 91.7798C23.9519 91.7798 22.7641 91.2878 21.8883 90.412C21.0125 89.5362 20.5205 88.3483 20.5205 87.1098C20.5205 86.4965 20.6413 85.8892 20.876 85.3227C21.1107 84.7561 21.4547 84.2412 21.8883 83.8076C22.322 83.3739 22.8368 83.03 23.4034 82.7953C23.97 82.5606 24.5772 82.4398 25.1905 82.4398C25.8038 82.4398 26.411 82.5606 26.9776 82.7953C27.5442 83.03 28.059 83.3739 28.4927 83.8076C28.9263 84.2412 29.2703 84.7561 29.505 85.3227C29.7397 85.8892 29.8605 86.4965 29.8605 87.1098Z" stroke="#001133" stroke-width="0.5"/>
<path d="M50.3304 87.2C50.3304 88.4121 49.8489 89.5745 48.9919 90.4315C48.1349 91.2885 46.9725 91.77 45.7604 91.77C44.5484 91.77 43.386 91.2885 42.5289 90.4315C41.6719 89.5745 41.1904 88.4121 41.1904 87.2C41.1904 85.988 41.6719 84.8256 42.5289 83.9685C43.386 83.1115 44.5484 82.63 45.7604 82.63C46.9725 82.63 48.1349 83.1115 48.9919 83.9685C49.8489 84.8256 50.3304 85.988 50.3304 87.2Z" stroke="#001133" stroke-width="0.5"/>
<path d="M9.19965 87.1101C9.19965 87.705 9.08247 88.2941 8.85482 88.8437C8.62717 89.3933 8.29349 89.8927 7.87284 90.3133C7.45219 90.734 6.95281 91.0677 6.4032 91.2953C5.8536 91.523 5.26454 91.6401 4.66965 91.6401C4.07476 91.6401 3.4857 91.523 2.93609 91.2953C2.38649 91.0677 1.8871 90.734 1.46645 90.3133C1.0458 89.8927 0.712128 89.3933 0.484474 88.8437C0.25682 88.2941 0.139648 87.705 0.139648 87.1101C0.139648 85.9087 0.616914 84.7565 1.46645 83.907C2.31599 83.0574 3.46822 82.5801 4.66965 82.5801C5.87108 82.5801 7.0233 83.0574 7.87284 83.907C8.72238 84.7565 9.19965 85.9087 9.19965 87.1101Z" stroke="#22C55E" stroke-width="0.5"/>
<path d="M9.32 67.2399C9.32 68.4758 8.82904 69.6611 7.95512 70.535C7.0812 71.4089 5.89591 71.8999 4.66 71.8999C3.42409 71.8999 2.2388 71.4089 1.36488 70.535C0.490964 69.6611 0 68.4758 0 67.2399C0 66.004 0.490964 64.8187 1.36488 63.9448C2.2388 63.0709 3.42409 62.5799 4.66 62.5799C5.89591 62.5799 7.0812 63.0709 7.95512 63.9448C8.82904 64.8187 9.32 66.004 9.32 67.2399Z" stroke="#001133" stroke-width="0.5"/>
<path d="M29.7696 67.2402C29.7696 68.484 29.2755 69.677 28.396 70.5565C27.5164 71.436 26.3235 71.9302 25.0796 71.9302C23.8358 71.9302 22.6429 71.436 21.7633 70.5565C20.8838 69.677 20.3896 68.484 20.3896 67.2402C20.3896 65.9963 20.8838 64.8034 21.7633 63.9238C22.6429 63.0443 23.8358 62.5502 25.0796 62.5502C26.3235 62.5502 27.5164 63.0443 28.396 63.9238C29.2755 64.8034 29.7696 65.9963 29.7696 67.2402Z" stroke="#001133" stroke-width="0.5"/>
<path d="M9.34004 185.35C9.34004 184.739 9.21976 184.135 8.98608 183.571C8.75239 183.006 8.40988 182.494 7.97808 182.062C7.54629 181.63 7.03368 181.288 6.46952 181.054C5.90535 180.82 5.30069 180.7 4.69004 180.7C3.45678 180.7 2.27404 181.19 1.40199 182.062C0.529949 182.934 0.0400391 184.117 0.0400391 185.35C0.0400391 186.583 0.529949 187.766 1.40199 188.638C2.27404 189.51 3.45678 190 4.69004 190C5.30069 190 5.90535 189.88 6.46952 189.646C7.03368 189.412 7.54629 189.07 7.97808 188.638C8.40988 188.206 8.75239 187.694 8.98608 187.129C9.21976 186.565 9.34004 185.961 9.34004 185.35Z" fill="#001133"/>
<path d="M29.62 185.31C29.62 184.117 29.1459 182.972 28.302 182.128C27.4581 181.284 26.3135 180.81 25.12 180.81C23.9265 180.81 22.7819 181.284 21.938 182.128C21.0941 182.972 20.62 184.117 20.62 185.31C20.62 186.504 21.0941 187.648 21.938 188.492C22.7819 189.336 23.9265 189.81 25.12 189.81C26.3135 189.81 27.4581 189.336 28.302 188.492C29.1459 187.648 29.62 186.504 29.62 185.31Z" fill="#22C55E"/>
<path d="M50.1402 185.35C50.1402 184.16 49.6671 183.017 48.8251 182.175C47.983 181.333 46.841 180.86 45.6502 180.86C45.0605 180.86 44.4767 180.976 43.9319 181.202C43.3872 181.428 42.8922 181.758 42.4753 182.175C42.0583 182.592 41.7276 183.087 41.5019 183.632C41.2763 184.177 41.1602 184.761 41.1602 185.35C41.1602 185.94 41.2763 186.524 41.5019 187.069C41.7276 187.613 42.0583 188.108 42.4753 188.525C42.8922 188.942 43.3872 189.273 43.9319 189.499C44.4767 189.724 45.0605 189.84 45.6502 189.84C46.841 189.84 47.983 189.367 48.8251 188.525C49.6671 187.683 50.1402 186.541 50.1402 185.35Z" fill="#22C55E"/>
<path d="M29.4298 165.74C29.4298 164.557 28.9599 163.422 28.1235 162.586C27.2871 161.75 26.1526 161.28 24.9698 161.28C23.7869 161.28 22.6525 161.75 21.8161 162.586C20.9797 163.422 20.5098 164.557 20.5098 165.74C20.5098 166.923 20.9797 168.057 21.8161 168.893C22.6525 169.73 23.7869 170.2 24.9698 170.2C26.1526 170.2 27.2871 169.73 28.1235 168.893C28.9599 168.057 29.4298 166.923 29.4298 165.74Z" fill="#22C55E"/>
<path d="M50.0396 165.74C50.0396 165.156 49.9245 164.577 49.7009 164.037C49.4773 163.497 49.1495 163.007 48.7363 162.593C48.3231 162.18 47.8325 161.852 47.2926 161.629C46.7527 161.405 46.174 161.29 45.5896 161.29C44.4094 161.29 43.2776 161.759 42.443 162.593C41.6085 163.428 41.1396 164.56 41.1396 165.74C41.1396 166.92 41.6085 168.052 42.443 168.887C43.2776 169.721 44.4094 170.19 45.5896 170.19C46.174 170.19 46.7527 170.075 47.2926 169.851C47.8325 169.628 48.3231 169.3 48.7363 168.887C49.1495 168.473 49.4773 167.983 49.7009 167.443C49.9245 166.903 50.0396 166.324 50.0396 165.74Z" fill="#22C55E"/>
<path d="M9.19051 165.66C9.19051 164.477 8.72062 163.343 7.8842 162.506C7.04779 161.67 5.91337 161.2 4.73051 161.2C3.54764 161.2 2.41322 161.67 1.57681 162.506C0.7404 163.343 0.270508 164.477 0.270508 165.66C0.270508 166.843 0.7404 167.977 1.57681 168.814C2.41322 169.65 3.54764 170.12 4.73051 170.12C5.91337 170.12 7.04779 169.65 7.8842 168.814C8.72062 167.977 9.19051 166.843 9.19051 165.66Z" fill="#22C55E"/>
<path d="M68.89 165.7C68.89 164.737 68.5076 163.814 67.8268 163.133C67.146 162.453 66.2227 162.07 65.26 162.07C64.2973 162.07 63.374 162.453 62.6932 163.133C62.0124 163.814 61.63 164.737 61.63 165.7C61.63 166.663 62.0124 167.586 62.6932 168.267C63.374 168.948 64.2973 169.33 65.26 169.33C66.2227 169.33 67.146 168.948 67.8268 168.267C68.5076 167.586 68.89 166.663 68.89 165.7Z" fill="#22C55E"/>
<path d="M9.1602 146.22C9.1602 145.631 9.04431 145.049 8.81917 144.505C8.59403 143.962 8.26404 143.468 7.84803 143.052C7.43203 142.636 6.93816 142.306 6.39462 142.081C5.85108 141.856 5.26852 141.74 4.68019 141.74C4.09187 141.74 3.50931 141.856 2.96577 142.081C2.42223 142.306 1.92836 142.636 1.51236 143.052C1.09635 143.468 0.766355 143.962 0.541214 144.505C0.316073 145.049 0.200195 145.631 0.200195 146.22C0.200195 147.408 0.672195 148.547 1.51236 149.388C2.35252 150.228 3.49203 150.7 4.68019 150.7C5.86836 150.7 7.00787 150.228 7.84803 149.388C8.6882 148.547 9.1602 147.408 9.1602 146.22Z" fill="#22C55E"/>
<path d="M29.68 146.19C29.68 144.968 29.1943 143.795 28.3297 142.931C27.4652 142.066 26.2926 141.58 25.07 141.58C23.8473 141.58 22.6747 142.066 21.8102 142.931C20.9457 143.795 20.46 144.968 20.46 146.19C20.46 147.413 20.9457 148.586 21.8102 149.45C22.6747 150.315 23.8473 150.8 25.07 150.8C26.2926 150.8 27.4652 150.315 28.3297 149.45C29.1943 148.586 29.68 147.413 29.68 146.19Z" fill="#001133"/>
<path d="M50.1203 146.19C50.1203 145.609 50.0059 145.035 49.7838 144.498C49.5617 143.962 49.2361 143.475 48.8257 143.064C48.4152 142.654 47.928 142.328 47.3917 142.106C46.8555 141.884 46.2807 141.77 45.7003 141.77C45.1198 141.77 44.5451 141.884 44.0088 142.106C43.4726 142.328 42.9853 142.654 42.5749 143.064C42.1644 143.475 41.8388 143.962 41.6167 144.498C41.3946 145.035 41.2803 145.609 41.2803 146.19C41.2803 147.362 41.7459 148.486 42.5749 149.315C43.4038 150.144 44.528 150.61 45.7003 150.61C46.2807 150.61 46.8555 150.496 47.3917 150.273C47.928 150.051 48.4152 149.726 48.8257 149.315C49.2361 148.905 49.5617 148.418 49.7838 147.881C50.0059 147.345 50.1203 146.77 50.1203 146.19Z" fill="#22C55E"/>
<path d="M9.19972 126.54C9.19972 125.349 8.72667 124.207 7.88464 123.365C7.0426 122.523 5.90055 122.05 4.70973 122.05C3.5189 122.05 2.37686 122.523 1.53482 123.365C0.692778 124.207 0.219727 125.349 0.219727 126.54C0.219727 127.129 0.335863 127.713 0.561506 128.258C0.78715 128.803 1.11788 129.298 1.53482 129.715C1.95175 130.132 2.44673 130.462 2.99148 130.688C3.53623 130.914 4.12009 131.03 4.70973 131.03C5.29936 131.03 5.88322 130.914 6.42797 130.688C6.97273 130.462 7.4677 130.132 7.88464 129.715C8.30157 129.298 8.6323 128.803 8.85795 128.258C9.08359 127.713 9.19972 127.129 9.19972 126.54Z" fill="#22C55E"/>
<path d="M29.72 126.51C29.72 125.287 29.2343 124.115 28.3698 123.25C27.5052 122.386 26.3326 121.9 25.11 121.9C23.8874 121.9 22.7148 122.386 21.8502 123.25C20.9857 124.115 20.5 125.287 20.5 126.51C20.5 127.733 20.9857 128.905 21.8502 129.77C22.7148 130.634 23.8874 131.12 25.11 131.12C26.3326 131.12 27.5052 130.634 28.3698 129.77C29.2343 128.905 29.72 127.733 29.72 126.51Z" fill="#001133"/>
<path d="M50.0803 126.47C50.0803 125.303 49.6167 124.184 48.7915 123.359C47.9664 122.534 46.8472 122.07 45.6803 122.07C44.5133 122.07 43.3942 122.534 42.569 123.359C41.7438 124.184 41.2803 125.303 41.2803 126.47C41.2803 127.637 41.7438 128.756 42.569 129.581C43.3942 130.407 44.5133 130.87 45.6803 130.87C46.8472 130.87 47.9664 130.407 48.7915 129.581C49.6167 128.756 50.0803 127.637 50.0803 126.47Z" fill="#22C55E"/>
<path d="M29.7897 106.84C29.7897 106.228 29.6692 105.622 29.435 105.057C29.2008 104.491 28.8576 103.978 28.4248 103.545C27.9921 103.112 27.4784 102.769 26.913 102.535C26.3477 102.301 25.7417 102.18 25.1297 102.18C24.5178 102.18 23.9118 102.301 23.3464 102.535C22.781 102.769 22.2673 103.112 21.8346 103.545C21.4019 103.978 21.0586 104.491 20.8244 105.057C20.5903 105.622 20.4697 106.228 20.4697 106.84C20.4697 107.452 20.5903 108.058 20.8244 108.623C21.0586 109.189 21.4019 109.702 21.8346 110.135C22.2673 110.568 22.781 110.911 23.3464 111.145C23.9118 111.379 24.5178 111.5 25.1297 111.5C26.3656 111.5 27.5509 111.009 28.4248 110.135C29.2988 109.261 29.7897 108.076 29.7897 106.84Z" fill="#001133"/>
<path d="M9.1802 106.75C9.1802 106.16 9.06406 105.576 8.83842 105.031C8.61277 104.487 8.28204 103.992 7.8651 103.575C7.44817 103.158 6.9532 102.827 6.40844 102.602C5.86369 102.376 5.27983 102.26 4.6902 102.26C4.10056 102.26 3.5167 102.376 2.97195 102.602C2.42719 102.827 1.93222 103.158 1.51529 103.575C1.09835 103.992 0.767621 104.487 0.541977 105.031C0.316333 105.576 0.200195 106.16 0.200195 106.75C0.200195 107.941 0.673247 109.083 1.51529 109.925C2.35732 110.767 3.49937 111.24 4.6902 111.24C5.88102 111.24 7.02307 110.767 7.8651 109.925C8.70714 109.083 9.1802 107.941 9.1802 106.75Z" fill="#22C55E"/>
<path d="M50.07 106.81C50.07 106.231 49.9559 105.658 49.7343 105.123C49.5127 104.588 49.1878 104.101 48.7783 103.692C48.3688 103.282 47.8827 102.958 47.3476 102.736C46.8126 102.514 46.2391 102.4 45.66 102.4C44.4904 102.4 43.3687 102.865 42.5417 103.692C41.7146 104.519 41.25 105.641 41.25 106.81C41.25 107.98 41.7146 109.102 42.5417 109.929C43.3687 110.756 44.4904 111.22 45.66 111.22C46.2391 111.22 46.8126 111.106 47.3476 110.885C47.8827 110.663 48.3688 110.338 48.7783 109.929C49.1878 109.519 49.5127 109.033 49.7343 108.498C49.9559 107.963 50.07 107.389 50.07 106.81Z" fill="#22C55E"/>
<path d="M68.9504 107.17C68.9504 106.208 68.568 105.284 67.8872 104.603C67.2065 103.923 66.2832 103.54 65.3204 103.54C64.8437 103.54 64.3717 103.634 63.9313 103.817C63.4909 103.999 63.0907 104.266 62.7536 104.603C62.4166 104.941 62.1492 105.341 61.9667 105.781C61.7843 106.222 61.6904 106.694 61.6904 107.17C61.6904 107.647 61.7843 108.119 61.9667 108.559C62.1492 109 62.4166 109.4 62.7536 109.737C63.0907 110.074 63.4909 110.342 63.9313 110.524C64.3717 110.706 64.8437 110.8 65.3204 110.8C66.2832 110.8 67.2065 110.418 67.8872 109.737C68.568 109.056 68.9504 108.133 68.9504 107.17Z" fill="#22C55E"/>
<path d="M29.8605 87.1098C29.8605 86.4965 29.7397 85.8892 29.505 85.3227C29.2703 84.7561 28.9263 84.2412 28.4927 83.8076C28.059 83.3739 27.5442 83.03 26.9776 82.7953C26.411 82.5606 25.8038 82.4398 25.1905 82.4398C24.5772 82.4398 23.97 82.5606 23.4034 82.7953C22.8368 83.03 22.322 83.3739 21.8883 83.8076C21.4547 84.2412 21.1107 84.7561 20.876 85.3227C20.6413 85.8892 20.5205 86.4965 20.5205 87.1098C20.5205 88.3483 21.0125 89.5362 21.8883 90.412C22.7641 91.2878 23.9519 91.7798 25.1905 91.7798C26.4291 91.7798 27.6169 91.2878 28.4927 90.412C29.3685 89.5362 29.8605 88.3483 29.8605 87.1098Z" fill="#001133"/>
<path d="M50.3304 87.2C50.3304 85.988 49.8489 84.8256 48.9919 83.9685C48.1349 83.1115 46.9725 82.63 45.7604 82.63C44.5484 82.63 43.386 83.1115 42.5289 83.9685C41.6719 84.8256 41.1904 85.988 41.1904 87.2C41.1904 88.4121 41.6719 89.5745 42.5289 90.4315C43.386 91.2885 44.5484 91.77 45.7604 91.77C46.9725 91.77 48.1349 91.2885 48.9919 90.4315C49.8489 89.5745 50.3304 88.4121 50.3304 87.2Z" fill="#001133"/>
<path d="M9.19965 87.1101C9.19965 85.9087 8.72238 84.7565 7.87284 83.907C7.0233 83.0574 5.87108 82.5801 4.66965 82.5801C3.46822 82.5801 2.31599 83.0574 1.46645 83.907C0.616914 84.7565 0.139648 85.9087 0.139648 87.1101C0.139648 87.705 0.25682 88.2941 0.484474 88.8437C0.712128 89.3933 1.0458 89.8927 1.46645 90.3133C1.8871 90.734 2.38649 91.0677 2.93609 91.2953C3.4857 91.523 4.07476 91.6401 4.66965 91.6401C5.26454 91.6401 5.8536 91.523 6.4032 91.2953C6.95281 91.0677 7.45219 90.734 7.87284 90.3133C8.29349 89.8927 8.62717 89.3933 8.85482 88.8437C9.08247 88.2941 9.19965 87.705 9.19965 87.1101Z" fill="#22C55E"/>
<path d="M9.32 67.2399C9.32 66.004 8.82904 64.8187 7.95512 63.9448C7.0812 63.0709 5.89591 62.5799 4.66 62.5799C3.42409 62.5799 2.2388 63.0709 1.36488 63.9448C0.490964 64.8187 0 66.004 0 67.2399C0 68.4758 0.490964 69.6611 1.36488 70.535C2.2388 71.4089 3.42409 71.8999 4.66 71.8999C5.89591 71.8999 7.0812 71.4089 7.95512 70.535C8.82904 69.6611 9.32 68.4758 9.32 67.2399Z" fill="#001133"/>
<path d="M29.7696 67.2402C29.7696 65.9963 29.2755 64.8034 28.396 63.9238C27.5164 63.0443 26.3235 62.5502 25.0796 62.5502C23.8358 62.5502 22.6429 63.0443 21.7633 63.9238C20.8838 64.8034 20.3896 65.9963 20.3896 67.2402C20.3896 68.484 20.8838 69.677 21.7633 70.5565C22.6429 71.436 23.8358 71.9302 25.0796 71.9302C26.3235 71.9302 27.5164 71.436 28.396 70.5565C29.2755 69.677 29.7696 68.484 29.7696 67.2402Z" fill="#001133"/>
<path d="M9.34004 45.9003C9.34004 46.5109 9.21976 47.1156 8.98608 47.6798C8.75239 48.2439 8.40988 48.7565 7.97808 49.1883C7.54629 49.6201 7.03368 49.9626 6.46952 50.1963C5.90535 50.43 5.30069 50.5503 4.69004 50.5503C3.45678 50.5503 2.27404 50.0604 1.40199 49.1883C0.529949 48.3163 0.0400391 47.1335 0.0400391 45.9003C0.0400391 44.667 0.529949 43.4843 1.40199 42.6122C2.27404 41.7402 3.45678 41.2503 4.69004 41.2503C5.30069 41.2503 5.90535 41.3706 6.46952 41.6043C7.03368 41.8379 7.54629 42.1805 7.97808 42.6122C8.40988 43.044 8.75239 43.5566 8.98608 44.1208C9.21976 44.685 9.34004 45.2896 9.34004 45.9003Z" stroke="#001133" stroke-width="0.5"/>
<path d="M29.6201 45.8604C29.6201 47.0538 29.146 48.1984 28.3021 49.0423C27.4582 49.8862 26.3136 50.3604 25.1201 50.3604C23.9266 50.3604 22.7821 49.8862 21.9381 49.0423C21.0942 48.1984 20.6201 47.0538 20.6201 45.8604C20.6201 44.6669 21.0942 43.5223 21.9381 42.6784C22.7821 41.8345 23.9266 41.3603 25.1201 41.3603C26.3136 41.3603 27.4582 41.8345 28.3021 42.6784C29.146 43.5223 29.6201 44.6669 29.6201 45.8604Z" stroke="#22C55E" stroke-width="0.5"/>
<path d="M50.1402 45.9006C50.1402 47.0914 49.6671 48.2335 48.8251 49.0755C47.983 49.9176 46.841 50.3906 45.6502 50.3906C45.0605 50.3906 44.4767 50.2745 43.9319 50.0488C43.3872 49.8232 42.8922 49.4925 42.4753 49.0755C42.0583 48.6586 41.7276 48.1636 41.5019 47.6189C41.2763 47.0741 41.1602 46.4903 41.1602 45.9006C41.1602 45.311 41.2763 44.7271 41.5019 44.1824C41.7276 43.6376 42.0583 43.1427 42.4753 42.7257C42.8922 42.3088 43.3872 41.978 43.9319 41.7524C44.4767 41.5268 45.0605 41.4106 45.6502 41.4106C46.841 41.4106 47.983 41.8837 48.8251 42.7257C49.6671 43.5678 50.1402 44.7098 50.1402 45.9006Z" stroke="#22C55E" stroke-width="0.5"/>
<path d="M29.4298 26.29C29.4298 27.4729 28.9599 28.6073 28.1235 29.4437C27.2871 30.2801 26.1526 30.75 24.9698 30.75C23.7869 30.75 22.6525 30.2801 21.8161 29.4437C20.9797 28.6073 20.5098 27.4729 20.5098 26.29C20.5098 25.1071 20.9797 23.9727 21.8161 23.1363C22.6525 22.2999 23.7869 21.83 24.9698 21.83C26.1526 21.83 27.2871 22.2999 28.1235 23.1363C28.9599 23.9727 29.4298 25.1071 29.4298 26.29Z" stroke="#22C55E" stroke-width="0.5"/>
<path d="M50.0396 26.2902C50.0396 26.8746 49.9245 27.4533 49.7009 27.9932C49.4773 28.5331 49.1495 29.0236 48.7363 29.4369C48.3231 29.8501 47.8325 30.1779 47.2926 30.4015C46.7527 30.6251 46.174 30.7402 45.5896 30.7402C44.4094 30.7402 43.2776 30.2714 42.443 29.4369C41.6085 28.6023 41.1396 27.4704 41.1396 26.2902C41.1396 25.11 41.6085 23.9781 42.443 23.1436C43.2776 22.3091 44.4094 21.8402 45.5896 21.8402C46.174 21.8402 46.7527 21.9553 47.2926 22.179C47.8325 22.4026 48.3231 22.7304 48.7363 23.1436C49.1495 23.5568 49.4773 24.0474 49.7009 24.5873C49.9245 25.1272 50.0396 25.7059 50.0396 26.2902Z" stroke="#22C55E" stroke-width="0.5"/>
<path d="M9.19051 26.2104C9.19051 27.3933 8.72062 28.5277 7.8842 29.3641C7.04779 30.2005 5.91337 30.6704 4.73051 30.6704C3.54764 30.6704 2.41322 30.2005 1.57681 29.3641C0.7404 28.5277 0.270508 27.3933 0.270508 26.2104C0.270508 25.0275 0.7404 23.8931 1.57681 23.0567C2.41322 22.2203 3.54764 21.7504 4.73051 21.7504C5.91337 21.7504 7.04779 22.2203 7.8842 23.0567C8.72062 23.8931 9.19051 25.0275 9.19051 26.2104Z" stroke="#22C55E" stroke-width="0.5"/>
<path d="M68.89 26.2504C68.89 27.2131 68.5076 28.1364 67.8268 28.8172C67.146 29.4979 66.2227 29.8804 65.26 29.8804C64.2973 29.8804 63.374 29.4979 62.6932 28.8172C62.0124 28.1364 61.63 27.2131 61.63 26.2504C61.63 25.2876 62.0124 24.3643 62.6932 23.6836C63.374 23.0028 64.2973 22.6204 65.26 22.6204C66.2227 22.6204 67.146 23.0028 67.8268 23.6836C68.5076 24.3643 68.89 25.2876 68.89 26.2504Z" stroke="#22C55E" stroke-width="0.5"/>
<path d="M9.1602 6.77C9.1602 7.95817 8.6882 9.09767 7.84803 9.93784C7.00787 10.778 5.86836 11.25 4.68019 11.25C3.49203 11.25 2.35252 10.778 1.51236 9.93784C0.672195 9.09767 0.200195 7.95817 0.200195 6.77C0.200195 6.18167 0.316073 5.59912 0.541214 5.05558C0.766355 4.51204 1.09635 4.01816 1.51236 3.60216C1.92836 3.18615 2.42223 2.85616 2.96577 2.63102C3.50931 2.40588 4.09187 2.29 4.68019 2.29C5.26852 2.29 5.85108 2.40588 6.39462 2.63102C6.93816 2.85616 7.43203 3.18615 7.84803 3.60216C8.26404 4.01816 8.59403 4.51204 8.81917 5.05558C9.04431 5.59912 9.1602 6.18167 9.1602 6.77Z" stroke="#22C55E" stroke-width="0.5"/>
<path d="M29.68 6.74059C29.68 7.96323 29.1943 9.13581 28.3297 10.0004C27.4652 10.8649 26.2926 11.3506 25.07 11.3506C23.8473 11.3506 22.6747 10.8649 21.8102 10.0004C20.9457 9.13581 20.46 7.96323 20.46 6.74059C20.46 5.51794 20.9457 4.34537 21.8102 3.48083C22.6747 2.61628 23.8473 2.13058 25.07 2.13058C26.2926 2.13058 27.4652 2.61628 28.3297 3.48083C29.1943 4.34537 29.68 5.51794 29.68 6.74059Z" stroke="#001133" stroke-width="0.5"/>
<path d="M50.1203 6.74015C50.1203 7.3206 50.0059 7.89535 49.7838 8.43161C49.5617 8.96787 49.2361 9.45513 48.8257 9.86557C48.4152 10.276 47.928 10.6016 47.3917 10.8237C46.8555 11.0458 46.2807 11.1602 45.7003 11.1602C44.528 11.1602 43.4038 10.6945 42.5749 9.86557C41.7459 9.03666 41.2803 7.91241 41.2803 6.74015C41.2803 6.15971 41.3946 5.58495 41.6167 5.04869C41.8388 4.51244 42.1644 4.02518 42.5749 3.61474C42.9853 3.20431 43.4726 2.87873 44.0088 2.6566C44.5451 2.43448 45.1198 2.32016 45.7003 2.32016C46.2807 2.32016 46.8555 2.43448 47.3917 2.6566C47.928 2.87873 48.4152 3.20431 48.8257 3.61474C49.2361 4.02518 49.5617 4.51244 49.7838 5.04869C50.0059 5.58495 50.1203 6.15971 50.1203 6.74015Z" stroke="#22C55E" stroke-width="0.5"/>
<path d="M9.34004 45.9003C9.34004 45.2896 9.21976 44.685 8.98608 44.1208C8.75239 43.5566 8.40988 43.044 7.97808 42.6122C7.54629 42.1805 7.03368 41.8379 6.46952 41.6043C5.90535 41.3706 5.30069 41.2503 4.69004 41.2503C3.45678 41.2503 2.27404 41.7402 1.40199 42.6122C0.529949 43.4843 0.0400391 44.667 0.0400391 45.9003C0.0400391 47.1335 0.529949 48.3163 1.40199 49.1883C2.27404 50.0604 3.45678 50.5503 4.69004 50.5503C5.30069 50.5503 5.90535 50.43 6.46952 50.1963C7.03368 49.9626 7.54629 49.6201 7.97808 49.1883C8.40988 48.7565 8.75239 48.2439 8.98608 47.6798C9.21976 47.1156 9.34004 46.5109 9.34004 45.9003Z" fill="#001133"/>
<path d="M29.62 45.8604C29.62 44.6669 29.1459 43.5223 28.302 42.6784C27.4581 41.8345 26.3135 41.3603 25.12 41.3603C23.9265 41.3603 22.7819 41.8345 21.938 42.6784C21.0941 43.5223 20.62 44.6669 20.62 45.8604C20.62 47.0538 21.0941 48.1984 21.938 49.0423C22.7819 49.8862 23.9265 50.3604 25.12 50.3604C26.3135 50.3604 27.4581 49.8862 28.302 49.0423C29.1459 48.1984 29.62 47.0538 29.62 45.8604Z" fill="#22C55E"/>
<path d="M50.1402 45.9006C50.1402 44.7098 49.6671 43.5678 48.8251 42.7257C47.983 41.8837 46.841 41.4106 45.6502 41.4106C45.0605 41.4106 44.4767 41.5268 43.9319 41.7524C43.3872 41.978 42.8922 42.3088 42.4753 42.7257C42.0583 43.1427 41.7276 43.6376 41.5019 44.1824C41.2763 44.7271 41.1602 45.311 41.1602 45.9006C41.1602 46.4903 41.2763 47.0741 41.5019 47.6189C41.7276 48.1636 42.0583 48.6586 42.4753 49.0755C42.8922 49.4925 43.3872 49.8232 43.9319 50.0488C44.4767 50.2745 45.0605 50.3906 45.6502 50.3906C46.841 50.3906 47.983 49.9176 48.8251 49.0755C49.6671 48.2335 50.1402 47.0914 50.1402 45.9006Z" fill="#22C55E"/>
<path d="M29.4298 26.29C29.4298 25.1071 28.9599 23.9727 28.1235 23.1363C27.2871 22.2999 26.1526 21.83 24.9698 21.83C23.7869 21.83 22.6525 22.2999 21.8161 23.1363C20.9797 23.9727 20.5098 25.1071 20.5098 26.29C20.5098 27.4729 20.9797 28.6073 21.8161 29.4437C22.6525 30.2801 23.7869 30.75 24.9698 30.75C26.1526 30.75 27.2871 30.2801 28.1235 29.4437C28.9599 28.6073 29.4298 27.4729 29.4298 26.29Z" fill="#22C55E"/>
<path d="M50.0396 26.2902C50.0396 25.7059 49.9245 25.1272 49.7009 24.5873C49.4773 24.0474 49.1495 23.5568 48.7363 23.1436C48.3231 22.7304 47.8325 22.4026 47.2926 22.179C46.7527 21.9553 46.174 21.8402 45.5896 21.8402C44.4094 21.8402 43.2776 22.3091 42.443 23.1436C41.6085 23.9781 41.1396 25.11 41.1396 26.2902C41.1396 27.4704 41.6085 28.6023 42.443 29.4369C43.2776 30.2714 44.4094 30.7402 45.5896 30.7402C46.174 30.7402 46.7527 30.6251 47.2926 30.4015C47.8325 30.1779 48.3231 29.8501 48.7363 29.4369C49.1495 29.0236 49.4773 28.5331 49.7009 27.9932C49.9245 27.4533 50.0396 26.8746 50.0396 26.2902Z" fill="#22C55E"/>
<path d="M9.19051 26.2104C9.19051 25.0275 8.72062 23.8931 7.8842 23.0567C7.04779 22.2203 5.91337 21.7504 4.73051 21.7504C3.54764 21.7504 2.41322 22.2203 1.57681 23.0567C0.7404 23.8931 0.270508 25.0275 0.270508 26.2104C0.270508 27.3933 0.7404 28.5277 1.57681 29.3641C2.41322 30.2005 3.54764 30.6704 4.73051 30.6704C5.91337 30.6704 7.04779 30.2005 7.8842 29.3641C8.72062 28.5277 9.19051 27.3933 9.19051 26.2104Z" fill="#22C55E"/>
<path d="M68.89 26.2504C68.89 25.2876 68.5076 24.3643 67.8268 23.6836C67.146 23.0028 66.2227 22.6204 65.26 22.6204C64.2973 22.6204 63.374 23.0028 62.6932 23.6836C62.0124 24.3643 61.63 25.2876 61.63 26.2504C61.63 27.2131 62.0124 28.1364 62.6932 28.8172C63.374 29.4979 64.2973 29.8804 65.26 29.8804C66.2227 29.8804 67.146 29.4979 67.8268 28.8172C68.5076 28.1364 68.89 27.2131 68.89 26.2504Z" fill="#22C55E"/>
<path d="M9.1602 6.77C9.1602 6.18167 9.04431 5.59912 8.81917 5.05558C8.59403 4.51204 8.26404 4.01816 7.84803 3.60216C7.43203 3.18615 6.93816 2.85616 6.39462 2.63102C5.85108 2.40588 5.26852 2.29 4.68019 2.29C4.09187 2.29 3.50931 2.40588 2.96577 2.63102C2.42223 2.85616 1.92836 3.18615 1.51236 3.60216C1.09635 4.01816 0.766355 4.51204 0.541214 5.05558C0.316073 5.59912 0.200195 6.18167 0.200195 6.77C0.200195 7.95817 0.672195 9.09767 1.51236 9.93784C2.35252 10.778 3.49203 11.25 4.68019 11.25C5.86836 11.25 7.00787 10.778 7.84803 9.93784C8.6882 9.09767 9.1602 7.95817 9.1602 6.77Z" fill="#22C55E"/>
<path d="M29.68 6.74059C29.68 5.51794 29.1943 4.34537 28.3297 3.48083C27.4652 2.61628 26.2926 2.13058 25.07 2.13058C23.8473 2.13058 22.6747 2.61628 21.8102 3.48083C20.9457 4.34537 20.46 5.51794 20.46 6.74059C20.46 7.96323 20.9457 9.13581 21.8102 10.0004C22.6747 10.8649 23.8473 11.3506 25.07 11.3506C26.2926 11.3506 27.4652 10.8649 28.3297 10.0004C29.1943 9.13581 29.68 7.96323 29.68 6.74059Z" fill="#001133"/>
<path d="M50.1203 6.74015C50.1203 6.15971 50.0059 5.58495 49.7838 5.04869C49.5617 4.51244 49.2361 4.02518 48.8257 3.61474C48.4152 3.20431 47.928 2.87873 47.3917 2.6566C46.8555 2.43448 46.2807 2.32016 45.7003 2.32016C45.1198 2.32016 44.5451 2.43448 44.0088 2.6566C43.4726 2.87873 42.9853 3.20431 42.5749 3.61474C42.1644 4.02518 41.8388 4.51244 41.6167 5.04869C41.3946 5.58495 41.2803 6.15971 41.2803 6.74015C41.2803 7.91241 41.7459 9.03666 42.5749 9.86557C43.4038 10.6945 44.528 11.1602 45.7003 11.1602C46.2807 11.1602 46.8555 11.0458 47.3917 10.8237C47.928 10.6016 48.4152 10.276 48.8257 9.86557C49.2361 9.45513 49.5617 8.96787 49.7838 8.43161C50.0059 7.89535 50.1203 7.3206 50.1203 6.74015Z" fill="#22C55E"/>
</g>
<defs>
<clipPath id="clip0_11_3607">
<rect width="79" height="190" fill="white" transform="matrix(1 0 0 -1 0 190)"/>
</clipPath>
</defs>
</svg>
