<svg width="76" height="190" viewBox="0 0 76 190" fill="none" xmlns="http://www.w3.org/2000/svg">
<g clip-path="url(#clip0_10_67)">
<path d="M45.8601 6.11056C45.8601 4.87465 46.351 3.68936 47.225 2.81544C48.0989 1.94152 49.2842 1.45056 50.5201 1.45056C51.132 1.45056 51.738 1.5711 52.3034 1.80528C52.8688 2.03947 53.3825 2.38272 53.8152 2.81544C54.2479 3.24816 54.5912 3.76188 54.8254 4.32726C55.0596 4.89263 55.1801 5.4986 55.1801 6.11056C55.1801 6.72252 55.0596 7.32848 54.8254 7.89386C54.5912 8.45924 54.2479 8.97296 53.8152 9.40568C53.3825 9.8384 52.8688 10.1817 52.3034 10.4158C51.738 10.65 51.132 10.7706 50.5201 10.7706C49.9081 10.7706 49.3022 10.65 48.7368 10.4158C48.1714 10.1817 47.6577 9.8384 47.225 9.40568C46.7922 8.97296 46.449 8.45924 46.2148 7.89386C45.9806 7.32848 45.8601 6.72252 45.8601 6.11056Z" stroke="#171717" stroke-width="0.5"/>
<path d="M66.4696 6.20082C66.4696 5.01 66.9427 3.86795 67.7847 3.02591C68.6267 2.18387 69.7688 1.71082 70.9596 1.71082C72.1504 1.71082 73.2925 2.18387 74.1345 3.02591C74.9766 3.86795 75.4496 5.01 75.4496 6.20082C75.4496 6.79046 75.3335 7.37432 75.1078 7.91907C74.8822 8.46382 74.5515 8.95879 74.1345 9.37572C73.7176 9.79266 73.2226 10.1234 72.6779 10.349C72.1331 10.5747 71.5493 10.6908 70.9596 10.6908C70.37 10.6908 69.7861 10.5747 69.2414 10.349C68.6966 10.1234 68.2016 9.79266 67.7847 9.37572C67.3678 8.95879 67.037 8.46382 66.8114 7.91907C66.5858 7.37432 66.4696 6.79046 66.4696 6.20082Z" stroke="#E0AC00" stroke-width="0.5"/>
<path d="M45.7893 25.8408C45.7893 24.6022 46.2813 23.4144 47.1571 22.5386C48.0329 21.6628 49.2207 21.1708 50.4593 21.1708C51.6979 21.1708 52.8857 21.6628 53.7615 22.5386C54.6373 23.4144 55.1293 24.6022 55.1293 25.8408C55.1293 26.4541 55.0085 27.0613 54.7738 27.6279C54.5391 28.1945 54.1951 28.7093 53.7615 29.143C53.3278 29.5766 52.813 29.9206 52.2464 30.1553C51.6798 30.39 51.0726 30.5108 50.4593 30.5108C49.846 30.5108 49.2388 30.39 48.6722 30.1553C48.1056 29.9206 47.5908 29.5766 47.1571 29.143C46.7235 28.7093 46.3795 28.1945 46.1448 27.6279C45.9101 27.0613 45.7893 26.4541 45.7893 25.8408Z" stroke="#171717" stroke-width="0.5"/>
<path d="M66.4502 25.8404C66.4502 25.2455 66.5673 24.6565 66.795 24.1069C67.0226 23.5573 67.3563 23.0579 67.777 22.6372C68.1976 22.2166 68.697 21.8829 69.2466 21.6553C69.7962 21.4276 70.3853 21.3104 70.9802 21.3104C71.5751 21.3104 72.1641 21.4276 72.7137 21.6553C73.2633 21.8829 73.7627 22.2166 74.1834 22.6372C74.604 23.0579 74.9377 23.5573 75.1653 24.1069C75.393 24.6565 75.5102 25.2455 75.5102 25.8404C75.5102 27.0419 75.0329 28.1941 74.1834 29.0436C73.3338 29.8931 72.1816 30.3704 70.9802 30.3704C69.7787 30.3704 68.6265 29.8931 67.777 29.0436C66.9274 28.1941 66.4502 27.0419 66.4502 25.8404Z" stroke="#E0AC00" stroke-width="0.5"/>
<path d="M66.3298 45.7107C66.3298 44.4748 66.8208 43.2895 67.6947 42.4155C68.5686 41.5416 69.7539 41.0507 70.9898 41.0507C72.2257 41.0507 73.411 41.5416 74.2849 42.4155C75.1588 43.2895 75.6498 44.4748 75.6498 45.7107C75.6498 46.9466 75.1588 48.1319 74.2849 49.0058C73.411 49.8797 72.2257 50.3707 70.9898 50.3707C69.7539 50.3707 68.5686 49.8797 67.6947 49.0058C66.8208 48.1319 66.3298 46.9466 66.3298 45.7107Z" stroke="#171717" stroke-width="0.5"/>
<path d="M45.8802 45.7104C45.8802 44.4665 46.3743 43.2736 47.2538 42.3941C48.1334 41.5145 49.3263 41.0204 50.5702 41.0204C51.814 41.0204 53.0069 41.5145 53.8865 42.3941C54.766 43.2736 55.2602 44.4665 55.2602 45.7104C55.2602 46.9543 54.766 48.1472 53.8865 49.0267C53.0069 49.9063 51.814 50.4004 50.5702 50.4004C49.3263 50.4004 48.1334 49.9063 47.2538 49.0267C46.3743 48.1472 45.8802 46.9543 45.8802 45.7104Z" stroke="#171717" stroke-width="0.5"/>
<path d="M45.8601 6.11056C45.8601 6.72252 45.9806 7.32848 46.2148 7.89386C46.449 8.45924 46.7922 8.97296 47.225 9.40568C47.6577 9.8384 48.1714 10.1817 48.7368 10.4158C49.3022 10.65 49.9081 10.7706 50.5201 10.7706C51.132 10.7706 51.738 10.65 52.3034 10.4158C52.8688 10.1817 53.3825 9.8384 53.8152 9.40568C54.2479 8.97296 54.5912 8.45924 54.8254 7.89386C55.0596 7.32848 55.1801 6.72252 55.1801 6.11056C55.1801 5.4986 55.0596 4.89263 54.8254 4.32726C54.5912 3.76188 54.2479 3.24816 53.8152 2.81544C53.3825 2.38272 52.8688 2.03947 52.3034 1.80528C51.738 1.5711 51.132 1.45056 50.5201 1.45056C49.2842 1.45056 48.0989 1.94152 47.225 2.81544C46.351 3.68936 45.8601 4.87465 45.8601 6.11056Z" fill="#171717"/>
<path d="M66.4696 6.20082C66.4696 6.79046 66.5858 7.37432 66.8114 7.91907C67.037 8.46382 67.3678 8.95879 67.7847 9.37572C68.2016 9.79266 68.6966 10.1234 69.2414 10.349C69.7861 10.5747 70.37 10.6908 70.9596 10.6908C71.5493 10.6908 72.1331 10.5747 72.6779 10.349C73.2226 10.1234 73.7176 9.79266 74.1345 9.37572C74.5515 8.95879 74.8822 8.46382 75.1078 7.91907C75.3335 7.37432 75.4496 6.79046 75.4496 6.20082C75.4496 5.01 74.9766 3.86795 74.1345 3.02591C73.2925 2.18387 72.1504 1.71082 70.9596 1.71082C69.7688 1.71082 68.6267 2.18387 67.7847 3.02591C66.9427 3.86795 66.4696 5.01 66.4696 6.20082Z" fill="#E0AC00"/>
<path d="M26 25.41C26 25.9891 26.1141 26.5626 26.3357 27.0976C26.5573 27.6327 26.8822 28.1188 27.2917 28.5283C27.7012 28.9378 28.1873 29.2627 28.7224 29.4843C29.2574 29.7059 29.8309 29.82 30.41 29.82C31.5796 29.82 32.7013 29.3554 33.5284 28.5283C34.3554 27.7013 34.82 26.5796 34.82 25.41C34.82 24.2404 34.3554 23.1187 33.5284 22.2917C32.7013 21.4646 31.5796 21 30.41 21C29.8309 21 29.2574 21.1141 28.7224 21.3357C28.1873 21.5573 27.7012 21.8822 27.2917 22.2917C26.8822 22.7012 26.5573 23.1873 26.3357 23.7224C26.1141 24.2574 26 24.8309 26 25.41Z" fill="#E0AC00"/>
<path d="M6.00002 45.63C6.00002 46.5927 6.38246 47.516 7.06322 48.1968C7.74397 48.8776 8.66728 49.26 9.63001 49.26C10.1067 49.26 10.5787 49.1661 11.0192 48.9837C11.4596 48.8013 11.8597 48.5339 12.1968 48.1968C12.5339 47.8597 12.8013 47.4596 12.9837 47.0191C13.1661 46.5787 13.26 46.1067 13.26 45.63C13.26 45.1533 13.1661 44.6813 12.9837 44.2409C12.8013 43.8004 12.5339 43.4003 12.1968 43.0632C11.8597 42.7261 11.4596 42.4587 11.0192 42.2763C10.5787 42.0939 10.1067 42 9.63001 42C8.66728 42 7.74397 42.3824 7.06322 43.0632C6.38246 43.744 6.00002 44.6673 6.00002 45.63Z" fill="#E0AC00"/>
<path d="M45.7893 25.8408C45.7893 26.4541 45.9101 27.0613 46.1448 27.6279C46.3795 28.1945 46.7235 28.7093 47.1571 29.143C47.5908 29.5766 48.1056 29.9206 48.6722 30.1553C49.2388 30.39 49.846 30.5108 50.4593 30.5108C51.0726 30.5108 51.6798 30.39 52.2464 30.1553C52.813 29.9206 53.3278 29.5766 53.7615 29.143C54.1951 28.7093 54.5391 28.1945 54.7738 27.6279C55.0085 27.0613 55.1293 26.4541 55.1293 25.8408C55.1293 24.6022 54.6373 23.4144 53.7615 22.5386C52.8857 21.6628 51.6979 21.1708 50.4593 21.1708C49.2207 21.1708 48.0329 21.6628 47.1571 22.5386C46.2813 23.4144 45.7893 24.6022 45.7893 25.8408Z" fill="#171717"/>
<path d="M25 45.57C25 46.782 25.4815 47.9444 26.3385 48.8015C27.1956 49.6585 28.358 50.14 29.57 50.14C30.7821 50.14 31.9445 49.6585 32.8015 48.8015C33.6585 47.9444 34.14 46.782 34.14 45.57C34.14 44.358 33.6585 43.1956 32.8015 42.3385C31.9445 41.4815 30.7821 41 29.57 41C28.358 41 27.1956 41.4815 26.3385 42.3385C25.4815 43.1956 25 44.358 25 45.57Z" fill="#171717"/>
<path d="M66.4502 25.8404C66.4502 27.0419 66.9274 28.1941 67.777 29.0436C68.6265 29.8931 69.7787 30.3704 70.9802 30.3704C72.1816 30.3704 73.3338 29.8931 74.1834 29.0436C75.0329 28.1941 75.5102 27.0419 75.5102 25.8404C75.5102 25.2455 75.393 24.6565 75.1653 24.1069C74.9377 23.5573 74.604 23.0579 74.1834 22.6372C73.7627 22.2166 73.2633 21.8829 72.7137 21.6553C72.1641 21.4276 71.5751 21.3104 70.9802 21.3104C70.3853 21.3104 69.7962 21.4276 69.2466 21.6553C68.697 21.8829 68.1976 22.2166 67.777 22.6372C67.3563 23.0579 67.0226 23.5573 66.795 24.1069C66.5673 24.6565 66.4502 25.2455 66.4502 25.8404Z" fill="#E0AC00"/>
<path d="M66.3298 45.7107C66.3298 46.9466 66.8208 48.1319 67.6947 49.0058C68.5686 49.8797 69.7539 50.3707 70.9898 50.3707C72.2257 50.3707 73.411 49.8797 74.2849 49.0058C75.1588 48.1319 75.6498 46.9466 75.6498 45.7107C75.6498 44.4748 75.1588 43.2895 74.2849 42.4155C73.411 41.5416 72.2257 41.0507 70.9898 41.0507C69.7539 41.0507 68.5686 41.5416 67.6947 42.4155C66.8208 43.2895 66.3298 44.4748 66.3298 45.7107Z" fill="#171717"/>
<path d="M45.8802 45.7104C45.8802 46.9543 46.3743 48.1472 47.2538 49.0267C48.1334 49.9063 49.3263 50.4004 50.5702 50.4004C51.814 50.4004 53.0069 49.9063 53.8865 49.0267C54.766 48.1472 55.2602 46.9543 55.2602 45.7104C55.2602 44.4665 54.766 43.2736 53.8865 42.3941C53.0069 41.5145 51.814 41.0204 50.5702 41.0204C49.3263 41.0204 48.1334 41.5145 47.2538 42.3941C46.3743 43.2736 45.8802 44.4665 45.8802 45.7104Z" fill="#171717"/>
<path d="M66.3098 67.0504C66.3098 66.4397 66.43 65.8351 66.6637 65.2709C66.8974 64.7068 67.2399 64.1941 67.6717 63.7623C68.1035 63.3306 68.6161 62.988 69.1803 62.7544C69.7445 62.5207 70.3491 62.4004 70.9598 62.4004C72.193 62.4004 73.3758 62.8903 74.2478 63.7623C75.1199 64.6344 75.6098 65.8171 75.6098 67.0504C75.6098 68.2836 75.1199 69.4664 74.2478 70.3384C73.3758 71.2105 72.193 71.7004 70.9598 71.7004C70.3491 71.7004 69.7445 71.5801 69.1803 71.3464C68.6161 71.1127 68.1035 70.7702 67.6717 70.3384C67.2399 69.9066 66.8974 69.394 66.6637 68.8299C66.43 68.2657 66.3098 67.661 66.3098 67.0504Z" stroke="#171717" stroke-width="0.5"/>
<path d="M46.0297 67.0903C46.0297 65.8969 46.5038 64.7523 47.3477 63.9084C48.1916 63.0644 49.3362 62.5903 50.5297 62.5903C51.7232 62.5903 52.8678 63.0644 53.7117 63.9084C54.5556 64.7523 55.0297 65.8969 55.0297 67.0903C55.0297 68.2838 54.5556 69.4284 53.7117 70.2723C52.8678 71.1162 51.7232 71.5903 50.5297 71.5903C49.3362 71.5903 48.1916 71.1162 47.3477 70.2723C46.5038 69.4284 46.0297 68.2838 46.0297 67.0903Z" stroke="#E0AC00" stroke-width="0.5"/>
<path d="M25.5097 67.0501C25.5097 65.8592 25.9827 64.7172 26.8247 63.8752C27.6668 63.0331 28.8088 62.5601 29.9996 62.5601C30.5893 62.5601 31.1732 62.6762 31.7179 62.9018C32.2627 63.1275 32.7576 63.4582 33.1746 63.8752C33.5915 64.2921 33.9222 64.7871 34.1479 65.3318C34.3735 65.8766 34.4897 66.4604 34.4897 67.0501C34.4897 67.6397 34.3735 68.2236 34.1479 68.7683C33.9222 69.3131 33.5915 69.808 33.1746 70.225C32.7576 70.6419 32.2627 70.9726 31.7179 71.1983C31.1732 71.4239 30.5893 71.5401 29.9996 71.5401C28.8088 71.5401 27.6668 71.067 26.8247 70.225C25.9827 69.3829 25.5097 68.2409 25.5097 67.0501Z" stroke="#E0AC00" stroke-width="0.5"/>
<path d="M46.22 86.6607C46.22 85.4778 46.6899 84.3434 47.5263 83.507C48.3628 82.6706 49.4972 82.2007 50.68 82.2007C51.8629 82.2007 52.9973 82.6706 53.8337 83.507C54.6702 84.3434 55.14 85.4778 55.14 86.6607C55.14 87.8436 54.6702 88.978 53.8337 89.8144C52.9973 90.6508 51.8629 91.1207 50.68 91.1207C49.4972 91.1207 48.3628 90.6508 47.5263 89.8144C46.6899 88.978 46.22 87.8436 46.22 86.6607Z" stroke="#E0AC00" stroke-width="0.5"/>
<path d="M25.6102 86.6604C25.6102 86.0761 25.7253 85.4974 25.9489 84.9575C26.1725 84.4176 26.5003 83.927 26.9135 83.5138C27.3268 83.1006 27.8173 82.7728 28.3572 82.5492C28.8971 82.3255 29.4758 82.2104 30.0602 82.2104C31.2404 82.2104 32.3723 82.6793 33.2068 83.5138C34.0413 84.3484 34.5102 85.4802 34.5102 86.6604C34.5102 87.8407 34.0413 88.9725 33.2068 89.8071C32.3723 90.6416 31.2404 91.1104 30.0602 91.1104C29.4758 91.1104 28.8971 90.9953 28.3572 90.7717C27.8173 90.5481 27.3268 90.2203 26.9135 89.8071C26.5003 89.3939 26.1725 88.9033 25.9489 88.3634C25.7253 87.8235 25.6102 87.2448 25.6102 86.6604Z" stroke="#E0AC00" stroke-width="0.5"/>
<path d="M66.4593 86.7403C66.4593 85.5574 66.9292 84.423 67.7656 83.5866C68.602 82.7502 69.7364 82.2803 70.9193 82.2803C72.1022 82.2803 73.2366 82.7502 74.073 83.5866C74.9094 84.423 75.3793 85.5574 75.3793 86.7403C75.3793 87.9231 74.9094 89.0576 74.073 89.894C73.2366 90.7304 72.1022 91.2003 70.9193 91.2003C69.7364 91.2003 68.602 90.7304 67.7656 89.894C66.9292 89.0576 66.4593 87.9231 66.4593 86.7403Z" stroke="#E0AC00" stroke-width="0.5"/>
<path d="M6.7598 86.7003C6.7598 85.7376 7.14225 84.8143 7.82301 84.1335C8.50376 83.4528 9.42707 83.0703 10.3898 83.0703C11.3525 83.0703 12.2758 83.4528 12.9566 84.1335C13.6374 84.8143 14.0198 85.7376 14.0198 86.7003C14.0198 87.663 13.6374 88.5864 12.9566 89.2671C12.2758 89.9479 11.3525 90.3303 10.3898 90.3303C9.42707 90.3303 8.50376 89.9479 7.82301 89.2671C7.14225 88.5864 6.7598 87.663 6.7598 86.7003Z" stroke="#E0AC00" stroke-width="0.5"/>
<path d="M66.4896 106.181C66.4896 104.993 66.9616 103.853 67.8018 103.013C68.6419 102.173 69.7814 101.701 70.9696 101.701C72.1578 101.701 73.2973 102.173 74.1375 103.013C74.9776 103.853 75.4496 104.993 75.4496 106.181C75.4496 106.769 75.3337 107.352 75.1086 107.895C74.8835 108.439 74.5535 108.933 74.1375 109.349C73.7214 109.765 73.2276 110.095 72.684 110.32C72.1405 110.545 71.5579 110.661 70.9696 110.661C70.3813 110.661 69.7987 110.545 69.2552 110.32C68.7117 110.095 68.2178 109.765 67.8018 109.349C67.3858 108.933 67.0558 108.439 66.8306 107.895C66.6055 107.352 66.4896 106.769 66.4896 106.181Z" stroke="#E0AC00" stroke-width="0.5"/>
<path d="M45.9698 106.21C45.9698 104.987 46.4555 103.815 47.3201 102.95C48.1846 102.086 49.3572 101.6 50.5798 101.6C51.8025 101.6 52.9751 102.086 53.8396 102.95C54.7042 103.815 55.1898 104.987 55.1898 106.21C55.1898 107.433 54.7042 108.605 53.8396 109.47C52.9751 110.334 51.8025 110.82 50.5798 110.82C49.3572 110.82 48.1846 110.334 47.3201 109.47C46.4555 108.605 45.9698 107.433 45.9698 106.21Z" stroke="#171717" stroke-width="0.5"/>
<path d="M25.5295 106.211C25.5295 105.63 25.6439 105.055 25.866 104.519C26.0881 103.983 26.4137 103.496 26.8241 103.085C27.2346 102.675 27.7218 102.349 28.2581 102.127C28.7943 101.905 29.3691 101.791 29.9495 101.791C31.1218 101.791 32.246 102.256 33.075 103.085C33.9039 103.914 34.3695 105.038 34.3695 106.211C34.3695 106.791 34.2552 107.366 34.0331 107.902C33.811 108.438 33.4854 108.926 33.075 109.336C32.6645 109.746 32.1773 110.072 31.641 110.294C31.1047 110.516 30.53 110.631 29.9495 110.631C29.3691 110.631 28.7943 110.516 28.2581 110.294C27.7218 110.072 27.2346 109.746 26.8241 109.336C26.4137 108.926 26.0881 108.438 25.866 107.902C25.6439 107.366 25.5295 106.791 25.5295 106.211Z" stroke="#E0AC00" stroke-width="0.5"/>
<path d="M66.4501 125.861C66.4501 125.271 66.5662 124.687 66.7919 124.142C67.0175 123.598 67.3482 123.103 67.7652 122.686C68.1821 122.269 68.6771 121.938 69.2218 121.712C69.7666 121.487 70.3504 121.371 70.9401 121.371C71.5297 121.371 72.1136 121.487 72.6583 121.712C73.2031 121.938 73.6981 122.269 74.115 122.686C74.5319 123.103 74.8627 123.598 75.0883 124.142C75.3139 124.687 75.4301 125.271 75.4301 125.861C75.4301 127.051 74.957 128.193 74.115 129.036C73.273 129.878 72.1309 130.351 70.9401 130.351C69.7493 130.351 68.6072 129.878 67.7652 129.036C66.9231 128.193 66.4501 127.051 66.4501 125.861Z" stroke="#E0AC00" stroke-width="0.5"/>
<path d="M45.9298 125.89C45.9298 124.668 46.4155 123.495 47.28 122.631C48.1446 121.766 49.3172 121.28 50.5398 121.28C51.7625 121.28 52.935 121.766 53.7996 122.631C54.6641 123.495 55.1498 124.668 55.1498 125.89C55.1498 127.113 54.6641 128.285 53.7996 129.15C52.935 130.015 51.7625 130.5 50.5398 130.5C49.3172 130.5 48.1446 130.015 47.28 129.15C46.4155 128.285 45.9298 127.113 45.9298 125.89Z" stroke="#171717" stroke-width="0.5"/>
<path d="M25.5695 125.93C25.5695 124.763 26.0331 123.644 26.8583 122.819C27.6834 121.994 28.8026 121.53 29.9695 121.53C31.1365 121.53 32.2557 121.994 33.0808 122.819C33.906 123.644 34.3695 124.763 34.3695 125.93C34.3695 127.097 33.906 128.216 33.0808 129.042C32.2557 129.867 31.1365 130.33 29.9695 130.33C28.8026 130.33 27.6834 129.867 26.8583 129.042C26.0331 128.216 25.5695 127.097 25.5695 125.93Z" stroke="#E0AC00" stroke-width="0.5"/>
<path d="M45.8601 145.56C45.8601 144.324 46.351 143.139 47.225 142.265C48.0989 141.391 49.2842 140.9 50.5201 140.9C51.132 140.9 51.738 141.021 52.3034 141.255C52.8688 141.489 53.3825 141.833 53.8152 142.265C54.2479 142.698 54.5912 143.212 54.8254 143.777C55.0596 144.342 55.1801 144.948 55.1801 145.56C55.1801 146.172 55.0596 146.778 54.8254 147.344C54.5912 147.909 54.2479 148.423 53.8152 148.856C53.3825 149.288 52.8688 149.631 52.3034 149.866C51.738 150.1 51.132 150.22 50.5201 150.22C49.9081 150.22 49.3022 150.1 48.7368 149.866C48.1714 149.631 47.6577 149.288 47.225 148.856C46.7922 148.423 46.449 147.909 46.2148 147.344C45.9806 146.778 45.8601 146.172 45.8601 145.56Z" stroke="#171717" stroke-width="0.5"/>
<path d="M66.4696 145.651C66.4696 144.46 66.9427 143.318 67.7847 142.476C68.6267 141.634 69.7688 141.161 70.9596 141.161C72.1504 141.161 73.2925 141.634 74.1345 142.476C74.9766 143.318 75.4496 144.46 75.4496 145.651C75.4496 146.24 75.3335 146.824 75.1078 147.369C74.8822 147.914 74.5515 148.409 74.1345 148.826C73.7176 149.242 73.2226 149.573 72.6779 149.799C72.1331 150.025 71.5493 150.141 70.9596 150.141C70.37 150.141 69.7861 150.025 69.2414 149.799C68.6966 149.573 68.2016 149.242 67.7847 148.826C67.3678 148.409 67.037 147.914 66.8114 147.369C66.5858 146.824 66.4696 146.24 66.4696 145.651Z" stroke="#E0AC00" stroke-width="0.5"/>
<path d="M6.69939 145.23C6.69939 144.267 7.08183 143.344 7.76259 142.663C8.44335 141.983 9.36665 141.6 10.3294 141.6C10.8061 141.6 11.2781 141.694 11.7185 141.876C12.1589 142.059 12.5591 142.326 12.8962 142.663C13.2333 143 13.5006 143.401 13.6831 143.841C13.8655 144.281 13.9594 144.753 13.9594 145.23C13.9594 145.707 13.8655 146.179 13.6831 146.619C13.5006 147.06 13.2333 147.46 12.8962 147.797C12.5591 148.134 12.1589 148.401 11.7185 148.584C11.2781 148.766 10.8061 148.86 10.3294 148.86C9.36665 148.86 8.44335 148.478 7.76259 147.797C7.08183 147.116 6.69939 146.193 6.69939 145.23Z" stroke="#E0AC00" stroke-width="0.5"/>
<path d="M45.7893 165.291C45.7893 164.052 46.2813 162.864 47.1571 161.988C48.0329 161.113 49.2207 160.621 50.4593 160.621C51.6979 160.621 52.8857 161.113 53.7615 161.988C54.6373 162.864 55.1293 164.052 55.1293 165.291C55.1293 165.904 55.0085 166.511 54.7738 167.078C54.5391 167.644 54.1951 168.159 53.7615 168.593C53.3278 169.026 52.813 169.37 52.2464 169.605C51.6798 169.84 51.0726 169.961 50.4593 169.961C49.846 169.961 49.2388 169.84 48.6722 169.605C48.1056 169.37 47.5908 169.026 47.1571 168.593C46.7235 168.159 46.3795 167.644 46.1448 167.078C45.9101 166.511 45.7893 165.904 45.7893 165.291Z" stroke="#171717" stroke-width="0.5"/>
<path d="M66.4502 165.29C66.4502 164.695 66.5673 164.106 66.795 163.557C67.0226 163.007 67.3563 162.508 67.777 162.087C68.1976 161.666 68.697 161.333 69.2466 161.105C69.7962 160.877 70.3853 160.76 70.9802 160.76C71.5751 160.76 72.1641 160.877 72.7137 161.105C73.2633 161.333 73.7627 161.666 74.1834 162.087C74.604 162.508 74.9377 163.007 75.1653 163.557C75.393 164.106 75.5102 164.695 75.5102 165.29C75.5102 166.492 75.0329 167.644 74.1834 168.493C73.3338 169.343 72.1816 169.82 70.9802 169.82C69.7787 169.82 68.6265 169.343 67.777 168.493C66.9274 167.644 66.4502 166.492 66.4502 165.29Z" stroke="#E0AC00" stroke-width="0.5"/>
<path d="M66.3298 185.16C66.3298 183.925 66.8208 182.739 67.6947 181.865C68.5686 180.991 69.7539 180.5 70.9898 180.5C72.2257 180.5 73.411 180.991 74.2849 181.865C75.1588 182.739 75.6498 183.925 75.6498 185.16C75.6498 186.396 75.1588 187.582 74.2849 188.456C73.411 189.33 72.2257 189.82 70.9898 189.82C69.7539 189.82 68.5686 189.33 67.6947 188.456C66.8208 187.582 66.3298 186.396 66.3298 185.16Z" stroke="#171717" stroke-width="0.5"/>
<path d="M45.8802 185.16C45.8802 183.916 46.3743 182.723 47.2538 181.844C48.1334 180.964 49.3263 180.47 50.5702 180.47C51.814 180.47 53.0069 180.964 53.8865 181.844C54.766 182.723 55.2602 183.916 55.2602 185.16C55.2602 186.404 54.766 187.597 53.8865 188.477C53.0069 189.356 51.814 189.85 50.5702 189.85C49.3263 189.85 48.1334 189.356 47.2538 188.477C46.3743 187.597 45.8802 186.404 45.8802 185.16Z" stroke="#171717" stroke-width="0.5"/>
<path d="M66.3098 67.0504C66.3098 67.661 66.43 68.2657 66.6637 68.8299C66.8974 69.394 67.2399 69.9066 67.6717 70.3384C68.1035 70.7702 68.6161 71.1127 69.1803 71.3464C69.7445 71.5801 70.3491 71.7004 70.9598 71.7004C72.193 71.7004 73.3758 71.2105 74.2478 70.3384C75.1199 69.4664 75.6098 68.2836 75.6098 67.0504C75.6098 65.8171 75.1199 64.6344 74.2478 63.7623C73.3758 62.8903 72.193 62.4004 70.9598 62.4004C70.3491 62.4004 69.7445 62.5207 69.1803 62.7544C68.6161 62.988 68.1035 63.3306 67.6717 63.7623C67.2399 64.1941 66.8974 64.7068 66.6637 65.2709C66.43 65.8351 66.3098 66.4397 66.3098 67.0504Z" fill="#171717"/>
<path d="M46.0298 67.0903C46.0298 68.2838 46.5039 69.4284 47.3478 70.2723C48.1917 71.1162 49.3363 71.5903 50.5298 71.5903C51.7233 71.5903 52.8679 71.1162 53.7118 70.2723C54.5557 69.4284 55.0298 68.2838 55.0298 67.0903C55.0298 65.8969 54.5557 64.7523 53.7118 63.9084C52.8679 63.0644 51.7233 62.5903 50.5298 62.5903C49.3363 62.5903 48.1917 63.0644 47.3478 63.9084C46.5039 64.7523 46.0298 65.8969 46.0298 67.0903Z" fill="#E0AC00"/>
<path d="M25.5097 67.0501C25.5097 68.2409 25.9827 69.3829 26.8247 70.225C27.6668 71.067 28.8088 71.5401 29.9996 71.5401C30.5893 71.5401 31.1732 71.4239 31.7179 71.1983C32.2627 70.9726 32.7576 70.6419 33.1746 70.225C33.5915 69.808 33.9222 69.3131 34.1479 68.7683C34.3735 68.2236 34.4897 67.6397 34.4897 67.0501C34.4897 66.4604 34.3735 65.8766 34.1479 65.3318C33.9222 64.7871 33.5915 64.2921 33.1746 63.8752C32.7576 63.4582 32.2627 63.1275 31.7179 62.9018C31.1732 62.6762 30.5893 62.5601 29.9996 62.5601C28.8088 62.5601 27.6668 63.0331 26.8247 63.8752C25.9827 64.7172 25.5097 65.8592 25.5097 67.0501Z" fill="#E0AC00"/>
<path d="M46.22 86.6607C46.22 87.8436 46.6899 88.978 47.5263 89.8144C48.3628 90.6508 49.4972 91.1207 50.68 91.1207C51.8629 91.1207 52.9973 90.6508 53.8337 89.8144C54.6702 88.978 55.14 87.8436 55.14 86.6607C55.14 85.4778 54.6702 84.3434 53.8337 83.507C52.9973 82.6706 51.8629 82.2007 50.68 82.2007C49.4972 82.2007 48.3628 82.6706 47.5263 83.507C46.6899 84.3434 46.22 85.4778 46.22 86.6607Z" fill="#E0AC00"/>
<path d="M25.6102 86.6604C25.6102 87.2448 25.7253 87.8235 25.9489 88.3634C26.1725 88.9033 26.5003 89.3939 26.9135 89.8071C27.3268 90.2203 27.8173 90.5481 28.3572 90.7717C28.8971 90.9953 29.4758 91.1104 30.0602 91.1104C31.2404 91.1104 32.3723 90.6416 33.2068 89.8071C34.0413 88.9725 34.5102 87.8407 34.5102 86.6604C34.5102 85.4802 34.0413 84.3484 33.2068 83.5138C32.3723 82.6793 31.2404 82.2104 30.0602 82.2104C29.4758 82.2104 28.8971 82.3255 28.3572 82.5492C27.8173 82.7728 27.3268 83.1006 26.9135 83.5138C26.5003 83.927 26.1725 84.4176 25.9489 84.9575C25.7253 85.4974 25.6102 86.0761 25.6102 86.6604Z" fill="#E0AC00"/>
<path d="M66.4593 86.7403C66.4593 87.9231 66.9292 89.0576 67.7656 89.894C68.602 90.7304 69.7364 91.2003 70.9193 91.2003C72.1022 91.2003 73.2366 90.7304 74.073 89.894C74.9094 89.0576 75.3793 87.9231 75.3793 86.7403C75.3793 85.5574 74.9094 84.423 74.073 83.5866C73.2366 82.7502 72.1022 82.2803 70.9193 82.2803C69.7364 82.2803 68.602 82.7502 67.7656 83.5866C66.9292 84.423 66.4593 85.5574 66.4593 86.7403Z" fill="#E0AC00"/>
<path d="M6.7598 86.7003C6.7598 87.663 7.14225 88.5864 7.82301 89.2671C8.50376 89.9479 9.42707 90.3303 10.3898 90.3303C11.3525 90.3303 12.2758 89.9479 12.9566 89.2671C13.6374 88.5864 14.0198 87.663 14.0198 86.7003C14.0198 85.7376 13.6374 84.8143 12.9566 84.1335C12.2758 83.4528 11.3525 83.0703 10.3898 83.0703C9.42707 83.0703 8.50376 83.4528 7.82301 84.1335C7.14225 84.8143 6.7598 85.7376 6.7598 86.7003Z" fill="#E0AC00"/>
<path d="M66.4896 106.181C66.4896 106.769 66.6055 107.352 66.8306 107.895C67.0558 108.439 67.3858 108.933 67.8018 109.349C68.2178 109.765 68.7117 110.095 69.2552 110.32C69.7987 110.545 70.3813 110.661 70.9696 110.661C71.5579 110.661 72.1405 110.545 72.684 110.32C73.2276 110.095 73.7214 109.765 74.1375 109.349C74.5535 108.933 74.8835 108.439 75.1086 107.895C75.3337 107.352 75.4496 106.769 75.4496 106.181C75.4496 104.993 74.9776 103.853 74.1375 103.013C73.2973 102.173 72.1578 101.701 70.9696 101.701C69.7814 101.701 68.6419 102.173 67.8018 103.013C66.9616 103.853 66.4896 104.993 66.4896 106.181Z" fill="#E0AC00"/>
<path d="M45.9698 106.21C45.9698 107.433 46.4555 108.605 47.3201 109.47C48.1846 110.334 49.3572 110.82 50.5798 110.82C51.8025 110.82 52.9751 110.334 53.8396 109.47C54.7042 108.605 55.1898 107.433 55.1898 106.21C55.1898 104.987 54.7042 103.815 53.8396 102.95C52.9751 102.086 51.8025 101.6 50.5798 101.6C49.3572 101.6 48.1846 102.086 47.3201 102.95C46.4555 103.815 45.9698 104.987 45.9698 106.21Z" fill="#171717"/>
<path d="M25.5295 106.211C25.5295 106.791 25.6439 107.366 25.866 107.902C26.0881 108.438 26.4137 108.926 26.8241 109.336C27.2346 109.746 27.7218 110.072 28.2581 110.294C28.7943 110.516 29.3691 110.631 29.9495 110.631C30.53 110.631 31.1047 110.516 31.641 110.294C32.1773 110.072 32.6645 109.746 33.075 109.336C33.4854 108.926 33.811 108.438 34.0331 107.902C34.2552 107.366 34.3695 106.791 34.3695 106.211C34.3695 105.038 33.9039 103.914 33.075 103.085C32.246 102.256 31.1218 101.791 29.9495 101.791C29.3691 101.791 28.7943 101.905 28.2581 102.127C27.7218 102.349 27.2346 102.675 26.8241 103.085C26.4137 103.496 26.0881 103.983 25.866 104.519C25.6439 105.055 25.5295 105.63 25.5295 106.211Z" fill="#E0AC00"/>
<path d="M66.4501 125.861C66.4501 127.051 66.9231 128.193 67.7652 129.036C68.6072 129.878 69.7493 130.351 70.9401 130.351C72.1309 130.351 73.273 129.878 74.115 129.036C74.957 128.193 75.4301 127.051 75.4301 125.861C75.4301 125.271 75.3139 124.687 75.0883 124.142C74.8627 123.598 74.5319 123.103 74.115 122.686C73.6981 122.269 73.2031 121.938 72.6583 121.712C72.1136 121.487 71.5297 121.371 70.9401 121.371C70.3504 121.371 69.7666 121.487 69.2218 121.712C68.6771 121.938 68.1821 122.269 67.7652 122.686C67.3482 123.103 67.0175 123.598 66.7919 124.142C66.5662 124.687 66.4501 125.271 66.4501 125.861Z" fill="#E0AC00"/>
<path d="M45.9298 125.89C45.9298 127.113 46.4155 128.285 47.28 129.15C48.1446 130.015 49.3172 130.5 50.5398 130.5C51.7625 130.5 52.935 130.015 53.7996 129.15C54.6641 128.285 55.1498 127.113 55.1498 125.89C55.1498 124.668 54.6641 123.495 53.7996 122.631C52.935 121.766 51.7625 121.28 50.5398 121.28C49.3172 121.28 48.1446 121.766 47.28 122.631C46.4155 123.495 45.9298 124.668 45.9298 125.89Z" fill="#171717"/>
<path d="M25.5695 125.93C25.5695 127.097 26.0331 128.216 26.8583 129.042C27.6834 129.867 28.8026 130.33 29.9695 130.33C31.1365 130.33 32.2557 129.867 33.0808 129.042C33.906 128.216 34.3695 127.097 34.3695 125.93C34.3695 124.763 33.906 123.644 33.0808 122.819C32.2557 121.994 31.1365 121.53 29.9695 121.53C28.8026 121.53 27.6834 121.994 26.8583 122.819C26.0331 123.644 25.5695 124.763 25.5695 125.93Z" fill="#E0AC00"/>
<path d="M45.8601 145.56C45.8601 146.172 45.9806 146.778 46.2148 147.344C46.449 147.909 46.7922 148.423 47.225 148.856C47.6577 149.288 48.1714 149.631 48.7368 149.866C49.3022 150.1 49.9081 150.22 50.5201 150.22C51.132 150.22 51.738 150.1 52.3034 149.866C52.8688 149.631 53.3825 149.288 53.8152 148.856C54.2479 148.423 54.5912 147.909 54.8254 147.344C55.0596 146.778 55.1801 146.172 55.1801 145.56C55.1801 144.948 55.0596 144.342 54.8254 143.777C54.5912 143.212 54.2479 142.698 53.8152 142.265C53.3825 141.833 52.8688 141.489 52.3034 141.255C51.738 141.021 51.132 140.9 50.5201 140.9C49.2842 140.9 48.0989 141.391 47.225 142.265C46.351 143.139 45.8601 144.324 45.8601 145.56Z" fill="#171717"/>
<path d="M66.4696 145.651C66.4696 146.24 66.5858 146.824 66.8114 147.369C67.037 147.914 67.3678 148.409 67.7847 148.826C68.2016 149.242 68.6966 149.573 69.2414 149.799C69.7861 150.025 70.37 150.141 70.9596 150.141C71.5493 150.141 72.1331 150.025 72.6779 149.799C73.2226 149.573 73.7176 149.242 74.1345 148.826C74.5515 148.409 74.8822 147.914 75.1078 147.369C75.3335 146.824 75.4496 146.24 75.4496 145.651C75.4496 144.46 74.9766 143.318 74.1345 142.476C73.2925 141.634 72.1504 141.161 70.9596 141.161C69.7688 141.161 68.6267 141.634 67.7847 142.476C66.9427 143.318 66.4696 144.46 66.4696 145.651Z" fill="#E0AC00"/>
<path d="M25 165.41C25 165.989 25.1141 166.563 25.3357 167.098C25.5573 167.633 25.8822 168.119 26.2917 168.528C26.7012 168.938 27.1873 169.263 27.7224 169.484C28.2574 169.706 28.8309 169.82 29.41 169.82C30.5796 169.82 31.7013 169.355 32.5284 168.528C33.3554 167.701 33.82 166.58 33.82 165.41C33.82 164.24 33.3554 163.119 32.5284 162.292C31.7013 161.465 30.5796 161 29.41 161C28.8309 161 28.2574 161.114 27.7224 161.336C27.1873 161.557 26.7012 161.882 26.2917 162.292C25.8822 162.701 25.5573 163.187 25.3357 163.722C25.1141 164.257 25 164.831 25 165.41Z" fill="#E0AC00"/>
<path d="M6.69939 145.23C6.69939 146.193 7.08183 147.116 7.76259 147.797C8.44335 148.478 9.36665 148.86 10.3294 148.86C10.8061 148.86 11.2781 148.766 11.7185 148.584C12.1589 148.401 12.5591 148.134 12.8962 147.797C13.2333 147.46 13.5006 147.06 13.6831 146.619C13.8655 146.179 13.9594 145.707 13.9594 145.23C13.9594 144.753 13.8655 144.281 13.6831 143.841C13.5006 143.401 13.2333 143 12.8962 142.663C12.5591 142.326 12.1589 142.059 11.7185 141.876C11.2781 141.694 10.8061 141.6 10.3294 141.6C9.36665 141.6 8.44335 141.983 7.76259 142.663C7.08183 143.344 6.69939 144.267 6.69939 145.23Z" fill="#E0AC00"/>
<path d="M45.7893 165.291C45.7893 165.904 45.9101 166.511 46.1448 167.078C46.3795 167.644 46.7235 168.159 47.1571 168.593C47.5908 169.026 48.1056 169.37 48.6722 169.605C49.2388 169.84 49.846 169.961 50.4593 169.961C51.0726 169.961 51.6798 169.84 52.2464 169.605C52.813 169.37 53.3278 169.026 53.7615 168.593C54.1951 168.159 54.5391 167.644 54.7738 167.078C55.0085 166.511 55.1293 165.904 55.1293 165.291C55.1293 164.052 54.6373 162.864 53.7615 161.988C52.8857 161.113 51.6979 160.621 50.4593 160.621C49.2207 160.621 48.0329 161.113 47.1571 161.988C46.2813 162.864 45.7893 164.052 45.7893 165.291Z" fill="#171717"/>
<path d="M25 185.425C25 186.637 25.4815 187.799 26.3385 188.656C27.1956 189.514 28.358 189.995 29.57 189.995C30.7821 189.995 31.9445 189.514 32.8015 188.656C33.6585 187.799 34.14 186.637 34.14 185.425C34.14 184.213 33.6585 183.051 32.8015 182.194C31.9445 181.336 30.7821 180.855 29.57 180.855C28.358 180.855 27.1956 181.336 26.3385 182.194C25.4815 183.051 25 184.213 25 185.425Z" fill="#171717"/>
<path d="M66.4502 165.29C66.4502 166.492 66.9274 167.644 67.777 168.493C68.6265 169.343 69.7787 169.82 70.9802 169.82C72.1816 169.82 73.3338 169.343 74.1834 168.493C75.0329 167.644 75.5102 166.492 75.5102 165.29C75.5102 164.695 75.393 164.106 75.1653 163.557C74.9377 163.007 74.604 162.508 74.1834 162.087C73.7627 161.666 73.2633 161.333 72.7137 161.105C72.1641 160.877 71.5751 160.76 70.9802 160.76C70.3853 160.76 69.7962 160.877 69.2466 161.105C68.697 161.333 68.1976 161.666 67.777 162.087C67.3563 162.508 67.0226 163.007 66.795 163.557C66.5673 164.106 66.4502 164.695 66.4502 165.29Z" fill="#E0AC00"/>
<path d="M66.3298 185.16C66.3298 186.396 66.8208 187.582 67.6947 188.456C68.5686 189.33 69.7539 189.82 70.9898 189.82C72.2257 189.82 73.411 189.33 74.2849 188.456C75.1588 187.582 75.6498 186.396 75.6498 185.16C75.6498 183.925 75.1588 182.739 74.2849 181.865C73.411 180.991 72.2257 180.5 70.9898 180.5C69.7539 180.5 68.5686 180.991 67.6947 181.865C66.8208 182.739 66.3298 183.925 66.3298 185.16Z" fill="#171717"/>
<path d="M45.8802 185.16C45.8802 186.404 46.3743 187.597 47.2538 188.477C48.1334 189.356 49.3263 189.85 50.5702 189.85C51.814 189.85 53.0069 189.356 53.8865 188.477C54.766 187.597 55.2602 186.404 55.2602 185.16C55.2602 183.916 54.766 182.723 53.8865 181.844C53.0069 180.964 51.814 180.47 50.5702 180.47C49.3263 180.47 48.1334 180.964 47.2538 181.844C46.3743 182.723 45.8802 183.916 45.8802 185.16Z" fill="#171717"/>
</g>
<defs>
<clipPath id="clip0_10_67">
<rect width="75" height="190" fill="white" transform="translate(0.649811)"/>
</clipPath>
</defs>
</svg>
